<?xml version="1.0" encoding="utf-8"?>
<!-- Generator: Adobe Illustrator 19.2.1, SVG Export Plug-In . SVG Version: 6.00 Build 0)  -->
<svg version="1.1" id="Layer_1" xmlns="http://www.w3.org/2000/svg" xmlns:xlink="http://www.w3.org/1999/xlink" x="0px" y="0px"
	 width="757.35px" height="494px" viewBox="0 0 757.35 494" style="enable-background:new 0 0 757.35 494;" xml:space="preserve">
<g id="Base">
	<polyline id="Circulation" style="fill:#D3D3D3;stroke:#000000;stroke-miterlimit:10;" points="0.9,302.95 246.12,163.64 
		273.09,119.5 484.02,119.5 509.02,163.92 757.35,308.67 649.02,494 403.02,350.62 395.52,363.5 361.02,363.5 351.35,350 
		107.35,489.33 0.68,303 	"/>
	<rect id="Restroom" x="291.02" y="119.5" style="fill:#00CCCC;stroke:#000000;stroke-miterlimit:10;" width="75" height="69.83"/>
	<line style="fill:none;stroke:#000000;stroke-miterlimit:10;" x1="328.52" y1="119.5" x2="328.52" y2="189.33"/>
	<polygon style="fill:none;stroke:#000000;stroke-miterlimit:10;" points="191.02,336 347.02,244.5 363.52,271.5 206.04,362.33 	"/>
	<line style="fill:none;stroke:#000000;stroke-miterlimit:10;" x1="307.02" y1="267.96" x2="322.9" y2="294.93"/>
	<polygon style="fill:none;stroke:#000000;stroke-miterlimit:10;" points="411.02,241.5 560.52,330 543.52,361.17 393.02,272 	"/>
	<line style="fill:none;stroke:#000000;stroke-miterlimit:10;" x1="460.53" y1="312" x2="477.68" y2="280.96"/>
	<line style="fill:none;stroke:#000000;stroke-miterlimit:10;" x1="434.34" y1="296.48" x2="425.35" y2="313.67"/>
	<line style="fill:none;stroke:#000000;stroke-miterlimit:10;" x1="554.95" y1="340.21" x2="570.68" y2="349.67"/>
	<line style="fill:none;stroke:#000000;stroke-miterlimit:10;" x1="533.36" y1="376.53" x2="549.73" y2="385.84"/>
	<line style="fill:none;stroke:#000000;stroke-miterlimit:10;" x1="200.05" y1="385.77" x2="223.35" y2="373"/>
	<polyline style="fill:none;stroke:#000000;stroke-miterlimit:10;" points="276.77,215.25 290.52,206.33 290.52,120 273.09,119.5 
		246.02,163.67 276.77,215.25 	"/>
	<polygon style="fill:none;stroke:#000000;stroke-miterlimit:10;" points="290.02,206.5 326.02,206.5 336.02,225 295.52,247 
		276.77,215.25 	"/>
</g>
<g id="Rooms">
	<a id="R116" xlink:href="#" >
		<g><polygon id="R116" style="fill:#006699;stroke:#000000;stroke-miterlimit:10;" points="0.68,303 35.02,362.33 96.02,326.67 
		62.68,267 	"/></g>
	</a>
	<a id="R114" xlink:href="#" >
		<g><polygon id="R114" style="fill:#006699;stroke:#000000;stroke-miterlimit:10;" points="137.35,225 62.68,267 111.68,353 
		170.02,319.33 163.02,307.67 179.35,298 	"/></g>
	</a>
	<a id="R112" xlink:href="#" >
		<g><polygon id="R112" style="fill:#006699;stroke:#000000;stroke-miterlimit:10;" points="246.02,163.67 137.35,225 179.35,298 
		193.68,289 200.02,300 275.35,258 268.02,247 287.68,235.67 	"/></g>
	</a>
	<a id="R113" xlink:href="#" >
		<g><polygon id="R113" style="fill:#006699;stroke:#000000;stroke-miterlimit:10;" points="62.68,409.33 159.68,353 165.35,362.33 
		181.02,353 221.68,423 107.35,489.33 	"/></g>
	</a>
	<a id="R106" xlink:href="#" >
		<g><polygon id="R106" style="fill:#006699;stroke:#000000;stroke-miterlimit:10;" points="386.52,119.5 386.52,197.5 405.52,197.5 
		405.52,211 499.35,264.67 524.02,225 534.35,231.83 557.68,191.83 509.02,163.92 483.68,119.5 	"/></g>
	</a>
	<a id="R104" xlink:href="#" >
		<g><polygon id="R104" style="fill:#993333;stroke:#000000;stroke-miterlimit:10;" points="499.35,264.67 532.02,285 580.35,206.33 
		557.68,191.83 534.35,231.83 524.02,225 	"/></g>
	</a>
	<a id="R101" xlink:href="#" >
		<g><polygon id="R101" style="fill:#993333;stroke:#000000;stroke-miterlimit:10;" points="425.35,313.67 533.36,376.53 511.69,413.53 
		403.02,350.67 	"/></g>
	</a>
	<a id="R111" xlink:href="#" >
		<g><polygon id="R111" style="fill:#993333;stroke:#000000;stroke-miterlimit:10;" points="223.35,373 330.02,312 351.35,350 
		244.35,410.33 	"/></g>
	</a>
	<a id="R103" xlink:href="#" >
		<g><polygon id="R103" style="fill:#001A72;stroke:#000000;stroke-miterlimit:10;" points="570.68,349.67 585.68,358 591.35,348.33 
		697.68,410.33 649.02,494 528.02,423.33 	"/></g>
	</a>
	<a id="R102" xlink:href="#" >
		<g><polygon id="R102" style="fill:#001A72;stroke:#000000;stroke-miterlimit:10;" points="691.35,363.6 685.35,374 550.02,295 
		556.02,285 538.69,274.13 580.35,206.33 757.35,308.67 716.35,379 	"/></g>
	</a>
</g>
<g id="Labels">
	
		<text id="female2_1_" transform="matrix(1 0 0 1 300.683 163.6672)" style="fill:#FFFFFF; font-family:'FontAwesome'; font-size:25.7994px;"></text>
	
		<text id="male1_1_" transform="matrix(1 0 0 1 339.3241 163.6672)" style="fill:#FFFFFF; font-family:'FontAwesome'; font-size:25.7994px;"></text>
	<text id="title" transform="matrix(1 0 0 1 182.7825 21.4137)"><tspan x="0" y="0" style="font-family:'OptimaLTStd'; font-size:25.7994px;">Volunteer State Community College </tspan><tspan x="127.59" y="30.96" style="font-family:'OptimaLTStd'; font-size:25.7994px;">400 Building</tspan></text>
	<polyline id="swatch-blue" style="fill:#001A72;" points="194.98,94.09 194.98,71.97 217.09,71.97 217.09,94.09 	"/>
	<polyline id="swatch-pink" style="fill:#993333;" points="482.75,94.09 482.75,71.97 504.86,71.97 504.86,94.09 	"/>
	<text id="legend-study" transform="matrix(1 0 0 1 226.0847 88.254)" style="font-family:'OptimaLTStd'; font-size:16.5853px;">Lecture Halls</text>
	<text id="legend-offices" transform="matrix(1 0 0 1 511.2254 88.254)" style="font-family:'OptimaLTStd'; font-size:16.5853px;">Offices</text>
	<polyline id="swatch-pink_2_" style="fill:#006699;" points="349.86,94.09 349.86,71.97 371.97,71.97 371.97,94.09 	"/>
	<text id="legend-library" transform="matrix(1 0 0 1 378.1247 88.254)" style="font-family:'OptimaLTStd'; font-size:16.5853px;">Classrooms</text>
	<text transform="matrix(1 0 0 1 31.0162 322.0005)" style="fill:#FFFFFF; font-family:'MyriadPro-Regular'; font-size:21px;">116</text>
	<text transform="matrix(1 0 0 1 104.0162 292.6671)" style="fill:#FFFFFF; font-family:'MyriadPro-Regular'; font-size:21px;">114</text>
	<text transform="matrix(1 0 0 1 194.9805 241.5005)" style="fill:#FFFFFF; font-family:'MyriadPro-Regular'; font-size:21px;">112</text>
	<text transform="matrix(1 0 0 1 445.0161 189.3338)" style="fill:#FFFFFF; font-family:'MyriadPro-Regular'; font-size:21px;">106</text>
	<text transform="matrix(1 0 0 1 630.5162 301.3338)" style="fill:#FFFFFF; font-family:'MyriadPro-Regular'; font-size:21px;">102</text>
	<text transform="matrix(1 0 0 1 598.0162 426.5005)" style="fill:#FFFFFF; font-family:'MyriadPro-Regular'; font-size:21px;">103</text>
	<text transform="matrix(1 0 0 1 121.0162 429.0905)" style="fill:#FFFFFF; font-family:'MyriadPro-Regular'; font-size:21px;">113</text>
	<text transform="matrix(1 0 0 1 268.2661 369.0005)" style="fill:#FFFFFF; font-family:'MyriadPro-Regular'; font-size:21px;">111</text>
	<text transform="matrix(1 0 0 1 451.5161 369.0005)" style="fill:#FFFFFF; font-family:'MyriadPro-Regular'; font-size:21px;">101</text>
	<text transform="matrix(1 0 0 1 511.5161 261.5005)" style="fill:#FFFFFF; font-family:'MyriadPro-Regular'; font-size:21px;">104</text>
</g>
<g id="Doors">
	<line id="lcd.1" style="fill:none;stroke:#00FF00;stroke-miterlimit:10;" x1="349.86" y1="285" x2="363.52" y2="277"/>
	<line id="R116_1_" style="fill:none;stroke:#00FF00;stroke-miterlimit:10;" x1="81.52" y1="328" x2="74.02" y2="322"/>
	<line id="R114_1_" style="fill:none;stroke:#00FF00;stroke-miterlimit:10;" x1="163.02" y1="314.67" x2="152.02" y2="318.5"/>
	<line id="R112_1_" style="fill:none;stroke:#00FF00;stroke-miterlimit:10;" x1="200.52" y1="292.67" x2="204.02" y2="285"/>
	<line id="R106_1_" style="fill:none;stroke:#00FF00;stroke-miterlimit:10;" x1="410.02" y1="204" x2="418.68" y2="202.5"/>
	<line id="R113_1_" style="fill:none;stroke:#00FF00;stroke-miterlimit:10;" x1="174.52" y1="362.33" x2="174.52" y2="373"/>
	<line id="R111_1_" style="fill:none;stroke:#00FF00;stroke-miterlimit:10;" x1="287.68" y1="340" x2="287.35" y2="353"/>
	<line id="R101_1_" style="fill:none;stroke:#00FF00;stroke-miterlimit:10;" x1="476.77" y1="348.33" x2="476.77" y2="361.17"/>
	<line id="R104_1_" style="fill:none;stroke:#00FF00;stroke-miterlimit:10;" x1="517.52" y1="271" x2="521.52" y2="261.5"/>
	<line id="R102_1_" style="fill:none;stroke:#00FF00;stroke-miterlimit:10;" x1="552.02" y1="275.5" x2="566.02" y2="274.5"/>
	<line id="R103_1_" style="fill:none;stroke:#00FF00;stroke-miterlimit:10;" x1="576.02" y1="357.5" x2="576.02" y2="373"/>
</g>
<g id="Paths">
	<line style="fill:none;stroke:#FF00FF;stroke-miterlimit:10;" x1="349.86" y1="285" x2="354.02" y2="292.67"/>
	<line style="fill:none;stroke:#FF00FF;stroke-miterlimit:10;" x1="287.68" y1="340" x2="281.02" y2="329.5"/>
	<line style="fill:none;stroke:#FF00FF;stroke-miterlimit:10;" x1="354.02" y1="292.67" x2="281.02" y2="329.5"/>
	<line style="fill:none;stroke:#FF00FF;stroke-miterlimit:10;" x1="174.52" y1="362.33" x2="169.52" y2="334.75"/>
	<line style="fill:none;stroke:#FF00FF;stroke-miterlimit:10;" x1="163.02" y1="314.67" x2="179.35" y2="327.5"/>
	<line style="fill:none;stroke:#FF00FF;stroke-miterlimit:10;" x1="281.02" y1="329.5" x2="202.27" y2="373"/>
	<line style="fill:none;stroke:#FF00FF;stroke-miterlimit:10;" x1="179.35" y1="327.5" x2="202.27" y2="373"/>
	<line style="fill:none;stroke:#FF00FF;stroke-miterlimit:10;" x1="81.52" y1="328" x2="100.52" y2="367.67"/>
	<line style="fill:none;stroke:#FF00FF;stroke-miterlimit:10;" x1="100.52" y1="367.67" x2="169.52" y2="334.75"/>
	<line style="fill:none;stroke:#FF00FF;stroke-miterlimit:10;" x1="179.35" y1="327.5" x2="169.52" y2="334.75"/>
	<line style="fill:none;stroke:#FF00FF;stroke-miterlimit:10;" x1="200.52" y1="292.67" x2="187.52" y2="309"/>
	<line style="fill:none;stroke:#FF00FF;stroke-miterlimit:10;" x1="179.35" y1="327.5" x2="194.02" y2="321.08"/>
	<line style="fill:none;stroke:#FF00FF;stroke-miterlimit:10;" x1="187.52" y1="309" x2="194.02" y2="321.08"/>
	<line style="fill:none;stroke:#FF00FF;stroke-miterlimit:10;" x1="410.02" y1="204" x2="386.52" y2="210"/>
	<line style="fill:none;stroke:#FF00FF;stroke-miterlimit:10;" x1="354.02" y1="292.67" x2="386.52" y2="281"/>
	<line style="fill:none;stroke:#FF00FF;stroke-miterlimit:10;" x1="517.52" y1="271" x2="511.52" y2="286.83"/>
	<line style="fill:none;stroke:#FF00FF;stroke-miterlimit:10;" x1="552.02" y1="275.5" x2="539.85" y2="301.33"/>
	<line style="fill:none;stroke:#FF00FF;stroke-miterlimit:10;" x1="576.02" y1="357.5" x2="567.02" y2="321.08"/>
	<line style="fill:none;stroke:#FF00FF;stroke-miterlimit:10;" x1="539.85" y1="301.33" x2="567.02" y2="321.08"/>
	<line style="fill:none;stroke:#FF00FF;stroke-miterlimit:10;" x1="511.52" y1="286.83" x2="539.85" y2="301.33"/>
	<line style="fill:none;stroke:#FF00FF;stroke-miterlimit:10;" x1="398.27" y1="225" x2="511.52" y2="286.83"/>
	<line style="fill:none;stroke:#FF00FF;stroke-miterlimit:10;" x1="386.52" y1="281" x2="386.52" y2="226.75"/>
	<line style="fill:none;stroke:#FF00FF;stroke-miterlimit:10;" x1="386.52" y1="210" x2="386.52" y2="226.75"/>
	<line style="fill:none;stroke:#FF00FF;stroke-miterlimit:10;" x1="398.27" y1="225" x2="386.52" y2="226.75"/>
	<line style="fill:none;stroke:#FF00FF;stroke-miterlimit:10;" x1="476.77" y1="348.33" x2="476.77" y2="331.13"/>
	<line style="fill:none;stroke:#FF00FF;stroke-miterlimit:10;" x1="386.52" y1="281" x2="476.77" y2="331.13"/>
</g>
</svg>
