<?xml version="1.0" encoding="utf-8"?>
<!-- Generator: Adobe Illustrator 19.2.1, SVG Export Plug-In . SVG Version: 6.00 Build 0)  -->
<svg version="1.1" id="Layer_1" xmlns="http://www.w3.org/2000/svg" xmlns:xlink="http://www.w3.org/1999/xlink" x="0px" y="0px"
	 width="494px" height="682.16px" viewBox="0 0 494 682.16" style="enable-background:new 0 0 494 682.16;" xml:space="preserve">
<g id="Base">
	<polygon id="Circulation" style="fill:#D3D3D3;stroke:#000000;stroke-miterlimit:10;" points="493.48,102.17 493.48,188.17 
		479.75,188.17 478.5,466.17 493,466.17 493.5,681.15 0.5,681.66 1,533.17 16.48,533.17 16.48,509.17 1.48,509.17 1.48,417.17 
		279,417.17 279.25,190.17 252,190.17 252.5,102.17 	"/>
	<polygon id="Restrooms_2_" style="fill:#00CCCC;stroke:#000000;stroke-miterlimit:10;" points="309,496.17 277.5,496.17 
		278.5,413.17 363.48,413.17 363.48,496.17 333.48,496.17 333.48,480.64 309.49,480.75 	"/>
	<polyline style="fill:none;stroke:#000000;stroke-miterlimit:10;" points="70.98,490.17 1.48,490.17 1.48,509.17 70.98,509.17 	"/>
	<polygon style="fill:none;stroke:#000000;stroke-miterlimit:10;" points="77.48,533.17 1,533.17 1.05,551.17 95.48,551.17 
		95.48,533.17 87,533.17 86.75,540.17 77.48,540.17 	"/>
	<line style="fill:none;stroke:#000000;stroke-miterlimit:10;" x1="32" y1="533.14" x2="32" y2="551.14"/>
	<polygon style="fill:none;stroke:#000000;stroke-miterlimit:10;" points="173.48,552.17 173.48,533.64 107.48,533.14 
		107.48,552.17 	"/>
	<polyline style="fill:none;stroke:#000000;stroke-miterlimit:10;" points="277.48,495.67 277.48,509.64 207.99,510.15 
		208.99,417.17 276.98,417.17 	"/>
	<line style="fill:none;stroke:#000000;stroke-miterlimit:10;" x1="208" y1="497.64" x2="188.5" y2="497.89"/>
	<line style="fill:none;stroke:#000000;stroke-miterlimit:10;" x1="208.71" y1="443.89" x2="188.5" y2="443.64"/>
	<line style="fill:none;stroke:#000000;stroke-miterlimit:10;" x1="209" y1="417.14" x2="188.5" y2="417.14"/>
	<polygon style="fill:none;stroke:#000000;stroke-miterlimit:10;" points="344.48,618.17 344.48,649.17 320,649.17 320.11,618.17 	
		"/>
	<polygon style="fill:none;stroke:#000000;stroke-miterlimit:10;" points="344.48,681.17 344.48,649.17 321.27,649.17 
		321.44,681.17 	"/>
	<line style="fill:none;stroke:#000000;stroke-miterlimit:10;" x1="320.5" y1="413.14" x2="320.5" y2="480.74"/>
	<line style="fill:none;stroke:#000000;stroke-miterlimit:10;" x1="344.5" y1="664.89" x2="321.27" y2="664.89"/>
	<line style="fill:none;stroke:#000000;stroke-miterlimit:10;" x1="71" y1="509.14" x2="71" y2="490.14"/>
</g>
<g id="Rooms">
	<a id="R116" xlink:href="#" >
     <g><rect id="R116" x="412.48" y="102.17" style="fill:#006699;stroke:#000000;stroke-miterlimit:10;" width="81" height="86"/></g>
	</a>
	<a id="R137" xlink:href="#" >
     <g><path id="R137" style="fill:#006699;stroke:#000000;stroke-miterlimit:10;" d="M252,190.17h55l-0.17-88.35
		c0,0-54.58-0.41-54.83,0.34S252,190.17,252,190.17z"/></g>
	</a>
	<a id="R135" xlink:href="#" >
     <g><polygon id="R135" style="fill:#006699;stroke:#000000;stroke-miterlimit:10;" points="363.48,211.17 363.48,247.17 350.48,247.17 
		350.48,260.17 278.48,260.17 278.48,211.17 	"/></g>
	</a>
	<a id="R133" xlink:href="#" >
     <g><polygon id="R133" style="fill:#006699;stroke:#000000;stroke-miterlimit:10;" points="350.48,272.64 350.48,260.17 278.48,260.17 
		278.48,303.17 363,303.17 363.49,272.28 	"/></g>
	</a>
	<a id="R127" xlink:href="#" >
     <g><polygon id="R127" style="fill:#006699;stroke:#000000;stroke-miterlimit:10;" points="362.48,345.17 350.48,345.17 350.48,358.17 
		278.48,358.17 278.48,303.17 362.48,303.17 	"/></g>
	</a>
	<a id="R125" xlink:href="#" >
     <g><polygon id="R125" style="fill:#006699;stroke:#000000;stroke-miterlimit:10;" points="362.75,413.17 278.48,413.17 278.48,358.17 
		350.5,358.17 350.75,370.4 363.38,370.66 	"/></g>
	</a>
	<a id="R118" xlink:href="#" >
     <g><polygon id="R118" style="fill:#993333;stroke:#000000;stroke-miterlimit:10;" points="306.61,163.17 321.48,162.5 321.48,186.5 
		367.48,187.17 367.48,175.64 412.49,176.17 412.91,102.14 306.88,101.82 	"/></g>
	</a>
	<a id="R113" xlink:href="#" >
     <g><polygon id="R113" style="fill:#006699;stroke:#000000;stroke-miterlimit:10;" points="187.5,510.17 82.5,510.17 83.5,416.15 
		188.5,417.16 	"/></g>
	</a>
	<a id="R111" xlink:href="#" >
     <g><polygon id="R111" style="fill:#006699;stroke:#000000;stroke-miterlimit:10;" points="-0.52,490.17 83,490.17 83.5,416.17 
		-0.52,416.17 	"/></g>
	</a>
	<a id="R109" xlink:href="#" >
     <g><rect id="R109" y="490.17" style="fill:#993333;stroke:#000000;stroke-miterlimit:10;" width="70.98" height="19"/></g>
	</a>
	<a id="R108" xlink:href="#" >
     <g><polygon id="R108" style="fill:#006699;stroke:#000000;stroke-miterlimit:10;" points="479.48,350.64 478.6,443.77 
		466.48,443.17 466.48,466.17 388,466.17 388.5,364.9 399.62,365.13 399.49,351.14 	"/></g>
	</a>
	<a id="R107" xlink:href="#" >
     <g><rect id="R107" x="1" y="533.17" style="fill:#993333;stroke:#000000;stroke-miterlimit:10;" width="31" height="17.97"/></g>
	</a>
	<a id="R106" xlink:href="#" >
     <g><polygon id="R106" style="fill:#006699;stroke:#000000;stroke-miterlimit:10;" points="492.48,466.17 492.48,522.17 400.48,522.17 
		400.48,510.17 387.48,510.17 387.48,466.17 	"/></g>
	</a>
	<a id="R105" xlink:href="#" >
     <g><polyline id="R105" style="fill:#006699;stroke:#000000;stroke-miterlimit:10;" points="0.5,681.67 0.91,551.17 107.36,551.17 
		106.5,681.68 	"/></g>
	</a>
	<a id="R104" xlink:href="#" >
     <g><polygon id="R104" style="fill:#006699;stroke:#000000;stroke-miterlimit:10;" points="387.48,612.64 387.48,533.17 400.63,533.17 
		400.5,522.17 492.48,522.17 492.48,624.14 399.49,623.64 399.62,612.4 	"/></g>
	</a>
	<a id="R110" xlink:href="#" >
     <g><polygon id="R110" style="fill:#993333;stroke:#000000;stroke-miterlimit:10;" points="479.48,350.63 399.48,351.14 399.48,339.17 
		388,339.17 388.5,316.17 479.48,316.15 	"/></g>
	</a>
	<a id="R103" xlink:href="#" >
     <g><polygon id="R103" style="fill:#006699;stroke:#000000;stroke-miterlimit:10;" points="106.5,681.17 186,681.17 186.5,551.17 
		107.5,551.17 	"/></g>
	</a>
	<a id="R102" xlink:href="#" >
     <g><polygon id="R102" style="fill:#006699;stroke:#000000;stroke-miterlimit:10;" points="387.48,681.17 387.48,636.17 399.48,636.17 
		399.48,623.64 492.48,624.14 492.48,681.17 	"/></g>
	</a>
	<a id="R101" xlink:href="#" >
     <g><polygon id="R101" style="fill:#993333;stroke:#000000;stroke-miterlimit:10;" points="345.48,533.17 345.48,600.17 321,600.17 
		321.44,681.17 186.48,681.17 186.48,533.17 	"/></g>
	</a>
	<a id="R114" xlink:href="#" >
     <g><polygon id="R114" style="fill:#006699;stroke:#000000;stroke-miterlimit:10;" points="393.98,188.17 480.98,188.17 480.25,273.67 
		399.48,273.64 399.48,255.67 388.48,255.17 388.48,200.67 394.48,200.17 	"/></g>
	</a>
	<a id="R112" xlink:href="#" >
     <g><polygon id="R112" style="fill:#993333;stroke:#000000;stroke-miterlimit:10;" points="399.48,274.17 399.48,284.67 
		388.48,285.14 388.5,316.17 479.48,316.15 480.25,274.17 	"/></g>
	</a>
</g>
<g id="Labels">
	<text id="title" transform="matrix(1 0 0 1 63.4849 21.4134)"><tspan x="0" y="0" style="font-family:'OptimaLTStd'; font-size:25.7994px;">Volunteer State Community College </tspan><tspan x="110.4" y="30.96" style="font-family:'OptimaLTStd'; font-size:25.7994px;">Mattox Building</tspan></text>
	<rect id="swatch-blue" x="135.68" y="69.97" style="fill:#006699;" width="22.11" height="22.11"/>
	<rect id="swatch-pink" x="289.45" y="69.97" style="fill:#993333;" width="22.11" height="22.11"/>
	
		<text id="legend-classrooms" transform="matrix(1 0 0 1 164.2388 86.2537)" style="font-family:'OptimaLTStd'; font-size:16.5853px;">Classrooms</text>
	<text id="legend-offices" transform="matrix(1 0 0 1 316.9278 86.2537)" style="font-family:'OptimaLTStd'; font-size:16.5853px;">Offices</text>
	
		<text id="male1" transform="matrix(1 0 0 1 336.4756 457.9341)" style="fill:#FFFFFF; font-family:'FontAwesome'; font-size:25.7994px;"></text>
	
		<text id="female2" transform="matrix(1 0 0 1 291.102 458.9345)" style="fill:#FFFFFF; font-family:'FontAwesome'; font-size:25.7994px;"></text>
	<text transform="matrix(1 0 0 1 33.9762 623.6409)" style="fill:#FFFFFF; font-family:'MyriadPro-Regular'; font-size:21px;">105</text>
	<text transform="matrix(1 0 0 1 128.6429 621.6409)" style="fill:#FFFFFF; font-family:'MyriadPro-Regular'; font-size:21px;">103</text>
	<text transform="matrix(1 0 0 1 237.9762 621.6406)" style="fill:#FFFFFF; font-family:'MyriadPro-Regular'; font-size:21px;">101</text>
	<text transform="matrix(1 0 0 1 425.9763 660.3073)" style="fill:#FFFFFF; font-family:'MyriadPro-Regular'; font-size:21px;">102</text>
	<text transform="matrix(1 0 0 1 425.9764 580.3073)" style="fill:#FFFFFF; font-family:'MyriadPro-Regular'; font-size:21px;">104</text>
	<text transform="matrix(1 0 0 1 425.9764 499.666)" style="fill:#FFFFFF; font-family:'MyriadPro-Regular'; font-size:21px;">106</text>
	<text transform="matrix(1 0 0 1 418.9762 413.1404)" style="fill:#FFFFFF; font-family:'MyriadPro-Regular'; font-size:21px;">108</text>
	<text transform="matrix(1 0 0 1 119.6429 469.3073)" style="fill:#FFFFFF; font-family:'MyriadPro-Regular'; font-size:21px;">113</text>
	<text transform="matrix(1 0 0 1 23.9762 457.9337)" style="fill:#FFFFFF; font-family:'MyriadPro-Regular'; font-size:21px;">111</text>
	<text transform="matrix(1 0 0 1 302.6429 394.6407)" style="fill:#FFFFFF; font-family:'MyriadPro-Regular'; font-size:21px;">125</text>
	<text transform="matrix(1 0 0 1 302.6431 336.3073)" style="fill:#FFFFFF; font-family:'MyriadPro-Regular'; font-size:21px;">127</text>
	<text transform="matrix(1 0 0 1 302.6433 287.974)" style="fill:#FFFFFF; font-family:'MyriadPro-Regular'; font-size:21px;">133</text>
	<text transform="matrix(1 0 0 1 302.6431 242.974)" style="fill:#FFFFFF; font-family:'MyriadPro-Regular'; font-size:21px;">135</text>
	<text transform="matrix(1 0 0 1 418.9764 341.0798)" style="fill:#FFFFFF; font-family:'MyriadPro-Regular'; font-size:21px;">110</text>
	<text transform="matrix(1 0 0 1 418.9766 303.166)" style="fill:#FFFFFF; font-family:'MyriadPro-Regular'; font-size:21px;">112</text>
	<text transform="matrix(1 0 0 1 418.9768 240.3073)" style="fill:#FFFFFF; font-family:'MyriadPro-Regular'; font-size:21px;">114</text>
	<text transform="matrix(1 0 0 1 437.9763 151.6407)" style="fill:#FFFFFF; font-family:'MyriadPro-Regular'; font-size:21px;">116</text>
	<text transform="matrix(1 0 0 1 343.6429 144.4935)" style="fill:#FFFFFF; font-family:'MyriadPro-Regular'; font-size:21px;">118</text>
	<text transform="matrix(1 0 0 1 261.3096 144.4935)" style="fill:#FFFFFF; font-family:'MyriadPro-Regular'; font-size:21px;">137</text>
	<text transform="matrix(1 0 0 1 7.4618 545.8372)" style="fill:#FFFFFF; font-family:'MyriadPro-Regular'; font-size:12px;">107</text>
	<text transform="matrix(1 0 0 1 26.9894 504.3329)" style="fill:#FFFFFF; font-family:'MyriadPro-Regular'; font-size:12px;">109</text>
</g>
<g id="Doors">
	<line id="lcd.1" style="fill:none;stroke:#00FF00;stroke-miterlimit:10;" x1="346.98" y1="502.33" x2="354.48" y2="502.33"/>
	<line id="R137_1_" style="fill:none;stroke:#00FF00;stroke-miterlimit:10;" x1="300.51" y1="176.33" x2="289.45" y2="167.67"/>
	<line id="R118_1_" style="fill:none;stroke:#00FF00;stroke-miterlimit:10;" x1="376.98" y1="168.33" x2="368.31" y2="159"/>
	<line id="R116_1_" style="fill:none;stroke:#00FF00;stroke-miterlimit:10;" x1="418.98" y1="177" x2="434.73" y2="167"/>
	<line id="R135_1_" style="fill:none;stroke:#00FF00;stroke-miterlimit:10;" x1="343.64" y1="253" x2="328.98" y2="250.33"/>
	<line id="R133_1_" style="fill:none;stroke:#00FF00;stroke-miterlimit:10;" x1="344.48" y1="266.33" x2="332.24" y2="269.67"/>
	<line id="R127_1_" style="fill:none;stroke:#00FF00;stroke-miterlimit:10;" x1="342.27" y1="350.64" x2="327.64" y2="344.33"/>
	<line id="R125_1_" style="fill:none;stroke:#00FF00;stroke-miterlimit:10;" x1="344.48" y1="365.67" x2="332.24" y2="371.67"/>
	<line id="R114_1_" style="fill:none;stroke:#00FF00;stroke-miterlimit:10;" x1="393.64" y1="251.67" x2="399.64" y2="235.67"/>
	<line id="R112" style="fill:none;stroke:#00FF00;stroke-miterlimit:10;" x1="403.64" y1="281.67" x2="412.91" y2="287.97"/>
	<line id="R110_1_" style="fill:none;stroke:#00FF00;stroke-miterlimit:10;" x1="404.31" y1="344.28" x2="414.8" y2="337.17"/>
	<line id="R108" style="fill:none;stroke:#00FF00;stroke-miterlimit:10;" x1="404.31" y1="359.92" x2="414.79" y2="367.84"/>
	<line id="R106_1_" style="fill:none;stroke:#00FF00;stroke-miterlimit:10;" x1="408.28" y1="514.33" x2="412.91" y2="503"/>
	<line id="R104_1_" style="fill:none;stroke:#00FF00;stroke-miterlimit:10;" x1="408.28" y1="530.33" x2="418.98" y2="537"/>
	<line id="R104_x5F_2" style="fill:none;stroke:#00FF00;stroke-miterlimit:10;" x1="404.98" y1="618.17" x2="418.98" y2="607.17"/>
	<line id="R102_1_" style="fill:none;stroke:#00FF00;stroke-miterlimit:10;" x1="408.28" y1="631" x2="418.98" y2="633.67"/>
	<line id="R101_1_" style="fill:none;stroke:#00FF00;stroke-miterlimit:10;" x1="316.98" y1="607.17" x2="302.64" y2="607.17"/>
	<line id="R103_1_" style="fill:none;stroke:#00FF00;stroke-miterlimit:10;" x1="178.98" y1="561" x2="173.48" y2="573.15"/>
	<line id="R105_1_" style="fill:none;stroke:#00FF00;stroke-miterlimit:10;" x1="98.98" y1="558.33" x2="92.31" y2="567.08"/>
	<line id="R113_1_" style="fill:none;stroke:#00FF00;stroke-miterlimit:10;" x1="180.31" y1="499.67" x2="167.64" y2="496.17"/>
	<line id="R111_1_" style="fill:none;stroke:#00FF00;stroke-miterlimit:10;" x1="74.31" y1="480.74" x2="66.98" y2="473.67"/>
	<line id="R107_1_" style="fill:none;stroke:#00FF00;stroke-miterlimit:10;" x1="23.98" y1="537" x2="16.5" y2="542.15"/>
	<line id="R109_1_" style="fill:none;stroke:#00FF00;stroke-miterlimit:10;" x1="23.98" y1="505" x2="32" y2="499.67"/>
</g>
<g id="Paths">
	<line style="fill:none;stroke:#FF00FF;stroke-miterlimit:10;" x1="408.28" y1="631" x2="372.64" y2="630.33"/>
	<line style="fill:none;stroke:#FF00FF;stroke-miterlimit:10;" x1="316.98" y1="607.17" x2="372.64" y2="607.17"/>
	<line style="fill:none;stroke:#FF00FF;stroke-miterlimit:10;" x1="404.98" y1="618.17" x2="372.64" y2="618.17"/>
	<line style="fill:none;stroke:#FF00FF;stroke-miterlimit:10;" x1="372.64" y1="630.33" x2="372.64" y2="618.17"/>
	<line style="fill:none;stroke:#FF00FF;stroke-miterlimit:10;" x1="372.64" y1="607.17" x2="372.64" y2="618.17"/>
	<line style="fill:none;stroke:#FF00FF;stroke-miterlimit:10;" x1="23.98" y1="537" x2="23.98" y2="522.17"/>
	<line style="fill:none;stroke:#FF00FF;stroke-miterlimit:10;" x1="23.98" y1="505" x2="23.98" y2="522.17"/>
	<line style="fill:none;stroke:#FF00FF;stroke-miterlimit:10;" x1="98.98" y1="558.33" x2="98.98" y2="522.17"/>
	<line style="fill:none;stroke:#FF00FF;stroke-miterlimit:10;" x1="74.31" y1="480.74" x2="75.64" y2="522.17"/>
	<line style="fill:none;stroke:#FF00FF;stroke-miterlimit:10;" x1="23.98" y1="522.17" x2="75.64" y2="522.17"/>
	<line style="fill:none;stroke:#FF00FF;stroke-miterlimit:10;" x1="98.98" y1="522.17" x2="75.64" y2="522.17"/>
	<line style="fill:none;stroke:#FF00FF;stroke-miterlimit:10;" x1="178.98" y1="561" x2="178.98" y2="522.17"/>
	<line style="fill:none;stroke:#FF00FF;stroke-miterlimit:10;" x1="180.31" y1="499.67" x2="198.25" y2="505"/>
	<line style="fill:none;stroke:#FF00FF;stroke-miterlimit:10;" x1="98.98" y1="522.17" x2="178.98" y2="522.17"/>
	<line style="fill:none;stroke:#FF00FF;stroke-miterlimit:10;" x1="198.75" y1="522.17" x2="178.98" y2="522.17"/>
	<line style="fill:none;stroke:#FF00FF;stroke-miterlimit:10;" x1="198.25" y1="505" x2="198.75" y2="522.17"/>
	<line style="fill:none;stroke:#FF00FF;stroke-miterlimit:10;" x1="346.98" y1="502.33" x2="346.98" y2="522.17"/>
	<line style="fill:none;stroke:#FF00FF;stroke-miterlimit:10;" x1="198.75" y1="522.17" x2="346.98" y2="522.17"/>
	<line style="fill:none;stroke:#FF00FF;stroke-miterlimit:10;" x1="408.28" y1="514.33" x2="372.64" y2="513.58"/>
	<line style="fill:none;stroke:#FF00FF;stroke-miterlimit:10;" x1="346.98" y1="522.17" x2="372.64" y2="522.17"/>
	<line style="fill:none;stroke:#FF00FF;stroke-miterlimit:10;" x1="408.28" y1="530.33" x2="372.64" y2="522.17"/>
	<line style="fill:none;stroke:#FF00FF;stroke-miterlimit:10;" x1="372.64" y1="607.17" x2="372.64" y2="522.17"/>
	<line style="fill:none;stroke:#FF00FF;stroke-miterlimit:10;" x1="372.64" y1="522.17" x2="372.64" y2="513.58"/>
	<line style="fill:none;stroke:#FF00FF;stroke-miterlimit:10;" x1="344.48" y1="365.67" x2="372.64" y2="365.17"/>
	<line style="fill:none;stroke:#FF00FF;stroke-miterlimit:10;" x1="342.27" y1="350.64" x2="372.64" y2="350.64"/>
	<line style="fill:none;stroke:#FF00FF;stroke-miterlimit:10;" x1="404.31" y1="359.92" x2="372.64" y2="359.92"/>
	<line style="fill:none;stroke:#FF00FF;stroke-miterlimit:10;" x1="404.31" y1="344.28" x2="372.64" y2="344.28"/>
	<line style="fill:none;stroke:#FF00FF;stroke-miterlimit:10;" x1="372.64" y1="513.58" x2="372.64" y2="365.17"/>
	<path style="fill:none;stroke:#FF00FF;stroke-miterlimit:10;" d="M378.31,363.88"/>
	<path style="fill:none;stroke:#FF00FF;stroke-miterlimit:10;" d="M372.64,344.28"/>
	<line style="fill:none;stroke:#FF00FF;stroke-miterlimit:10;" x1="403.64" y1="281.67" x2="372.64" y2="281.67"/>
	<line style="fill:none;stroke:#FF00FF;stroke-miterlimit:10;" x1="372.64" y1="344.28" x2="372.64" y2="281.67"/>
	<line style="fill:none;stroke:#FF00FF;stroke-miterlimit:10;" x1="344.48" y1="266.33" x2="372.64" y2="266.5"/>
	<line style="fill:none;stroke:#FF00FF;stroke-miterlimit:10;" x1="372.64" y1="281.67" x2="372.64" y2="266.5"/>
	<line style="fill:none;stroke:#FF00FF;stroke-miterlimit:10;" x1="343.64" y1="253" x2="372.64" y2="255.5"/>
	<line style="fill:none;stroke:#FF00FF;stroke-miterlimit:10;" x1="372.64" y1="266.5" x2="372.64" y2="255.5"/>
	<line style="fill:none;stroke:#FF00FF;stroke-miterlimit:10;" x1="393.64" y1="251.67" x2="392.14" y2="266.42"/>
	<line style="fill:none;stroke:#FF00FF;stroke-miterlimit:10;" x1="372.64" y1="266.5" x2="392.14" y2="266.42"/>
	<line style="fill:none;stroke:#FF00FF;stroke-miterlimit:10;" x1="300.51" y1="176.33" x2="314.48" y2="184.67"/>
	<line style="fill:none;stroke:#FF00FF;stroke-miterlimit:10;" x1="314.98" y1="198.17" x2="314.48" y2="184.67"/>
	<line style="fill:none;stroke:#FF00FF;stroke-miterlimit:10;" x1="376.98" y1="168.33" x2="375.81" y2="198.5"/>
	<line style="fill:none;stroke:#FF00FF;stroke-miterlimit:10;" x1="314.98" y1="198.17" x2="375.81" y2="198.5"/>
	<line style="fill:none;stroke:#FF00FF;stroke-miterlimit:10;" x1="372.64" y1="255.5" x2="375.81" y2="198.5"/>
	<line style="fill:none;stroke:#FF00FF;stroke-miterlimit:10;" x1="418.98" y1="177" x2="385.31" y2="183.42"/>
	<line style="fill:none;stroke:#FF00FF;stroke-miterlimit:10;" x1="375.81" y1="198.5" x2="385.31" y2="183.42"/>
	<line style="fill:none;stroke:#FF00FF;stroke-miterlimit:10;" x1="372.64" y1="365.17" x2="372.64" y2="359.92"/>
	<line style="fill:none;stroke:#FF00FF;stroke-miterlimit:10;" x1="372.64" y1="359.92" x2="372.64" y2="350.64"/>
	<line style="fill:none;stroke:#FF00FF;stroke-miterlimit:10;" x1="372.64" y1="344.28" x2="372.64" y2="350.64"/>
</g>
</svg>
