<?xml version="1.0" encoding="utf-8"?>
<!-- Generator: Adobe Illustrator 19.2.1, SVG Export Plug-In . SVG Version: 6.00 Build 0)  -->
<svg version="1.1" id="Layer_1" xmlns="http://www.w3.org/2000/svg" xmlns:xlink="http://www.w3.org/1999/xlink" x="0px" y="0px"
	 width="404.35px" height="776.75px" viewBox="0 0 404.35 776.75" style="enable-background:new 0 0 404.35 776.75;"
	 xml:space="preserve">
<g id="Base">
	<polygon id="Circulation" style="fill:#D3D3D3;stroke:#000000;stroke-miterlimit:10;" points="56.22,110.5 251.41,110.5 
		251.22,140.5 347.22,140.5 347.47,330 383.72,329.75 383.72,378 317.72,377.5 317.72,606 252.72,605.5 252.72,642 301.72,641.5 
		301.72,706.5 252.22,706.5 252.28,734.25 168.72,734 168.72,776 127.72,776.25 127.72,734 56.72,734.5 56.72,378 26.72,377.5 
		26.72,330 56.72,329.75 	"/>
	
		<rect id="Restroom" x="195.72" y="296.5" style="fill:#00CCCC;stroke:#000000;stroke-miterlimit:10;" width="55.5" height="33.25"/>
	
		<rect id="Restroom_1_" x="195.72" y="377.5" style="fill:#00CCCC;stroke:#000000;stroke-miterlimit:10;" width="31" height="56.73"/>
	<rect x="26.72" y="329.75" style="fill:none;stroke:#000000;stroke-miterlimit:10;" width="56.5" height="47.75"/>
	<rect x="83.22" y="329.75" style="fill:none;stroke:#000000;stroke-miterlimit:10;" width="63.25" height="47.75"/>
	<rect x="169.72" y="377.5" style="fill:none;stroke:#000000;stroke-miterlimit:10;" width="26" height="56.73"/>
	<rect x="252.72" y="641.5" style="fill:none;stroke:#000000;stroke-miterlimit:10;" width="48.75" height="64.5"/>
	<rect x="216.72" y="696.5" style="fill:none;stroke:#000000;stroke-miterlimit:10;" width="36" height="37.5"/>
	<rect x="169.22" y="696.5" style="fill:none;stroke:#000000;stroke-miterlimit:10;" width="47.5" height="37.5"/>
	<rect x="148.97" y="734" style="fill:none;stroke:#000000;stroke-miterlimit:10;" width="20.25" height="42.25"/>
	<rect x="127.97" y="734" style="fill:none;stroke:#000000;stroke-miterlimit:10;" width="21" height="42.25"/>
	<rect x="170.72" y="296.5" style="fill:none;stroke:#000000;stroke-miterlimit:10;" width="25" height="33.25"/>
	<rect x="170.72" y="175.5" style="fill:none;stroke:#000000;stroke-miterlimit:10;" width="25" height="26"/>
	<rect x="195.72" y="175.5" style="fill:none;stroke:#000000;stroke-miterlimit:10;" width="43" height="26"/>
	<rect x="129.22" y="111" style="fill:none;stroke:#000000;stroke-miterlimit:10;" width="20.25" height="26.75"/>
	<rect x="149.47" y="111" style="fill:none;stroke:#000000;stroke-miterlimit:10;" width="20.25" height="24.75"/>
</g>
<g id="Rooms">
	<a id="R114" xlink:href="#" >
		<g><rect id="R114" x="56.72" y="110.5" style="fill:#006699;stroke:#000000;stroke-miterlimit:10;" width="72" height="82.5"/></g>
	</a>
	<a id="R118" xlink:href="#" >
		<g><rect id="R118" x="106.22" y="286.5" style="fill:#993333;stroke:#000000;stroke-miterlimit:10;" width="43.25" height="43.25"/></g>
	</a>
	<a id="R116" xlink:href="#" >
		<g><polygon id="R116" style="fill:#993333;stroke:#000000;stroke-miterlimit:10;" points="56.72,191.5 95.22,191.5 128.72,191.5 
		128.72,155.5 149.22,155.5 149.47,286.5 105.72,286.5 105.72,330 56.72,329.75 	"/></g>
	</a>
	<a id="R110" xlink:href="#" >
		<g><polygon id="R110" style="fill:#006699;stroke:#000000;stroke-miterlimit:10;" points="169.97,110.5 251.97,110.5 251.72,175.5 
		178.22,175.5 177.97,159.5 169.72,159.5 	"/></g>
	</a>
	<a id="R108" xlink:href="#" >
		<g><polygon id="R108" style="fill:#006699;stroke:#000000;stroke-miterlimit:10;" points="177.72,281.5 170.72,281.5 170.72,201.5 
		250.72,201.5 250.72,297 177.72,296.5 	"/></g>
	</a>
	<a id="R102" xlink:href="#" >
		<g><polygon id="R102" style="fill:#993333;stroke:#000000;stroke-miterlimit:10;" points="251.22,140.5 347.72,140.5 347.72,330 
		251.22,329.75 250.72,201.5 238.72,201.5 238.72,175.5 251.72,175.5 	"/></g>
	</a>
	<a id="R101" xlink:href="#" >
		<g><polygon id="R101" style="fill:#993333;stroke:#000000;stroke-miterlimit:10;" points="276.72,377.5 317.72,377.5 317.72,605.5 
		252.72,605.5 252.72,434 276.72,434.23 	"/></g>
	</a>
	<a id="R103" xlink:href="#" >
		<g><rect id="R103" x="226.72" y="377.5" style="fill:#006699;stroke:#000000;stroke-miterlimit:10;" width="50" height="56.73"/></g>
	</a>
	<a id="R109" xlink:href="#" >
		<g><polygon id="R109" style="fill:#006699;stroke:#000000;stroke-miterlimit:10;" points="176.72,449.5 176.72,434.5 252.22,434.5 
		252.72,514.5 169.72,514.5 169.72,449.5 	"/></g>
	</a>
	<a id="R111A" xlink:href="#" >
		<g><polygon id="R111A" style="fill:#001A72;stroke:#000000;stroke-miterlimit:10;" points="168.72,529.5 176.72,529.5 176.6,514.5 
		252.72,514.5 252.72,646.5 177.22,646.51 177.47,630.51 168.72,630.5 	"/></g>
	</a>
	<a id="R111B" xlink:href="#" >
		<g><polygon id="R111B" style="fill:#006699;stroke:#000000;stroke-miterlimit:10;" points="168.72,658.5 176.72,658.5 176.72,646.51 
		252.72,646.5 252.72,696.5 168.72,696.5 	"/></g>
	</a>
	<a id="R121" xlink:href="#" >
		<g><polygon id="R121" style="fill:#006699;stroke:#000000;stroke-miterlimit:10;" points="56.72,377.5 56.72,506.5 139.72,506.5 
		139.72,487 149.72,487.25 149.72,394.5 139.72,394.5 139.72,377.5 	"/></g>
	</a>
	<a id="R119" xlink:href="#" >
		<g><polygon id="R119" style="fill:#006699;stroke:#000000;stroke-miterlimit:10;" points="56.72,506.5 148.72,506.5 148.72,592.5 
		139.72,592.5 139.72,608.5 56.72,608.5 	"/></g>
	</a>
	<a id="R117" xlink:href="#" >
		<g><polygon id="R117" style="fill:#006699;stroke:#000000;stroke-miterlimit:10;" points="56.72,734.5 56.72,609 139.72,608.5 
		139.72,624.5 148.22,624.5 149.72,717.5 140.72,717.5 140.72,734.5 	"/></g>
	</a>
</g>
<g id="Doors">
	<line id="lcd.1" style="fill:none;stroke:#00FF00;stroke-miterlimit:10;" x1="258.22" y1="334" x2="268.97" y2="334"/>
	<line id="R101_1_" style="fill:none;stroke:#00FF00;stroke-miterlimit:10;" x1="298.72" y1="384.5" x2="299.22" y2="400"/>
	<line id="R102_1_" style="fill:none;stroke:#00FF00;stroke-miterlimit:10;" x1="298.97" y1="326" x2="285.22" y2="316.5"/>
	<line id="R118_1_" style="fill:none;stroke:#00FF00;stroke-miterlimit:10;" x1="146.47" y1="308.12" x2="132.72" y2="308.12"/>
	<line id="R108_1_" style="fill:none;stroke:#00FF00;stroke-miterlimit:10;" x1="182.72" y1="288" x2="192.97" y2="284"/>
	<line id="R110_1_" style="fill:none;stroke:#00FF00;stroke-miterlimit:10;" x1="183.22" y1="165" x2="192.97" y2="163"/>
	<line id="R116_1_" style="fill:none;stroke:#00FF00;stroke-miterlimit:10;" x1="146.47" y1="280" x2="132.72" y2="280"/>
	<line id="R114_1_" style="fill:none;stroke:#00FF00;stroke-miterlimit:10;" x1="123.72" y1="148" x2="110.47" y2="151.75"/>
	<line id="R121_1_" style="fill:none;stroke:#00FF00;stroke-miterlimit:10;" x1="135.72" y1="497" x2="127.97" y2="491.5"/>
	<line id="R109_1_" style="fill:none;stroke:#00FF00;stroke-miterlimit:10;" x1="182.72" y1="443.37" x2="187.97" y2="447.5"/>
	<line id="R119_1_" style="fill:none;stroke:#00FF00;stroke-miterlimit:10;" x1="138.47" y1="600.5" x2="131.85" y2="594.5"/>
	<line id="R117_1_" style="fill:none;stroke:#00FF00;stroke-miterlimit:10;" x1="138.47" y1="727.5" x2="131.85" y2="723"/>
	<line id="R111B_1_" style="fill:none;stroke:#00FF00;stroke-miterlimit:10;" x1="182.72" y1="653" x2="187.97" y2="658.5"/>
	<line id="R111A_1_" style="fill:none;stroke:#00FF00;stroke-miterlimit:10;" x1="182.72" y1="523.5" x2="185.35" y2="530"/>
	<line id="R103_1_" style="fill:none;stroke:#00FF00;stroke-miterlimit:10;" x1="251.72" y1="381.5" x2="250.72" y2="392.25"/>
</g>
<g id="Labels">
	<text transform="matrix(1 0 0 1 2.441406e-04 21.4132)" style="font-family:'OptimaLTStd'; font-size:25.7994px;">Volunteer State Community College </text>
	<text transform="matrix(1 0 0 1 127.5902 52.3732)" style="font-family:'OptimaLTStd'; font-size:25.7994px;">Wallace North</text>
	<polyline id="swatch-blue" style="fill:#001A72;" points="25.2,94.09 25.2,71.97 47.31,71.97 47.31,94.09 	"/>
	<polyline id="swatch-pink" style="fill:#993333;" points="299.97,94.09 299.97,71.97 322.08,71.97 322.08,94.09 	"/>
	<text id="legend-study" transform="matrix(1 0 0 1 51.7883 88.2535)" style="font-family:'OptimaLTStd'; font-size:16.5853px;">Lecture Halls</text>
	<text id="legend-offices" transform="matrix(1 0 0 1 327.4431 88.2535)" style="font-family:'OptimaLTStd'; font-size:16.5853px;">Offices</text>
	<polyline id="swatch-pink_2_" style="fill:#006699;" points="171.08,94.09 171.08,71.97 193.19,71.97 193.19,94.09 	"/>
	<text id="legend-library" transform="matrix(1 0 0 1 197.3424 88.2535)" style="font-family:'OptimaLTStd'; font-size:16.5853px;">Classrooms</text>
	<text transform="matrix(1 0 0 1 84.4717 671.4995)" style="fill:#FFFFFF; font-family:'MyriadPro-Regular'; font-size:21px;">117</text>
	<text transform="matrix(1 0 0 1 187.9717 679.4995)" style="fill:#FFFFFF; font-family:'MyriadPro-Regular'; font-size:21px;">111B</text>
	<text transform="matrix(1 0 0 1 187.9717 584.4995)" style="fill:#FFFFFF; font-family:'MyriadPro-Regular'; font-size:21px;">111A</text>
	<text transform="matrix(1 0 0 1 84.4717 559.2495)" style="fill:#FFFFFF; font-family:'MyriadPro-Regular'; font-size:21px;">119</text>
	<text transform="matrix(1 0 0 1 192.9717 483.7495)" style="fill:#FFFFFF; font-family:'MyriadPro-Regular'; font-size:21px;">109</text>
	<text transform="matrix(1 0 0 1 84.4717 440.7495)" style="fill:#FFFFFF; font-family:'MyriadPro-Regular'; font-size:21px;">121</text>
	<text transform="matrix(1 0 0 1 84.4717 253.9995)" style="fill:#FFFFFF; font-family:'MyriadPro-Regular'; font-size:21px;">116</text>
	<text transform="matrix(1 0 0 1 197.3424 253.9995)" style="fill:#FFFFFF; font-family:'MyriadPro-Regular'; font-size:21px;">108</text>
	<text transform="matrix(1 0 0 1 72.9717 155.4995)" style="fill:#FFFFFF; font-family:'MyriadPro-Regular'; font-size:21px;">114</text>
	<text transform="matrix(1 0 0 1 195.7217 147.9995)" style="fill:#FFFFFF; font-family:'MyriadPro-Regular'; font-size:21px;">110</text>
	<text transform="matrix(1 0 0 1 110.4717 316.4995)" style="fill:#FFFFFF; font-family:'MyriadPro-Regular'; font-size:21px;">118</text>
	
		<text id="female2_2_" transform="matrix(1 0 0 1 216.1925 320.3082)" style="fill:#FFFFFF; font-family:'FontAwesome'; font-size:21px;"></text>
	
		<text id="male1_2_" transform="matrix(1 0 0 1 205.222 411.808)" style="fill:#FFFFFF; font-family:'FontAwesome'; font-size:21px;"></text>
	<text transform="matrix(1 0 0 1 281.4717 253.9995)" style="fill:#FFFFFF; font-family:'MyriadPro-Regular'; font-size:21px;">102</text>
	<text transform="matrix(1 0 0 1 268.9717 514.4995)" style="fill:#FFFFFF; font-family:'MyriadPro-Regular'; font-size:21px;">101</text>
	<text transform="matrix(1 0 0 1 234.7217 411.808)" style="fill:#FFFFFF; font-family:'MyriadPro-Regular'; font-size:21px;">103</text>
</g>
<g id="Paths">
	<line style="fill:none;stroke:#FF00FF;stroke-miterlimit:10;" x1="258.22" y1="334" x2="258.22" y2="350.5"/>
	<line style="fill:none;stroke:#FF00FF;stroke-miterlimit:10;" x1="298.97" y1="326" x2="298.97" y2="350.5"/>
	<line style="fill:none;stroke:#FF00FF;stroke-miterlimit:10;" x1="298.72" y1="384.5" x2="298.97" y2="350.5"/>
	<line style="fill:none;stroke:#FF00FF;stroke-miterlimit:10;" x1="251.72" y1="381.5" x2="258.22" y2="350.5"/>
	<line style="fill:none;stroke:#FF00FF;stroke-miterlimit:10;" x1="298.97" y1="350.5" x2="258.22" y2="350.5"/>
	<line style="fill:none;stroke:#FF00FF;stroke-miterlimit:10;" x1="159.6" y1="350.5" x2="258.22" y2="350.5"/>
	<line style="fill:none;stroke:#FF00FF;stroke-miterlimit:10;" x1="146.47" y1="308.12" x2="159.6" y2="308.12"/>
	<line style="fill:none;stroke:#FF00FF;stroke-miterlimit:10;" x1="159.6" y1="350.5" x2="159.6" y2="308.12"/>
	<line style="fill:none;stroke:#FF00FF;stroke-miterlimit:10;" x1="182.72" y1="288" x2="159.6" y2="290.5"/>
	<line style="fill:none;stroke:#FF00FF;stroke-miterlimit:10;" x1="159.6" y1="308.12" x2="159.6" y2="290.5"/>
	<line style="fill:none;stroke:#FF00FF;stroke-miterlimit:10;" x1="146.47" y1="280" x2="159.6" y2="280"/>
	<line style="fill:none;stroke:#FF00FF;stroke-miterlimit:10;" x1="159.6" y1="290.5" x2="159.6" y2="280"/>
	<line style="fill:none;stroke:#FF00FF;stroke-miterlimit:10;" x1="183.22" y1="165" x2="159.6" y2="169"/>
	<line style="fill:none;stroke:#FF00FF;stroke-miterlimit:10;" x1="159.6" y1="280" x2="159.6" y2="169"/>
	<line style="fill:none;stroke:#FF00FF;stroke-miterlimit:10;" x1="123.72" y1="148" x2="159.6" y2="149.87"/>
	<line style="fill:none;stroke:#FF00FF;stroke-miterlimit:10;" x1="159.6" y1="169" x2="159.6" y2="149.87"/>
	<line style="fill:none;stroke:#FF00FF;stroke-miterlimit:10;" x1="182.72" y1="443.37" x2="159.6" y2="440.75"/>
	<line style="fill:none;stroke:#FF00FF;stroke-miterlimit:10;" x1="159.6" y1="350.5" x2="159.6" y2="440.75"/>
	<line style="fill:none;stroke:#FF00FF;stroke-miterlimit:10;" x1="135.72" y1="497" x2="159.6" y2="499.5"/>
	<line style="fill:none;stroke:#FF00FF;stroke-miterlimit:10;" x1="159.6" y1="440.75" x2="159.6" y2="499.5"/>
	<line style="fill:none;stroke:#FF00FF;stroke-miterlimit:10;" x1="182.72" y1="523.5" x2="159.6" y2="514.5"/>
	<line style="fill:none;stroke:#FF00FF;stroke-miterlimit:10;" x1="159.6" y1="499.5" x2="159.6" y2="514.5"/>
	<line style="fill:none;stroke:#FF00FF;stroke-miterlimit:10;" x1="138.47" y1="600.5" x2="159.6" y2="601.5"/>
	<line style="fill:none;stroke:#FF00FF;stroke-miterlimit:10;" x1="159.6" y1="514.5" x2="159.6" y2="601.5"/>
	<line style="fill:none;stroke:#FF00FF;stroke-miterlimit:10;" x1="182.72" y1="653" x2="159.6" y2="641.5"/>
	<line style="fill:none;stroke:#FF00FF;stroke-miterlimit:10;" x1="159.6" y1="601.5" x2="159.6" y2="641.5"/>
	<line style="fill:none;stroke:#FF00FF;stroke-miterlimit:10;" x1="138.47" y1="727.5" x2="159.6" y2="725.25"/>
	<line style="fill:none;stroke:#FF00FF;stroke-miterlimit:10;" x1="159.6" y1="641.5" x2="159.6" y2="725.25"/>
</g>
</svg>
