<?xml version="1.0" encoding="utf-8"?>
<!-- Generator: Adobe Illustrator 19.2.1, SVG Export Plug-In . SVG Version: 6.00 Build 0)  -->
<svg version="1.1" id="Layer_1" xmlns="http://www.w3.org/2000/svg" xmlns:xlink="http://www.w3.org/1999/xlink" x="0px" y="0px"
	 width="526.84px" height="838.58px" viewBox="0 0 526.84 838.58" style="enable-background:new 0 0 526.84 838.58;"
	 xml:space="preserve">
<g id="Base">
	<path id="Circulation" style="fill:#D3D3D3;stroke:#000000;stroke-miterlimit:10;" d="M398.04,247.33v82h-25v28h25v253h-45
		c0,0-1,40,0,40c2,0,3,0,3,0l0,186.16l-245,0.75V650.33l5.62-0.25l0.19-41.5l-45.03,0.33l0.22-251.58h24.74l0.39-28.42l-25.12-0.33
		v-81.25h91v-15h-5.75l-0.25-132h157v132h-6v15H398.04z"/>
	<polygon id="Restrooms" style="fill:#00CCCC;stroke:#000000;stroke-miterlimit:10;" points="279.04,650.33 279.04,678.33 
		259.04,678.33 259.04,707.33 209.04,707.33 209.04,688.33 190.04,688.33 190.04,669.33 213.29,669.33 213.54,651.33 224.29,651.33 
		223.92,661.33 245.04,661.33 245.04,650.33 	"/>
	
		<rect x="216.29" y="754.33" transform="matrix(-1.347280e-10 1 -1 -1.347280e-10 1005.1248 535.2883)" style="fill:none;stroke:#000000;stroke-miterlimit:10;" width="37.25" height="31.75"/>
	<polygon style="fill:none;stroke:#000000;stroke-miterlimit:10;" points="217.79,836.89 217.54,824.33 250.79,824.33 
		251.04,836.89 	"/>
	
		<rect x="110.79" y="616.83" transform="matrix(-1.347422e-10 1 -1 -1.347422e-10 761.8751 500.288)" style="fill:none;stroke:#000000;stroke-miterlimit:10;" width="40" height="28.5"/>
	<polygon id="Restroom" style="fill:#00CCCC;stroke:#000000;stroke-miterlimit:10;" points="172.41,247.33 171.79,329.33 
		103.04,329.33 103.04,292.33 131.04,292.83 131.04,247.33 	"/>
	<polygon id="Restroom_1_" style="fill:#00CCCC;stroke:#000000;stroke-miterlimit:10;" points="341.17,248.08 341.79,290.33 
		352.04,290.33 352.04,302.33 397.29,302.33 397.79,329.33 300.04,329.33 300.04,248.33 	"/>
	
		<rect id="Stairs_1_" x="363.54" y="355.58" transform="matrix(-1.347155e-10 1 -1 -1.347155e-10 753.3751 -6.712)" style="fill:#4c4c4c;stroke:#000000;stroke-miterlimit:10;" width="33" height="35.5"/>
	
		<rect id="Stairs" x="364.17" y="577.71" transform="matrix(-1.346329e-10 1 -1 -1.346329e-10 975.5001 214.413)" style="fill:#4c4c4c;stroke:#000000;stroke-miterlimit:10;" width="32.75" height="34.5"/>
	
		<rect id="Stairs_2_" x="72.96" y="356.25" transform="matrix(-1.347813e-10 1 -1 -1.347813e-10 462.7918 284.2047)" style="fill:#4c4c4c;stroke:#000000;stroke-miterlimit:10;" width="32.67" height="34.5"/>
	
		<rect id="Stairs_3_" x="72.54" y="576.83" transform="matrix(-1.346054e-10 1 -1 -1.346054e-10 683.3751 505.038)" style="fill:#4c4c4c;stroke:#000000;stroke-miterlimit:10;" width="33.25" height="34.75"/>
	
		<rect x="79.29" y="476.58" transform="matrix(-1.345628e-10 1 -1 -1.345628e-10 584.6251 404.538)" style="fill:none;stroke:#000000;stroke-miterlimit:10;" width="21.5" height="36"/>
	
		<rect x="74.42" y="502.96" transform="matrix(-1.347795e-10 1 -1 -1.347795e-10 611.0001 430.913)" style="fill:none;stroke:#000000;stroke-miterlimit:10;" width="31.25" height="36"/>
	
		<rect x="73.42" y="535.21" transform="matrix(-1.346942e-10 1 -1 -1.346942e-10 630.5001 463.163)" style="fill:none;stroke:#000000;stroke-miterlimit:10;" width="20.5" height="23.25"/>
	
		<rect x="91.42" y="540.46" transform="matrix(-1.346942e-10 1 -1 -1.346942e-10 648.5001 445.163)" style="fill:none;stroke:#000000;stroke-miterlimit:10;" width="20.5" height="12.75"/>
	<polygon style="fill:none;stroke:#000000;stroke-miterlimit:10;" points="119.29,484.33 108.29,484.33 108.04,557.33 85.04,557.33 
		85.04,568.33 95.04,568.33 95.04,578.33 106.29,578.33 106.54,594.33 125.52,594.33 125.42,579.32 119.54,579.46 	"/>
	<polygon style="fill:none;stroke:#000000;stroke-miterlimit:10;" points="71.78,578.58 95.04,578.33 94.54,568.33 85.04,568.33 
		85.04,556.83 72.17,557.08 	"/>
	<polygon style="fill:none;stroke:#000000;stroke-miterlimit:10;" points="131.04,247.33 71.66,247.33 72.04,303.33 102.29,303.33 
		102.92,292.58 131.04,292.83 	"/>
	<polygon style="fill:none;stroke:#000000;stroke-miterlimit:10;" points="299.92,231.83 299.79,182.33 313.79,182.83 
		313.92,231.83 	"/>
	
		<rect x="139.79" y="199.83" transform="matrix(-1.346978e-10 1 -1 -1.346978e-10 371.6251 42.538)" style="fill:none;stroke:#000000;stroke-miterlimit:10;" width="49.5" height="14.5"/>
	<rect x="71.79" y="302.83" style="fill:none;stroke:#000000;stroke-miterlimit:10;" width="30.5" height="25.75"/>
	
		<rect x="261.17" y="675.46" transform="matrix(-1.347848e-10 1 -1 -1.347848e-10 954.2501 416.663)" style="fill:none;stroke:#000000;stroke-miterlimit:10;" width="15.25" height="20"/>
	
		<rect x="261.92" y="689.96" transform="matrix(-1.346711e-10 1 -1 -1.346711e-10 968.7501 431.163)" style="fill:none;stroke:#000000;stroke-miterlimit:10;" width="13.75" height="20"/>
	<line style="fill:none;stroke:#000000;stroke-miterlimit:10;" x1="299.79" y1="319.33" x2="284.63" y2="319.08"/>
	<line style="fill:none;stroke:#000000;stroke-miterlimit:10;" x1="299.79" y1="219.08" x2="283.79" y2="218.83"/>
	<line style="fill:none;stroke:#000000;stroke-miterlimit:10;" x1="283.79" y1="207.83" x2="283.79" y2="229.33"/>
	<line style="fill:none;stroke:#000000;stroke-miterlimit:10;" x1="171.79" y1="173.5" x2="171.79" y2="182.33"/>
	<line style="fill:none;stroke:#000000;stroke-miterlimit:10;" x1="157.18" y1="173.5" x2="157.29" y2="182.33"/>
	<line style="fill:none;stroke:#000000;stroke-miterlimit:10;" x1="162.79" y1="231.83" x2="162.79" y2="247.33"/>
	<line style="fill:none;stroke:#000000;stroke-miterlimit:10;" x1="188.63" y1="214.33" x2="171.79" y2="214.33"/>
	<line style="fill:none;stroke:#000000;stroke-miterlimit:10;" x1="187.63" y1="320.83" x2="171.79" y2="320.33"/>
	<line style="fill:none;stroke:#000000;stroke-miterlimit:10;" x1="190.29" y1="658.33" x2="171.29" y2="658.58"/>
	
		<rect x="192.67" y="647.96" transform="matrix(-1.346054e-10 1 -1 -1.346054e-10 861.5001 458.163)" style="fill:none;stroke:#000000;stroke-miterlimit:10;" width="18" height="23.75"/>
	
		<rect x="189.42" y="688.71" transform="matrix(-1.347404e-10 1 -1 -1.347404e-10 897.5001 498.413)" style="fill:none;stroke:#000000;stroke-miterlimit:10;" width="20.25" height="18.5"/>
	
		<rect x="216.29" y="754.33" transform="matrix(-1.347280e-10 1 -1 -1.347280e-10 1005.1248 535.2883)" style="fill:none;stroke:#000000;stroke-miterlimit:10;" width="37.25" height="31.75"/>
	<line style="fill:none;stroke:#000000;stroke-miterlimit:10;" x1="235.29" y1="660.71" x2="234.92" y2="706.83"/>
	
		<rect x="363.04" y="470.58" transform="matrix(-1.347742e-10 1 -1 -1.347742e-10 868.3751 120.788)" style="fill:none;stroke:#000000;stroke-miterlimit:10;" width="21.5" height="48"/>
</g>

<g id="Rooms">
	<a id="R141" xlink:href="#" >
     <g><polygon id="R141" style="fill:#993333;stroke:#000000;stroke-miterlimit:10;" points="314.04,100.33 314.04,139.33 
	297.04,139.33 296.79,100.33 	"/></g>
	</a>
	
	<a id="R139" xlink:href="#" >
     <g><rect id="R139" x="274.63" y="105.33" transform="matrix(-1.325741e-10 1 -1 -1.325741e-10 402.1251 -174.2953)" style="fill:#993333;stroke:#000000;stroke-miterlimit:10;" width="27.17" height="17.17"/></g>
	</a>
	
	<a id="R137" xlink:href="#" >
     <g><rect id="R137" x="257.21" y="105.08" transform="matrix(-1.325741e-10 1 -1 -1.325741e-10 384.7084 -156.8787)" style="fill:#993333;stroke:#000000;stroke-miterlimit:10;" width="27.17" height="17.67"/></g>
	</a>
	
	<a id="R133" xlink:href="#" >
     <g><rect id="R133" x="239.71" y="105.25" transform="matrix(-1.317712e-10 1 -1 -1.317712e-10 367.2084 -139.3787)" style="fill:#993333;stroke:#000000;stroke-miterlimit:10;" width="27.17" height="17.33"/></g>
	</a>
	
	<a id="R129" xlink:href="#" >
     <g><rect id="R129" x="222.29" y="105.16" transform="matrix(-1.309337e-10 1 -1 -1.309337e-10 349.7918 -121.962)" style="fill:#993333;stroke:#000000;stroke-miterlimit:10;" width="27.17" height="17.5"/></g>
	</a>
	
	<a id="R125" xlink:href="#" >
     <g><rect id="R125" x="205.59" y="105.71" transform="matrix(-1.334001e-10 1 -1 -1.334001e-10 332.8334 -105.2537)" style="fill:#993333;stroke:#000000;stroke-miterlimit:10;" width="26.92" height="16.17"/></g>
	</a>
	
	<a id="R121" xlink:href="#" >
     <g><polygon id="R121" style="fill:#993333;stroke:#000000;stroke-miterlimit:10;" points="210.96,127.5 211.04,100.33 
	192.87,100.33 192.78,127.5 	"/></g>
	</a>
	
	<a id="R117" xlink:href="#" >
     <g><rect id="R117" x="161.33" y="96.04" transform="matrix(-1.323068e-10 1 -1 -1.323068e-10 288.829 -60.9992)" style="fill:#993333;stroke:#000000;stroke-miterlimit:10;" width="27.17" height="35.74"/></g>
	</a>
	
	<a id="R115" xlink:href="#" >
     <g><rect id="R115" x="155.28" y="129.36" transform="matrix(-1.346036e-10 1 -1 -1.346036e-10 305.2741 -27.7774)" style="fill:#993333;stroke:#000000;stroke-miterlimit:10;" width="22.5" height="18.78"/></g>
	</a>
	
	<a id="R111" xlink:href="#" >
     <g><rect id="R111" x="157.18" y="150" style="fill:#993333;stroke:#000000;stroke-miterlimit:10;" width="18.73" height="23.5"/></g>
	</a>
	
	<a id="R119" xlink:href="#" >
     <g><rect id="R119" x="187.21" y="140.75" transform="matrix(-1.346338e-10 1 -1 -1.346338e-10 348.2084 -47.5453)" style="fill:#993333;stroke:#000000;stroke-miterlimit:10;" width="21.33" height="19.17"/></g>
	</a>
	
	<a id="R123" xlink:href="#" >
     <g><rect id="R123" x="206.29" y="140.83" transform="matrix(-1.346338e-10 1 -1 -1.346338e-10 367.2918 -66.6287)" style="fill:#993333;stroke:#000000;stroke-miterlimit:10;" width="21.33" height="19"/></g>
	</a>
	
	<a id="R127" xlink:href="#" >
     <g><rect id="R127" x="225.38" y="140.75" transform="matrix(-1.347191e-10 1 -1 -1.347191e-10 386.3751 -85.712)" style="fill:#993333;stroke:#000000;stroke-miterlimit:10;" width="21.33" height="19.17"/></g>
	</a>
	
	<a id="R131" xlink:href="#" >
     <g><rect id="R131" x="244.63" y="140.66" transform="matrix(-1.347191e-10 1 -1 -1.347191e-10 405.6251 -104.962)" style="fill:#993333;stroke:#000000;stroke-miterlimit:10;" width="21.33" height="19.33"/></g>
	</a>
	
	<a id="R135" xlink:href="#" >
     <g><polygon id="R135" style="fill:#993333;stroke:#000000;stroke-miterlimit:10;" points="264.96,161 264.96,139.66 284.04,139.66 
	284.04,161.31 	"/></g>
	</a>
	
	<a id="R109" xlink:href="#" >
     <g><rect id="R109" x="208.63" y="161" transform="matrix(-1.346338e-10 1 -1 -1.346338e-10 390.9584 -47.6287)" style="fill:#993333;stroke:#000000;stroke-miterlimit:10;" width="21.33" height="21.33"/></g>
	</a>
	
	<a id="R116" xlink:href="#" >
     <g><polygon id="R145_2_" style="fill:#993333;stroke:#000000;stroke-miterlimit:10;" points="244.04,230.33 269.04,230.33 
	269.04,208.33 284.04,208.33 284.04,182.33 284.04,161.31 258.04,160.96 258.04,182.33 244.04,182.33 	"/></g>
	</a>
	
	<a id="R143" xlink:href="#" >
     <g><rect id="R143" x="291.79" y="160.33" transform="matrix(-1.346658e-10 1 -1 -1.346658e-10 474.1251 -139.462)" style="fill:#993333;stroke:#000000;stroke-miterlimit:10;" width="30" height="14"/></g>
	</a>
	
	<a id="R100" xlink:href="#" >
     <g><polygon id="R100" style="fill:#001A72;stroke:#000000;stroke-miterlimit:10;" points="363.04,356.83 363.04,372.58 
	350.04,372.83 350.04,577.33 343.04,577.33 343.04,593.33 364.04,593.85 364.04,611.33 107.11,611.08 106.54,594.33 125.52,594.33 
	125.42,579.32 119.73,579.46 118.63,373.33 106.04,373.33 106.04,357.16 	"/></g>
	</a>
	
	<a id="R105" xlink:href="#" >
     <g><polygon id="R105" style="fill:#22B24C;stroke:#000000;stroke-miterlimit:10;" points="284.04,229.33 284.04,293.33 
	188.29,293.33 187.67,182.08 230.04,182.33 230.04,174.33 244.29,174.33 244.92,230.08 	"/></g>
	</a>
	
	<a id="R101" xlink:href="#" >
     <g><rect id="R101" x="213.21" y="286.58" transform="matrix(-1.346844e-10 1 -1 -1.346844e-10 570.3751 97.9547)" style="fill:#22B24C;stroke:#000000;stroke-miterlimit:10;" width="46" height="95.17"/></g>
	</a>
	
	<a id="R140" xlink:href="#" >
     <g><rect id="R140" x="303.54" y="645.58" transform="matrix(-1.346827e-10 1 -1 -1.346827e-10 1001.3751 347.288)" style="fill:#006699;stroke:#000000;stroke-miterlimit:10;" width="47" height="57.5"/></g>
	</a>
	
	<a id="R138" xlink:href="#" >
     <g><rect id="R138" x="308.92" y="687.21" transform="matrix(-1.347306e-10 1 -1 -1.347306e-10 1043.0001 388.913)" style="fill:#006699;stroke:#000000;stroke-miterlimit:10;" width="36.25" height="57.5"/></g>
	</a>
	
	<a id="R130" xlink:href="#" >
     <g><rect id="R130" x="260.64" y="741.74" transform="matrix(-1.357387e-10 1 -1 -1.357387e-10 1097.5291 490.9427)" style="fill:#006699;stroke:#000000;stroke-miterlimit:10;" width="85.31" height="105"/></g>
	</a>
	
	<a id="R118" xlink:href="#" >
     <g><rect id="R118" x="202.79" y="776.33" transform="matrix(-1.347084e-10 1 -1 -1.347084e-10 1027.1248 586.0383)" style="fill:#993333;stroke:#000000;stroke-miterlimit:10;" width="35.5" height="60.5"/></g>
	</a>
	
	<a id="R116" xlink:href="#" >
     <g><rect id="R116" x="195.29" y="765.08" transform="matrix(-1.347511e-10 1 -1 -1.347511e-10 984.1251 574.788)" style="fill:#993333;stroke:#000000;stroke-miterlimit:10;" width="18.75" height="28.75"/></g>
	</a>
	
	<a id="R112" xlink:href="#" >
     <g><rect id="R112" x="195.42" y="746.46" transform="matrix(-1.347040e-10 1 -1 -1.347040e-10 965.5001 556.163)" style="fill:#993333;stroke:#000000;stroke-miterlimit:10;" width="18.5" height="28.75"/></g>
	</a>
	
	<a id="R114" xlink:href="#" >
     <g><rect id="R114" x="117.54" y="783.33" transform="matrix(-1.346827e-10 1 -1 -1.346827e-10 954.6251 672.538)" style="fill:#006699;stroke:#000000;stroke-miterlimit:10;" width="47" height="60.5"/></g>
	</a>
	
	<a id="R110" xlink:href="#" >
     <g><polygon id="R110" style="fill:#006699;stroke:#000000;stroke-miterlimit:10;" points="110.79,790.08 110.79,744.08 
	170.79,744.33 171.29,790.08 	"/></g>
	</a>
	
	<a id="R106" xlink:href="#" >
     <g><polygon id="R106" style="fill:#006699;stroke:#000000;stroke-miterlimit:10;" points="171.04,695.33 171.04,744.33 
	110.92,744.33 110.29,700.33 141.04,700.33 141.04,695.33 	"/></g>
	</a>
	
	<a id="R102" xlink:href="#" >
     <g><polygon id="R102" style="fill:#006699;stroke:#000000;stroke-miterlimit:10;" points="171.04,650.33 171.04,694.33 
	141.04,694.83 141.04,700.33 110.29,700.33 111.04,650.33 	"/></g>
	</a>
	
	<a id="R132" xlink:href="#" >
     <g><rect id="R132" x="253.29" y="710.08" transform="matrix(-1.347004e-10 1 -1 -1.347004e-10 988.8751 453.538)" style="fill:#993333;stroke:#000000;stroke-miterlimit:10;" width="28.75" height="22.25"/></g>
	</a>
	
	<a id="R128" xlink:href="#" >
     <g><rect id="R128" x="231.36" y="710.39" transform="matrix(-1.347004e-10 1 -1 -1.347004e-10 966.9374 475.4756)" style="fill:#993333;stroke:#000000;stroke-miterlimit:10;" width="28.75" height="21.63"/></g>
	</a>
	
	<a id="R124" xlink:href="#" >
     <g><rect id="R124" x="209.86" y="710.52" transform="matrix(-1.347004e-10 1 -1 -1.347004e-10 945.4374 496.9756)" style="fill:#993333;stroke:#000000;stroke-miterlimit:10;" width="28.75" height="21.37"/></g>
	</a>
	
	<a id="R120" xlink:href="#" >
     <g><rect id="R120" x="187.54" y="709.58" transform="matrix(-1.346374e-10 1 -1 -1.346374e-10 923.1251 519.288)" style="fill:#993333;stroke:#000000;stroke-miterlimit:10;" width="28.75" height="23.25"/></g>
	</a>
	
	<a id="R134" xlink:href="#" >
     <g><rect id="R134" x="298.29" y="734.08" style="fill:#006699;stroke:#000000;stroke-miterlimit:10;" width="57.5" height="17.5"/></g>
	</a>
</g>
<g id="Doors">
	<line id="lcd.1" style="fill:none;stroke:#00FF00;stroke-miterlimit:10;" x1="180.71" y1="614.5" x2="189.04" y2="614.5"/>
	<line id="R102" style="fill:none;stroke:#00FF00;stroke-miterlimit:10;" x1="164.54" y1="689.33" x2="157.21" y2="685.46"/>
	<line id="R106" style="fill:none;stroke:#00FF00;stroke-miterlimit:10;" x1="164.88" y1="738.5" x2="157.88" y2="735.58"/>
	<line id="R110" style="fill:none;stroke:#00FF00;stroke-miterlimit:10;" x1="165.21" y1="749.5" x2="157.21" y2="751.58"/>
	<line id="R114" style="fill:none;stroke:#00FF00;stroke-miterlimit:10;" x1="166.54" y1="832.5" x2="158.54" y2="828.16"/>
	<line id="R118" style="fill:none;stroke:#00FF00;stroke-miterlimit:10;" x1="193.88" y1="794.24" x2="199.54" y2="797.83"/>
	<line id="R116" style="fill:none;stroke:#00FF00;stroke-miterlimit:10;" x1="193.88" y1="779.46" x2="201.67" y2="779.46"/>
	<line id="R112" style="fill:none;stroke:#00FF00;stroke-miterlimit:10;" x1="193.88" y1="763.83" x2="199.54" y2="760.83"/>
	<line id="R120" style="fill:none;stroke:#00FF00;stroke-miterlimit:10;" x1="201.67" y1="731.83" x2="201.92" y2="721.21"/>
	<line id="R124" style="fill:none;stroke:#00FF00;stroke-miterlimit:10;" x1="224.23" y1="730.83" x2="224.23" y2="723.5"/>
	<line id="R128_1_" style="fill:none;stroke:#00FF00;stroke-miterlimit:10;" x1="245.73" y1="730.83" x2="245.73" y2="721.21"/>
	<line id="R132_1_" style="fill:none;stroke:#00FF00;stroke-miterlimit:10;" x1="267.67" y1="730.83" x2="267.67" y2="723.5"/>
	<line id="R130" style="fill:none;stroke:#00FF00;stroke-miterlimit:10;" x1="292.54" y1="754.83" x2="293.54" y2="764.83"/>
	<line id="R134_1_" style="fill:none;stroke:#00FF00;stroke-miterlimit:10;" x1="301.88" y1="742.83" x2="311.54" y2="742.83"/>
	<line id="R138" style="fill:none;stroke:#00FF00;stroke-miterlimit:10;" x1="303.29" y1="726.02" x2="313.88" y2="723.5"/>
	<line id="R140" style="fill:none;stroke:#00FF00;stroke-miterlimit:10;" x1="303.29" y1="693.08" x2="313.88" y2="687.39"/>
	<line id="R101_1_" style="fill:none;stroke:#00FF00;stroke-miterlimit:10;" x1="237.38" y1="316.75" x2="237.38" y2="324.83"/>
	<line id="R105" style="fill:none;stroke:#00FF00;stroke-miterlimit:10;" x1="194.54" y1="260.16" x2="207.46" y2="261.5"/>
	<line id="R145" style="fill:none;stroke:#00FF00;stroke-miterlimit:10;" x1="279.63" y1="192.83" x2="270.79" y2="192.83"/>
	<line id="R143" style="fill:none;stroke:#00FF00;stroke-miterlimit:10;" x1="301.83" y1="170.16" x2="306.79" y2="167.33"/>
	<line id="R141" style="fill:none;stroke:#00FF00;stroke-miterlimit:10;" x1="299.79" y1="134.16" x2="304.31" y2="130.83"/>
	<line id="R139" style="fill:none;stroke:#00FF00;stroke-miterlimit:10;" x1="288.21" y1="124.16" x2="288.21" y2="117.83"/>
	<line id="R137" style="fill:none;stroke:#00FF00;stroke-miterlimit:10;" x1="271.42" y1="124.16" x2="271.42" y2="116.16"/>
	<line id="R133" style="fill:none;stroke:#00FF00;stroke-miterlimit:10;" x1="253.29" y1="122.5" x2="253.29" y2="116.16"/>
	<line id="R129" style="fill:none;stroke:#00FF00;stroke-miterlimit:10;" x1="236.21" y1="122.5" x2="236.21" y2="116.16"/>
	<line id="R125" style="fill:none;stroke:#00FF00;stroke-miterlimit:10;" x1="218.99" y1="121" x2="219.29" y2="116.16"/>
	<line id="R121" style="fill:none;stroke:#00FF00;stroke-miterlimit:10;" x1="201.91" y1="122.5" x2="201.91" y2="116.16"/>
	<line id="R117" style="fill:none;stroke:#00FF00;stroke-miterlimit:10;" x1="184.54" y1="122.5" x2="175.91" y2="118.58"/>
	<line id="R115" style="fill:none;stroke:#00FF00;stroke-miterlimit:10;" x1="172.67" y1="134.99" x2="164.81" y2="134.99"/>
	<line id="R111" style="fill:none;stroke:#00FF00;stroke-miterlimit:10;" x1="168.53" y1="157.99" x2="162.55" y2="157.99"/>
	<line id="R119" style="fill:none;stroke:#00FF00;stroke-miterlimit:10;" x1="197.88" y1="142.5" x2="197.88" y2="148.16"/>
	<line id="R123" style="fill:none;stroke:#00FF00;stroke-miterlimit:10;" x1="216.96" y1="142.5" x2="216.96" y2="150.33"/>
	<line id="R127" style="fill:none;stroke:#00FF00;stroke-miterlimit:10;" x1="237.38" y1="142.5" x2="237.38" y2="148.16"/>
	<line id="R131" style="fill:none;stroke:#00FF00;stroke-miterlimit:10;" x1="255.29" y1="142.5" x2="255.29" y2="150.33"/>
	<line id="R135" style="fill:none;stroke:#00FF00;stroke-miterlimit:10;" x1="275.21" y1="142.5" x2="274.5" y2="150.49"/>
</g>
<g id="Labels">
	<text id="title" transform="matrix(1 0 0 1 50.802 21.4135)"><tspan x="0" y="0" style="font-family:'OptimaLTStd'; font-size:25.7994px;">Volunteer State Community College </tspan><tspan x="95.34" y="30.96" style="font-family:'OptimaLTStd'; font-size:25.7994px;">Pickel Field House</tspan></text>
	<rect id="swatch-blue" y="65.97" style="fill:#006699;" width="22.11" height="22.11"/>
	<rect id="swatch-navy" x="144.83" y="65.97" style="fill:#001A72;" width="22.11" height="22.11"/>
	<rect id="swatch-pink" x="290.77" y="65.97" style="fill:#993333;" width="22.11" height="22.11"/>
	
		<text id="legend-classrooms" transform="matrix(1 0 0 1 28.5559 82.2538)" style="font-family:'OptimaLTStd'; font-size:16.5853px;">Classrooms</text>
	<text id="legend-gym" transform="matrix(1 0 0 1 175.6765 82.2538)" style="font-family:'OptimaLTStd'; font-size:16.5853px;">Gymnasium</text>
	<text id="legend-offices" transform="matrix(1 0 0 1 318.2449 82.2538)" style="font-family:'OptimaLTStd'; font-size:16.5853px;">Offices</text>
	<rect id="swatch-green" x="398.76" y="65.97" style="fill:#22B24C;" width="22.11" height="22.11"/>
	<text id="legend-fitness" transform="matrix(1 0 0 1 425.601 82.2537)" style="font-family:'OptimaLTStd'; font-size:16.5853px;">Fitness Rooms</text>
	
		<text id="male1" transform="matrix(1 0 0 1 214.5439 689.332)" style="fill:#FFFFFF; font-family:'FontAwesome'; font-size:25.7994px;"></text>
	
		<text id="male1_1_" transform="matrix(1 0 0 1 143.0567 308.7477)" style="fill:#FFFFFF; font-family:'FontAwesome'; font-size:25.7994px;"></text>
	
		<text id="female2" transform="matrix(1 0 0 1 237.3773 689.332)" style="fill:#FFFFFF; font-family:'FontAwesome'; font-size:25.7994px;"></text>
	
		<text id="female2_1_" transform="matrix(1 0 0 1 315.9935 307.7061)" style="fill:#FFFFFF; font-family:'FontAwesome'; font-size:25.7994px;"></text>
	<polyline id="Stairs_5_" style="fill:none;stroke:#FFFFFF;stroke-miterlimit:10;" points="373.54,589.33 376.04,589.33 
		376.04,594.33 380.04,594.33 380.04,598.33 384.96,598.33 385.04,603.33 388.54,603.33 	"/>
	<polyline id="Stairs_4_" style="fill:none;stroke:#FFFFFF;stroke-miterlimit:10;" points="81.54,588.33 84.04,588.33 84.04,593.33 
		88.04,593.33 88.04,597.33 92.96,597.33 93.04,602.33 96.54,602.33 	"/>
	<polyline id="Stairs_6_" style="fill:none;stroke:#FFFFFF;stroke-miterlimit:10;" points="81.54,367.33 84.04,367.33 84.04,372.33 
		88.04,372.33 88.04,376.33 92.96,376.33 93.04,381.33 96.54,381.33 	"/>
	<polyline id="Stairs_7_" style="fill:none;stroke:#FFFFFF;stroke-miterlimit:10;" points="372.54,367.33 375.04,367.33 
		375.04,372.33 379.04,372.33 379.04,376.33 383.96,376.33 384.04,381.33 387.54,381.33 	"/>
	<text transform="matrix(1 0 0 1 165.5436 117.8314)" style="fill:#FFFFFF; font-family:'MyriadPro-Regular'; font-size:12px;">117</text>
	<text transform="matrix(1 0 0 1 158.2936 144.3317)" style="fill:#FFFFFF; font-family:'MyriadPro-Regular'; font-size:10px;">115</text>
	<text transform="matrix(1 0 0 1 158.9915 165.3314)" style="fill:#FFFFFF; font-family:'MyriadPro-Regular'; font-size:10px;">111</text>
	<text transform="matrix(1 0 0 1 193.7847 117.8316)" style="fill:#FFFFFF; font-family:'MyriadPro-Regular'; font-size:10px;">121</text>
	<text transform="matrix(1 0 0 1 211.0436 117.8317)" style="fill:#FFFFFF; font-family:'MyriadPro-Regular'; font-size:10px;">125</text>
	<text transform="matrix(1 0 0 1 228.1269 117.8319)" style="fill:#FFFFFF; font-family:'MyriadPro-Regular'; font-size:10px;">129</text>
	<text transform="matrix(1 0 0 1 245.6272 117.8321)" style="fill:#FFFFFF; font-family:'MyriadPro-Regular'; font-size:10px;">133</text>
	<text transform="matrix(1 0 0 1 262.4188 117.8322)" style="fill:#FFFFFF; font-family:'MyriadPro-Regular'; font-size:10px;">137</text>
	<text transform="matrix(1 0 0 1 279.6269 117.8324)" style="fill:#FFFFFF; font-family:'MyriadPro-Regular'; font-size:10px;">139</text>
	<text transform="matrix(1 0 0 1 296.7935 117.8326)" style="fill:#FFFFFF; font-family:'MyriadPro-Regular'; font-size:11px;">141</text>
	<text transform="matrix(1 0 0 1 298.6269 171.665)" style="fill:#FFFFFF; font-family:'MyriadPro-Regular'; font-size:10px;">143</text>
	<text transform="matrix(1 0 0 1 265.9602 154.8314)" style="fill:#FFFFFF; font-family:'MyriadPro-Regular'; font-size:10px;">135</text>
	<text transform="matrix(1 0 0 1 246.9602 154.8316)" style="fill:#FFFFFF; font-family:'MyriadPro-Regular'; font-size:10px;">131</text>
	<text transform="matrix(1 0 0 1 227.9602 154.8316)" style="fill:#FFFFFF; font-family:'MyriadPro-Regular'; font-size:10px;">127</text>
	<text transform="matrix(1 0 0 1 208.6269 154.8316)" style="fill:#FFFFFF; font-family:'MyriadPro-Regular'; font-size:10px;">123</text>
	<text transform="matrix(1 0 0 1 189.6269 154.8317)" style="fill:#FFFFFF; font-family:'MyriadPro-Regular'; font-size:10px;">119</text>
	<text transform="matrix(1 0 0 1 256.9602 198.498)" style="fill:#FFFFFF; font-family:'MyriadPro-Regular'; font-size:11px;">145</text>
	<text transform="matrix(1 0 0 1 126.5173 678.3315)" style="fill:#FFFFFF; font-family:'MyriadPro-Regular'; font-size:18px;">102</text>
	<text transform="matrix(1 0 0 1 126.5173 728.9982)" style="fill:#FFFFFF; font-family:'MyriadPro-Regular'; font-size:18px;">106</text>
	<text transform="matrix(1 0 0 1 125.5173 772.9982)" style="fill:#FFFFFF; font-family:'MyriadPro-Regular'; font-size:18px;">110</text>
	<text transform="matrix(1 0 0 1 126.5173 819.6649)" style="fill:#FFFFFF; font-family:'MyriadPro-Regular'; font-size:18px;">114</text>
	<text transform="matrix(1 0 0 1 291.7936 806.5815)" style="fill:#FFFFFF; font-family:'MyriadPro-Regular'; font-size:18px;">130</text>
	<text transform="matrix(1 0 0 1 315.917 747.3315)" style="fill:#FFFFFF; font-family:'MyriadPro-Regular'; font-size:14px;">134</text>
	<text transform="matrix(1 0 0 1 312.5172 721.2065)" style="fill:#FFFFFF; font-family:'MyriadPro-Regular'; font-size:18px;">138</text>
	<text transform="matrix(1 0 0 1 312.5173 679.8315)" style="fill:#FFFFFF; font-family:'MyriadPro-Regular'; font-size:18px;">140</text>
	<text transform="matrix(1 0 0 1 208.6273 813.5815)" style="fill:#FFFFFF; font-family:'MyriadPro-Regular'; font-size:14px;">118</text>
	<text transform="matrix(1 0 0 1 192.7851 784.1649)" style="fill:#FFFFFF; font-family:'MyriadPro-Regular'; font-size:14px;">116</text>
	<text transform="matrix(1 0 0 1 192.7851 766.0815)" style="fill:#FFFFFF; font-family:'MyriadPro-Regular'; font-size:14px;">112</text>
	<text transform="matrix(1 0 0 1 192.6273 727.3315)" style="fill:#FFFFFF; font-family:'MyriadPro-Regular'; font-size:12px;">120</text>
	<text transform="matrix(1 0 0 1 214.5443 727.3315)" style="fill:#FFFFFF; font-family:'MyriadPro-Regular'; font-size:12px;">124</text>
	<text transform="matrix(1 0 0 1 236.377 727.3315)" style="fill:#FFFFFF; font-family:'MyriadPro-Regular'; font-size:12px;">128</text>
	<text transform="matrix(1 0 0 1 258.7933 727.3315)" style="fill:#FFFFFF; font-family:'MyriadPro-Regular'; font-size:12px;">132</text>
	<text transform="matrix(1 0 0 1 183.8456 475.6649)"><tspan x="0" y="0" style="fill:#FFFFFF; font-family:'MyriadPro-Regular'; font-size:21px;">Gymnasium </tspan><tspan x="36.37" y="25.2" style="fill:#FFFFFF; font-family:'MyriadPro-Regular'; font-size:21px;">100</tspan></text>
	<text transform="matrix(1 0 0 1 223.2309 341.9979)" style="fill:#FFFFFF; font-family:'MyriadPro-Regular'; font-size:18px;">101</text>
	<text transform="matrix(1 0 0 1 223.2307 260.4985)" style="fill:#FFFFFF; font-family:'MyriadPro-Regular'; font-size:18px;">105</text>
</g>
<g id="Paths">
	<line style="fill:none;stroke:#FF00FF;stroke-miterlimit:10;" x1="180.71" y1="614.5" x2="180.79" y2="631.08"/>
	<line style="fill:none;stroke:#FF00FF;stroke-miterlimit:10;" x1="164.54" y1="689.33" x2="180.79" y2="690.24"/>
	<line style="fill:none;stroke:#FF00FF;stroke-miterlimit:10;" x1="180.79" y1="631.08" x2="180.79" y2="690.24"/>
	<line style="fill:none;stroke:#FF00FF;stroke-miterlimit:10;" x1="164.88" y1="738.5" x2="180.79" y2="737.04"/>
	<line style="fill:none;stroke:#FF00FF;stroke-miterlimit:10;" x1="180.79" y1="690.24" x2="180.79" y2="737.04"/>
	<line style="fill:none;stroke:#FF00FF;stroke-miterlimit:10;" x1="165.21" y1="749.5" x2="180.79" y2="750.54"/>
	<line style="fill:none;stroke:#FF00FF;stroke-miterlimit:10;" x1="201.67" y1="731.83" x2="201.67" y2="742.83"/>
	<line style="fill:none;stroke:#FF00FF;stroke-miterlimit:10;" x1="180.79" y1="737.04" x2="180.79" y2="742.83"/>
	<line style="fill:none;stroke:#FF00FF;stroke-miterlimit:10;" x1="201.67" y1="742.83" x2="180.79" y2="742.83"/>
	<line style="fill:none;stroke:#FF00FF;stroke-miterlimit:10;" x1="180.79" y1="750.54" x2="180.79" y2="742.83"/>
	<line style="fill:none;stroke:#FF00FF;stroke-miterlimit:10;" x1="193.88" y1="763.83" x2="180.79" y2="762.33"/>
	<line style="fill:none;stroke:#FF00FF;stroke-miterlimit:10;" x1="180.79" y1="750.54" x2="180.79" y2="762.33"/>
	<line style="fill:none;stroke:#FF00FF;stroke-miterlimit:10;" x1="193.88" y1="779.46" x2="180.71" y2="779.46"/>
	<line style="fill:none;stroke:#FF00FF;stroke-miterlimit:10;" x1="180.79" y1="762.33" x2="180.71" y2="779.46"/>
	<line style="fill:none;stroke:#FF00FF;stroke-miterlimit:10;" x1="193.88" y1="794.24" x2="180.71" y2="796.03"/>
	<line style="fill:none;stroke:#FF00FF;stroke-miterlimit:10;" x1="180.71" y1="779.46" x2="180.71" y2="796.03"/>
	<line style="fill:none;stroke:#FF00FF;stroke-miterlimit:10;" x1="166.54" y1="832.5" x2="179.71" y2="832.83"/>
	<line style="fill:none;stroke:#FF00FF;stroke-miterlimit:10;" x1="180.71" y1="796.03" x2="179.71" y2="832.83"/>
	<line style="fill:none;stroke:#FF00FF;stroke-miterlimit:10;" x1="224.23" y1="730.83" x2="224.23" y2="742.83"/>
	<line style="fill:none;stroke:#FF00FF;stroke-miterlimit:10;" x1="201.67" y1="742.83" x2="224.23" y2="742.83"/>
	<line style="fill:none;stroke:#FF00FF;stroke-miterlimit:10;" x1="245.73" y1="730.83" x2="245.63" y2="742.83"/>
	<line style="fill:none;stroke:#FF00FF;stroke-miterlimit:10;" x1="224.23" y1="742.83" x2="245.63" y2="742.83"/>
	<line style="fill:none;stroke:#FF00FF;stroke-miterlimit:10;" x1="267.67" y1="730.83" x2="267.67" y2="742.83"/>
	<line style="fill:none;stroke:#FF00FF;stroke-miterlimit:10;" x1="245.63" y1="742.83" x2="267.67" y2="742.83"/>
	<line style="fill:none;stroke:#FF00FF;stroke-miterlimit:10;" x1="292.54" y1="754.83" x2="288.54" y2="742.83"/>
	<line style="fill:none;stroke:#FF00FF;stroke-miterlimit:10;" x1="301.88" y1="742.83" x2="288.54" y2="742.83"/>
	<line style="fill:none;stroke:#FF00FF;stroke-miterlimit:10;" x1="267.67" y1="742.83" x2="288.54" y2="742.83"/>
	<line style="fill:none;stroke:#FF00FF;stroke-miterlimit:10;" x1="303.29" y1="726.02" x2="288.54" y2="726.52"/>
	<line style="fill:none;stroke:#FF00FF;stroke-miterlimit:10;" x1="288.54" y1="742.83" x2="288.54" y2="726.52"/>
	<line style="fill:none;stroke:#FF00FF;stroke-miterlimit:10;" x1="303.29" y1="693.08" x2="288.54" y2="693.08"/>
	<line style="fill:none;stroke:#FF00FF;stroke-miterlimit:10;" x1="288.54" y1="726.52" x2="288.54" y2="693.08"/>
	<line style="fill:none;stroke:#FF00FF;stroke-miterlimit:10;" x1="180.79" y1="631.08" x2="288.54" y2="631.08"/>
	<line style="fill:none;stroke:#FF00FF;stroke-miterlimit:10;" x1="288.54" y1="693.08" x2="288.54" y2="631.08"/>
	<line style="fill:none;stroke:#FF00FF;stroke-miterlimit:10;" x1="180.79" y1="631.08" x2="59.04" y2="631.08"/>
	<line style="fill:none;stroke:#FF00FF;stroke-miterlimit:10;" x1="179.71" y1="342" x2="59.04" y2="342"/>
	<line style="fill:none;stroke:#FF00FF;stroke-miterlimit:10;" x1="59.04" y1="631.08" x2="59.04" y2="342"/>
	<line style="fill:none;stroke:#FF00FF;stroke-miterlimit:10;" x1="179.71" y1="342" x2="180.21" y2="303.33"/>
	<line style="fill:none;stroke:#FF00FF;stroke-miterlimit:10;" x1="237.38" y1="316.75" x2="237.38" y2="303.33"/>
	<line style="fill:none;stroke:#FF00FF;stroke-miterlimit:10;" x1="180.21" y1="303.33" x2="237.38" y2="303.33"/>
	<line style="fill:none;stroke:#FF00FF;stroke-miterlimit:10;" x1="194.54" y1="260.16" x2="179.71" y2="260.5"/>
	<line style="fill:none;stroke:#FF00FF;stroke-miterlimit:10;" x1="180.21" y1="303.33" x2="179.71" y2="260.5"/>
	<line style="fill:none;stroke:#FF00FF;stroke-miterlimit:10;" x1="179.71" y1="157.99" x2="179.71" y2="260.5"/>
	<line style="fill:none;stroke:#FF00FF;stroke-miterlimit:10;" x1="168.53" y1="157.99" x2="179.71" y2="157.99"/>
	<line style="fill:none;stroke:#FF00FF;stroke-miterlimit:10;" x1="172.67" y1="134.99" x2="180.79" y2="134.99"/>
	<line style="fill:none;stroke:#FF00FF;stroke-miterlimit:10;" x1="179.71" y1="157.99" x2="180.79" y2="134.99"/>
	<line style="fill:none;stroke:#FF00FF;stroke-miterlimit:10;" x1="184.54" y1="122.5" x2="187.13" y2="134.99"/>
	<line style="fill:none;stroke:#FF00FF;stroke-miterlimit:10;" x1="180.79" y1="134.99" x2="187.13" y2="134.99"/>
	<line style="fill:none;stroke:#FF00FF;stroke-miterlimit:10;" x1="197.88" y1="142.5" x2="196.79" y2="134.99"/>
	<line style="fill:none;stroke:#FF00FF;stroke-miterlimit:10;" x1="187.13" y1="134.99" x2="196.79" y2="134.99"/>
	<line style="fill:none;stroke:#FF00FF;stroke-miterlimit:10;" x1="201.91" y1="122.5" x2="203.04" y2="134.99"/>
	<line style="fill:none;stroke:#FF00FF;stroke-miterlimit:10;" x1="196.79" y1="134.99" x2="203.04" y2="134.99"/>
	<line style="fill:none;stroke:#FF00FF;stroke-miterlimit:10;" x1="216.96" y1="142.5" x2="214.54" y2="134.99"/>
	<line style="fill:none;stroke:#FF00FF;stroke-miterlimit:10;" x1="203.04" y1="134.99" x2="214.54" y2="134.99"/>
	<line style="fill:none;stroke:#FF00FF;stroke-miterlimit:10;" x1="218.99" y1="121" x2="221.79" y2="134.99"/>
	<line style="fill:none;stroke:#FF00FF;stroke-miterlimit:10;" x1="214.54" y1="134.99" x2="221.79" y2="134.99"/>
	<line style="fill:none;stroke:#FF00FF;stroke-miterlimit:10;" x1="237.38" y1="142.5" x2="235.86" y2="134.99"/>
	<line style="fill:none;stroke:#FF00FF;stroke-miterlimit:10;" x1="221.79" y1="134.99" x2="235.86" y2="134.99"/>
	<line style="fill:none;stroke:#FF00FF;stroke-miterlimit:10;" x1="236.21" y1="122.5" x2="239.54" y2="134.99"/>
	<line style="fill:none;stroke:#FF00FF;stroke-miterlimit:10;" x1="235.86" y1="134.99" x2="239.54" y2="134.99"/>
	<line style="fill:none;stroke:#FF00FF;stroke-miterlimit:10;" x1="253.29" y1="122.5" x2="251.54" y2="134.99"/>
	<line style="fill:none;stroke:#FF00FF;stroke-miterlimit:10;" x1="239.54" y1="134.99" x2="251.54" y2="134.99"/>
	<line style="fill:none;stroke:#FF00FF;stroke-miterlimit:10;" x1="255.29" y1="142.5" x2="255.29" y2="134.99"/>
	<line style="fill:none;stroke:#FF00FF;stroke-miterlimit:10;" x1="251.54" y1="134.99" x2="255.29" y2="134.99"/>
	<line style="fill:none;stroke:#FF00FF;stroke-miterlimit:10;" x1="271.42" y1="124.16" x2="270.79" y2="134.99"/>
	<line style="fill:none;stroke:#FF00FF;stroke-miterlimit:10;" x1="255.29" y1="134.99" x2="270.79" y2="134.99"/>
	<line style="fill:none;stroke:#FF00FF;stroke-miterlimit:10;" x1="275.21" y1="142.5" x2="275.21" y2="134.99"/>
	<line style="fill:none;stroke:#FF00FF;stroke-miterlimit:10;" x1="270.79" y1="134.99" x2="275.21" y2="134.99"/>
	<line style="fill:none;stroke:#FF00FF;stroke-miterlimit:10;" x1="288.21" y1="124.16" x2="288.21" y2="134.99"/>
	<line style="fill:none;stroke:#FF00FF;stroke-miterlimit:10;" x1="275.21" y1="134.99" x2="288.21" y2="134.99"/>
	<line style="fill:none;stroke:#FF00FF;stroke-miterlimit:10;" x1="299.79" y1="134.16" x2="288.21" y2="134.99"/>
	<line style="fill:none;stroke:#FF00FF;stroke-miterlimit:10;" x1="301.83" y1="170.16" x2="288.21" y2="170.33"/>
	<line style="fill:none;stroke:#FF00FF;stroke-miterlimit:10;" x1="288.21" y1="134.99" x2="288.21" y2="170.33"/>
	<line style="fill:none;stroke:#FF00FF;stroke-miterlimit:10;" x1="279.63" y1="192.83" x2="288.21" y2="192.83"/>
	<line style="fill:none;stroke:#FF00FF;stroke-miterlimit:10;" x1="288.21" y1="170.33" x2="288.21" y2="192.83"/>
</g>
</svg>
