<?xml version="1.0" encoding="utf-8"?>

<svg version="1.1" id="Layer_1" xmlns="http://www.w3.org/2000/svg" xmlns:xlink="http://www.w3.org/1999/xlink" x="0px" y="0px"
	 viewBox="0 0 637 592.71" width="637px" height="592.71px" style="enable-background:new 0 0 637 592.71;" xml:space="preserve">
<g id="Base">
	<polyline id="Circulation" style="fill:#D3D3D3;stroke:#9D2235;stroke-miterlimit:10;" points="635.58,586.5 544.5,586.94 
		544.33,592.21 504,592.21 504.15,585.38 299.67,584.58 299.5,552.21 250.5,552.21 250.5,569.21 1.5,569.21 1.5,356.21 
		226.5,356.21 226.5,310.21 300.5,310.21 299.83,119.21 470.83,119.21 471.5,186.21 560.5,186.21 560.5,181.21 636.5,181.21 
		636.5,586.71 	"/>
	
		<rect x="504" y="517.79" transform="matrix(-1 -8.979630e-11 8.979630e-11 -1 1028.5 1066.4232)" style="fill:none;stroke:#9D2235;stroke-miterlimit:10;" width="20.5" height="30.83"/>
	
		<rect id="Restroom_1_" x="462.17" y="391.63" transform="matrix(-1 -8.982116e-11 8.982116e-11 -1 955.5 829.2565)" style="fill:#00CCCC;stroke:#9D2235;stroke-miterlimit:10;" width="31.17" height="46"/>
	
		<rect id="Restroom" x="431" y="391.63" transform="matrix(-1 -8.982116e-11 8.982116e-11 -1 893.1667 829.2565)" style="fill:#00CCCC;stroke:#9D2235;stroke-miterlimit:10;" width="31.17" height="46"/>
	<polygon id="Restroom_2_" style="fill:#00CCCC;stroke:#9D2235;stroke-miterlimit:10;" points="354.5,422.21 334.5,422.21 
		334.5,414.21 320.5,414.21 320.5,421.21 300.5,421.21 300.5,391.21 354.5,391.21 	"/>
	<line style="fill:none;stroke:#9D2235;stroke-miterlimit:10;" x1="327.5" y1="413.79" x2="327.5" y2="390.79"/>
	
		<rect x="354.5" y="390.79" transform="matrix(-1 -8.980873e-11 8.980873e-11 -1 773.8333 812.5898)" style="fill:none;stroke:#9D2235;stroke-miterlimit:10;" width="64.83" height="31"/>
	<line style="fill:none;stroke:#9D2235;stroke-miterlimit:10;" x1="504" y1="464.29" x2="493.33" y2="464.29"/>
	
		<rect x="534" y="308.96" transform="matrix(-1 -8.983005e-11 8.983005e-11 -1 1094 633.2565)" style="fill:none;stroke:#9D2235;stroke-miterlimit:10;" width="26" height="15.33"/>
	
		<rect x="498.37" y="308.96" transform="matrix(-1 -8.979940e-11 8.979940e-11 -1 1032.3695 633.2565)" style="fill:none;stroke:#9D2235;stroke-miterlimit:10;" width="35.63" height="15.33"/>
	
		<rect x="376.5" y="194.79" transform="matrix(-1 -8.978653e-11 8.978653e-11 -1 814 420.5898)" style="fill:none;stroke:#9D2235;stroke-miterlimit:10;" width="61" height="31"/>
	<polygon style="fill:none;stroke:#9D2235;stroke-miterlimit:10;" points="607.33,363.63 636.5,363.79 636.5,375.96 607.33,375.79 	
		"/>
	
		<rect x="597" y="363.63" transform="matrix(-1 -8.977587e-11 8.977587e-11 -1 1204.3334 739.4232)" style="fill:none;stroke:#9D2235;stroke-miterlimit:10;" width="10.33" height="12.17"/>
	
		<rect id="Restroom_3_" x="78.67" y="421.79" transform="matrix(-1 -8.978608e-11 8.978608e-11 -1 186 884.0898)" style="fill:#00CCCC;stroke:#9D2235;stroke-miterlimit:10;" width="28.67" height="40.5"/>
	<line style="fill:none;stroke:#9D2235;stroke-miterlimit:10;" x1="93" y1="462.29" x2="93" y2="421.79"/>
	<line style="fill:none;stroke:#9D2235;stroke-miterlimit:10;" x1="560" y1="266.63" x2="574.5" y2="266.63"/>
	<line style="fill:none;stroke:#9D2235;stroke-miterlimit:10;" x1="250.33" y1="355.96" x2="250.33" y2="310.04"/>
</g>
<g id="Rooms">
	<a id="R150" xlink:href="#" >
		<g><polygon id="R150_3_" style="fill:#CC6666;stroke:#9D2235;stroke-miterlimit:10;" points="431.03,466.79 444.31,466.79 
		444.31,458.51 462.19,458.51 462.17,437.63 493.33,437.63 493.33,507.63 431,507.63 	"/></g>
	</a>
	<a id="R101" xlink:href="#" >
		<g><polygon id="R101_3_" style="fill:#CC6666;stroke:#9D2235;stroke-miterlimit:10;" points="299.5,585.21 299.5,519.21 318.5,519.21 
		318.5,541.21 363.5,541.21 363.5,585.21 	"/></g>
	</a>
	<a id="R102" xlink:href="#" >
		<g><polygon id="R102_3_" style="fill:#CC6666;stroke:#9D2235;stroke-miterlimit:10;" points="318.5,540.63 348.74,540.63 
		348.86,518.79 318.62,518.79 	"/></g>
	</a>
	<a id="R103" xlink:href="#" >
		<g><polygon id="R103_3_" style="fill:#CC6666;stroke:#9D2235;stroke-miterlimit:10;" points="425.5,585.21 363.5,585.21 363.5,541.21 
		348.5,541.21 348.25,519.21 410.5,519.21 410.5,544.21 425.25,544.21 	"/></g>
	</a>
	<a id="R106" xlink:href="#" >
		<g><polygon id="R106_7_" style="fill:#CC6666;stroke:#9D2235;stroke-miterlimit:10;" points="410.25,543.71 430.88,543.71 
		431.13,518.88 410.5,518.88 	"/></g>
	</a>
	<a id="R110" xlink:href="#" >
		<g><polygon id="R110_3_" style="fill:#CC6666;stroke:#9D2235;stroke-miterlimit:10;" points="431,518.96 454.67,518.79 454.67,543.63 
		431,543.79 	"/></g>
	</a>
	<a id="R111" xlink:href="#" >
		<g><rect id="R111_3_" x="425.5" y="543.63" transform="matrix(-1 -8.980607e-11 8.980607e-11 -1 880.1667 1107.5898)" style="fill:#CC6666;stroke:#9D2235;stroke-miterlimit:10;" width="29.17" height="20.33"/></g>
	</a>
	<a id="R112" xlink:href="#" >
		<g><rect id="R112_3_" x="425.5" y="563.96" transform="matrix(-1 -8.980607e-11 8.980607e-11 -1 880.1667 1148.7565)" style="fill:#CC6666;stroke:#9D2235;stroke-miterlimit:10;" width="29.17" height="20.83"/></g>
	</a>
	<a id="R114" xlink:href="#" >
		<g><rect id="R114_3_" x="462.17" y="563.96" transform="matrix(-1 -8.982116e-11 8.982116e-11 -1 955.5 1148.7565)" style="fill:#CC6666;stroke:#9D2235;stroke-miterlimit:10;" width="31.17" height="20.83"/></g>
	</a>
	<a id="R115" xlink:href="#" >
		<g><rect id="R115_3_" x="462.17" y="543.63" transform="matrix(-1 -8.982116e-11 8.982116e-11 -1 955.5 1107.5898)" style="fill:#CC6666;stroke:#9D2235;stroke-miterlimit:10;" width="31.17" height="20.33"/></g>
	</a>
	<a id="R116" xlink:href="#" >
		<g><rect id="R116_3_" x="462.17" y="518.79" transform="matrix(-1 -8.976299e-11 8.976299e-11 -1 955.5 1062.4232)" style="fill:#CC6666;stroke:#9D2235;stroke-miterlimit:10;" width="31.17" height="24.83"/></g>
	</a>
	<a id="R117" xlink:href="#" >
		<g><rect id="R117_3_" x="504" y="548.63" transform="matrix(-1 -8.979185e-11 8.979185e-11 -1 1048.3334 1140.5898)" style="fill:#CC6666;stroke:#9D2235;stroke-miterlimit:10;" width="40.33" height="43.33"/></g>
	</a>
	<a id="R120" xlink:href="#" >
		<g><polygon id="R120_3_" style="fill:#CC6666;stroke:#9D2235;stroke-miterlimit:10;" points="636.5,585.63 544.5,586.79 544.5,549.21 
		524.5,549.21 524.5,517.79 636.5,518.63 	"/></g>
	</a>
	<a id="R133" xlink:href="#" >
		<g><polygon id="R133_3_" style="fill:#00B438;stroke:#9D2235;stroke-miterlimit:10;" points="504,452.29 527.38,452.29 527.54,506.63 
		504.17,506.63 	"/></g>
	</a>
	<a id="R132" xlink:href="#" >
		<g><polygon id="R132_3_" style="fill:#CC6666;stroke:#9D2235;stroke-miterlimit:10;" points="493.16,391.72 493.5,452.21 
		527.5,452.21 527.5,506.79 636.5,507.46 636.16,392.28 	"/></g>
	</a>
	<a id="R145" xlink:href="#" >
		<g><rect id="R145_3_" x="389.33" y="445.63" transform="matrix(-1 -8.979763e-11 8.979763e-11 -1 808.6667 912.5898)" style="fill:#CC6666;stroke:#9D2235;stroke-miterlimit:10;" width="30" height="21.33"/></g>
	</a>
	<a id="R146" xlink:href="#" >
		<g><rect id="R146_3_" x="389.33" y="466.96" transform="matrix(-1 -8.979763e-11 8.979763e-11 -1 808.6667 954.5898)" style="fill:#CC6666;stroke:#9D2235;stroke-miterlimit:10;" width="30" height="20.67"/></g>
	</a>
	<a id="R147" xlink:href="#" >
		<g><rect id="R147_1_" x="404.33" y="487.63" transform="matrix(-1 -8.973679e-11 8.973679e-11 -1 823.6667 994.4232)" style="fill:#CC6666;stroke:#9D2235;stroke-miterlimit:10;" width="15" height="19.17"/></g>
	</a>
	<a id="R105" xlink:href="#" >
		<g><rect id="R105_3_" x="377" y="487.63" transform="matrix(-1 -8.967151e-11 8.967151e-11 -1 766.3333 994.4232)" style="fill:#CC6666;stroke:#9D2235;stroke-miterlimit:10;" width="12.33" height="19.17"/></g>
	</a>
	<a id="R106" xlink:href="#" >
		<g><rect id="R106_6_" x="389.33" y="487.63" transform="matrix(-1 -8.985802e-11 8.985802e-11 -1 793.6667 994.4232)" style="fill:#CC6666;stroke:#9D2235;stroke-miterlimit:10;" width="15" height="19.17"/></g>
	</a>
	<a id="R139" xlink:href="#" >
		<g><polygon id="R139_3_" style="fill:#CC6666;stroke:#9D2235;stroke-miterlimit:10;" points="299.5,506.46 299.5,435.46 389.5,435.96 
		389.58,487.79 377.5,487.63 377.5,506.96 	"/></g>
	</a>
	<a id="R173" xlink:href="#" >
		<g><polygon id="R173_3_" style="fill:#CC6666;stroke:#9D2235;stroke-miterlimit:10;" points="299.5,224.29 360.5,224.13 360.5,309.92 
		299.5,310.08 	"/></g>
	</a>
	<a id="R175" xlink:href="#" >
		<g><rect id="R175_3_" x="340" y="117.96" transform="matrix(-1 -8.980340e-11 8.980340e-11 -1 737.6667 296.9232)" style="fill:#006699;stroke:#9D2235;stroke-miterlimit:10;" width="57.67" height="61"/></g>
	</a>
	<a id="R174" xlink:href="#" >
		<g><polygon id="R174_3_" style="fill:#CC6666;stroke:#9D2235;stroke-miterlimit:10;" points="360.5,224.13 360.5,178.29 340.5,178.79 
		340.5,118.21 299.5,118.21 299.5,223.79 	"/></g>
	</a>
	<a id="R176" xlink:href="#" >
		<g><rect id="R176_3_" x="397.67" y="117.96" transform="matrix(-1 -6.477853e-11 6.477853e-11 -1 868.791 296.9232)" style="fill:#CC6666;stroke:#9D2235;stroke-miterlimit:10;" width="73.46" height="61"/></g>
	</a>
	<a id="R169" xlink:href="#" >
		<g><rect id="R169_3_" x="498.37" y="185.54" style="fill:#CC6666;stroke:#9D2235;stroke-miterlimit:10;" width="61.63" height="81.08"/></g>
	</a>
	<a id="R170" xlink:href="#" >
		<g><rect id="R170_3_" x="498.37" y="266.63" transform="matrix(-1 -8.981228e-11 8.981228e-11 -1 1058.3695 575.5898)" style="fill:#006699;stroke:#9D2235;stroke-miterlimit:10;" width="61.63" height="42.33"/></g>
	</a>
	<a id="R172" xlink:href="#" >
		<g><polygon id="R172_3_" style="fill:#CC6666;stroke:#9D2235;stroke-miterlimit:10;" points="560.5,376.21 376.5,376.21 376.5,345.21 
		382.5,345.21 382.5,309.21 376.5,309.21 376.5,226.21 437.5,226.21 437.5,195.21 498.5,195.21 498.5,266.29 498.5,309.21 
		560.5,309.21 	"/></g>
	</a>
	<a id="R167" xlink:href="#" >
		<g><polygon id="R167_1_" style="fill:#CC6666;stroke:#9D2235;stroke-miterlimit:10;" points="636.5,180.21 574.5,180.21 574.5,233.21 
		591.5,233.21 591.5,255.21 636.5,255.21 	"/></g>
	</a>
	<a id="R166" xlink:href="#" >
		<g><rect id="R166_3_" x="574.5" y="256.13" transform="matrix(-1 -8.981761e-11 8.981761e-11 -1 1171.5 534.7565)" style="fill:#CC6666;stroke:#9D2235;stroke-miterlimit:10;" width="22.5" height="22.5"/></g>
	</a>
	<a id="R180" xlink:href="#" >
		<g><rect id="R180_3_" x="124" y="354.96" transform="matrix(-1 -8.978830e-11 8.978830e-11 -1 374.3333 764.2565)" style="fill:#CC6666;stroke:#9D2235;stroke-miterlimit:10;" width="126.33" height="54.33"/></g>
	</a>
	<a id="R131" xlink:href="#" >
		<g><rect id="R181_3_" x="57" y="354.96" transform="matrix(-1 -8.981539e-11 8.981539e-11 -1 170.6667 764.2565)" style="fill:#CC6666;stroke:#9D2235;stroke-miterlimit:10;" width="56.67" height="54.33"/></g>
	</a>
	<a id="R182" xlink:href="#" >
		<g><rect id="R182_3_" x="78.67" y="409.29" transform="matrix(-1 -8.978608e-11 8.978608e-11 -1 186 831.0898)" style="fill:#00B438;stroke:#9D2235;stroke-miterlimit:10;" width="28.67" height="12.5"/></g>
	</a>
	<a id="R190" xlink:href="#" >
		<g><rect id="R190_3_" x="57" y="473.96" transform="matrix(-1 -8.979185e-11 8.979185e-11 -1 154.3333 974.9232)" style="fill:#CC6666;stroke:#9D2235;stroke-miterlimit:10;" width="40.33" height="27"/></g>
	</a>
	<a id="R191" xlink:href="#" >
		<g><polygon id="R191_3_" style="fill:#CC6666;stroke:#9D2235;stroke-miterlimit:10;" points="57.5,568.63 0.5,567.79 0.5,355.29 
		57.5,354.96 57.5,409.21 78.19,409.21 77.88,474.25 57.5,473.96 	"/></g>
	</a>
	<a id="R138" xlink:href="#" >
		<g><rect id="R138_1_" x="120" y="421.79" transform="matrix(-1 -8.979585e-11 8.979585e-11 -1 370.3333 909.2565)" style="fill:#CC6666;stroke:#9D2235;stroke-miterlimit:10;" width="130.33" height="65.67"/></g>
	</a>
	<a id="R184" xlink:href="#" >
		<g><rect id="R184_3_" x="158" y="500.96" transform="matrix(-1 -8.979363e-11 8.979363e-11 -1 408.3333 1069.5898)" style="fill:#CC6666;stroke:#9D2235;stroke-miterlimit:10;" width="92.33" height="67.67"/></g>
	</a>
	<a id="R185" xlink:href="#" >
		<g><rect id="R185_3_" x="57.33" y="500.96" transform="matrix(-1 -8.978697e-11 8.978697e-11 -1 215.3333 1069.5898)" style="fill:#CC6666;stroke:#9D2235;stroke-miterlimit:10;" width="100.67" height="67.67"/></g>
	</a>
	<a id="R151" xlink:href="#" >
		<g><rect id="R151" x="431" y="437.63" style="fill:#CC6666;stroke:#9D2235;stroke-miterlimit:10;" width="31.19" height="20.88"/></g>
	</a>
	<a id="R165" xlink:href="#" >
		<g><polygon id="R165" style="fill:#CC6666;stroke:#9D2235;stroke-miterlimit:10;" points="596.5,376.21 596.5,363.71 636.5,363.79 
		636.5,256.21 596.5,256.21 596.5,279.21 574.5,279.21 574.5,376.21 	"/></g>
	</a>
	<a id="R164" xlink:href="#" >
		<g><rect id="R164" x="498.37" y="344.13" style="fill:#CC6666;stroke:#9D2235;stroke-miterlimit:10;" width="62.13" height="32.09"/></g>
	</a>
</g>



<g id="Labels">
	<text transform="matrix(1 0 0 1 115.6149 21.4128)" style="font-family:'OptimaLTStd'; font-size:25.7994px;">Volunteer State Community College </text>
	<text transform="matrix(1 0 0 1 143.582 50.8738)" style="font-family:'OptimaLTStd'; font-size:25.7994px;">Ramer Administration Building </text>
	<polyline id="swatch-pink" style="fill:#CC6666;" points="255.22,91.21 255.22,69.09 277.33,69.09 277.33,91.21 	"/>
	<text id="legend-offices" transform="matrix(1 0 0 1 282.6916 85.3757)" style="font-family:'OptimaLTStd'; font-size:16.5853px;">Offices</text>
	<polyline id="swatch-pink_2_" style="fill:#006699;" points="123.33,91.21 123.33,69.09 145.44,69.09 145.44,91.21 	"/>
	<text id="legend-library" transform="matrix(1 0 0 1 149.591 85.3757)" style="font-family:'OptimaLTStd'; font-size:16.5853px;">Classrooms</text>
	<polyline id="swatch-pink_3_" style="fill:#00B438;" points="354.41,91.21 354.41,69.09 376.52,69.09 376.52,91.21 	"/>
	
		<text id="legend-library_2_" transform="matrix(1 0 0 1 380.673 85.3757)" style="font-family:'OptimaLTStd'; font-size:16.5853px;">Conference Rooms</text>
	<text transform="matrix(1 0 0 1 317.6494 567.0264)" style="fill:#FFFFFF; font-family:'MyriadPro-Regular'; font-size:18px;">101</text>
	<text transform="matrix(1 0 0 1 324.3223 532.0054)" style="fill:#FFFFFF; font-family:'MyriadPro-Regular'; font-size:12px;">102</text>
	<text transform="matrix(1 0 0 1 378.9829 559.1943)" style="fill:#FFFFFF; font-family:'MyriadPro-Regular'; font-size:18px;">103</text>
	<text transform="matrix(1 0 0 1 330.6924 477.5264)" style="fill:#FFFFFF; font-family:'MyriadPro-Regular'; font-size:18px;">139</text>
	<text transform="matrix(1 0 0 1 469.3232 534.0059)" style="fill:#FFFFFF; font-family:'MyriadPro-Regular'; font-size:12px;">116</text>
	<text transform="matrix(1 0 0 1 469.3228 557.3394)" style="fill:#FFFFFF; font-family:'MyriadPro-Regular'; font-size:12px;">115</text>
	<text transform="matrix(1 0 0 1 469.3228 577.3394)" style="fill:#FFFFFF; font-family:'MyriadPro-Regular'; font-size:12px;">114</text>
	<text transform="matrix(1 0 0 1 430.8501 577.3394)" style="fill:#FFFFFF; font-family:'MyriadPro-Regular'; font-size:12px;">112</text>
	<text transform="matrix(1 0 0 1 430.8506 555.6719)" style="fill:#FFFFFF; font-family:'MyriadPro-Regular'; font-size:12px;">111</text>
	<text transform="matrix(1 0 0 1 435.0732 533.9219)" style="fill:#FFFFFF; font-family:'MyriadPro-Regular'; font-size:12px;">110</text>
	<text transform="matrix(1 0 0 1 412.4536 534.0054)" style="fill:#FFFFFF; font-family:'MyriadPro-Regular'; font-size:12px;">106</text>
	<text transform="matrix(1 0 0 1 573.4814 558.3188)" style="fill:#FFFFFF; font-family:'MyriadPro-Regular'; font-size:18px;">120</text>
	<text transform="matrix(1 0 0 1 510.6499 574.5259)" style="fill:#FFFFFF; font-family:'MyriadPro-Regular'; font-size:18px;">117</text>
	<text transform="matrix(1 0 0 1 557.4814 448.1938)" style="fill:#FFFFFF; font-family:'MyriadPro-Regular'; font-size:18px;">132</text>
	<text transform="matrix(1 0 0 1 507.021 484.3394)" style="fill:#FFFFFF; font-family:'MyriadPro-Regular'; font-size:12px;">133</text>
	
		<text id="male1_1_" transform="matrix(1 0 0 1 439.9243 425.313)" style="fill:#FFFFFF; font-family:'FontAwesome'; font-size:25.7994px;"></text>
	
		<text id="female2_1_" transform="matrix(1 0 0 1 467.9062 424.3125)" style="fill:#FFFFFF; font-family:'FontAwesome'; font-size:25.7994px;"></text>
	
		<text id="male1_2_" transform="matrix(1 0 0 1 308.1047 411.8975)" style="fill:#FFFFFF; font-family:'FontAwesome'; font-size:18px;"></text>
	
		<text id="female2_2_" transform="matrix(1 0 0 1 335.3936 411.897)" style="fill:#FFFFFF; font-family:'FontAwesome'; font-size:18px;"></text>
	<text id="male1_3_" transform="matrix(1 0 0 1 96 447.9492)" style="fill:#FFFFFF; font-family:'FontAwesome'; font-size:14px;"></text>
	
		<text id="female2_3_" transform="matrix(1 0 0 1 80.334 447.9492)" style="fill:#FFFFFF; font-family:'FontAwesome'; font-size:14px;"></text>
	<text transform="matrix(1 0 0 1 190.3167 541.8611)" style="fill:#FFFFFF; font-family:'MyriadPro-Regular'; font-size:18px;">184</text>
	<text transform="matrix(1 0 0 1 93.8167 541.8611)" style="fill:#FFFFFF; font-family:'MyriadPro-Regular'; font-size:18px;">185</text>
	<text transform="matrix(1 0 0 1 171.3167 462.0271)" style="fill:#FFFFFF; font-family:'MyriadPro-Regular'; font-size:18px;">183</text>
	<text transform="matrix(1 0 0 1 176.3154 386.3616)" style="fill:#FFFFFF; font-family:'MyriadPro-Regular'; font-size:18px;">180</text>
	<text transform="matrix(1 0 0 1 71.4824 386.3616)" style="fill:#FFFFFF; font-family:'MyriadPro-Regular'; font-size:18px;">181</text>
	<text transform="matrix(1 0 0 1 63.3167 491.0271)" style="fill:#FFFFFF; font-family:'MyriadPro-Regular'; font-size:18px;">190</text>
	<text transform="matrix(1 0 0 1 20.3167 462.0271)" style="fill:#FFFFFF; font-family:'MyriadPro-Regular'; font-size:18px;">191</text>
	<text transform="matrix(1 0 0 1 83.7664 418.5063)" style="fill:#FFFFFF; font-family:'MyriadPro-Regular'; font-size:12px;">182</text>
	<text transform="matrix(1 0 0 1 316.1487 272.8613)" style="fill:#FFFFFF; font-family:'MyriadPro-Regular'; font-size:18px;">173</text>
	<text transform="matrix(1 0 0 1 316.1506 198.1123)" style="fill:#FFFFFF; font-family:'MyriadPro-Regular'; font-size:18px;">174</text>
	<text transform="matrix(1 0 0 1 354.9827 155.1113)" style="fill:#FFFFFF; font-family:'MyriadPro-Regular'; font-size:18px;">175</text>
	<text transform="matrix(1 0 0 1 420.5445 155.1113)" style="fill:#FFFFFF; font-family:'MyriadPro-Regular'; font-size:18px;">176</text>
	<text transform="matrix(1 0 0 1 440.8147 327.1943)" style="fill:#FFFFFF; font-family:'MyriadPro-Regular'; font-size:18px;">172</text>
	<text transform="matrix(1 0 0 1 515.5828 294.6108)" style="fill:#FFFFFF; font-family:'MyriadPro-Regular'; font-size:18px;">170</text>
	<text transform="matrix(1 0 0 1 515.5828 233.8608)" style="fill:#FFFFFF; font-family:'MyriadPro-Regular'; font-size:18px;">169</text>
	<text transform="matrix(1 0 0 1 595.0828 217.8608)" style="fill:#FFFFFF; font-family:'MyriadPro-Regular'; font-size:18px;">167</text>
	<text transform="matrix(1 0 0 1 591.6492 318.147)" style="fill:#FFFFFF; font-family:'MyriadPro-Regular'; font-size:18px;">165</text>
	<text transform="matrix(1 0 0 1 577.0994 271.0891)" style="fill:#FFFFFF; font-family:'MyriadPro-Regular'; font-size:12px;">166</text>
	<text transform="matrix(1 0 0 1 446.9834 484.3394)" style="fill:#FFFFFF; font-family:'MyriadPro-Regular'; font-size:18px;">150</text>
	<text transform="matrix(1 0 0 1 396.2036 458.5054)" style="fill:#FFFFFF; font-family:'MyriadPro-Regular'; font-size:12px;">145</text>
	<text transform="matrix(1 0 0 1 396.2041 479.6719)" style="fill:#FFFFFF; font-family:'MyriadPro-Regular'; font-size:12px;">146</text>
	<text transform="matrix(1 0 0 1 406.0122 499.0747)" style="fill:#FFFFFF; font-family:'MyriadPro-Regular'; font-size:8px;">147</text>
	<text transform="matrix(1 0 0 1 390.6782 499.0747)" style="fill:#FFFFFF; font-family:'MyriadPro-Regular'; font-size:8px;">105</text>
	<text transform="matrix(1 0 0 1 377.7812 498.4878)" style="fill:#FFFFFF; font-family:'MyriadPro-Regular'; font-size:7px;">104</text>
	<text transform="matrix(1 0 0 1 436.4046 451.6469)" style="fill:#FFFFFF; font-family:'MyriadPro-Regular'; font-size:14px;">151</text>
	<text transform="matrix(1 0 0 1 515.5175 363.5675)" style="fill:#FFFFFF; font-family:'MyriadPro-Regular'; font-size:18px;">164</text>
</g>
<g id="Doors">
	<line id="R120_2_" style="fill:none;stroke:#00FF00;stroke-miterlimit:10;" x1="574.5" y1="543.63" x2="571.33" y2="526.96"/>
	<line id="R117_2_" style="fill:none;stroke:#00FF00;stroke-miterlimit:10;" x1="521" y1="580.96" x2="509.67" y2="581.63"/>
	<line id="R116_2_" style="fill:none;stroke:#00FF00;stroke-miterlimit:10;" x1="477.75" y1="531.29" x2="468.5" y2="531.29"/>
	<line id="R115_2_" style="fill:none;stroke:#00FF00;stroke-miterlimit:10;" x1="477.75" y1="553.79" x2="468.5" y2="553.79"/>
	<line id="R114_2_" style="fill:none;stroke:#00FF00;stroke-miterlimit:10;" x1="477.75" y1="574.38" x2="468.5" y2="574.38"/>
	<line id="R112_2_" style="fill:none;stroke:#00FF00;stroke-miterlimit:10;" x1="451.67" y1="574.38" x2="444.31" y2="574.38"/>
	<line id="R111_2_" style="fill:none;stroke:#00FF00;stroke-miterlimit:10;" x1="451.67" y1="552.29" x2="442.83" y2="552.29"/>
	<line id="R110_2_" style="fill:none;stroke:#00FF00;stroke-miterlimit:10;" x1="451.67" y1="529.71" x2="444.31" y2="529.71"/>
	<line id="R106_5_" style="fill:none;stroke:#00FF00;stroke-miterlimit:10;" x1="419.33" y1="533.21" x2="419.33" y2="524.96"/>
	<line id="R103_2_" style="fill:none;stroke:#00FF00;stroke-miterlimit:10;" x1="384.37" y1="533.21" x2="383.17" y2="524.96"/>
	<line id="R102_2_" style="fill:none;stroke:#00FF00;stroke-miterlimit:10;" x1="333.56" y1="531.21" x2="333.33" y2="523.63"/>
	<line id="R101_2_" style="fill:none;stroke:#00FF00;stroke-miterlimit:10;" x1="310.33" y1="533.21" x2="310.33" y2="524.96"/>
	<line id="R139_2_" style="fill:none;stroke:#00FF00;stroke-miterlimit:10;" x1="345.67" y1="449.49" x2="344.54" y2="440.63"/>
	<line id="R145_2_" style="fill:none;stroke:#00FF00;stroke-miterlimit:10;" x1="417" y1="454.63" x2="408.33" y2="454.63"/>
	<line id="R146_2_" style="fill:none;stroke:#00FF00;stroke-miterlimit:10;" x1="417" y1="477.29" x2="408.33" y2="477.29"/>
	<line id="R150_2_" style="fill:none;stroke:#00FF00;stroke-miterlimit:10;" x1="462.19" y1="504.29" x2="462.17" y2="494.38"/>
	<line id="R133_2_" style="fill:none;stroke:#00FF00;stroke-miterlimit:10;" x1="507.67" y1="500.96" x2="512.33" y2="494.38"/>
	<line id="R104_1_" style="fill:none;stroke:#00FF00;stroke-miterlimit:10;" x1="383.77" y1="504.96" x2="383.17" y2="499.34"/>
	<line id="R105_2_" style="fill:none;stroke:#00FF00;stroke-miterlimit:10;" x1="396.83" y1="503.96" x2="396.83" y2="497.21"/>
	<line id="R147" style="fill:none;stroke:#00FF00;stroke-miterlimit:10;" x1="425.46" y1="497.21" x2="415.49" y2="497.48"/>
	<line id="R132_2_" style="fill:none;stroke:#00FF00;stroke-miterlimit:10;" x1="603.67" y1="409.29" x2="598.67" y2="396.29"/>
	<line id="R172_2_" style="fill:none;stroke:#00FF00;stroke-miterlimit:10;" x1="389.58" y1="328.13" x2="412.67" y2="324.29"/>
	<line id="R173_2_" style="fill:none;stroke:#00FF00;stroke-miterlimit:10;" x1="356.89" y1="238.96" x2="348.25" y2="243.29"/>
	<line id="R174_2_" style="fill:none;stroke:#00FF00;stroke-miterlimit:10;" x1="356.89" y1="213.63" x2="346" y2="207.29"/>
	<line id="R175_2_" style="fill:none;stroke:#00FF00;stroke-miterlimit:10;" x1="368.83" y1="175.96" x2="362.67" y2="167.96"/>
	<line id="R176_2_" style="fill:none;stroke:#00FF00;stroke-miterlimit:10;" x1="409.33" y1="175.63" x2="415" y2="169.29"/>
	<line id="R169_2_" style="fill:none;stroke:#00FF00;stroke-miterlimit:10;" x1="556" y1="258.29" x2="547" y2="252.29"/>
	<line id="R170_2_" style="fill:none;stroke:#00FF00;stroke-miterlimit:10;" x1="556" y1="274.29" x2="544.67" y2="281.88"/>
	<line id="R167" style="fill:none;stroke:#00FF00;stroke-miterlimit:10;" x1="597" y1="242.96" x2="605.5" y2="235.29"/>
	<line id="R166_2_" style="fill:none;stroke:#00FF00;stroke-miterlimit:10;" x1="587.33" y1="269.29" x2="579" y2="269.29"/>
	<line id="R165_3_" style="fill:none;stroke:#00FF00;stroke-miterlimit:10;" x1="587.33" y1="287.79" x2="579" y2="287.79"/>
	<line id="R181_2_" style="fill:none;stroke:#00FF00;stroke-miterlimit:10;" x1="109.67" y1="364.63" x2="102" y2="366.63"/>
	<line id="R180_2_" style="fill:none;stroke:#00FF00;stroke-miterlimit:10;" x1="218.33" y1="405.29" x2="212" y2="396.96"/>
	<line id="R183_1_" style="fill:none;stroke:#00FF00;stroke-miterlimit:10;" x1="218.33" y1="428.63" x2="215.17" y2="435.46"/>
	<line id="R182_2_" style="fill:none;stroke:#00FF00;stroke-miterlimit:10;" x1="105.83" y1="415.54" x2="97.33" y2="415.54"/>
	<line id="R190_2_" style="fill:none;stroke:#00FF00;stroke-miterlimit:10;" x1="85.33" y1="478.63" x2="85.33" y2="487.46"/>
	<line id="R191_2_" style="fill:none;stroke:#00FF00;stroke-miterlimit:10;" x1="73" y1="468.63" x2="63" y2="464.96"/>
	<line id="R184_2_" style="fill:none;stroke:#00FF00;stroke-miterlimit:10;" x1="201.67" y1="506.79" x2="206" y2="516.96"/>
	<line id="R185_2_" style="fill:none;stroke:#00FF00;stroke-miterlimit:10;" x1="111.67" y1="506.96" x2="110.67" y2="518.79"/>
	<line id="lcd.1_1_" style="fill:none;stroke:#00FF00;stroke-miterlimit:10;" x1="255" y1="402.29" x2="255" y2="391.63"/>
	<line id="R164_1_" style="fill:none;stroke:#00FF00;stroke-miterlimit:10;" x1="567.25" y1="359.04" x2="555" y2="359.13"/>
	<line id="R151_1_" style="fill:none;stroke:#00FF00;stroke-miterlimit:10;" x1="440.24" y1="453.33" x2="435.61" y2="462.03"/>
</g>
<g id="Paths">
	<line style="fill:none;stroke:#FF00FF;stroke-miterlimit:10;" x1="255" y1="402.29" x2="274" y2="402.29"/>
	<line style="fill:none;stroke:#FF00FF;stroke-miterlimit:10;" x1="274" y1="415.54" x2="274" y2="402.29"/>
	<path style="fill:none;stroke:#FF00FF;stroke-miterlimit:10;" d="M274,415.54"/>
	<path style="fill:none;stroke:#FF00FF;stroke-miterlimit:10;" d="M219.5,415.54"/>
	<line style="fill:none;stroke:#FF00FF;stroke-miterlimit:10;" x1="218.33" y1="428.63" x2="219.5" y2="415.54"/>
	<line style="fill:none;stroke:#FF00FF;stroke-miterlimit:10;" x1="218.33" y1="405.29" x2="219.5" y2="415.54"/>
	<line style="fill:none;stroke:#FF00FF;stroke-miterlimit:10;" x1="113.67" y1="415.54" x2="118.75" y2="415.54"/>
	<line style="fill:none;stroke:#FF00FF;stroke-miterlimit:10;" x1="105.83" y1="415.54" x2="113.67" y2="415.54"/>
	<line style="fill:none;stroke:#FF00FF;stroke-miterlimit:10;" x1="118.75" y1="415.54" x2="118.75" y2="364.29"/>
	<line style="fill:none;stroke:#FF00FF;stroke-miterlimit:10;" x1="109.67" y1="364.63" x2="118.75" y2="364.29"/>
	<line style="fill:none;stroke:#FF00FF;stroke-miterlimit:10;" x1="219.5" y1="415.54" x2="118.75" y2="415.54"/>
	<line style="fill:none;stroke:#FF00FF;stroke-miterlimit:10;" x1="112.5" y1="424.54" x2="118.75" y2="415.54"/>
	<line style="fill:none;stroke:#FF00FF;stroke-miterlimit:10;" x1="111.67" y1="506.96" x2="112.25" y2="493.29"/>
	<line style="fill:none;stroke:#FF00FF;stroke-miterlimit:10;" x1="200.75" y1="493.29" x2="112.25" y2="493.29"/>
	<line style="fill:none;stroke:#FF00FF;stroke-miterlimit:10;" x1="201.67" y1="506.79" x2="200.75" y2="493.29"/>
	<line style="fill:none;stroke:#FF00FF;stroke-miterlimit:10;" x1="274" y1="493.29" x2="200.75" y2="493.29"/>
	<line style="fill:none;stroke:#FF00FF;stroke-miterlimit:10;" x1="310.33" y1="512.88" x2="274" y2="512.88"/>
	<line style="fill:none;stroke:#FF00FF;stroke-miterlimit:10;" x1="274" y1="493.29" x2="274" y2="512.88"/>
	<line style="fill:none;stroke:#FF00FF;stroke-miterlimit:10;" x1="310.33" y1="524.96" x2="310.33" y2="512.88"/>
	<line style="fill:none;stroke:#FF00FF;stroke-miterlimit:10;" x1="333.33" y1="523.63" x2="333.56" y2="512.88"/>
	<line style="fill:none;stroke:#FF00FF;stroke-miterlimit:10;" x1="310.33" y1="512.88" x2="333.56" y2="512.88"/>
	<line style="fill:none;stroke:#FF00FF;stroke-miterlimit:10;" x1="383.17" y1="524.96" x2="383.47" y2="512.88"/>
	<line style="fill:none;stroke:#FF00FF;stroke-miterlimit:10;" x1="333.56" y1="512.88" x2="383.47" y2="512.88"/>
	<line style="fill:none;stroke:#FF00FF;stroke-miterlimit:10;" x1="383.77" y1="504.96" x2="383.47" y2="512.88"/>
	<line style="fill:none;stroke:#FF00FF;stroke-miterlimit:10;" x1="419.33" y1="524.96" x2="419.33" y2="512.88"/>
	<line style="fill:none;stroke:#FF00FF;stroke-miterlimit:10;" x1="419.33" y1="512.88" x2="412" y2="512.88"/>
	<line style="fill:none;stroke:#FF00FF;stroke-miterlimit:10;" x1="383.47" y1="512.88" x2="396.83" y2="512.88"/>
	<line style="fill:none;stroke:#FF00FF;stroke-miterlimit:10;" x1="412" y1="512.88" x2="396.83" y2="512.88"/>
	<line style="fill:none;stroke:#FF00FF;stroke-miterlimit:10;" x1="396.83" y1="503.96" x2="396.83" y2="512.88"/>
	<line style="fill:none;stroke:#FF00FF;stroke-miterlimit:10;" x1="425.46" y1="497.21" x2="425.5" y2="512.88"/>
	<line style="fill:none;stroke:#FF00FF;stroke-miterlimit:10;" x1="419.33" y1="512.88" x2="425.5" y2="512.88"/>
	<line style="fill:none;stroke:#FF00FF;stroke-miterlimit:10;" x1="417" y1="477.29" x2="425.42" y2="477.29"/>
	<line style="fill:none;stroke:#FF00FF;stroke-miterlimit:10;" x1="417" y1="454.63" x2="425.42" y2="454.42"/>
	<line style="fill:none;stroke:#FF00FF;stroke-miterlimit:10;" x1="344.54" y1="440.63" x2="344.54" y2="428.63"/>
	<line style="fill:none;stroke:#FF00FF;stroke-miterlimit:10;" x1="425.42" y1="454.42" x2="425.5" y2="428.63"/>
	<line style="fill:none;stroke:#FF00FF;stroke-miterlimit:10;" x1="344.54" y1="428.63" x2="425.5" y2="428.63"/>
	<line style="fill:none;stroke:#FF00FF;stroke-miterlimit:10;" x1="344.54" y1="428.63" x2="274" y2="428.63"/>
	<line style="fill:none;stroke:#FF00FF;stroke-miterlimit:10;" x1="274" y1="493.29" x2="274" y2="428.63"/>
	<line style="fill:none;stroke:#FF00FF;stroke-miterlimit:10;" x1="274" y1="415.54" x2="274" y2="428.63"/>
	<line style="fill:none;stroke:#FF00FF;stroke-miterlimit:10;" x1="498.37" y1="581.29" x2="509.67" y2="581.63"/>
	<line style="fill:none;stroke:#FF00FF;stroke-miterlimit:10;" x1="498.37" y1="512.88" x2="498.37" y2="581.29"/>
	<line style="fill:none;stroke:#FF00FF;stroke-miterlimit:10;" x1="571.33" y1="526.96" x2="571.33" y2="512.88"/>
	<line style="fill:none;stroke:#FF00FF;stroke-miterlimit:10;" x1="507.67" y1="500.96" x2="498.37" y2="500.96"/>
	<line style="fill:none;stroke:#FF00FF;stroke-miterlimit:10;" x1="498.37" y1="512.88" x2="498.37" y2="500.96"/>
	<line style="fill:none;stroke:#FF00FF;stroke-miterlimit:10;" x1="468.5" y1="574.38" x2="458.33" y2="574.38"/>
	<line style="fill:none;stroke:#FF00FF;stroke-miterlimit:10;" x1="451.67" y1="574.38" x2="458.33" y2="574.38"/>
	<line style="fill:none;stroke:#FF00FF;stroke-miterlimit:10;" x1="458.33" y1="552.29" x2="458.33" y2="574.38"/>
	<line style="fill:none;stroke:#FF00FF;stroke-miterlimit:10;" x1="470" y1="553.79" x2="458.33" y2="552.29"/>
	<line style="fill:none;stroke:#FF00FF;stroke-miterlimit:10;" x1="451.67" y1="552.29" x2="458.33" y2="552.29"/>
	<line style="fill:none;stroke:#FF00FF;stroke-miterlimit:10;" x1="458.33" y1="529.71" x2="458.33" y2="552.29"/>
	<line style="fill:none;stroke:#FF00FF;stroke-miterlimit:10;" x1="468.5" y1="531.29" x2="458.33" y2="529.71"/>
	<line style="fill:none;stroke:#FF00FF;stroke-miterlimit:10;" x1="451.67" y1="529.71" x2="458.33" y2="529.71"/>
	<line style="fill:none;stroke:#FF00FF;stroke-miterlimit:10;" x1="458.33" y1="512.88" x2="458.33" y2="529.71"/>
	<line style="fill:none;stroke:#FF00FF;stroke-miterlimit:10;" x1="462.19" y1="504.29" x2="458.33" y2="512.88"/>
	<line style="fill:none;stroke:#FF00FF;stroke-miterlimit:10;" x1="368.83" y1="187.54" x2="368.83" y2="213.63"/>
	<line style="fill:none;stroke:#FF00FF;stroke-miterlimit:10;" x1="356.89" y1="213.63" x2="368.83" y2="213.63"/>
	<line style="fill:none;stroke:#FF00FF;stroke-miterlimit:10;" x1="368.83" y1="239.13" x2="356.89" y2="238.96"/>
	<line style="fill:none;stroke:#FF00FF;stroke-miterlimit:10;" x1="368.83" y1="213.63" x2="368.83" y2="239.13"/>
	<line style="fill:none;stroke:#FF00FF;stroke-miterlimit:10;" x1="389.58" y1="328.13" x2="368.83" y2="328.13"/>
	<line style="fill:none;stroke:#FF00FF;stroke-miterlimit:10;" x1="368.83" y1="239.13" x2="368.83" y2="328.13"/>
	<line style="fill:none;stroke:#FF00FF;stroke-miterlimit:10;" x1="368.83" y1="382.13" x2="368.83" y2="328.13"/>
	<line style="fill:none;stroke:#FF00FF;stroke-miterlimit:10;" x1="274" y1="382.13" x2="274" y2="402.29"/>
	<line style="fill:none;stroke:#FF00FF;stroke-miterlimit:10;" x1="368.83" y1="382.13" x2="274" y2="382.13"/>
	<line style="fill:none;stroke:#FF00FF;stroke-miterlimit:10;" x1="425.5" y1="428.63" x2="425.42" y2="382.13"/>
	<line style="fill:none;stroke:#FF00FF;stroke-miterlimit:10;" x1="368.83" y1="382.13" x2="425.42" y2="382.13"/>
	<line style="fill:none;stroke:#FF00FF;stroke-miterlimit:10;" x1="567.25" y1="382.13" x2="425.42" y2="382.13"/>
	<line style="fill:none;stroke:#FF00FF;stroke-miterlimit:10;" x1="598.67" y1="396.29" x2="597" y2="382.13"/>
	<line style="fill:none;stroke:#FF00FF;stroke-miterlimit:10;" x1="567.25" y1="382.13" x2="597" y2="382.13"/>
	<path style="fill:none;stroke:#FF00FF;stroke-miterlimit:10;" d="M567.25,386.55"/>
	<line style="fill:none;stroke:#FF00FF;stroke-miterlimit:10;" x1="567.25" y1="359.04" x2="567.25" y2="310.08"/>
	<line style="fill:none;stroke:#FF00FF;stroke-miterlimit:10;" x1="579" y1="287.79" x2="567.25" y2="287.79"/>
	<line style="fill:none;stroke:#FF00FF;stroke-miterlimit:10;" x1="567.25" y1="310.08" x2="567.25" y2="287.79"/>
	<line style="fill:none;stroke:#FF00FF;stroke-miterlimit:10;" x1="579" y1="269.29" x2="567.25" y2="269.29"/>
	<line style="fill:none;stroke:#FF00FF;stroke-miterlimit:10;" x1="567.25" y1="287.79" x2="567.25" y2="269.29"/>
	<line style="fill:none;stroke:#FF00FF;stroke-miterlimit:10;" x1="556" y1="274.29" x2="567.25" y2="269.29"/>
	<line style="fill:none;stroke:#FF00FF;stroke-miterlimit:10;" x1="567.25" y1="257.63" x2="567.25" y2="269.29"/>
	<line style="fill:none;stroke:#FF00FF;stroke-miterlimit:10;" x1="556" y1="258.29" x2="567.25" y2="257.63"/>
	<line style="fill:none;stroke:#FF00FF;stroke-miterlimit:10;" x1="597" y1="242.96" x2="567.25" y2="242.96"/>
	<line style="fill:none;stroke:#FF00FF;stroke-miterlimit:10;" x1="567.25" y1="257.63" x2="567.25" y2="242.96"/>
	<line style="fill:none;stroke:#FF00FF;stroke-miterlimit:10;" x1="409.33" y1="175.63" x2="408.33" y2="187.54"/>
	<line style="fill:none;stroke:#FF00FF;stroke-miterlimit:10;" x1="368.83" y1="187.54" x2="408.33" y2="187.54"/>
	<line style="fill:none;stroke:#FF00FF;stroke-miterlimit:10;" x1="368.83" y1="175.96" x2="368.83" y2="187.54"/>
	<path style="fill:none;stroke:#FF00FF;stroke-miterlimit:10;" d="M73,468.63"/>
	<path style="fill:none;stroke:#FF00FF;stroke-miterlimit:10;" d="M85.33,469.13"/>
	<path style="fill:none;stroke:#FF00FF;stroke-miterlimit:10;" d="M85.33,478.63"/>
	<line style="fill:none;stroke:#FF00FF;stroke-miterlimit:10;" x1="112.25" y1="493.29" x2="112.25" y2="468.46"/>
	<line style="fill:none;stroke:#FF00FF;stroke-miterlimit:10;" x1="112.25" y1="468.46" x2="112.5" y2="424.54"/>
	<line style="fill:none;stroke:#FF00FF;stroke-miterlimit:10;" x1="112.25" y1="468.46" x2="84.5" y2="468.46"/>
	<line style="fill:none;stroke:#FF00FF;stroke-miterlimit:10;" x1="85.33" y1="478.63" x2="84.5" y2="468.46"/>
	<line style="fill:none;stroke:#FF00FF;stroke-miterlimit:10;" x1="73" y1="468.63" x2="84.5" y2="468.46"/>
	<line style="fill:none;stroke:#FF00FF;stroke-miterlimit:10;" x1="255" y1="415.54" x2="255" y2="402.29"/>
	<line style="fill:none;stroke:#FF00FF;stroke-miterlimit:10;" x1="219.5" y1="415.54" x2="255" y2="415.54"/>
	<line style="fill:none;stroke:#FF00FF;stroke-miterlimit:10;" x1="458.33" y1="512.88" x2="425.5" y2="512.88"/>
	<line style="fill:none;stroke:#FF00FF;stroke-miterlimit:10;" x1="498.37" y1="512.88" x2="458.33" y2="512.88"/>
	<line style="fill:none;stroke:#FF00FF;stroke-miterlimit:10;" x1="571.33" y1="512.88" x2="498.37" y2="512.88"/>
	<line style="fill:none;stroke:#FF00FF;stroke-miterlimit:10;" x1="425.42" y1="477.29" x2="425.42" y2="497.21"/>
	<line style="fill:none;stroke:#FF00FF;stroke-miterlimit:10;" x1="567.25" y1="382.13" x2="567.25" y2="359.04"/>
	<line style="fill:none;stroke:#FF00FF;stroke-miterlimit:10;" x1="435.61" y1="462.03" x2="425.42" y2="462.03"/>
	<line style="fill:none;stroke:#FF00FF;stroke-miterlimit:10;" x1="425.42" y1="477.29" x2="425.42" y2="462.03"/>
	<line style="fill:none;stroke:#FF00FF;stroke-miterlimit:10;" x1="425.42" y1="454.42" x2="425.42" y2="462.03"/>
</g>
</svg>
