<?xml version="1.0" encoding="utf-8"?>
<!-- Generator: Adobe Illustrator 19.2.1, SVG Export Plug-In . SVG Version: 6.00 Build 0)  -->
<svg version="1.1" id="Layer_1" xmlns="http://www.w3.org/2000/svg" xmlns:xlink="http://www.w3.org/1999/xlink" x="0px" y="0px"
	 width="625.96px" height="577.03px" viewBox="0 0 625.96 577.03" style="enable-background:new 0 0 625.96 577.03;"
	 xml:space="preserve">
<g id="Base">
	<polyline id="Circulation" style="fill:#D3D3D3;stroke:#000000;stroke-miterlimit:10;" points="615.46,191.57 615.46,335.86 
		625.46,336.03 625.46,425.07 613.01,425.07 612.84,468.07 623.46,468.07 623.46,475.53 568.46,475.19 568.46,477.53 313.01,498.07 
		272.51,498.07 271.07,575.05 19.46,576.53 19.46,477.07 1.54,477.07 0.54,232.07 67.46,232.07 67.46,207.07 99.01,207.07 
		99.32,189.05 266.46,188.53 266.46,160.03 314.46,160.28 314.46,143.07 390.51,143.07 390.01,193.03 615.24,192.04 	"/>
	
		<rect id="Stairs" x="12.26" y="220.28" transform="matrix(4.490370e-11 -1 1 4.490370e-11 -219.7694 287.2872)" style="fill:#4c4c4c;stroke:#000000;stroke-miterlimit:10;" width="43" height="66.5"/>
	
		<rect id="Stairs_1_" x="314.26" y="143.86" style="fill:#4c4c4c;stroke:#000000;stroke-miterlimit:10;" width="75.75" height="42.92"/>
	
		<rect id="Elevator" x="307.26" y="251.78" transform="matrix(4.488682e-11 -1 1 4.488682e-11 62.4806 586.0372)" style="fill:#B9A302;stroke:#000000;stroke-miterlimit:10;" width="34" height="20"/>
	<polygon style="fill:none;stroke:#000000;stroke-miterlimit:10;" points="330.01,245.03 330.01,221.53 314.26,221.53 314.26,245 	
		"/>
	
		<rect x="310.13" y="189.65" transform="matrix(4.486817e-11 -1 1 4.486817e-11 124.6056 531.6622)" style="fill:none;stroke:#000000;stroke-miterlimit:10;" width="36" height="27.75"/>
	
		<rect x="276.01" y="150.28" transform="matrix(4.494367e-11 -1 1 4.494367e-11 115.7306 464.5372)" style="fill:none;stroke:#000000;stroke-miterlimit:10;" width="28.25" height="48.25"/>
	
		<rect x="276.01" y="461.03" transform="matrix(4.491436e-11 -1 1 4.491436e-11 -188.7694 774.0372)" style="fill:none;stroke:#000000;stroke-miterlimit:10;" width="33.25" height="40.75"/>
	
		<rect id="Restroom" x="394.01" y="256.53" transform="matrix(4.489571e-11 -1 1 4.489571e-11 137.2306 672.7872)" style="fill:#00CCCC;stroke:#000000;stroke-miterlimit:10;" width="22" height="22.5"/>
	<polygon id="Restroom_1_" style="fill:#00CCCC;stroke:#000000;stroke-miterlimit:10;" points="334.51,279.07 357.46,279.07 
		357.46,260.07 382.01,260.07 381.9,221.05 330.46,221.53 330.46,245.07 334.26,245.07 	"/>
	<polygon id="Restroom_2_" style="fill:#00CCCC;stroke:#000000;stroke-miterlimit:10;" points="342.26,187.07 390.46,187.07 
		390.46,190.07 393.68,190.07 393.76,278.8 382.01,279 381.68,221.07 342.5,221.07 	"/>
	
		<rect x="124.51" y="227.03" transform="matrix(4.489482e-11 -1 1 4.489482e-11 -64.5194 404.5372)" style="fill:none;stroke:#000000;stroke-miterlimit:10;" width="91" height="15"/>
	<polygon style="fill:none;stroke:#000000;stroke-miterlimit:10;" points="21.01,364.65 21.01,467.15 1.49,467.09 1.08,364.47 	"/>
	<polygon style="fill:none;stroke:#000000;stroke-miterlimit:10;" points="1.08,364.47 1.01,328.19 21.01,328.19 20.53,364.59 	"/>
	<polygon style="fill:none;stroke:#000000;stroke-miterlimit:10;" points="78.46,280.07 67.46,280.07 67.46,275.07 0.51,275.07 
		1.45,328.05 21.46,328.19 21.46,336.28 78.46,336.03 	"/>
	
		<rect x="71.59" y="474.61" transform="matrix(4.488416e-11 -1 1 4.488416e-11 -397.6028 572.6205)" style="fill:#B9A302;stroke:#000000;stroke-miterlimit:10;" width="31.83" height="21"/>
	
		<rect x="574.01" y="436.36" transform="matrix(4.490459e-11 -1 1 4.490459e-11 149.8139 1049.2039)" style="fill:none;stroke:#000000;stroke-miterlimit:10;" width="51" height="26.67"/>
	
		<rect x="614.34" y="466.69" transform="matrix(4.495499e-11 -1 1 4.495499e-11 146.1473 1089.5372)" style="fill:none;stroke:#000000;stroke-miterlimit:10;" width="7" height="10"/>
	
		<rect x="581.59" y="302.44" transform="matrix(4.488882e-11 -1 1 4.488882e-11 285.5639 917.4539)" style="fill:none;stroke:#000000;stroke-miterlimit:10;" width="39.83" height="27"/>
	<polygon id="Stairs_2_" style="fill:#4c4c4c;stroke:#000000;stroke-miterlimit:10;" points="586.43,425.07 588.01,336.07 
		625.46,336.07 625.46,425.07 	"/>
	<polyline id="Restroom_4_" style="fill:#00CCCC;stroke:#000000;stroke-miterlimit:10;" points="21.46,392.57 21.46,361.07 
		64.46,361.07 64.46,374.53 77.46,374.86 77.46,392.53 21.46,392.05 	"/>
	<polygon id="Restroom_3_" style="fill:#00CCCC;stroke:#000000;stroke-miterlimit:10;" points="21.46,336.28 21.46,361.07 
		64.46,361.07 64.46,352.07 78.46,352.07 78.46,336.03 	"/>
</g>
<g id="Rooms">
	
	<a id="R158" xlink:href="#" >
		<g><rect id="R158" x="161.5" y="464.32" transform="matrix(5.700694e-04 -1 1 5.700694e-04 -303.399 736.8085)" style="fill:#006699;stroke:#000000;stroke-miterlimit:10;" width="110.82" height="111.75"/></g>
	</a>
	<a id="R151" xlink:href="#" >
		<g><polygon id="R151" style="fill:#006699;stroke:#000000;stroke-miterlimit:10;" points="266.01,188.53 266.01,280.03 
	177.51,280.03 177.51,189.03 	"/></g>
	</a>
	<a id="R152" xlink:href="#" >
		<g><polygon id="R152" style="fill:#006699;stroke:#000000;stroke-miterlimit:10;" points="162.51,189.03 162.51,280.03 
	99.01,280.03 99.01,188.53 	"/></g>
	</a>
	<a id="R115" xlink:href="#" >
		<g><rect id="R115" x="282.51" y="342.03" transform="matrix(4.489926e-11 -1 1 4.489926e-11 -20.0194 721.0372)" style="fill:#001A72;stroke:#000000;stroke-miterlimit:10;" width="136" height="57"/></g>
	</a>
	<a id="R109" xlink:href="#" >
		<g><rect id="R109" x="491.76" y="308.28" transform="matrix(4.489837e-11 -1 1 4.489837e-11 189.2306 874.7872)" style="fill:#006699;stroke:#000000;stroke-miterlimit:10;" width="80.5" height="69"/></g>
	</a>
	<a id="R113" xlink:href="#" >
		<g><rect id="R113" x="504.01" y="376.53" transform="matrix(4.489038e-11 -1 1 4.489038e-11 120.9806 943.0372)" style="fill:#006699;stroke:#000000;stroke-miterlimit:10;" width="56" height="69"/></g>
	</a>
	<a id="R106" xlink:href="#" >
		<g><polygon id="R106" style="fill:#006699;stroke:#000000;stroke-miterlimit:10;" points="379.46,438.53 379.46,303.07 
	422.46,303.07 422.46,311.53 460.46,311.03 460.46,326.07 497.51,326.07 498.01,439.07 458.51,439.07 459.01,428.07 421.51,428.07 
	422.24,439.05 	"/></g>
	</a>
	<a id="R110" xlink:href="#" >
		<g><polygon id="R110" style="fill:#006699;stroke:#000000;stroke-miterlimit:10;" points="588.01,296.07 615.46,296.07 
	615.46,192.03 576.07,191.7 564.12,274.73 588.58,275.13 	"/></g>
	</a>
	<a id="R105" xlink:href="#" >
		<g><polygon id="R105" style="fill:#006699;stroke:#000000;stroke-miterlimit:10;" points="393.99,256.78 393.54,190.12 
	575.9,191.7 564.14,279.03 416.46,278.78 416.46,257.03 	"/></g>
	</a>
	<a id="R153" xlink:href="#" >
		<g><rect id="R153" x="59.93" y="345.44" transform="matrix(4.490015e-11 -1 1 4.490015e-11 -244.6027 498.9539)" style="fill:#006699;stroke:#000000;stroke-miterlimit:10;" width="134.5" height="52.67"/></g>
	</a>
	<a id="R150" xlink:href="#" >
		<g><polygon id="R150" style="fill:#001A72;stroke:#000000;stroke-miterlimit:10;" points="154.46,432.07 154.46,314.07 
	171.46,314.07 171.46,305.07 273.46,305.07 273.46,438.53 170.46,439.03 170.46,432.07 	"/></g>
	</a>
	<a id="R157" xlink:href="#" >
		<g><polygon id="R157" style="fill:#006699;stroke:#000000;stroke-miterlimit:10;" points="77.46,576.03 77.46,501.07 98.46,501.07 
	98.46,464.53 133.46,464.78 133.46,474.07 161.46,474.07 161.46,575.6 	"/></g>
	</a>
	<a id="R156" xlink:href="#" >
		<g><polygon id="R156" style="fill:#006699;stroke:#000000;stroke-miterlimit:10;" points="19.46,576.53 19.46,477.07 1.54,477.07 
	1.72,467.11 21.46,467.03 21.46,392.03 68.46,392.45 68.46,420.07 77.51,420.07 77.24,576.05 	"/></g>
	</a>
	<a id="R107" xlink:href="#" >
		<g><rect id="R107" x="457.89" y="304.65" transform="matrix(4.493834e-11 -1 1 4.493834e-11 155.3634 783.6544)" style="fill:#006699;stroke:#000000;stroke-miterlimit:10;" width="23.23" height="19"/></g>
	</a>
	<a id="R108" xlink:href="#" >
		<g><rect id="R108" x="476.39" y="305.15" transform="matrix(4.491103e-11 -1 1 4.491103e-11 173.8634 802.6544)" style="fill:#006699;stroke:#000000;stroke-miterlimit:10;" width="23.73" height="18.5"/></g>
	</a>
</g>
<g id="Labels">
	
		<text id="female2_1_" transform="matrix(1 0 0 1 34.7591 384.0033)" style="fill:#FFFFFF; font-family:'FontAwesome'; font-size:21px;"></text>
	
		<text id="male1_1_" transform="matrix(1 0 0 1 360.4349 213.9129)" style="fill:#FFFFFF; font-family:'FontAwesome'; font-size:25.7994px;"></text>
	<polyline id="Stairs_4_" style="fill:none;stroke:#FFFFFF;stroke-miterlimit:10;" points="37.13,259.5 37.13,255.5 37.13,255.55 
		32.96,255.55 32.96,251.55 28.8,251.55 28.8,247.55 24.63,247.55 24.63,243.55 	"/>
	
		<text id="elevator" transform="matrix(1 0 0 1 81.3626 489.0015)" style="fill:#FFFFFF; font-family:'FontAwesome'; font-size:14px;"></text>
	
		<text id="elevator_1_" transform="matrix(1 0 0 1 317.4069 266.5819)" style="fill:#FFFFFF; font-family:'FontAwesome'; font-size:14px;"></text>
	<polyline id="Stairs_3_" style="fill:none;stroke:#FFFFFF;stroke-miterlimit:10;" points="358.38,173.29 358.38,169.29 
		358.38,169.34 354.21,169.34 354.21,165.34 350.05,165.34 350.05,161.34 345.88,161.34 345.88,157.34 	"/>
	<polyline id="Stairs_5_" style="fill:none;stroke:#FFFFFF;stroke-miterlimit:10;" points="612.46,388 612.46,384 612.46,384.05 
		608.29,384.05 608.29,380.05 604.13,380.05 604.13,376.05 599.96,376.05 599.96,372.05 	"/>
	
		<text id="female2_2_" transform="matrix(1 0 0 1 346.5775 251.5288)" style="fill:#FFFFFF; font-family:'FontAwesome'; font-size:25.7994px;"></text>
	
		<text id="male1_2_" transform="matrix(1 0 0 1 37.1342 356.5018)" style="fill:#FFFFFF; font-family:'FontAwesome'; font-size:21px;"></text>
	<text transform="matrix(1 0 0 1 30.9183 491.5282)" style="fill:#FFFFFF; font-family:'MyriadPro-Regular'; font-size:21px;">156</text>
	<text transform="matrix(1 0 0 1 102.8499 537.2518)" style="fill:#FFFFFF; font-family:'MyriadPro-Regular'; font-size:21px;">157</text>
	<text transform="matrix(1 0 0 1 200.7461 537.2513)" style="fill:#FFFFFF; font-family:'MyriadPro-Regular'; font-size:21px;">158</text>
	<text transform="matrix(1 0 0 1 163.7015 362.5792)"><tspan x="0" y="0" style="fill:#FFFFFF; font-family:'MyriadPro-Regular'; font-size:21px;">Auditorium </tspan><tspan x="34.1" y="25.2" style="fill:#FFFFFF; font-family:'MyriadPro-Regular'; font-size:21px;">150</tspan></text>
	<text transform="matrix(1 0 0 1 109.0163 376.8226)" style="fill:#FFFFFF; font-family:'MyriadPro-Regular'; font-size:21px;">153</text>
	<text transform="matrix(1 0 0 1 114.5994 239.4128)" style="fill:#FFFFFF; font-family:'MyriadPro-Regular'; font-size:21px;">152</text>
	<text transform="matrix(1 0 0 1 205.5998 239.4128)" style="fill:#FFFFFF; font-family:'MyriadPro-Regular'; font-size:21px;">151</text>
	<text transform="matrix(1 0 0 1 324.4183 364.47)"><tspan x="0" y="0" style="fill:#FFFFFF; font-family:'MyriadPro-Regular'; font-size:18px;">Gallery </tspan><tspan x="12.24" y="21.6" style="fill:#FFFFFF; font-family:'MyriadPro-Regular'; font-size:18px;">115</tspan></text>
	<text transform="matrix(1 0 0 1 420.1683 376.8229)" style="fill:#FFFFFF; font-family:'MyriadPro-Regular'; font-size:21px;">106</text>
	<text transform="matrix(1 0 0 1 457.3052 239.4128)" style="fill:#FFFFFF; font-family:'MyriadPro-Regular'; font-size:21px;">105</text>
	<text transform="matrix(1 0 0 1 515.8497 349.9032)" style="fill:#FFFFFF; font-family:'MyriadPro-Regular'; font-size:21px;">109</text>
	<text transform="matrix(1 0 0 1 512.7225 420.8615)" style="fill:#FFFFFF; font-family:'MyriadPro-Regular'; font-size:21px;">113</text>
	<text transform="matrix(1 0 0 1 575.9976 250.0589)" style="fill:#FFFFFF; font-family:'MyriadPro-Regular'; font-size:21px;">110</text>
	<text transform="matrix(1 0 0 1 479.6662 319.4997)" style="fill:#FFFFFF; font-family:'MyriadPro-Regular'; font-size:11px;">108</text>
	<text transform="matrix(1 0 0 1 460.3488 319.4998)" style="fill:#FFFFFF; font-family:'MyriadPro-Regular'; font-size:11px;">107</text>
	<text transform="matrix(1 0 0 1 102.7491 21.4132)" style="font-family:'OptimaLTStd'; font-size:25.7994px;">Volunteer State Community College </text>
	<text transform="matrix(1 0 0 1 162.2555 50.8743)" style="font-family:'OptimaLTStd'; font-size:25.7994px;">SRB Humanities Building </text>
	<text transform="matrix(1 0 0 1 231.8463 81.8344)" style="font-family:'OptimaLTStd'; font-size:25.7994px;">FIRST FLOOR</text>
	<polyline id="swatch-pink" style="fill:#993333;" points="263.44,118.21 263.44,96.09 285.55,96.09 285.55,118.21 	"/>
	
		<text id="legend-offices" transform="matrix(1 0 0 1 290.9132 112.3755)" style="font-family:'OptimaLTStd'; font-size:16.5853px;">Offices</text>
	<polyline id="swatch-pink_2_" style="fill:#006699;" points="131.55,118.21 131.55,96.09 153.66,96.09 153.66,118.21 	"/>
	
		<text id="legend-library" transform="matrix(1 0 0 1 157.8126 112.3755)" style="font-family:'OptimaLTStd'; font-size:16.5853px;">Classrooms</text>
	<polyline id="swatch-pink_1_" style="fill:#001A72;" points="368.84,118.21 368.84,96.09 390.95,96.09 390.95,118.21 	"/>
	
		<text id="legend-library_1_" transform="matrix(1 0 0 1 395.1065 112.3768)" style="font-family:'OptimaLTStd'; font-size:16.5853px;">Auditorium</text>
</g>
<g id="Doors">
	<line id="R156_2_" style="fill:none;stroke:#00FF00;stroke-miterlimit:10;" x1="62.51" y1="410.03" x2="53.92" y2="415.81"/>
	<line id="R153_2_" style="fill:none;stroke:#00FF00;stroke-miterlimit:10;" x1="105.51" y1="410.03" x2="113.51" y2="406.53"/>
	<line id="R152_2_" style="fill:none;stroke:#00FF00;stroke-miterlimit:10;" x1="154.01" y1="275.03" x2="150.01" y2="267.74"/>
	<line id="R151_2_" style="fill:none;stroke:#00FF00;stroke-miterlimit:10;" x1="188.01" y1="275.03" x2="193.51" y2="267.74"/>
	<line id="R150_2_" style="fill:none;stroke:#00FF00;stroke-miterlimit:10;" x1="268.51" y1="408.28" x2="255.01" y2="408.28"/>
	<line id="R158_2_" style="fill:none;stroke:#00FF00;stroke-miterlimit:10;" x1="173.01" y1="472.53" x2="177.51" y2="484.59"/>
	<line id="R157_2_" style="fill:none;stroke:#00FF00;stroke-miterlimit:10;" x1="147.01" y1="478.56" x2="143.01" y2="485.63"/>
	<line id="R115_6_" style="fill:none;stroke:#00FF00;stroke-miterlimit:10;" x1="328.13" y1="420.03" x2="338.51" y2="417.03"/>
	<line id="R106_2_" style="fill:none;stroke:#00FF00;stroke-miterlimit:10;" x1="441.46" y1="425.07" x2="437.66" y2="413.55"/>
	<line id="R105_2_" style="fill:none;stroke:#00FF00;stroke-miterlimit:10;" x1="446.92" y1="271.39" x2="453.01" y2="261.78"/>
	<line id="R110_2_" style="fill:none;stroke:#00FF00;stroke-miterlimit:10;" x1="594.01" y1="285.53" x2="601.51" y2="276.53"/>
	<line id="R113_2_" style="fill:none;stroke:#00FF00;stroke-miterlimit:10;" x1="560.51" y1="391.53" x2="552.01" y2="401.53"/>
	<line id="R107_2_" style="fill:none;stroke:#00FF00;stroke-miterlimit:10;" x1="470.34" y1="309.19" x2="471.18" y2="304.69"/>
	<line id="R108_2_" style="fill:none;stroke:#00FF00;stroke-miterlimit:10;" x1="486.68" y1="308.36" x2="484.64" y2="304.19"/>
	<line id="R109_2_" style="fill:none;stroke:#00FF00;stroke-miterlimit:10;" x1="562.84" y1="312.36" x2="553.34" y2="317.36"/>
</g>
<g id="Portals">
	
		<line id="Elev.1.floor2" style="fill:none;stroke:#F15A24;stroke-miterlimit:10;" x1="316.76" y1="261.78" x2="325.34" y2="265.7"/>
	
		<line id="Stair.1.floor2" style="fill:none;stroke:#F15A24;stroke-miterlimit:10;" x1="593.42" y1="412.2" x2="604.34" y2="415.7"/>
</g>
<g id="Paths">
	<line style="fill:none;stroke:#FF00FF;stroke-miterlimit:10;" x1="316.76" y1="261.78" x2="297.96" y2="261.78"/>
	<line style="fill:none;stroke:#FF00FF;stroke-miterlimit:10;" x1="297.96" y1="290.57" x2="297.96" y2="261.78"/>
	<line style="fill:none;stroke:#FF00FF;stroke-miterlimit:10;" x1="268.51" y1="408.28" x2="297.96" y2="408.28"/>
	<line style="fill:none;stroke:#FF00FF;stroke-miterlimit:10;" x1="297.96" y1="290.57" x2="297.96" y2="408.28"/>
	<line style="fill:none;stroke:#FF00FF;stroke-miterlimit:10;" x1="328.13" y1="420.03" x2="297.96" y2="420.86"/>
	<line style="fill:none;stroke:#FF00FF;stroke-miterlimit:10;" x1="297.96" y1="408.28" x2="297.96" y2="420.86"/>
	<line style="fill:none;stroke:#FF00FF;stroke-miterlimit:10;" x1="441.46" y1="425.07" x2="441.96" y2="449.69"/>
	<line style="fill:none;stroke:#FF00FF;stroke-miterlimit:10;" x1="297.96" y1="420.86" x2="297.96" y2="449.69"/>
	<line style="fill:none;stroke:#FF00FF;stroke-miterlimit:10;" x1="441.96" y1="449.69" x2="297.96" y2="449.69"/>
	<line style="fill:none;stroke:#FF00FF;stroke-miterlimit:10;" x1="593.42" y1="412.2" x2="575.9" y2="412.32"/>
	<line style="fill:none;stroke:#FF00FF;stroke-miterlimit:10;" x1="441.96" y1="449.69" x2="575.9" y2="449.69"/>
	<line style="fill:none;stroke:#FF00FF;stroke-miterlimit:10;" x1="575.9" y1="412.32" x2="575.9" y2="449.69"/>
	<line style="fill:none;stroke:#FF00FF;stroke-miterlimit:10;" x1="560.51" y1="391.53" x2="575.9" y2="391.07"/>
	<line style="fill:none;stroke:#FF00FF;stroke-miterlimit:10;" x1="575.9" y1="412.32" x2="575.9" y2="391.07"/>
	<line style="fill:none;stroke:#FF00FF;stroke-miterlimit:10;" x1="562.84" y1="312.36" x2="575.9" y2="312.07"/>
	<line style="fill:none;stroke:#FF00FF;stroke-miterlimit:10;" x1="575.9" y1="391.07" x2="575.9" y2="312.07"/>
	<line style="fill:none;stroke:#FF00FF;stroke-miterlimit:10;" x1="594.01" y1="285.53" x2="575.9" y2="290.57"/>
	<line style="fill:none;stroke:#FF00FF;stroke-miterlimit:10;" x1="575.9" y1="312.07" x2="575.9" y2="290.57"/>
	<line style="fill:none;stroke:#FF00FF;stroke-miterlimit:10;" x1="297.96" y1="290.57" x2="447.63" y2="290.8"/>
	<line style="fill:none;stroke:#FF00FF;stroke-miterlimit:10;" x1="446.92" y1="271.39" x2="447.63" y2="290.8"/>
	<line style="fill:none;stroke:#FF00FF;stroke-miterlimit:10;" x1="471.18" y1="304.69" x2="470.76" y2="290.57"/>
	<line style="fill:none;stroke:#FF00FF;stroke-miterlimit:10;" x1="484.64" y1="304.19" x2="484.72" y2="290.57"/>
	<line style="fill:none;stroke:#FF00FF;stroke-miterlimit:10;" x1="447.63" y1="290.8" x2="470.76" y2="290.57"/>
	<line style="fill:none;stroke:#FF00FF;stroke-miterlimit:10;" x1="484.72" y1="290.57" x2="470.76" y2="290.57"/>
	<line style="fill:none;stroke:#FF00FF;stroke-miterlimit:10;" x1="575.9" y1="290.57" x2="484.72" y2="290.57"/>
	<line style="fill:none;stroke:#FF00FF;stroke-miterlimit:10;" x1="187.96" y1="290.57" x2="297.96" y2="290.57"/>
	<line style="fill:none;stroke:#FF00FF;stroke-miterlimit:10;" x1="188.01" y1="275.03" x2="187.96" y2="290.57"/>
	<line style="fill:none;stroke:#FF00FF;stroke-miterlimit:10;" x1="154.46" y1="290.57" x2="187.96" y2="290.57"/>
	<line style="fill:none;stroke:#FF00FF;stroke-miterlimit:10;" x1="154.01" y1="275.03" x2="154.46" y2="290.57"/>
	<line style="fill:none;stroke:#FF00FF;stroke-miterlimit:10;" x1="88.96" y1="290.69" x2="154.46" y2="290.57"/>
	<line style="fill:none;stroke:#FF00FF;stroke-miterlimit:10;" x1="89.63" y1="412.92" x2="88.96" y2="290.69"/>
	<line style="fill:none;stroke:#FF00FF;stroke-miterlimit:10;" x1="62.51" y1="410.03" x2="89.63" y2="412.92"/>
	<line style="fill:none;stroke:#FF00FF;stroke-miterlimit:10;" x1="105.51" y1="410.03" x2="89.63" y2="412.92"/>
	<line style="fill:none;stroke:#FF00FF;stroke-miterlimit:10;" x1="147.01" y1="478.56" x2="147.3" y2="449.69"/>
	<line style="fill:none;stroke:#FF00FF;stroke-miterlimit:10;" x1="173.01" y1="472.53" x2="173.3" y2="449.69"/>
	<line style="fill:none;stroke:#FF00FF;stroke-miterlimit:10;" x1="297.96" y1="449.69" x2="173.3" y2="449.69"/>
	<line style="fill:none;stroke:#FF00FF;stroke-miterlimit:10;" x1="147.3" y1="449.69" x2="173.3" y2="449.69"/>
	<line style="fill:none;stroke:#FF00FF;stroke-miterlimit:10;" x1="89.3" y1="449.69" x2="147.3" y2="449.69"/>
	<line style="fill:none;stroke:#FF00FF;stroke-miterlimit:10;" x1="89.63" y1="412.92" x2="89.3" y2="449.69"/>
</g>
</svg>
