<?xml version="1.0" encoding="utf-8"?>
<!-- Generator: Adobe Illustrator 19.2.1, SVG Export Plug-In . SVG Version: 6.00 Build 0)  -->
<svg version="1.1" id="Layer_1" xmlns="http://www.w3.org/2000/svg" xmlns:xlink="http://www.w3.org/1999/xlink" x="0px" y="0px"
	 width="434.5px" height="752.5px" viewBox="0 0 434.5 752.5" style="enable-background:new 0 0 434.5 752.5;" xml:space="preserve"
	>
<g id="Base">
	<polyline id="Circulation" style="fill:#D3D3D3;stroke:#000000;stroke-miterlimit:10;" points="385.5,742 241.17,742 241,752 
		152,752 152,740 109,739.84 109,750 101.5,750 101.84,695 99.5,695 79,440 79,399.5 2,397.84 0.5,146 100,146 100,128.53 
		345,127.53 345,194 370,194 370,226 388.01,226.09 388.5,393 417,393 416.75,441 434,441 434,517.5 384.03,517 385.03,742 	"/>
	<rect id="Stairs" x="302" y="127.5" style="fill:#4c4c4c;stroke:#000000;stroke-miterlimit:10;" width="43" height="66.5"/>
	
		<rect id="Stairs_1_" x="390.25" y="441.25" style="fill:#4c4c4c;stroke:#000000;stroke-miterlimit:10;" width="42.92" height="75.75"/>
	<rect id="Elevator" x="298.25" y="441.25" style="fill:#B9A302;stroke:#000000;stroke-miterlimit:10;" width="34" height="20"/>
	<polygon style="fill:none;stroke:#000000;stroke-miterlimit:10;" points="332,457 355.5,457 355.5,441.25 332.03,441.25 	"/>
	<rect x="355.5" y="441.25" style="fill:none;stroke:#000000;stroke-miterlimit:10;" width="36" height="27.75"/>
	<rect x="388.5" y="393" style="fill:none;stroke:#000000;stroke-miterlimit:10;" width="28.25" height="48.25"/>
	<rect x="79" y="399.25" style="fill:none;stroke:#000000;stroke-miterlimit:10;" width="33.25" height="40.75"/>
	<rect id="Restroom" x="298.25" y="520.75" style="fill:#00CCCC;stroke:#000000;stroke-miterlimit:10;" width="22" height="22.5"/>
	<polygon id="Restroom_1_" style="fill:#00CCCC;stroke:#000000;stroke-miterlimit:10;" points="298,461.5 298,484 317,484 317,509 
		356,508.67 355.5,457 332,457 332,461.25 	"/>
	<polygon id="Restroom_2_" style="fill:#00CCCC;stroke:#000000;stroke-miterlimit:10;" points="390,469.26 390,517 387,517 
		387,520.67 298.25,520.75 298.07,509 356,508.67 356,469.5 	"/>
	<rect x="297" y="289.5" style="fill:none;stroke:#000000;stroke-miterlimit:10;" width="91" height="15"/>
	<polygon style="fill:none;stroke:#000000;stroke-miterlimit:10;" points="212.38,148 109.88,148 109.94,128.48 212.56,128.07 	"/>
	<polygon style="fill:none;stroke:#000000;stroke-miterlimit:10;" points="212.56,128.07 248.84,128 248.84,148 212.44,147.52 	"/>
	<polygon style="fill:none;stroke:#000000;stroke-miterlimit:10;" points="297,205 297,194 302,194 302,127.5 249,128.21 
		248.84,148 240.75,148 241,205 	"/>
	<rect x="76" y="204" style="fill:#B9A302;stroke:#000000;stroke-miterlimit:10;" width="31.83" height="21"/>
	<rect x="101.84" y="713.17" style="fill:none;stroke:#000000;stroke-miterlimit:10;" width="51" height="26.67"/>
	<rect x="101.84" y="739.84" style="fill:none;stroke:#000000;stroke-miterlimit:10;" width="7" height="10"/>
	<rect x="241.17" y="715" style="fill:none;stroke:#000000;stroke-miterlimit:10;" width="39.83" height="27"/>
	<polygon id="Stairs_2_" style="fill:#4c4c4c;stroke:#000000;stroke-miterlimit:10;" points="152,713.42 241,715 241,752 152,752 	
		"/>
	<polyline id="Restroom_4_" style="fill:#00CCCC;stroke:#000000;stroke-miterlimit:10;" points="184.5,148 216,148 216,191 
		202.5,191 202.17,204 184.5,204 185,148 	"/>
	<polygon id="Restroom_3_" style="fill:#00CCCC;stroke:#000000;stroke-miterlimit:10;" points="240.75,148 216,148 216,191 225,191 
		225,205 241,205 	"/>
</g>
<g id="Rooms">
	<a id="R158" xlink:href="#" >
		<g><rect id="R158" x="1.43" y="288.03" style="fill:#006699;stroke:#000000;stroke-miterlimit:10;" width="110.82" height="111.75"/></g>
	</a>
	<a id="R151" xlink:href="#" >
		<g><polygon id="R151" style="fill:#006699;stroke:#000000;stroke-miterlimit:10;" points="388.5,393 297,393 297,304.5 388,304.5 	"/></g>
	</a>
	<a id="R152" xlink:href="#" >
		<g><polygon id="R152" style="fill:#006699;stroke:#000000;stroke-miterlimit:10;" points="388,289.5 297,289.5 297,226 388.5,226 	"/></g>
	</a>
	<a id="R115" xlink:href="#" >
		<g><rect id="R115" x="138.5" y="449" style="fill:#001A72;stroke:#000000;stroke-miterlimit:10;" width="136" height="57"/></g>
	</a>
	<a id="R109" xlink:href="#" >
		<g><rect id="R109" x="194" y="624.5" style="fill:#006699;stroke:#000000;stroke-miterlimit:10;" width="80.5" height="69"/></g>
	</a>
	<a id="R113" xlink:href="#" >
		<g><rect id="R113" x="138" y="624.5" style="fill:#006699;stroke:#000000;stroke-miterlimit:10;" width="56" height="69"/></g>
	</a>
	<a id="R106" xlink:href="#" >
		<g><polygon id="R106" style="fill:#006699;stroke:#000000;stroke-miterlimit:10;" points="138.5,506 274,506 274,549 265.5,549 
		266,587 251,587 251,624.5 138,625 138,585.5 149,586 149,548.5 138,549 	"/></g>
	</a>
	<a id="R110" xlink:href="#" >
		<g><polygon id="R110" style="fill:#006699;stroke:#000000;stroke-miterlimit:10;" points="281,715 281,742 385,742 385.33,702.84 
		302.31,691 301.93,715.51 	"/></g>
	</a>
	<a id="R105" xlink:href="#" >
		<g><polygon id="R105" style="fill:#006699;stroke:#000000;stroke-miterlimit:10;" points="320.25,520.75 386.91,520.42 385.33,702.84 
		298,690.88 298.25,543 320,543 	"/></g>
	</a>
	<a id="R153" xlink:href="#" >
		<g><rect id="R153" x="138" y="227.84" style="fill:#006699;stroke:#000000;stroke-miterlimit:10;" width="134.5" height="52.67"/></g>
	</a>
	<a id="R150" xlink:href="#" >
		<g><polygon id="R150" style="fill:#001A72;stroke:#000000;stroke-miterlimit:10;" points="145,281 263,281 263,298 272,298 272,400 
		138.5,400 138,297 145,297 	"/></g>
	</a>
	<a id="R157" xlink:href="#" >
		<g><polygon id="R157" style="fill:#006699;stroke:#000000;stroke-miterlimit:10;" points="1,204 76,204 76,225 112.5,225 112.25,260 
		103,260 103,288 1.43,288 	"/></g>
	</a>
	<a id="R156" xlink:href="#" >
		<g><polygon id="R156" style="fill:#006699;stroke:#000000;stroke-miterlimit:10;" points="0.5,146 100,146 100,128.53 109.94,128.48 
		110,148 185,148 184.58,195 157,195 157,204.5 1,204 	"/></g>
	</a>
	<a id="R107" xlink:href="#" >
		<g><rect id="R107" x="251.27" y="587" style="fill:#006699;stroke:#000000;stroke-miterlimit:10;" width="23.23" height="19"/></g>
	</a>
	<a id="R108" xlink:href="#" >
		<g><rect id="R108" x="250.77" y="606" style="fill:#006699;stroke:#000000;stroke-miterlimit:10;" width="23.73" height="18.5"/></g>
	</a>
</g>
<g id="Labels">
	
		<text id="female2_1_" transform="matrix(1 0 0 1 190.0398 180.9131)" style="fill:#FFFFFF; font-family:'FontAwesome'; font-size:25.7994px;"></text>
	
		<text id="male1_1_" transform="matrix(1 0 0 1 220.8625 180.913)" style="fill:#FFFFFF; font-family:'FontAwesome'; font-size:25.7994px;"></text>
	<polyline id="Stairs_4_" style="fill:none;stroke:#FFFFFF;stroke-miterlimit:10;" points="329.75,168.73 329.75,164.73 
		329.75,164.78 325.58,164.78 325.58,160.78 321.42,160.78 321.42,156.78 317.25,156.78 317.25,152.78 	"/>
	
		<text id="elevator" transform="matrix(1 0 0 1 309.2901 456.0015)" style="fill:#FFFFFF; font-family:'FontAwesome'; font-size:14px;"></text>
	
		<text id="elevator_1_" transform="matrix(1 0 0 1 85.2901 219.5015)" style="fill:#FFFFFF; font-family:'FontAwesome'; font-size:14px;"></text>
	<polyline id="Stairs_3_" style="fill:none;stroke:#FFFFFF;stroke-miterlimit:10;" points="417.96,487.1 417.96,483.1 
		417.96,483.15 413.79,483.15 413.79,479.15 409.63,479.15 409.63,475.15 405.46,475.15 405.46,471.15 	"/>
	<polyline id="Stairs_5_" style="fill:none;stroke:#FFFFFF;stroke-miterlimit:10;" points="202.75,740.69 202.75,736.69 
		202.75,736.74 198.58,736.74 198.58,732.74 194.42,732.74 194.42,728.74 190.25,728.74 190.25,724.74 	"/>
	
		<text id="female2_2_" transform="matrix(1 0 0 1 327.0046 492.9131)" style="fill:#FFFFFF; font-family:'FontAwesome'; font-size:25.7994px;"></text>
	
		<text id="male1_2_" transform="matrix(1 0 0 1 364.8625 506.0018)" style="fill:#FFFFFF; font-family:'FontAwesome'; font-size:25.7994px;"></text>
	<text transform="matrix(1 0 0 1 68.3451 178.913)" style="fill:#FFFFFF; font-family:'MyriadPro-Regular'; font-size:21px;">156</text>
	<text transform="matrix(1 0 0 1 31.8451 257.7518)" style="fill:#FFFFFF; font-family:'MyriadPro-Regular'; font-size:21px;">157</text>
	<text transform="matrix(1 0 0 1 31.8451 350.913)" style="fill:#FFFFFF; font-family:'MyriadPro-Regular'; font-size:21px;">158</text>
	<text transform="matrix(1 0 0 1 154.2411 340.5017)"><tspan x="0" y="0" style="fill:#FFFFFF; font-family:'MyriadPro-Regular'; font-size:21px;">Auditorium </tspan><tspan x="34.1" y="25.2" style="fill:#FFFFFF; font-family:'MyriadPro-Regular'; font-size:21px;">150</tspan></text>
	<text transform="matrix(1 0 0 1 188.8452 257.7518)" style="fill:#FFFFFF; font-family:'MyriadPro-Regular'; font-size:21px;">153</text>
	<text transform="matrix(1 0 0 1 328.8452 263.913)" style="fill:#FFFFFF; font-family:'MyriadPro-Regular'; font-size:21px;">152</text>
	<text transform="matrix(1 0 0 1 327.5952 356.913)" style="fill:#FFFFFF; font-family:'MyriadPro-Regular'; font-size:21px;">151</text>
	<text transform="matrix(1 0 0 1 176.6635 473.0018)"><tspan x="0" y="0" style="fill:#FFFFFF; font-family:'MyriadPro-Regular'; font-size:18px;">Gallery </tspan><tspan x="12.24" y="21.6" style="fill:#FFFFFF; font-family:'MyriadPro-Regular'; font-size:18px;">115</tspan></text>
	<text transform="matrix(1 0 0 1 184.0952 573.913)" style="fill:#FFFFFF; font-family:'MyriadPro-Regular'; font-size:21px;">106</text>
	<text transform="matrix(1 0 0 1 326.2996 608.913)" style="fill:#FFFFFF; font-family:'MyriadPro-Regular'; font-size:21px;">105</text>
	<text transform="matrix(1 0 0 1 218.0952 665.913)" style="fill:#FFFFFF; font-family:'MyriadPro-Regular'; font-size:21px;">109</text>
	<text transform="matrix(1 0 0 1 147.3452 665.9128)" style="fill:#FFFFFF; font-family:'MyriadPro-Regular'; font-size:21px;">113</text>
	<text transform="matrix(1 0 0 1 318.8452 728.5018)" style="fill:#FFFFFF; font-family:'MyriadPro-Regular'; font-size:21px;">110</text>
	<text transform="matrix(1 0 0 1 252.6868 619.2463)" style="fill:#FFFFFF; font-family:'MyriadPro-Regular'; font-size:12px;">108</text>
	<text transform="matrix(1 0 0 1 253.403 601.0797)" style="fill:#FFFFFF; font-family:'MyriadPro-Regular'; font-size:12px;">107</text>
	<text transform="matrix(1 0 0 1 19.2053 21.4132)" style="font-family:'OptimaLTStd'; font-size:25.7994px;">Volunteer State Community College </text>
	<text transform="matrix(1 0 0 1 78.7111 50.8743)" style="font-family:'OptimaLTStd'; font-size:25.7994px;">SRB Humanities Building </text>
	<text transform="matrix(1 0 0 1 148.3026 81.8344)" style="font-family:'OptimaLTStd'; font-size:25.7994px;">FIRST FLOOR</text>
	<polyline id="swatch-pink" style="fill:#993333;" points="179.89,118.21 179.89,96.09 202,96.09 202,118.21 	"/>
	<text id="legend-offices" transform="matrix(1 0 0 1 207.369 112.3755)" style="font-family:'OptimaLTStd'; font-size:16.5853px;">Offices</text>
	<polyline id="swatch-pink_2_" style="fill:#006699;" points="48,118.21 48,96.09 70.11,96.09 70.11,118.21 	"/>
	<text id="legend-library" transform="matrix(1 0 0 1 74.2684 112.3755)" style="font-family:'OptimaLTStd'; font-size:16.5853px;">Classrooms</text>
	<polyline id="swatch-pink_1_" style="fill:#001A72;" points="285.3,118.21 285.3,96.09 307.41,96.09 307.41,118.21 	"/>
	
		<text id="legend-library_1_" transform="matrix(1 0 0 1 311.5622 112.3768)" style="font-family:'OptimaLTStd'; font-size:16.5853px;">Auditorium</text>
</g>
<g id="Doors">
	<line id="R156_1_" style="fill:none;stroke:#00FF00;stroke-miterlimit:10;" x1="167" y1="189.5" x2="161.22" y2="180.91"/>
	<line id="R153_1_" style="fill:none;stroke:#00FF00;stroke-miterlimit:10;" x1="167" y1="232.5" x2="170.5" y2="240.5"/>
	<line id="R152_1_" style="fill:none;stroke:#00FF00;stroke-miterlimit:10;" x1="302" y1="281" x2="309.29" y2="277"/>
	<line id="R151_1_" style="fill:none;stroke:#00FF00;stroke-miterlimit:10;" x1="302" y1="315" x2="309.29" y2="320.5"/>
	<line id="R150_1_" style="fill:none;stroke:#00FF00;stroke-miterlimit:10;" x1="168.75" y1="395.5" x2="168.75" y2="382"/>
	<line id="R158_1_" style="fill:none;stroke:#00FF00;stroke-miterlimit:10;" x1="104.5" y1="300" x2="92.44" y2="304.5"/>
	<line id="R157_1_" style="fill:none;stroke:#00FF00;stroke-miterlimit:10;" x1="98.47" y1="274" x2="91.41" y2="270"/>
	<line id="R115_1_" style="fill:none;stroke:#00FF00;stroke-miterlimit:10;" x1="157" y1="455.13" x2="160" y2="465.5"/>
	<path id="R115_4_" style="fill:none;stroke:#00FF00;stroke-miterlimit:10;" d="M246.5,461.25"/>
	<path id="R115_3_" style="fill:none;stroke:#00FF00;stroke-miterlimit:10;" d="M250.77,455.13"/>
	<line id="R106_1_" style="fill:none;stroke:#00FF00;stroke-miterlimit:10;" x1="152.84" y1="569.5" x2="164.11" y2="565.5"/>
	<line id="R105_1_" style="fill:none;stroke:#00FF00;stroke-miterlimit:10;" x1="305.65" y1="573.91" x2="315.25" y2="580"/>
	<line id="R110_1_" style="fill:none;stroke:#00FF00;stroke-miterlimit:10;" x1="291.5" y1="721" x2="300.5" y2="728.5"/>
	<line id="R113_1_" style="fill:none;stroke:#00FF00;stroke-miterlimit:10;" x1="185.5" y1="687.5" x2="175.5" y2="679"/>
	<line id="R107_1_" style="fill:none;stroke:#00FF00;stroke-miterlimit:10;" x1="267.84" y1="597.34" x2="272.34" y2="598.17"/>
	<line id="R108_1_" style="fill:none;stroke:#00FF00;stroke-miterlimit:10;" x1="268.67" y1="613.67" x2="272.84" y2="611.63"/>
	<line id="R109_1_" style="fill:none;stroke:#00FF00;stroke-miterlimit:10;" x1="264.67" y1="689.84" x2="259.67" y2="680.34"/>
	<line id="lcd.1" style="fill:none;stroke:#00FF00;stroke-miterlimit:10;" x1="138.5" y1="404.5" x2="152.84" y2="404.5"/>
</g>
<g id="Portals">
	
	<line id="Elev.1.floor2" style="fill:none;stroke:#F15A24;stroke-miterlimit:10;" x1="315.25" y1="443.75" x2="315.25" y2="454.88"/>
	<line id="Elev.1.floor3" style="fill:none;stroke:#F15A24;stroke-miterlimit:10;" x1="315.25" y1="443.75" x2="315.25" y2="454.88"/>
	<line id="Stair.1.floor2" style="fill:none;stroke:#F15A24;stroke-miterlimit:10;" x1="399.5" y1="446" x2="411.71" y2="458.19"/>
	<line id="Stair.1.floor3" style="fill:none;stroke:#F15A24;stroke-miterlimit:10;" x1="399.5" y1="446" x2="411.71" y2="458.19"/>
</g>
<g id="Paths">
	<line style="fill:none;stroke:#FF00FF;stroke-miterlimit:10;" x1="152.84" y1="404.5" x2="152.84" y2="419.63"/>
	<line style="fill:none;stroke:#FF00FF;stroke-miterlimit:10;" x1="157" y1="455.13" x2="152.84" y2="419.63"/>
	<line style="fill:none;stroke:#FF00FF;stroke-miterlimit:10;" x1="168.75" y1="395.5" x2="168.75" y2="419.63"/>
	<line style="fill:none;stroke:#FF00FF;stroke-miterlimit:10;" x1="152.84" y1="419.63" x2="168.75" y2="419.63"/>
	<line style="fill:none;stroke:#FF00FF;stroke-miterlimit:10;" x1="315.25" y1="443.75" x2="315.25" y2="419.63"/>
	<line style="fill:none;stroke:#FF00FF;stroke-miterlimit:10;" x1="168.75" y1="419.63" x2="285.5" y2="419.63"/>
	<line style="fill:none;stroke:#FF00FF;stroke-miterlimit:10;" x1="315.25" y1="419.63" x2="285.5" y2="419.63"/>
	<line style="fill:none;stroke:#FF00FF;stroke-miterlimit:10;" x1="399.5" y1="446" x2="396" y2="419.63"/>
	<line style="fill:none;stroke:#FF00FF;stroke-miterlimit:10;" x1="315.25" y1="419.63" x2="396" y2="419.63"/>
	<line style="fill:none;stroke:#FF00FF;stroke-miterlimit:10;" x1="305.65" y1="573.91" x2="285.5" y2="562.5"/>
	<line style="fill:none;stroke:#FF00FF;stroke-miterlimit:10;" x1="285.5" y1="419.63" x2="285.5" y2="562.5"/>
	<line style="fill:none;stroke:#FF00FF;stroke-miterlimit:10;" x1="272.34" y1="598.17" x2="285.5" y2="592"/>
	<line style="fill:none;stroke:#FF00FF;stroke-miterlimit:10;" x1="272.84" y1="611.63" x2="285.5" y2="608.91"/>
	<line style="fill:none;stroke:#FF00FF;stroke-miterlimit:10;" x1="285.5" y1="562.5" x2="285.5" y2="592"/>
	<line style="fill:none;stroke:#FF00FF;stroke-miterlimit:10;" x1="285.5" y1="608.91" x2="285.5" y2="592"/>
	<line style="fill:none;stroke:#FF00FF;stroke-miterlimit:10;" x1="264.67" y1="689.84" x2="262.89" y2="702.84"/>
	<line style="fill:none;stroke:#FF00FF;stroke-miterlimit:10;" x1="185.5" y1="687.5" x2="185" y2="702.84"/>
	<line style="fill:none;stroke:#FF00FF;stroke-miterlimit:10;" x1="262.89" y1="702.84" x2="185" y2="702.84"/>
	<line style="fill:none;stroke:#FF00FF;stroke-miterlimit:10;" x1="285.5" y1="608.91" x2="285.5" y2="702.84"/>
	<line style="fill:none;stroke:#FF00FF;stroke-miterlimit:10;" x1="262.89" y1="702.84" x2="285.5" y2="702.84"/>
	<line style="fill:none;stroke:#FF00FF;stroke-miterlimit:10;" x1="291.5" y1="721" x2="285.5" y2="702.84"/>
	<line style="fill:none;stroke:#FF00FF;stroke-miterlimit:10;" x1="152.84" y1="569.5" x2="127.34" y2="568.21"/>
	<line style="fill:none;stroke:#FF00FF;stroke-miterlimit:10;" x1="127.34" y1="702.84" x2="127.34" y2="568.21"/>
	<line style="fill:none;stroke:#FF00FF;stroke-miterlimit:10;" x1="185" y1="702.84" x2="127.34" y2="702.84"/>
	<line style="fill:none;stroke:#FF00FF;stroke-miterlimit:10;" x1="152.84" y1="419.63" x2="127.34" y2="419.63"/>
	<line style="fill:none;stroke:#FF00FF;stroke-miterlimit:10;" x1="127.34" y1="568.21" x2="127.34" y2="419.63"/>
	<line style="fill:none;stroke:#FF00FF;stroke-miterlimit:10;" x1="104.5" y1="300" x2="127.34" y2="302.25"/>
	<line style="fill:none;stroke:#FF00FF;stroke-miterlimit:10;" x1="127.34" y1="419.63" x2="127.34" y2="302.25"/>
	<line style="fill:none;stroke:#FF00FF;stroke-miterlimit:10;" x1="98.47" y1="274" x2="127.34" y2="275.5"/>
	<line style="fill:none;stroke:#FF00FF;stroke-miterlimit:10;" x1="127.34" y1="302.25" x2="127.34" y2="275.5"/>
	<line style="fill:none;stroke:#FF00FF;stroke-miterlimit:10;" x1="167" y1="232.5" x2="166" y2="214.5"/>
	<line style="fill:none;stroke:#FF00FF;stroke-miterlimit:10;" x1="167" y1="189.5" x2="166" y2="214.5"/>
	<line style="fill:none;stroke:#FF00FF;stroke-miterlimit:10;" x1="127.34" y1="216.5" x2="127.34" y2="275.5"/>
	<line style="fill:none;stroke:#FF00FF;stroke-miterlimit:10;" x1="166" y1="214.5" x2="127.34" y2="216.5"/>
	<line style="fill:none;stroke:#FF00FF;stroke-miterlimit:10;" x1="302" y1="281" x2="285.5" y2="281"/>
	<line style="fill:none;stroke:#FF00FF;stroke-miterlimit:10;" x1="302" y1="315" x2="285.5" y2="313.5"/>
	<line style="fill:none;stroke:#FF00FF;stroke-miterlimit:10;" x1="166" y1="214.5" x2="285.5" y2="216.5"/>
	<line style="fill:none;stroke:#FF00FF;stroke-miterlimit:10;" x1="285.5" y1="281" x2="285.5" y2="216.5"/>
	<line style="fill:none;stroke:#FF00FF;stroke-miterlimit:10;" x1="285.5" y1="313.5" x2="285.5" y2="281"/>
	<line style="fill:none;stroke:#FF00FF;stroke-miterlimit:10;" x1="285.5" y1="419.63" x2="285.5" y2="313.5"/>
</g>
</svg>
