<?xml version="1.0" encoding="utf-8"?>
<!-- Generator: Adobe Illustrator 19.2.1, SVG Export Plug-In . SVG Version: 6.00 Build 0)  -->
<svg version="1.1" id="Layer_1" xmlns="http://www.w3.org/2000/svg" xmlns:xlink="http://www.w3.org/1999/xlink" x="0px" y="0px"
	 width="434.33px" height="808.37px" viewBox="0 0 434.33 808.37" style="enable-background:new 0 0 434.33 808.37;"
	 xml:space="preserve">
<g id="Base">
	<polyline id="Circulation" style="fill:#D3D3D3;stroke:#000000;stroke-miterlimit:10;" points="386.75,797.87 240.5,797.83 
		240.5,807.75 152.42,807.71 152.5,796.64 108.5,796.29 108.5,808.03 101.5,807.87 101.5,750.37 79.5,495.79 79.5,455.87 
		3.08,456.37 3.61,202.06 102.76,201.56 102.66,172.87 134.5,172.87 134.5,176.87 304.5,176.87 304.5,182.87 346.5,182.87 
		346.5,246.87 372.5,246.87 372.5,281.87 388.5,281.87 388.5,449.87 416.5,449.87 416.5,497.87 434.5,497.87 434.5,573.87 
		388.5,573.87 388.5,797.37 	"/>
	
		<rect id="Elevator_1_" x="78.67" y="261.71" style="fill:#BCA400;stroke:#000000;stroke-miterlimit:10;" width="31.67" height="18"/>
	<polygon id="Elevator" style="fill:#BCA400;stroke:#000000;stroke-miterlimit:10;" points="330.5,517.87 297.5,517.87 
		297.5,497.37 330.38,497.37 	"/>
	<polygon id="Stairs" style="fill:#4c4c4c;" points="346.83,251.21 304.33,251.37 304.33,182.37 346.83,182.21 	"/>
	<rect id="Stairs_1_" x="387.67" y="497.37" style="fill:#4c4c4c;" width="46.67" height="76.33"/>
	<polygon id="Stairs_2_" style="fill:#4c4c4c;stroke:#000000;stroke-miterlimit:10;" points="240.08,807.72 152.42,807.71 
		153,769.37 240.17,770 	"/>
	<rect x="78.67" y="279.71" style="fill:none;stroke:#000000;stroke-miterlimit:10;" width="36.33" height="21.92"/>
	<rect x="69.75" y="349.62" style="fill:none;stroke:#000000;stroke-miterlimit:10;" width="45.25" height="25.5"/>
	<rect x="139.33" y="281.12" style="fill:none;stroke:#000000;stroke-miterlimit:10;" width="43.58" height="27.75"/>
	<rect x="139.33" y="308.87" style="fill:none;stroke:#000000;stroke-miterlimit:10;" width="43.58" height="26.5"/>
	<rect id="Restroom" x="134.33" y="242.37" style="fill:#00CCCC;stroke:#000000;stroke-miterlimit:10;" width="34" height="19.33"/>
	<polygon id="Restroom_2_" style="fill:#00CCCC;stroke:#000000;stroke-miterlimit:10;" points="297.5,517.87 297.5,538.87 
		314.5,538.87 314.5,564.96 353.5,564.87 353.5,512.87 330.5,512.87 330.5,517.87 	"/>
	<polygon id="Restroom_1_" style="fill:#00CCCC;stroke:#000000;stroke-miterlimit:10;" points="387.5,524.87 353.5,524.87 
		353.5,564.87 297.5,565 297.5,577 387.5,576.87 	"/>
	<rect x="78.92" y="454.87" style="fill:none;stroke:#000000;stroke-miterlimit:10;" width="29.58" height="40.92"/>
	<rect x="272.67" y="497.37" style="fill:none;stroke:#000000;stroke-miterlimit:10;" width="24.83" height="79.63"/>
	<rect x="353.5" y="497.37" style="fill:none;stroke:#000000;stroke-miterlimit:10;" width="34.17" height="27.5"/>
	<rect x="330.38" y="497.37" style="fill:none;stroke:#000000;stroke-miterlimit:10;" width="23.12" height="15.5"/>
	<rect x="297.5" y="538.87" style="fill:none;stroke:#000000;stroke-miterlimit:10;" width="17" height="26.09"/>
	<polygon style="fill:none;stroke:#000000;stroke-miterlimit:10;" points="152.5,795.64 108.5,795.29 108.5,769.37 153,769.37 	"/>
	<polygon style="fill:none;stroke:#000000;stroke-miterlimit:10;" points="258,797.84 240.5,797.83 240.33,769.96 258,769.96 	"/>
	<rect x="153" y="749.04" style="fill:none;stroke:#000000;stroke-miterlimit:10;" width="48.33" height="20.33"/>
</g>
<g id="Rooms">
	<a id="R256" xlink:href="#" >
		<g><polygon id="R256" style="fill:#00B438;stroke:#000000;stroke-miterlimit:10;" points="345.5,250.87 345.5,246.87 371.5,246.87 
		371.5,283.87 317.5,283.87 317.5,250.87 	"/></g>
	</a>
	<a id="R266" xlink:href="#" >
		<g><rect id="R266" x="139.33" y="335.37" style="fill:#001A72;stroke:#000000;stroke-miterlimit:10;" width="133.33" height="120"/></g>
	</a>
	<a id="R255" xlink:href="#" >
		<g><rect id="R255" x="182.92" y="281.12" style="fill:#006699;stroke:#000000;stroke-miterlimit:10;" width="89.75" height="54.25"/></g>
	</a>
	<a id="R254" xlink:href="#" >
		<g><rect id="R254" x="298.33" y="282.37" style="fill:#006699;stroke:#000000;stroke-miterlimit:10;" width="89.33" height="47.33"/></g>
	</a>
	<a id="R253" xlink:href="#" >
		<g><rect id="R253" x="298.33" y="329.71" style="fill:#006699;stroke:#000000;stroke-miterlimit:10;" width="89.33" height="36.67"/></g>
	</a>
	<a id="R252" xlink:href="#" >
		<g><rect id="R252" x="298.33" y="366.37" style="fill:#006699;stroke:#000000;stroke-miterlimit:10;" width="89.33" height="43"/></g>
	</a>
	<a id="R251" xlink:href="#" >
		<g><rect id="R251" x="298.33" y="409.37" style="fill:#006699;stroke:#000000;stroke-miterlimit:10;" width="89.33" height="46"/></g>
	</a>
	<a id="R257" xlink:href="#" >
		<g><rect id="R257" x="229.67" y="176.37" style="fill:#006699;stroke:#000000;stroke-miterlimit:10;" width="74.67" height="85.33"/></g>
	</a>
	<a id="R258" xlink:href="#" >
		<g><rect id="R258" x="168.33" y="176.37" style="fill:#006699;stroke:#000000;stroke-miterlimit:10;" width="61.33" height="85.33"/></g>
	</a>
	<a id="R261" xlink:href="#" >
		<g><rect id="R261" x="134.33" y="176.37" style="fill:#993333;stroke:#000000;stroke-miterlimit:10;" width="34" height="32.5"/></g>
	</a>
	<a id="R260" xlink:href="#" >
		<g><rect id="R260" x="134.33" y="208.87" style="fill:#993333;stroke:#000000;stroke-miterlimit:10;" width="34" height="33.5"/></g>
	</a>
	<a id="R262" xlink:href="#" >
		<g><rect id="R262" x="80.33" y="202.04" style="fill:#993333;stroke:#000000;stroke-miterlimit:10;" width="34.67" height="37.67"/></g>
	</a>
	<a id="R209" xlink:href="#" >
		<g><polygon id="R209" style="fill:#00B438;stroke:#000000;stroke-miterlimit:10;" points="387.67,797.37 297.5,797.37 297.5,749.04 
		387.5,749.87 	"/></g>
	</a>
	<a id="R212" xlink:href="#" >
		<g><rect id="R212" x="153" y="676.71" style="fill:#006699;stroke:#000000;stroke-miterlimit:10;" width="48.33" height="72.33"/></g>
	</a>
	<a id="R210" xlink:href="#" >
		<g><rect id="R210" x="201.33" y="676.71" style="fill:#006699;stroke:#000000;stroke-miterlimit:10;" width="71.33" height="72.33"/></g>
	</a>
	<a id="R205" xlink:href="#" >
		<g><polygon id="R205" style="fill:#006699;stroke:#000000;stroke-miterlimit:10;" points="387.67,637.04 297.5,637.04 297.5,577 
		387.67,576.71 	"/></g>
	</a>
	<a id="R204" xlink:href="#" >
		<g><rect id="R204" x="201.33" y="497.37" style="fill:#006699;stroke:#000000;stroke-miterlimit:10;" width="71.33" height="88.33"/></g>
	</a>
	<a id="R213" xlink:href="#" >
		<g><rect id="R213" x="139" y="523.71" style="fill:#006699;stroke:#000000;stroke-miterlimit:10;" width="62.33" height="62"/></g>
	</a>
	<a id="R214" xlink:href="#" >
		<g><rect id="R214" x="139" y="497.37" style="fill:#993333;stroke:#000000;stroke-miterlimit:10;" width="28.67" height="26.33"/></g>
	</a>
	<a id="R215" xlink:href="#" >
		<g><rect id="R215" x="167.67" y="497.37" style="fill:#993333;stroke:#000000;stroke-miterlimit:10;" width="33.67" height="26.33"/></g>
	</a>
	<a id="R206" xlink:href="#" >
		<g><polygon id="R206" style="fill:#993333;stroke:#000000;stroke-miterlimit:10;" points="139,585.87 273,585.87 272.67,620.87 
		264.5,620.87 264.5,640.87 273,640.87 272.67,676.87 138.5,676.87 138.5,639.87 148.5,639.87 148.5,620.87 138,620.87 	"/></g>
	</a>
	<a id="R207" xlink:href="#" >
		<g><polygon id="R207" style="fill:#993333;stroke:#000000;stroke-miterlimit:10;" points="297.5,637.04 297.5,691.87 358.5,691.87 
		358.5,686.87 387.5,686.87 387.5,637.37 	"/></g>
	</a>
	<a id="R208" xlink:href="#" >
		<g><polygon id="R208" style="fill:#993333;stroke:#000000;stroke-miterlimit:10;" points="297.5,749.87 297.5,691.87 358.5,691.87 
		358.5,686.87 387.5,686.87 387.5,749.87 	"/></g>
	</a>
	<a id="R263" xlink:href="#" >
		<g><polygon id="R263" style="fill:#006699;stroke:#000000;stroke-miterlimit:10;" points="80,201.87 1.5,201.87 1.5,254.87 
		78.5,254.87 78.5,261.87 103.5,261.87 103.5,239.96 80.33,239.75 	"/></g>
	</a>
	<a id="R265" xlink:href="#" >
		<g><polygon id="R265" style="fill:#006699;stroke:#000000;stroke-miterlimit:10;" points="1.5,353.37 1.5,254.87 79,254.87 
		78.5,301.87 105.5,301.87 105.5,349.87 69.5,349.87 69.5,358.87 47.5,358.87 47.5,353.54 	"/></g>
	</a>
	<a id="R268" xlink:href="#" >
		<g><polygon id="R268" style="fill:#006699;stroke:#000000;stroke-miterlimit:10;" points="1.5,353.87 47.5,353.87 47.44,358.87 
		69.5,358.87 69.5,375.12 104.44,375.12 104.5,439.87 114.5,439.87 114.5,454.87 1.5,454.87 	"/></g>
	</a>	
</g>
<g id="Labels">
	<text transform="matrix(1 0 0 1 8.2053 21.4132)" style="font-family:'OptimaLTStd'; font-size:25.7994px;">Volunteer State Community College </text>
	<text transform="matrix(1 0 0 1 67.7112 50.8743)" style="font-family:'OptimaLTStd'; font-size:25.7994px;">SRB Humanities Building </text>
	<text transform="matrix(1 0 0 1 116.5213 81.8344)" style="font-family:'OptimaLTStd'; font-size:25.7994px;">SECOND FLOOR</text>
	<polyline id="swatch-pink" style="fill:#993333;" points="235.24,120.21 235.24,98.09 257.35,98.09 257.35,120.21 	"/>
	
		<text id="legend-offices" transform="matrix(1 0 0 1 262.7195 114.3756)" style="font-family:'OptimaLTStd'; font-size:16.5853px;">Offices</text>
	<polyline id="swatch-pink_2_" style="fill:#006699;" points="103.35,120.21 103.35,98.09 125.46,98.09 125.46,120.21 	"/>
	
		<text id="legend-library" transform="matrix(1 0 0 1 129.6188 114.3756)" style="font-family:'OptimaLTStd'; font-size:16.5853px;">Classrooms</text>
	<polyline id="swatch-pink_1_" style="fill:#001A72;" points="68.44,155.21 68.44,133.09 90.55,133.09 90.55,155.21 	"/>
	
		<text id="legend-library_1_" transform="matrix(1 0 0 1 94.7002 149.3768)" style="font-family:'OptimaLTStd'; font-size:16.5853px;">Auditorium</text>
	<polyline id="swatch-pink_3_" style="fill:#00B438;" points="196.44,155.21 196.44,133.09 218.55,133.09 218.55,155.21 	"/>
	
		<text id="legend-library_2_" transform="matrix(1 0 0 1 222.7002 149.3768)" style="font-family:'OptimaLTStd'; font-size:16.5853px;">Conference Rooms</text>
	<text transform="matrix(1 0 0 1 192.1494 387.8732)"><tspan x="0" y="0" style="fill:#FFFFFF; font-family:'MyriadPro-Regular'; font-size:18px;">266 </tspan><tspan x="-37.49" y="21.6" style="fill:#FFFFFF; font-family:'MyriadPro-Regular'; font-size:18px;">Stage Control</tspan></text>
	<text transform="matrix(1 0 0 1 36.3408 409.3736)" style="fill:#FFFFFF; font-family:'MyriadPro-Regular'; font-size:21px;">268</text>
	<text transform="matrix(1 0 0 1 32.0075 316.0403)" style="fill:#FFFFFF; font-family:'MyriadPro-Regular'; font-size:21px;">265</text>
	<text transform="matrix(1 0 0 1 27.3408 234.7069)" style="fill:#FFFFFF; font-family:'MyriadPro-Regular'; font-size:21px;">263</text>
	<text transform="matrix(1 0 0 1 182.8408 225.6236)" style="fill:#FFFFFF; font-family:'MyriadPro-Regular'; font-size:21px;">258</text>
	<text transform="matrix(1 0 0 1 249.0075 225.6236)" style="fill:#FFFFFF; font-family:'MyriadPro-Regular'; font-size:21px;">257</text>
	<text transform="matrix(1 0 0 1 325.7783 312.7069)" style="fill:#FFFFFF; font-family:'MyriadPro-Regular'; font-size:21px;">254</text>
	<text transform="matrix(1 0 0 1 325.7783 353.8736)" style="fill:#FFFFFF; font-family:'MyriadPro-Regular'; font-size:21px;">253</text>
	<text transform="matrix(1 0 0 1 325.7783 395.3736)" style="fill:#FFFFFF; font-family:'MyriadPro-Regular'; font-size:21px;">252</text>
	<text transform="matrix(1 0 0 1 326.8408 436.7069)" style="fill:#FFFFFF; font-family:'MyriadPro-Regular'; font-size:21px;">251</text>
	<text transform="matrix(1 0 0 1 211.6325 316.0403)" style="fill:#FFFFFF; font-family:'MyriadPro-Regular'; font-size:21px;">255</text>
	<text transform="matrix(1 0 0 1 220.8408 545.3736)" style="fill:#FFFFFF; font-family:'MyriadPro-Regular'; font-size:21px;">204</text>
	<text transform="matrix(1 0 0 1 152.5075 558.3736)" style="fill:#FFFFFF; font-family:'MyriadPro-Regular'; font-size:21px;">213</text>
	<text transform="matrix(1 0 0 1 325.7783 612.0403)" style="fill:#FFFFFF; font-family:'MyriadPro-Regular'; font-size:21px;">205</text>
	<text transform="matrix(1 0 0 1 325.7783 668.0403)" style="fill:#FFFFFF; font-family:'MyriadPro-Regular'; font-size:21px;">207</text>
	<text transform="matrix(1 0 0 1 325.7783 728.7069)" style="fill:#FFFFFF; font-family:'MyriadPro-Regular'; font-size:21px;">208</text>
	<text transform="matrix(1 0 0 1 325.7783 782.5049)" style="fill:#FFFFFF; font-family:'MyriadPro-Regular'; font-size:21px;">209</text>
	<text transform="matrix(1 0 0 1 189.3408 637.0372)" style="fill:#FFFFFF; font-family:'MyriadPro-Regular'; font-size:21px;">206</text>
	<text transform="matrix(1 0 0 1 328.3408 271.7069)" style="fill:#FFFFFF; font-family:'MyriadPro-Regular'; font-size:21px;">256</text>
	<text transform="matrix(1 0 0 1 83.8161 225.6236)" style="fill:#FFFFFF; font-family:'MyriadPro-Regular'; font-size:18px;">262</text>
	<text transform="matrix(1 0 0 1 137.4824 231.8736)" style="fill:#FFFFFF; font-family:'MyriadPro-Regular'; font-size:18px;">260</text>
	<text transform="matrix(1 0 0 1 137.4821 197.9569)" style="fill:#FFFFFF; font-family:'MyriadPro-Regular'; font-size:18px;">261</text>
	<text transform="matrix(1 0 0 1 140.113 515.8736)" style="fill:#FFFFFF; font-family:'MyriadPro-Regular'; font-size:16px;">214</text>
	<text transform="matrix(1 0 0 1 172.1882 515.8737)" style="fill:#FFFFFF; font-family:'MyriadPro-Regular'; font-size:16px;">215</text>
	<text transform="matrix(1 0 0 1 220.8405 718.3736)" style="fill:#FFFFFF; font-family:'MyriadPro-Regular'; font-size:21px;">210</text>
	<text transform="matrix(1 0 0 1 161.0071 718.3737)" style="fill:#FFFFFF; font-family:'MyriadPro-Regular'; font-size:21px;">212</text>
	
		<text id="elevator" transform="matrix(-1 0 0 -1 320.624 502.2075)" style="fill:#FFFFFF; font-family:'FontAwesome'; font-size:14px;"></text>
	
		<text id="elevator_1_" transform="matrix(-1 0 0 -1 102.124 266.5415)" style="fill:#FFFFFF; font-family:'FontAwesome'; font-size:14px;"></text>
	<polyline id="Stairs_4_" style="fill:none;stroke:#FFFFFF;stroke-miterlimit:10;" points="417.25,543.52 417.25,539.52 
		417.25,539.57 413.08,539.57 413.08,535.57 408.92,535.57 408.92,531.57 404.75,531.57 404.75,527.57 	"/>
	<polyline id="Stairs_3_" style="fill:none;stroke:#FFFFFF;stroke-miterlimit:10;" points="331.75,224.77 331.75,220.77 
		331.75,220.82 327.58,220.82 327.58,216.82 323.42,216.82 323.42,212.82 319.25,212.82 319.25,208.82 	"/>
	<polyline id="Stairs_5_" style="fill:none;stroke:#FFFFFF;stroke-miterlimit:10;" points="202.92,796.52 202.92,792.52 
		202.92,792.57 198.75,792.57 198.75,788.57 194.59,788.57 194.59,784.57 190.42,784.57 190.42,780.57 	"/>
	
		<text id="female2_1_" transform="matrix(1 0 0 1 325.4998 547.9131)" style="fill:#FFFFFF; font-family:'FontAwesome'; font-size:25.7994px;"></text>
	
		<text id="male1_1_" transform="matrix(1 0 0 1 363.1959 558.374)" style="fill:#FFFFFF; font-family:'FontAwesome'; font-size:25.7994px;"></text>
	
		<text id="female2_2_" transform="matrix(1 0 0 1 138.9999 257.9131)" style="fill:#FFFFFF; font-family:'FontAwesome'; font-size:16px;"></text>
	
		<text id="male1_2_" transform="matrix(1 0 0 1 152.7143 257.9135)" style="fill:#FFFFFF; font-family:'FontAwesome'; font-size:16px;"></text>
</g>
<g id="Doors">
	<line id="lcd.1" style="fill:none;stroke:#00FF00;stroke-miterlimit:10;" x1="139.33" y1="460.04" x2="153.33" y2="460.04"/>
	<line id="R268_1_" style="fill:none;stroke:#00FF00;stroke-miterlimit:10;" x1="80.33" y1="428.71" x2="94.7" y2="436.71"/>
	<line id="R265_1_" style="fill:none;stroke:#00FF00;stroke-miterlimit:10;" x1="87.52" y1="312.71" x2="102.12" y2="308.87"/>
	<line id="R263_1_" style="fill:none;stroke:#00FF00;stroke-miterlimit:10;" x1="81.67" y1="246.87" x2="96.83" y2="246.87"/>
	<line id="R262_1_" style="fill:none;stroke:#00FF00;stroke-miterlimit:10;" x1="110.33" y1="231.87" x2="103.35" y2="220.87"/>
	<line id="R261_1_" style="fill:none;stroke:#00FF00;stroke-miterlimit:10;" x1="138" y1="192.62" x2="146.33" y2="187.37"/>
	<line id="R260_1_" style="fill:none;stroke:#00FF00;stroke-miterlimit:10;" x1="139" y1="226.37" x2="151.33" y2="220.87"/>
	<line id="R258_1_" style="fill:none;stroke:#00FF00;stroke-miterlimit:10;" x1="211.09" y1="246.87" x2="218.79" y2="257.91"/>
	<line id="R257_1_" style="fill:none;stroke:#00FF00;stroke-miterlimit:10;" x1="252" y1="246.87" x2="240.67" y2="257.91"/>
	<line id="R256_1_" style="fill:none;stroke:#00FF00;stroke-miterlimit:10;" x1="320.62" y1="266.54" x2="331.75" y2="265.37"/>
	<line id="R255_1_" style="fill:none;stroke:#00FF00;stroke-miterlimit:10;" x1="267" y1="290.67" x2="262.72" y2="301.62"/>
	<line id="R254_1_" style="fill:none;stroke:#00FF00;stroke-miterlimit:10;" x1="306" y1="322.12" x2="317.5" y2="316.04"/>
	<line id="R253_1_" style="fill:none;stroke:#00FF00;stroke-miterlimit:10;" x1="304.33" y1="348.04" x2="314.5" y2="343.37"/>
	<line id="R252_1_" style="fill:none;stroke:#00FF00;stroke-miterlimit:10;" x1="304.33" y1="391.37" x2="317.5" y2="387.87"/>
	<line id="R251_1_" style="fill:none;stroke:#00FF00;stroke-miterlimit:10;" x1="304.33" y1="430.04" x2="320.62" y2="426.04"/>
	<line id="R266_1_" style="fill:none;stroke:#00FF00;stroke-miterlimit:10;" x1="145.17" y1="345.71" x2="156.67" y2="349.62"/>
	<line id="R214_1_" style="fill:none;stroke:#00FF00;stroke-miterlimit:10;" x1="153.33" y1="499.87" x2="155.5" y2="510.54"/>
	<line id="R215_1_" style="fill:none;stroke:#00FF00;stroke-miterlimit:10;" x1="184.5" y1="499.87" x2="184.5" y2="510.54"/>
	<line id="R204_1_" style="fill:none;stroke:#00FF00;stroke-miterlimit:10;" x1="269.5" y1="507.62" x2="258" y2="511.12"/>
	<line id="R213_1_" style="fill:none;stroke:#00FF00;stroke-miterlimit:10;" x1="143" y1="535.54" x2="150.92" y2="538.92"/>
	<line id="R206_1_" style="fill:none;stroke:#00FF00;stroke-miterlimit:10;" x1="152.42" y1="631.37" x2="163.5" y2="631.37"/>
	<line id="R212_1_" style="fill:none;stroke:#00FF00;stroke-miterlimit:10;" x1="157.96" y1="684.37" x2="163.5" y2="691.87"/>
	<line id="R210_1_" style="fill:none;stroke:#00FF00;stroke-miterlimit:10;" x1="263.75" y1="744.87" x2="258" y2="738.87"/>
	<line id="R209_1_" style="fill:none;stroke:#00FF00;stroke-miterlimit:10;" x1="302" y1="754.87" x2="309.5" y2="759.21"/>
	<line id="R208_1_" style="fill:none;stroke:#00FF00;stroke-miterlimit:10;" x1="302.5" y1="723.87" x2="312.48" y2="718.37"/>
	<line id="R207_1_" style="fill:none;stroke:#00FF00;stroke-miterlimit:10;" x1="302.5" y1="652.37" x2="312.48" y2="657.37"/>
	<line id="R205_1_" style="fill:none;stroke:#00FF00;stroke-miterlimit:10;" x1="302" y1="606.87" x2="312.48" y2="606.87"/>
	<line id="R206_2_" style="fill:none;stroke:#00FF00;stroke-miterlimit:10;" x1="246.35" y1="630.5" x2="257.42" y2="630.5"/>
</g>
<g id="Portals">
	<line id="Elev.1.floor1" style="fill:none;stroke:#F15A24;stroke-miterlimit:10;" x1="314" y1="499.87" x2="314" y2="509.37"/>
	<line id="Elev.1.floor3" style="fill:none;stroke:#F15A24;stroke-miterlimit:10;" x1="314" y1="500.46" x2="314" y2="509.96"/>
	<line id="Stair.1.floor1" style="fill:none;stroke:#F15A24;stroke-miterlimit:10;" x1="400" y1="502.21" x2="408" y2="511.12"/>
	<line id="Stair.1.floor3" style="fill:none;stroke:#F15A24;stroke-miterlimit:10;" x1="400" y1="502.21" x2="408" y2="511.12"/>
</g>
<g id="Paths">
	<line style="fill:none;stroke:#FF00FF;stroke-miterlimit:10;" x1="153.33" y1="460.04" x2="152.71" y2="475.33"/>
	<line style="fill:none;stroke:#FF00FF;stroke-miterlimit:10;" x1="153.33" y1="499.87" x2="152.71" y2="475.33"/>
	<line style="fill:none;stroke:#FF00FF;stroke-miterlimit:10;" x1="184.5" y1="499.87" x2="184.5" y2="475.33"/>
	<line style="fill:none;stroke:#FF00FF;stroke-miterlimit:10;" x1="152.71" y1="475.33" x2="184.5" y2="475.33"/>
	<line style="fill:none;stroke:#FF00FF;stroke-miterlimit:10;" x1="314" y1="499.87" x2="314" y2="475.33"/>
	<line style="fill:none;stroke:#FF00FF;stroke-miterlimit:10;" x1="400" y1="502.21" x2="387.67" y2="475.33"/>
	<line style="fill:none;stroke:#FF00FF;stroke-miterlimit:10;" x1="314" y1="475.33" x2="387.67" y2="475.33"/>
	<line style="fill:none;stroke:#FF00FF;stroke-miterlimit:10;" x1="269.5" y1="507.62" x2="285.08" y2="505.12"/>
	<line style="fill:none;stroke:#FF00FF;stroke-miterlimit:10;" x1="314" y1="475.33" x2="285.08" y2="475.33"/>
	<line style="fill:none;stroke:#FF00FF;stroke-miterlimit:10;" x1="285.08" y1="505.12" x2="285.08" y2="475.33"/>
	<line style="fill:none;stroke:#FF00FF;stroke-miterlimit:10;" x1="184.5" y1="475.33" x2="285.08" y2="475.33"/>
	<line style="fill:none;stroke:#FF00FF;stroke-miterlimit:10;" x1="302" y1="606.87" x2="285.08" y2="606.87"/>
	<line style="fill:none;stroke:#FF00FF;stroke-miterlimit:10;" x1="285.08" y1="505.12" x2="285.08" y2="606.87"/>
	<line style="fill:none;stroke:#FF00FF;stroke-miterlimit:10;" x1="302.5" y1="652.37" x2="285.08" y2="652.37"/>
	<line style="fill:none;stroke:#FF00FF;stroke-miterlimit:10;" x1="302.5" y1="723.87" x2="285.08" y2="723.37"/>
	<line style="fill:none;stroke:#FF00FF;stroke-miterlimit:10;" x1="285.08" y1="652.37" x2="285.08" y2="723.37"/>
	<line style="fill:none;stroke:#FF00FF;stroke-miterlimit:10;" x1="302" y1="754.87" x2="285.08" y2="760.04"/>
	<line style="fill:none;stroke:#FF00FF;stroke-miterlimit:10;" x1="285.08" y1="723.37" x2="285.08" y2="760.04"/>
	<line style="fill:none;stroke:#FF00FF;stroke-miterlimit:10;" x1="263.75" y1="744.87" x2="262.72" y2="760.04"/>
	<line style="fill:none;stroke:#FF00FF;stroke-miterlimit:10;" x1="262.72" y1="760.04" x2="285.08" y2="760.04"/>
	<line style="fill:none;stroke:#FF00FF;stroke-miterlimit:10;" x1="122.33" y1="759.18" x2="262.72" y2="760.04"/>
	<line style="fill:none;stroke:#FF00FF;stroke-miterlimit:10;" x1="122.33" y1="475.33" x2="152.71" y2="475.33"/>
	<line style="fill:none;stroke:#FF00FF;stroke-miterlimit:10;" x1="143" y1="535.54" x2="122.33" y2="535.54"/>
	<line style="fill:none;stroke:#FF00FF;stroke-miterlimit:10;" x1="122.33" y1="475.33" x2="122.33" y2="535.54"/>
	<line style="fill:none;stroke:#FF00FF;stroke-miterlimit:10;" x1="157.96" y1="684.37" x2="122.33" y2="684.37"/>
	<line style="fill:none;stroke:#FF00FF;stroke-miterlimit:10;" x1="152.42" y1="631.37" x2="122.33" y2="629.62"/>
	<line style="fill:none;stroke:#FF00FF;stroke-miterlimit:10;" x1="122.33" y1="535.54" x2="122.33" y2="629.62"/>
	<line style="fill:none;stroke:#FF00FF;stroke-miterlimit:10;" x1="122.33" y1="684.37" x2="122.33" y2="629.62"/>
	<line style="fill:none;stroke:#FF00FF;stroke-miterlimit:10;" x1="122.33" y1="759.18" x2="122.33" y2="684.37"/>
	<line style="fill:none;stroke:#FF00FF;stroke-miterlimit:10;" x1="94.7" y1="436.71" x2="122.33" y2="436.71"/>
	<line style="fill:none;stroke:#FF00FF;stroke-miterlimit:10;" x1="122.33" y1="475.33" x2="122.33" y2="436.71"/>
	<line style="fill:none;stroke:#FF00FF;stroke-miterlimit:10;" x1="145.17" y1="345.71" x2="122.33" y2="345.71"/>
	<line style="fill:none;stroke:#FF00FF;stroke-miterlimit:10;" x1="122.33" y1="436.71" x2="122.33" y2="345.71"/>
	<line style="fill:none;stroke:#FF00FF;stroke-miterlimit:10;" x1="102.12" y1="308.87" x2="122.33" y2="308.25"/>
	<line style="fill:none;stroke:#FF00FF;stroke-miterlimit:10;" x1="122.33" y1="345.71" x2="122.33" y2="308.25"/>
	<line style="fill:none;stroke:#FF00FF;stroke-miterlimit:10;" x1="96.83" y1="246.87" x2="122.33" y2="246.87"/>
	<line style="fill:none;stroke:#FF00FF;stroke-miterlimit:10;" x1="110.33" y1="231.87" x2="122.33" y2="246.87"/>
	<polyline style="fill:none;stroke:#FF00FF;stroke-miterlimit:10;" points="122.33,308.25 122.33,270.71 122.33,246.87 	"/>
	<line style="fill:none;stroke:#FF00FF;stroke-miterlimit:10;" x1="139" y1="226.37" x2="122.33" y2="230.37"/>
	<line style="fill:none;stroke:#FF00FF;stroke-miterlimit:10;" x1="122.33" y1="246.87" x2="122.33" y2="230.37"/>
	<line style="fill:none;stroke:#FF00FF;stroke-miterlimit:10;" x1="138" y1="192.62" x2="122.33" y2="199.71"/>
	<line style="fill:none;stroke:#FF00FF;stroke-miterlimit:10;" x1="122.33" y1="230.37" x2="122.33" y2="199.71"/>
	<line style="fill:none;stroke:#FF00FF;stroke-miterlimit:10;" x1="218.79" y1="257.91" x2="218.79" y2="270.71"/>
	<line style="fill:none;stroke:#FF00FF;stroke-miterlimit:10;" x1="240.67" y1="257.91" x2="240.67" y2="270.71"/>
	<line style="fill:none;stroke:#FF00FF;stroke-miterlimit:10;" x1="218.79" y1="270.71" x2="240.67" y2="270.71"/>
	<line style="fill:none;stroke:#FF00FF;stroke-miterlimit:10;" x1="122.33" y1="270.71" x2="218.79" y2="270.71"/>
	<line style="fill:none;stroke:#FF00FF;stroke-miterlimit:10;" x1="240.67" y1="270.71" x2="285.08" y2="271.71"/>
	<line style="fill:none;stroke:#FF00FF;stroke-miterlimit:10;" x1="320.62" y1="266.54" x2="285.08" y2="271.71"/>
	<line style="fill:none;stroke:#FF00FF;stroke-miterlimit:10;" x1="267" y1="290.67" x2="285.08" y2="289.04"/>
	<line style="fill:none;stroke:#FF00FF;stroke-miterlimit:10;" x1="285.08" y1="271.71" x2="285.08" y2="289.04"/>
	<line style="fill:none;stroke:#FF00FF;stroke-miterlimit:10;" x1="306" y1="322.12" x2="285.08" y2="322.12"/>
	<line style="fill:none;stroke:#FF00FF;stroke-miterlimit:10;" x1="285.08" y1="289.04" x2="285.08" y2="322.12"/>
	<line style="fill:none;stroke:#FF00FF;stroke-miterlimit:10;" x1="304.33" y1="430.04" x2="285.08" y2="430.71"/>
	<line style="fill:none;stroke:#FF00FF;stroke-miterlimit:10;" x1="285.08" y1="475.33" x2="285.08" y2="430.71"/>
	<line style="fill:none;stroke:#FF00FF;stroke-miterlimit:10;" x1="304.33" y1="391.37" x2="285.08" y2="391.21"/>
	<line style="fill:none;stroke:#FF00FF;stroke-miterlimit:10;" x1="285.08" y1="430.71" x2="285.08" y2="391.21"/>
	<line style="fill:none;stroke:#FF00FF;stroke-miterlimit:10;" x1="304.33" y1="348.04" x2="285.08" y2="348.04"/>
	<line style="fill:none;stroke:#FF00FF;stroke-miterlimit:10;" x1="285.08" y1="391.21" x2="285.08" y2="348.04"/>
	<line style="fill:none;stroke:#FF00FF;stroke-miterlimit:10;" x1="285.08" y1="322.12" x2="285.08" y2="348.04"/>
	<line style="fill:none;stroke:#FF00FF;stroke-miterlimit:10;" x1="257.42" y1="630.5" x2="285.08" y2="631.37"/>
	<line style="fill:none;stroke:#FF00FF;stroke-miterlimit:10;" x1="285.08" y1="606.87" x2="285.08" y2="631.37"/>
	<line style="fill:none;stroke:#FF00FF;stroke-miterlimit:10;" x1="285.08" y1="652.37" x2="285.08" y2="631.37"/>
</g>
</svg>
