<?xml version="1.0" encoding="utf-8"?>
<!-- Generator: Adobe Illustrator 19.2.1, SVG Export Plug-In . SVG Version: 6.00 Build 0)  -->
<svg version="1.1" id="Layer_1" xmlns="http://www.w3.org/2000/svg" xmlns:xlink="http://www.w3.org/1999/xlink" x="0px" y="0px"
	 width="636.09px" height="614.4px" viewBox="0 0 636.09 614.4" style="enable-background:new 0 0 636.09 614.4;"
	 xml:space="preserve">
<g id="Base">
	<polyline id="Circulation" style="fill:#D3D3D3;stroke:#000000;stroke-miterlimit:10;" points="625.46,230.62 625.38,376.87 
		635.3,376.87 635.26,463.06 624.19,462.93 623.84,506.87 635.58,506.87 635.42,515.87 577.92,515.87 322.93,536.87 283.01,536.87 
		282.5,613.87 29.61,613.9 29.14,514.72 0.5,514.79 0.5,482.87 4.5,482.87 4.5,312.87 10.5,312.87 10.5,270.87 74.5,270.87 
		74.5,244.87 109.5,244.87 109.5,228.87 277.5,228.87 277.5,200.87 325.5,200.87 325.5,182.87 401.5,182.87 401.5,228.87 
		625,228.87 	"/>
	
		<rect id="Elevator_1_" x="82.42" y="511.95" transform="matrix(4.491969e-11 -1 1 4.491969e-11 -422.693 619.2068)" style="fill:#BCA400;stroke:#000000;stroke-miterlimit:10;" width="31.67" height="18"/>
	<polygon id="Elevator" style="fill:#BCA400;stroke:#000000;stroke-miterlimit:10;" points="345.42,284.95 345.42,317.95 
		324.92,317.95 324.92,285.07 	"/>
	<polygon id="Stairs" style="fill:#4c4c4c;" points="78.76,268.62 78.92,311.12 9.92,311.12 9.76,268.62 	"/>
	
		<rect id="Stairs_1_" x="339.76" y="166.28" transform="matrix(4.490281e-11 -1 1 4.490281e-11 158.6404 567.5402)" style="fill:#4c4c4c;" width="46.67" height="76.33"/>
	<polygon id="Stairs_2_" style="fill:#4c4c4c;stroke:#000000;stroke-miterlimit:10;" points="635.27,375.37 635.26,463.03 
		596.92,462.45 597.55,375.28 	"/>
	
		<rect x="100.05" y="507.66" transform="matrix(4.490725e-11 -1 1 4.490725e-11 -400.4013 636.8318)" style="fill:none;stroke:#000000;stroke-miterlimit:10;" width="36.33" height="21.92"/>
	
		<rect x="167.3" y="510.32" transform="matrix(4.490192e-11 -1 1 4.490192e-11 -333.1513 712.9985)" style="fill:none;stroke:#000000;stroke-miterlimit:10;" width="45.25" height="25.5"/>
	
		<rect x="100.76" y="440.45" transform="matrix(4.488682e-11 -1 1 4.488682e-11 -331.7763 576.8735)" style="fill:none;stroke:#000000;stroke-miterlimit:10;" width="43.58" height="27.75"/>
	
		<rect x="127.88" y="441.07" transform="matrix(4.488682e-11 -1 1 4.488682e-11 -304.6513 603.9985)" style="fill:none;stroke:#000000;stroke-miterlimit:10;" width="43.58" height="26.5"/>
	
		<rect id="Restroom" x="62.59" y="454.45" transform="matrix(4.488682e-11 -1 1 4.488682e-11 -384.5263 543.7068)" style="fill:#00CCCC;stroke:#000000;stroke-miterlimit:10;" width="34" height="19.33"/>
	<polygon id="Restroom_2_" style="fill:#00CCCC;stroke:#000000;stroke-miterlimit:10;" points="345.5,317.87 366.5,317.87 
		366.5,300.87 392.51,300.87 392.42,261.87 340.5,261.87 340.5,284.87 345.5,284.87 	"/>
	<polygon id="Restroom_1_" style="fill:#00CCCC;stroke:#000000;stroke-miterlimit:10;" points="352.5,227.87 352.5,261.87 
		392.42,261.87 392.55,317.87 404.55,317.87 404.42,227.87 	"/>
	
		<rect x="288.09" y="501.28" transform="matrix(4.488505e-11 -1 1 4.488505e-11 -218.8596 824.6235)" style="fill:none;stroke:#000000;stroke-miterlimit:10;" width="29.58" height="40.92"/>
	
		<rect x="352.32" y="290.55" transform="matrix(4.490103e-11 -1 1 4.490103e-11 34.3712 695.1043)" style="fill:none;stroke:#000000;stroke-miterlimit:10;" width="24.83" height="79.63"/>
	
		<rect x="321.59" y="231.12" transform="matrix(4.488061e-11 -1 1 4.488061e-11 93.807 583.5402)" style="fill:none;stroke:#000000;stroke-miterlimit:10;" width="34.17" height="27.5"/>
	
		<rect x="321.11" y="265.76" transform="matrix(4.491436e-11 -1 1 4.491436e-11 59.1612 606.186)" style="fill:none;stroke:#000000;stroke-miterlimit:10;" width="23.12" height="15.5"/>
	
		<rect x="370.97" y="296.41" transform="matrix(4.483264e-11 -1 1 4.483264e-11 70.018 688.9178)" style="fill:none;stroke:#000000;stroke-miterlimit:10;" width="17" height="26.09"/>
	<polygon style="fill:none;stroke:#000000;stroke-miterlimit:10;" points="624.19,462.95 623.84,506.95 596.92,506.95 
		596.92,462.45 	"/>
	<polygon style="fill:none;stroke:#000000;stroke-miterlimit:10;" points="625.39,357.45 625.38,374.95 597.51,375.12 
		597.51,357.45 	"/>
	
		<rect x="562.59" y="428.12" transform="matrix(4.489748e-11 -1 1 4.489748e-11 148.4737 1025.0402)" style="fill:none;stroke:#000000;stroke-miterlimit:10;" width="48.33" height="20.33"/>
</g>
<g id="Rooms">
	<a id="R256" xlink:href="#" >
		<g><polygon id="R256" style="fill:#00B438;stroke:#000000;stroke-miterlimit:10;" points="78.5,269.87 74.5,269.87 74.5,243.87 
	111.5,243.87 111.5,297.87 78.5,297.87 	"/></g>
	</a>
	
	<a id="R266" xlink:href="#" >
		<g><rect id="R266" x="156.26" y="349.45" transform="matrix(4.489748e-11 -1 1 4.489748e-11 -186.5263 632.3735)" style="fill:#001A72;stroke:#000000;stroke-miterlimit:10;" width="133.33" height="120"/></g>
	</a>
	
	<a id="R255" xlink:href="#" >
		<g><rect id="R255" x="90.92" y="360.53" transform="matrix(4.489215e-11 -1 1 4.489215e-11 -251.8596 523.4568)" style="fill:#006699;stroke:#000000;stroke-miterlimit:10;" width="89.75" height="54.25"/></g>
	</a>
	
	<a id="R254" xlink:href="#" >
		<g><rect id="R254" x="88.92" y="248.78" transform="matrix(4.489748e-11 -1 1 4.489748e-11 -138.8596 406.0402)" style="fill:#006699;stroke:#000000;stroke-miterlimit:10;" width="89.33" height="47.33"/></g>
	</a>
	
	<a id="R253" xlink:href="#" >
		<g><rect id="R253" x="130.92" y="254.12" transform="matrix(4.489793e-11 -1 1 4.489793e-11 -96.8596 448.0402)" style="fill:#006699;stroke:#000000;stroke-miterlimit:10;" width="89.33" height="36.67"/></g>
	</a>
	
	<a id="R252" xlink:href="#" >
		<g><rect id="R252" x="170.76" y="250.95" transform="matrix(4.489793e-11 -1 1 4.489793e-11 -57.0263 487.8735)" style="fill:#006699;stroke:#000000;stroke-miterlimit:10;" width="89.33" height="43"/></g>
	</a>
	
	<a id="R251" xlink:href="#" >
		<g><rect id="R251" x="215.26" y="249.45" transform="matrix(4.489793e-11 -1 1 4.489793e-11 -12.5263 532.3735)" style="fill:#006699;stroke:#000000;stroke-miterlimit:10;" width="89.33" height="46"/></g>
	</a>
	
	<a id="R257" xlink:href="#" >
		<g><rect id="R257" x="9.26" y="305.78" transform="matrix(4.489837e-11 -1 1 4.489837e-11 -301.8596 395.0402)" style="fill:#006699;stroke:#000000;stroke-miterlimit:10;" width="74.67" height="85.33"/></g>
	</a>
	
	<a id="R258" xlink:href="#" >
		<g><rect id="R258" x="15.92" y="373.78" transform="matrix(4.490103e-11 -1 1 4.490103e-11 -369.8596 463.0402)" style="fill:#006699;stroke:#000000;stroke-miterlimit:10;" width="61.33" height="85.33"/></g>
	</a>
	
	<a id="R261" xlink:href="#" >
		<g><rect id="R261" x="3.17" y="447.87" transform="matrix(4.485929e-11 -1 1 4.485929e-11 -443.943 484.2902)" style="fill:#993333;stroke:#000000;stroke-miterlimit:10;" width="34" height="32.5"/></g>
	</a>
	
	<a id="R260" xlink:href="#" >
		<g><rect id="R260" x="36.17" y="447.37" transform="matrix(4.485951e-11 -1 1 4.485951e-11 -410.943 517.2902)" style="fill:#993333;stroke:#000000;stroke-miterlimit:10;" width="34" height="33.5"/></g>
	</a>
	
	<a id="R262" xlink:href="#" >
		<g><rect id="R262" x="31.09" y="498.95" transform="matrix(4.491525e-11 -1 1 4.491525e-11 -469.3596 566.2068)" style="fill:#993333;stroke:#000000;stroke-miterlimit:10;" width="34.67" height="37.67"/></g>
	</a>
	<a id="R209" xlink:href="#" >
		<g><polygon id="R209" style="fill:#00B438;stroke:#000000;stroke-miterlimit:10;" points="624.92,227.78 624.92,317.95 
	576.59,317.95 577.42,227.95 	"/></g>
	</a>
	
	<a id="R212" xlink:href="#" >
		<g><rect id="R212" x="516.26" y="402.12" transform="matrix(4.489748e-11 -1 1 4.489748e-11 102.1404 978.7068)" style="fill:#006699;stroke:#000000;stroke-miterlimit:10;" width="48.33" height="72.33"/></g>
	</a>
	
	<a id="R210" xlink:href="#" >
		<g><rect id="R210" x="504.76" y="342.28" transform="matrix(4.490525e-11 -1 1 4.490525e-11 161.9737 918.8735)" style="fill:#006699;stroke:#000000;stroke-miterlimit:10;" width="71.33" height="72.33"/></g>
	</a>
	<a id="R205" xlink:href="#" >
		<g><polygon id="R205" style="fill:#006699;stroke:#000000;stroke-miterlimit:10;" points="464.59,227.78 464.59,317.95 
	404.55,317.95 404.26,227.78 	"/></g>
	</a>
	
	<a id="R204" xlink:href="#" >
		<g><rect id="R204" x="333.42" y="334.28" transform="matrix(4.490548e-11 -1 1 4.490548e-11 -9.3596 747.5402)" style="fill:#006699;stroke:#000000;stroke-miterlimit:10;" width="71.33" height="88.33"/></g>
	</a>
	
	<a id="R213" xlink:href="#" >
		<g><rect id="R213" x="351.09" y="414.28" transform="matrix(4.488149e-11 -1 1 4.488149e-11 -63.0263 827.5402)" style="fill:#006699;stroke:#000000;stroke-miterlimit:10;" width="62.33" height="62"/></g>
	</a>
	
	<a id="R214" xlink:href="#" >
		<g><rect id="R214" x="323.76" y="448.95" transform="matrix(4.486195e-11 -1 1 4.486195e-11 -124.0263 800.2068)" style="fill:#993333;stroke:#000000;stroke-miterlimit:10;" width="28.67" height="26.33"/></g>
	</a>
	
	<a id="R215" xlink:href="#" >
		<g><rect id="R215" x="321.26" y="417.78" transform="matrix(4.489859e-11 -1 1 4.489859e-11 -92.8596 769.0402)" style="fill:#993333;stroke:#000000;stroke-miterlimit:10;" width="33.67" height="26.33"/></g>
	</a>
	<a id="R206" xlink:href="#" >
		<g><polygon id="R206" style="fill:#993333;stroke:#000000;stroke-miterlimit:10;" points="413.5,476.45 413.5,342.45 448.5,342.78 
	448.5,350.87 468.5,350.87 468.5,342.45 504.5,342.78 504.5,476.87 467.5,476.87 467.5,466.87 448.5,466.87 448.5,477.45 	"/></g>
	</a>
	<a id="R207" xlink:href="#" >
		<g><polygon id="R207" style="fill:#993333;stroke:#000000;stroke-miterlimit:10;" points="464.59,317.87 519.5,317.87 
	519.5,256.87 514.5,256.87 514.5,227.87 464.92,227.87 	"/></g>
	</a>
	<a id="R208" xlink:href="#" >
		<g><polygon id="R208" style="fill:#993333;stroke:#000000;stroke-miterlimit:10;" points="577.5,317.87 519.5,317.87 519.5,256.87 
	514.5,256.87 514.5,227.87 577.5,227.87 	"/></g>
	</a>
	<a id="R263" xlink:href="#" >
		<g><polygon id="R263" style="fill:#006699;stroke:#000000;stroke-miterlimit:10;" points="29.5,535.45 29.5,613.87 82.5,613.87 
	82.5,536.87 89.5,536.87 89.5,511.87 67.51,511.87 67.34,535.08 	"/></g>
	</a>
	<a id="R265" xlink:href="#" >
		<g><polygon id="R265" style="fill:#006699;stroke:#000000;stroke-miterlimit:10;" points="180.92,613.87 82.5,613.87 82.5,536.45 
	129.5,536.95 129.5,509.87 177.5,509.87 177.5,545.87 186.5,545.87 186.5,567.87 181.09,567.87 	"/></g>
	</a>
	<a id="R268" xlink:href="#" >
		<g><polygon id="R268" style="fill:#006699;stroke:#000000;stroke-miterlimit:10;" points="181.5,613.87 181.5,567.95 
	186.46,567.97 186.43,545.87 202.67,545.87 202.71,510.97 267.5,510.95 267.5,500.87 282.5,500.87 282.5,613.87 	"/></g>
	</a>
</g>
<g id="Labels">
	<text transform="matrix(1 0 0 1 108.2053 21.4132)" style="font-family:'OptimaLTStd'; font-size:25.7994px;">Volunteer State Community College </text>
	<text transform="matrix(1 0 0 1 167.7112 50.8743)" style="font-family:'OptimaLTStd'; font-size:25.7994px;">SRB Humanities Building </text>
	<text transform="matrix(1 0 0 1 216.5213 81.8344)" style="font-family:'OptimaLTStd'; font-size:25.7994px;">SECOND FLOOR</text>
	<polyline id="swatch-pink" style="fill:#993333;" points="335.24,120.21 335.24,98.09 357.35,98.09 357.35,120.21 	"/>
	
		<text id="legend-offices" transform="matrix(1 0 0 1 362.7195 114.3756)" style="font-family:'OptimaLTStd'; font-size:16.5853px;">Offices</text>
	<polyline id="swatch-pink_2_" style="fill:#006699;" points="203.35,120.21 203.35,98.09 225.46,98.09 225.46,120.21 	"/>
	
		<text id="legend-library" transform="matrix(1 0 0 1 229.6188 114.3756)" style="font-family:'OptimaLTStd'; font-size:16.5853px;">Classrooms</text>
	<polyline id="swatch-pink_1_" style="fill:#001A72;" points="168.44,155.21 168.44,133.09 190.55,133.09 190.55,155.21 	"/>
	
		<text id="legend-library_1_" transform="matrix(1 0 0 1 194.7002 149.3768)" style="font-family:'OptimaLTStd'; font-size:16.5853px;">Auditorium</text>
	<polyline id="swatch-pink_3_" style="fill:#00B438;" points="296.44,155.21 296.44,133.09 318.55,133.09 318.55,155.21 	"/>
	
		<text id="legend-library_2_" transform="matrix(1 0 0 1 322.7002 149.3768)" style="font-family:'OptimaLTStd'; font-size:16.5853px;">Conference Rooms</text>
	<text transform="matrix(1 0 0 1 209.073 395.3733)"><tspan x="0" y="0" style="fill:#FFFFFF; font-family:'MyriadPro-Regular'; font-size:18px;">266 </tspan><tspan x="-37.49" y="21.6" style="fill:#FFFFFF; font-family:'MyriadPro-Regular'; font-size:18px;">Stage Control</tspan></text>
	<text transform="matrix(1 0 0 1 222.8407 571.8736)" style="fill:#FFFFFF; font-family:'MyriadPro-Regular'; font-size:21px;">268</text>
	<text transform="matrix(1 0 0 1 116.9729 571.8734)" style="fill:#FFFFFF; font-family:'MyriadPro-Regular'; font-size:21px;">265</text>
	<text transform="matrix(1 0 0 1 39.7644 577.2069)" style="fill:#FFFFFF; font-family:'MyriadPro-Regular'; font-size:21px;">263</text>
	<text transform="matrix(1 0 0 1 30.4311 422.9236)" style="fill:#FFFFFF; font-family:'MyriadPro-Regular'; font-size:21px;">258</text>
	<text transform="matrix(1 0 0 1 30.4308 356.6193)" style="fill:#FFFFFF; font-family:'MyriadPro-Regular'; font-size:21px;">257</text>
	<text transform="matrix(1 0 0 1 117.3409 280.7646)" style="fill:#FFFFFF; font-family:'MyriadPro-Regular'; font-size:21px;">254</text>
	<text transform="matrix(1 0 0 1 159.0561 279.9043)" style="fill:#FFFFFF; font-family:'MyriadPro-Regular'; font-size:21px;">253</text>
	<text transform="matrix(1 0 0 1 199.2644 279.9043)" style="fill:#FFFFFF; font-family:'MyriadPro-Regular'; font-size:21px;">252</text>
	<text transform="matrix(1 0 0 1 241.7644 279.9042)" style="fill:#FFFFFF; font-family:'MyriadPro-Regular'; font-size:21px;">251</text>
	<text transform="matrix(1 0 0 1 120.2641 396.6034)" style="fill:#FFFFFF; font-family:'MyriadPro-Regular'; font-size:21px;">255</text>
	<text transform="matrix(1 0 0 1 350.3469 385.7833)" style="fill:#FFFFFF; font-family:'MyriadPro-Regular'; font-size:21px;">204</text>
	<text transform="matrix(1 0 0 1 367.3896 450.7163)" style="fill:#FFFFFF; font-family:'MyriadPro-Regular'; font-size:21px;">213</text>
	<text transform="matrix(1 0 0 1 418.2644 276.0403)" style="fill:#FFFFFF; font-family:'MyriadPro-Regular'; font-size:21px;">205</text>
	<text transform="matrix(1 0 0 1 474.3007 276.0403)" style="fill:#FFFFFF; font-family:'MyriadPro-Regular'; font-size:21px;">207</text>
	<text transform="matrix(1 0 0 1 532.5143 276.0405)" style="fill:#FFFFFF; font-family:'MyriadPro-Regular'; font-size:21px;">208</text>
	<text transform="matrix(1 0 0 1 584.5977 276.0403)" style="fill:#FFFFFF; font-family:'MyriadPro-Regular'; font-size:21px;">209</text>
	<text transform="matrix(1 0 0 1 441.8896 414.1164)" style="fill:#FFFFFF; font-family:'MyriadPro-Regular'; font-size:21px;">206</text>
	<text transform="matrix(1 0 0 1 75.7011 266.5414)" style="fill:#FFFFFF; font-family:'MyriadPro-Regular'; font-size:21px;">256</text>
	<text transform="matrix(1 0 0 1 183.8161 225.6236)" style="fill:#FFFFFF; font-family:'MyriadPro-Regular'; font-size:18px;">262</text>
	<text transform="matrix(1 0 0 1 38.5931 470.2837)" style="fill:#FFFFFF; font-family:'MyriadPro-Regular'; font-size:18px;">260</text>
	<text transform="matrix(1 0 0 1 237.4821 197.9569)" style="fill:#FFFFFF; font-family:'MyriadPro-Regular'; font-size:18px;">261</text>
	<text transform="matrix(1 0 0 1 325.779 468.4918)" style="fill:#FFFFFF; font-family:'MyriadPro-Regular'; font-size:16px;">214</text>
	<text transform="matrix(1 0 0 1 324.6884 438.2834)" style="fill:#FFFFFF; font-family:'MyriadPro-Regular'; font-size:16px;">215</text>
	<text transform="matrix(1 0 0 1 524.2641 386.1423)" style="fill:#FFFFFF; font-family:'MyriadPro-Regular'; font-size:21px;">210</text>
	<text transform="matrix(1 0 0 1 523.9308 444.2834)" style="fill:#FFFFFF; font-family:'MyriadPro-Regular'; font-size:21px;">212</text>
	
		<text id="elevator" transform="matrix(-1 0 0 -1 340.5 297.8735)" style="fill:#FFFFFF; font-family:'FontAwesome'; font-size:14px;"></text>
	
		<text id="elevator_1_" transform="matrix(-1 0 0 -1 105.1113 517.7837)" style="fill:#FFFFFF; font-family:'FontAwesome'; font-size:14px;"></text>
	<polyline id="Stairs_4_" style="fill:none;stroke:#FFFFFF;stroke-miterlimit:10;" points="49.51,297.82 49.51,293.82 49.51,293.87 
		45.34,293.87 45.34,289.87 41.18,289.87 41.18,285.87 37.01,285.87 37.01,281.87 	"/>
	<polyline id="Stairs_3_" style="fill:none;stroke:#FFFFFF;stroke-miterlimit:10;" points="369.34,212.32 369.34,208.32 
		369.34,208.37 365.17,208.37 365.17,204.37 361.01,204.37 361.01,200.37 356.84,200.37 356.84,196.37 	"/>
	<polyline id="Stairs_5_" style="fill:none;stroke:#FFFFFF;stroke-miterlimit:10;" points="622.35,427.13 622.35,423.13 
		622.35,423.18 618.18,423.18 618.18,419.18 614.02,419.18 614.02,415.18 609.85,415.18 609.85,411.18 	"/>
	
		<text id="female2_1_" transform="matrix(1 0 0 1 356.9998 291.9131)" style="fill:#FFFFFF; font-family:'FontAwesome'; font-size:25.7994px;"></text>
	
		<text id="male1_1_" transform="matrix(1 0 0 1 369.0898 253.874)" style="fill:#FFFFFF; font-family:'FontAwesome'; font-size:25.7994px;"></text>
	
		<text id="female2_2_" transform="matrix(1 0 0 1 69.9236 464.1166)" style="fill:#FFFFFF; font-family:'FontAwesome'; font-size:16px;"></text>
	
		<text id="male1_2_" transform="matrix(1 0 0 1 78.9238 476.1165)" style="fill:#FFFFFF; font-family:'FontAwesome'; font-size:16px;"></text>
</g>
<g id="Doors">
	<line id="lcd.1" style="fill:none;stroke:#00FF00;stroke-miterlimit:10;" x1="562.26" y1="469.12" x2="576.26" y2="469.12"/>
	<line id="R268_1_" style="fill:none;stroke:#00FF00;stroke-miterlimit:10;" x1="256.26" y1="535.12" x2="264.26" y2="520.75"/>
	<line id="R265_1_" style="fill:none;stroke:#00FF00;stroke-miterlimit:10;" x1="140.26" y1="527.93" x2="136.42" y2="513.33"/>
	<line id="R263_1_" style="fill:none;stroke:#00FF00;stroke-miterlimit:10;" x1="74.42" y1="533.78" x2="74.42" y2="518.62"/>
	<line id="R262_1_" style="fill:none;stroke:#00FF00;stroke-miterlimit:10;" x1="59.42" y1="505.12" x2="48.42" y2="512.1"/>
	<line id="R261_1_" style="fill:none;stroke:#00FF00;stroke-miterlimit:10;" x1="20.17" y1="477.45" x2="14.92" y2="469.12"/>
	<line id="R260_1_" style="fill:none;stroke:#00FF00;stroke-miterlimit:10;" x1="53.92" y1="476.45" x2="48.42" y2="464.12"/>
	<line id="R258_1_" style="fill:none;stroke:#00FF00;stroke-miterlimit:10;" x1="74.42" y1="404.36" x2="85.46" y2="396.66"/>
	<line id="R257_1_" style="fill:none;stroke:#00FF00;stroke-miterlimit:10;" x1="74.42" y1="363.45" x2="85.46" y2="374.78"/>
	<line id="R256_1_" style="fill:none;stroke:#00FF00;stroke-miterlimit:10;" x1="94.09" y1="294.83" x2="92.92" y2="283.7"/>
	<line id="R255_1_" style="fill:none;stroke:#00FF00;stroke-miterlimit:10;" x1="118.22" y1="348.45" x2="129.17" y2="352.73"/>
	<line id="R254_1_" style="fill:none;stroke:#00FF00;stroke-miterlimit:10;" x1="149.67" y1="309.45" x2="143.59" y2="297.95"/>
	<line id="R253_1_" style="fill:none;stroke:#00FF00;stroke-miterlimit:10;" x1="175.59" y1="311.12" x2="170.92" y2="300.95"/>
	<line id="R252_1_" style="fill:none;stroke:#00FF00;stroke-miterlimit:10;" x1="218.92" y1="311.12" x2="215.42" y2="297.95"/>
	<line id="R251_1_" style="fill:none;stroke:#00FF00;stroke-miterlimit:10;" x1="257.59" y1="311.12" x2="253.59" y2="294.83"/>
	<line id="R266_1_" style="fill:none;stroke:#00FF00;stroke-miterlimit:10;" x1="173.26" y1="470.28" x2="177.17" y2="458.78"/>
	<line id="R214_1_" style="fill:none;stroke:#00FF00;stroke-miterlimit:10;" x1="327.42" y1="462.12" x2="338.09" y2="459.95"/>
	<line id="R215_1_" style="fill:none;stroke:#00FF00;stroke-miterlimit:10;" x1="327.42" y1="430.95" x2="338.09" y2="430.95"/>
	<line id="R204_1_" style="fill:none;stroke:#00FF00;stroke-miterlimit:10;" x1="335.17" y1="345.95" x2="338.67" y2="357.45"/>
	<line id="R213_1_" style="fill:none;stroke:#00FF00;stroke-miterlimit:10;" x1="363.09" y1="472.45" x2="366.47" y2="464.53"/>
	<line id="R206_1_" style="fill:none;stroke:#00FF00;stroke-miterlimit:10;" x1="458.92" y1="463.03" x2="458.92" y2="451.95"/>
	<line id="R212_1_" style="fill:none;stroke:#00FF00;stroke-miterlimit:10;" x1="511.92" y1="457.49" x2="519.42" y2="451.95"/>
	<line id="R210_1_" style="fill:none;stroke:#00FF00;stroke-miterlimit:10;" x1="572.42" y1="351.7" x2="566.42" y2="357.45"/>
	<line id="R209_1_" style="fill:none;stroke:#00FF00;stroke-miterlimit:10;" x1="582.42" y1="313.45" x2="586.76" y2="305.95"/>
	<line id="R208_1_" style="fill:none;stroke:#00FF00;stroke-miterlimit:10;" x1="551.42" y1="312.95" x2="545.92" y2="302.97"/>
	<line id="R207_1_" style="fill:none;stroke:#00FF00;stroke-miterlimit:10;" x1="479.92" y1="312.95" x2="484.92" y2="302.97"/>
	<line id="R205_1_" style="fill:none;stroke:#00FF00;stroke-miterlimit:10;" x1="434.42" y1="313.45" x2="434.42" y2="302.97"/>
</g>
<g id="Portals">
	
		<line id="Elev.1.floor1" style="fill:none;stroke:#F15A24;stroke-miterlimit:10;" x1="327.42" y1="301.45" x2="335.17" y2="304.25"/>
	
		<line id="Elev.1.floor3" style="fill:none;stroke:#F15A24;stroke-miterlimit:10;" x1="327.42" y1="301.45" x2="335.17" y2="304.25"/>
	
		<line id="Stair.1.floor1" style="fill:none;stroke:#F15A24;stroke-miterlimit:10;" x1="601.64" y1="450.72" x2="609.85" y2="454"/>
	
		<line id="Stair.1.floor3" style="fill:none;stroke:#F15A24;stroke-miterlimit:10;" x1="601.64" y1="450.72" x2="609.85" y2="454"/>
</g>
<g id="Paths">
	<line style="fill:none;stroke:#FF00FF;stroke-miterlimit:10;" x1="327.42" y1="462.12" x2="302.88" y2="462.74"/>
	<line style="fill:none;stroke:#FF00FF;stroke-miterlimit:10;" x1="327.42" y1="430.95" x2="302.88" y2="430.95"/>
	<line style="fill:none;stroke:#FF00FF;stroke-miterlimit:10;" x1="302.88" y1="462.74" x2="302.88" y2="430.95"/>
	<line style="fill:none;stroke:#FF00FF;stroke-miterlimit:10;" x1="327.42" y1="301.45" x2="302.88" y2="301.45"/>
	<line style="fill:none;stroke:#FF00FF;stroke-miterlimit:10;" x1="335.17" y1="345.95" x2="332.67" y2="330.37"/>
	<line style="fill:none;stroke:#FF00FF;stroke-miterlimit:10;" x1="302.88" y1="301.45" x2="302.88" y2="330.37"/>
	<line style="fill:none;stroke:#FF00FF;stroke-miterlimit:10;" x1="332.67" y1="330.37" x2="302.88" y2="330.37"/>
	<line style="fill:none;stroke:#FF00FF;stroke-miterlimit:10;" x1="302.88" y1="430.95" x2="302.88" y2="330.37"/>
	<line style="fill:none;stroke:#FF00FF;stroke-miterlimit:10;" x1="434.42" y1="313.45" x2="434.42" y2="330.37"/>
	<line style="fill:none;stroke:#FF00FF;stroke-miterlimit:10;" x1="332.67" y1="330.37" x2="434.42" y2="330.37"/>
	<line style="fill:none;stroke:#FF00FF;stroke-miterlimit:10;" x1="479.92" y1="312.95" x2="479.92" y2="330.37"/>
	<line style="fill:none;stroke:#FF00FF;stroke-miterlimit:10;" x1="434.42" y1="330.37" x2="479.92" y2="330.37"/>
	<line style="fill:none;stroke:#FF00FF;stroke-miterlimit:10;" x1="551.42" y1="312.95" x2="550.92" y2="330.37"/>
	<line style="fill:none;stroke:#FF00FF;stroke-miterlimit:10;" x1="479.92" y1="330.37" x2="550.92" y2="330.37"/>
	<line style="fill:none;stroke:#FF00FF;stroke-miterlimit:10;" x1="582.42" y1="313.45" x2="587.59" y2="330.37"/>
	<line style="fill:none;stroke:#FF00FF;stroke-miterlimit:10;" x1="550.92" y1="330.37" x2="587.59" y2="330.37"/>
	<line style="fill:none;stroke:#FF00FF;stroke-miterlimit:10;" x1="572.42" y1="351.7" x2="587.59" y2="352.73"/>
	<line style="fill:none;stroke:#FF00FF;stroke-miterlimit:10;" x1="587.59" y1="352.73" x2="587.59" y2="330.37"/>
	<line style="fill:none;stroke:#FF00FF;stroke-miterlimit:10;" x1="302.88" y1="493.12" x2="302.88" y2="462.74"/>
	<line style="fill:none;stroke:#FF00FF;stroke-miterlimit:10;" x1="363.09" y1="472.45" x2="363.09" y2="493.12"/>
	<line style="fill:none;stroke:#FF00FF;stroke-miterlimit:10;" x1="302.88" y1="493.12" x2="363.09" y2="493.12"/>
	<line style="fill:none;stroke:#FF00FF;stroke-miterlimit:10;" x1="511.92" y1="457.49" x2="511.92" y2="493.12"/>
	<line style="fill:none;stroke:#FF00FF;stroke-miterlimit:10;" x1="458.92" y1="463.03" x2="457.17" y2="493.12"/>
	<line style="fill:none;stroke:#FF00FF;stroke-miterlimit:10;" x1="363.09" y1="493.12" x2="457.17" y2="493.12"/>
	<line style="fill:none;stroke:#FF00FF;stroke-miterlimit:10;" x1="511.92" y1="493.12" x2="457.17" y2="493.12"/>
	<line style="fill:none;stroke:#FF00FF;stroke-miterlimit:10;" x1="264.26" y1="520.75" x2="264.26" y2="493.12"/>
	<line style="fill:none;stroke:#FF00FF;stroke-miterlimit:10;" x1="302.88" y1="493.12" x2="264.26" y2="493.12"/>
	<line style="fill:none;stroke:#FF00FF;stroke-miterlimit:10;" x1="173.26" y1="470.28" x2="173.26" y2="493.12"/>
	<line style="fill:none;stroke:#FF00FF;stroke-miterlimit:10;" x1="264.26" y1="493.12" x2="173.26" y2="493.12"/>
	<line style="fill:none;stroke:#FF00FF;stroke-miterlimit:10;" x1="136.42" y1="513.33" x2="135.8" y2="493.12"/>
	<line style="fill:none;stroke:#FF00FF;stroke-miterlimit:10;" x1="173.26" y1="493.12" x2="135.8" y2="493.12"/>
	<line style="fill:none;stroke:#FF00FF;stroke-miterlimit:10;" x1="74.42" y1="518.62" x2="74.42" y2="493.12"/>
	<line style="fill:none;stroke:#FF00FF;stroke-miterlimit:10;" x1="59.42" y1="505.12" x2="74.42" y2="493.12"/>
	<line style="fill:none;stroke:#FF00FF;stroke-miterlimit:10;" x1="53.92" y1="476.45" x2="57.92" y2="493.12"/>
	<line style="fill:none;stroke:#FF00FF;stroke-miterlimit:10;" x1="74.42" y1="493.12" x2="57.92" y2="493.12"/>
	<line style="fill:none;stroke:#FF00FF;stroke-miterlimit:10;" x1="20.17" y1="477.45" x2="27.26" y2="493.12"/>
	<line style="fill:none;stroke:#FF00FF;stroke-miterlimit:10;" x1="57.92" y1="493.12" x2="27.26" y2="493.12"/>
	<line style="fill:none;stroke:#FF00FF;stroke-miterlimit:10;" x1="85.46" y1="396.66" x2="98.26" y2="396.66"/>
	<line style="fill:none;stroke:#FF00FF;stroke-miterlimit:10;" x1="85.46" y1="374.78" x2="98.26" y2="374.78"/>
	<line style="fill:none;stroke:#FF00FF;stroke-miterlimit:10;" x1="98.26" y1="396.66" x2="98.26" y2="374.78"/>
	<line style="fill:none;stroke:#FF00FF;stroke-miterlimit:10;" x1="98.26" y1="493.12" x2="98.26" y2="396.66"/>
	<line style="fill:none;stroke:#FF00FF;stroke-miterlimit:10;" x1="98.26" y1="374.78" x2="99.26" y2="330.37"/>
	<line style="fill:none;stroke:#FF00FF;stroke-miterlimit:10;" x1="94.09" y1="294.83" x2="99.26" y2="330.37"/>
	<line style="fill:none;stroke:#FF00FF;stroke-miterlimit:10;" x1="118.22" y1="348.45" x2="116.59" y2="330.37"/>
	<line style="fill:none;stroke:#FF00FF;stroke-miterlimit:10;" x1="99.26" y1="330.37" x2="116.59" y2="330.37"/>
	<line style="fill:none;stroke:#FF00FF;stroke-miterlimit:10;" x1="149.67" y1="309.45" x2="149.67" y2="330.37"/>
	<line style="fill:none;stroke:#FF00FF;stroke-miterlimit:10;" x1="116.59" y1="330.37" x2="149.67" y2="330.37"/>
	<line style="fill:none;stroke:#FF00FF;stroke-miterlimit:10;" x1="257.59" y1="311.12" x2="258.26" y2="330.37"/>
	<line style="fill:none;stroke:#FF00FF;stroke-miterlimit:10;" x1="302.88" y1="330.37" x2="258.26" y2="330.37"/>
	<line style="fill:none;stroke:#FF00FF;stroke-miterlimit:10;" x1="218.92" y1="311.12" x2="218.76" y2="330.37"/>
	<line style="fill:none;stroke:#FF00FF;stroke-miterlimit:10;" x1="258.26" y1="330.37" x2="218.76" y2="330.37"/>
	<line style="fill:none;stroke:#FF00FF;stroke-miterlimit:10;" x1="175.59" y1="311.12" x2="175.59" y2="330.37"/>
	<line style="fill:none;stroke:#FF00FF;stroke-miterlimit:10;" x1="218.76" y1="330.37" x2="175.59" y2="330.37"/>
	<line style="fill:none;stroke:#FF00FF;stroke-miterlimit:10;" x1="149.67" y1="330.37" x2="175.59" y2="330.37"/>
	<line style="fill:none;stroke:#FF00FF;stroke-miterlimit:10;" x1="562.26" y1="469.12" x2="562.26" y2="493.12"/>
	<line style="fill:none;stroke:#FF00FF;stroke-miterlimit:10;" x1="511.92" y1="493.12" x2="562.26" y2="493.12"/>
	<line style="fill:none;stroke:#FF00FF;stroke-miterlimit:10;" x1="586.73" y1="493.12" x2="562.26" y2="493.12"/>
	<line style="fill:none;stroke:#FF00FF;stroke-miterlimit:10;" x1="601.64" y1="450.72" x2="586.76" y2="450.72"/>
	<line style="fill:none;stroke:#FF00FF;stroke-miterlimit:10;" x1="586.73" y1="493.12" x2="586.76" y2="450.72"/>
	<line style="fill:none;stroke:#FF00FF;stroke-miterlimit:10;" x1="587.59" y1="352.73" x2="586.76" y2="450.72"/>
</g>
</svg>
