<?xml version="1.0" encoding="utf-8"?>
<!-- Generator: Adobe Illustrator 19.2.1, SVG Export Plug-In . SVG Version: 6.00 Build 0)  -->
<svg version="1.1" id="Layer_1" xmlns="http://www.w3.org/2000/svg" xmlns:xlink="http://www.w3.org/1999/xlink" x="0px" y="0px"
	 width="632.13px" height="606.76px" viewBox="0 0 632.13 606.76" style="enable-background:new 0 0 632.13 606.76;"
	 xml:space="preserve">
<g id="Base">
	<polygon id="Circulation" style="fill:#D3D3D3;stroke:#000000;stroke-miterlimit:10;" points="30.3,507.22 0.5,507.22 0.5,474.22 
		2.5,474.22 2.5,468.93 2.5,304.22 8.5,304.22 8.5,262.43 69.5,262.18 69.5,237.18 107.5,237.43 107.5,220.22 274.5,220.22 
		274.5,192.22 321.5,192.22 321.5,174.43 397.5,173.93 397.5,220.26 620.5,220.43 620.5,367.22 631.5,367.22 631.5,455.22 
		620.5,455.22 620.5,500.22 631.5,500.22 631.5,508.22 574.29,508.22 321.29,529.22 280.79,529.22 281.04,606.22 30.55,606.22 	"/>
	
		<rect id="Elevator_1_" x="314.4" y="284.99" transform="matrix(4.491080e-11 -1 1 4.491080e-11 36.3018 625.8265)" style="fill:#BF9C10;stroke:#000000;stroke-miterlimit:10;" width="33.33" height="19.54"/>
	
		<rect id="Stairs" x="336.46" y="158.76" transform="matrix(4.491169e-11 -1 1 4.491169e-11 162.5309 556.7224)" style="fill:#4c4c4c;stroke:#000000;stroke-miterlimit:10;" width="46.33" height="76.67"/>
	
		<rect id="Elevator" x="78.79" y="501.43" transform="matrix(4.489126e-11 -1 1 4.489126e-11 -415.8024 608.7224)" style="fill:#BF9C10;stroke:#000000;stroke-miterlimit:10;" width="35.33" height="21.67"/>
	
		<rect id="Stairs_1_" x="568.96" y="392.26" transform="matrix(4.490103e-11 -1 1 4.490103e-11 201.6976 1023.889)" style="fill:#4c4c4c;stroke:#000000;stroke-miterlimit:10;" width="87.67" height="37.67"/>
	<polygon id="Restroom" style="fill:#00CCCC;stroke:#000000;stroke-miterlimit:10;" points="363.5,311.22 340.79,311.22 
		340.83,278.22 336.5,278.22 336.5,254.22 388.5,254.22 388.5,293.22 363.5,293.22 	"/>
	<polygon id="Restroom_1_" style="fill:#00CCCC;stroke:#000000;stroke-miterlimit:10;" points="397.5,220.22 397.5,311.43 
		388.5,311.26 388.74,254.26 348.92,254.41 348.79,220.22 	"/>
	
		<rect x="317.21" y="258.51" transform="matrix(4.488505e-11 -1 1 4.488505e-11 62.7809 595.3057)" style="fill:none;stroke:#000000;stroke-miterlimit:10;" width="23.67" height="15.5"/>
	
		<rect x="318.04" y="223.68" transform="matrix(4.488638e-11 -1 1 4.488638e-11 97.6144 572.4725)" style="fill:none;stroke:#000000;stroke-miterlimit:10;" width="34" height="27.5"/>
	
		<rect x="328.04" y="328.35" transform="matrix(4.488682e-11 -1 1 4.488682e-11 -7.0524 685.3057)" style="fill:none;stroke:#000000;stroke-miterlimit:10;" width="22.17" height="35.67"/>
	
		<rect x="363.04" y="329.01" transform="matrix(4.488660e-11 -1 1 4.488660e-11 27.9476 720.3057)" style="fill:none;stroke:#000000;stroke-miterlimit:10;" width="22.17" height="34.33"/>
	<polygon id="Stairs_2_" style="fill:#4c4c4c;stroke:#000000;stroke-miterlimit:10;" points="75.5,280.22 75.5,262.22 8.5,262.22 
		8.5,304.22 87.5,304.22 87.5,280.22 	"/>
	
		<rect x="102.25" y="499.64" transform="matrix(4.490370e-11 -1 1 4.490370e-11 -392.3441 628.1807)" style="fill:none;stroke:#000000;stroke-miterlimit:10;" width="31.33" height="21.25"/>
	
		<rect x="95" y="564.72" transform="matrix(4.489659e-11 -1 1 4.489659e-11 -461.4274 701.264)" style="fill:none;stroke:#000000;stroke-miterlimit:10;" width="49.83" height="33.25"/>
	
		<rect x="47.42" y="477.72" transform="matrix(4.489393e-11 -1 1 4.489393e-11 -447.1774 653.6807)" style="fill:none;stroke:#000000;stroke-miterlimit:10;" width="111.67" height="145.42"/>
</g>
<g id="Rooms">
	<a id="R356" xlink:href="#" >
		<g><polygon id="R356" style="fill:#006699;stroke:#000000;stroke-miterlimit:10;" points="64.63,304.26 64.96,468.93 2.63,468.93 
	2.29,304.26 	"/></g>
	</a>
	
	<a id="R352" xlink:href="#" >
		<g><rect id="R352" x="89.46" y="238.1" transform="matrix(4.488949e-11 -1 1 4.488949e-11 -130.8024 400.389)" style="fill:#006699;stroke:#000000;stroke-miterlimit:10;" width="90.67" height="55"/></g>
	</a>
	
	<a id="R353" xlink:href="#" >
		<g><rect id="R353" x="141.46" y="241.1" transform="matrix(4.488971e-11 -1 1 4.488971e-11 -78.8024 452.389)" style="fill:#006699;stroke:#000000;stroke-miterlimit:10;" width="90.67" height="49"/></g>
	</a>
	
	<a id="R354" xlink:href="#" >
		<g><rect id="R354" x="200.63" y="230.93" transform="matrix(4.488971e-11 -1 1 4.488971e-11 -19.6357 511.5557)" style="fill:#006699;stroke:#000000;stroke-miterlimit:10;" width="90.67" height="69.33"/></g>
	</a>
	
	<a id="R351" xlink:href="#" >
		<g><rect id="R351" x="200.21" y="322.18" transform="matrix(4.491791e-11 -1 1 4.491791e-11 -135.3857 602.8057)" style="fill:#006699;stroke:#000000;stroke-miterlimit:10;" width="67" height="93.83"/></g>
	</a>
	
	<a id="R350" xlink:href="#" >
		<g><rect id="R350" x="200.54" y="388.85" transform="matrix(4.488949e-11 -1 1 4.488949e-11 -202.0524 669.4724)" style="fill:#006699;stroke:#000000;stroke-miterlimit:10;" width="66.33" height="93.83"/></g>
	</a>
	
	<a id="R364" xlink:href="#" >
		<g><rect id="R364" x="144.63" y="525.93" transform="matrix(4.489393e-11 -1 1 4.489393e-11 -349.9691 750.889)" style="fill:#006699;stroke:#000000;stroke-miterlimit:10;" width="111.67" height="49"/></g>
	</a>
	
	<a id="R365" xlink:href="#" >
		<g><rect id="R365" x="196.96" y="522.6" transform="matrix(4.489371e-11 -1 1 4.489371e-11 -297.6357 803.2224)" style="fill:#006699;stroke:#000000;stroke-miterlimit:10;" width="111.67" height="55.67"/></g>
	</a>
	
	<a id="R361" xlink:href="#" >
		<g><rect id="R361" x="86.46" y="440.1" transform="matrix(4.491525e-11 -1 1 4.491525e-11 -356.4691 555.389)" style="fill:#993333;stroke:#000000;stroke-miterlimit:10;" width="26" height="31.67"/></g>
	</a>
	
	<a id="R360" xlink:href="#" >
		<g><rect id="R360" x="85.91" y="413.55" transform="matrix(4.488571e-11 -1 1 4.488571e-11 -329.9236 528.8435)" style="fill:#993333;stroke:#000000;stroke-miterlimit:10;" width="27.09" height="31.67"/></g>
	</a>
	
	<a id="R359" xlink:href="#" >
		<g><rect id="R359" x="86.17" y="386.72" transform="matrix(4.490037e-11 -1 1 4.490037e-11 -303.0902 502.0102)" style="fill:#993333;stroke:#000000;stroke-miterlimit:10;" width="26.58" height="31.67"/></g>
	</a>
	
	<a id="R358" xlink:href="#" >
		<g><rect id="R358" x="85.96" y="359.93" transform="matrix(4.490214e-11 -1 1 4.490214e-11 -276.3024 475.2224)" style="fill:#993333;stroke:#000000;stroke-miterlimit:10;" width="27" height="31.67"/></g>
	</a>
	
	<a id="R357" xlink:href="#" >
		<g><rect id="R357" x="86.13" y="333.1" transform="matrix(4.488371e-11 -1 1 4.488371e-11 -249.4691 448.389)" style="fill:#993333;stroke:#000000;stroke-miterlimit:10;" width="26.67" height="31.67"/></g>
	</a>
	
	<a id="R369" xlink:href="#" >
		<g><rect id="R369" x="106.54" y="344.35" transform="matrix(4.490103e-11 -1 1 4.490103e-11 -229.0524 482.3057)" style="fill:#993333;stroke:#000000;stroke-miterlimit:10;" width="40.17" height="22.67"/></g>
	</a>
	
	<a id="R368" xlink:href="#" >
		<g><rect id="R368" x="106.59" y="384.47" transform="matrix(4.488949e-11 -1 1 4.488949e-11 -269.1736 522.4269)" style="fill:#993333;stroke:#000000;stroke-miterlimit:10;" width="40.08" height="22.67"/></g>
	</a>
	
	<a id="R367" xlink:href="#" >
		<g><rect id="R367" x="113.08" y="418.05" transform="matrix(4.488594e-11 -1 1 4.488594e-11 -302.7569 556.0102)" style="fill:#993333;stroke:#000000;stroke-miterlimit:10;" width="27.09" height="22.67"/></g>
	</a>
	
	<a id="R366" xlink:href="#" >
		<g><rect id="R366" x="113.63" y="444.6" transform="matrix(4.491525e-11 -1 1 4.491525e-11 -329.3024 582.5557)" style="fill:#993333;stroke:#000000;stroke-miterlimit:10;" width="26" height="22.67"/></g>
	</a>
	
	<a id="R370" xlink:href="#" >
		<g><rect id="R370" x="150.29" y="339.26" transform="matrix(4.492413e-11 -1 1 4.492413e-11 -185.3024 526.0557)" style="fill:#993333;stroke:#000000;stroke-miterlimit:10;" width="40.17" height="32.83"/></g>
	</a>
	
	<a id="R371" xlink:href="#" >
		<g><rect id="R371" x="150.34" y="379.38" transform="matrix(4.488949e-11 -1 1 4.488949e-11 -225.4236 566.1769)" style="fill:#993333;stroke:#000000;stroke-miterlimit:10;" width="40.08" height="32.83"/></g>
	</a>
	
	<a id="R372" xlink:href="#" >
		<g><rect id="R372" x="156.83" y="412.97" transform="matrix(4.491880e-11 -1 1 4.491880e-11 -259.0069 599.7602)" style="fill:#993333;stroke:#000000;stroke-miterlimit:10;" width="27.09" height="32.83"/></g>
	</a>
	
	<a id="R373" xlink:href="#" >
		<g><rect id="R373" x="157.38" y="439.51" transform="matrix(4.484508e-11 -1 1 4.484508e-11 -285.5524 626.3057)" style="fill:#993333;stroke:#000000;stroke-miterlimit:10;" width="26" height="32.83"/></g>
	</a>
	
	<a id="R307" xlink:href="#" >
		<g><polygon id="R307" style="fill:#006699;stroke:#000000;stroke-miterlimit:10;" points="444.29,220.26 444.29,310.93 
	397.96,311.31 397.96,220.26 	"/></g>
	</a>
	
	<a id="R308" xlink:href="#" >
		<g><rect id="R308" x="427.63" y="236.93" transform="matrix(4.489970e-11 -1 1 4.489970e-11 207.3643 738.5557)" style="fill:#006699;stroke:#000000;stroke-miterlimit:10;" width="90.67" height="57.33"/></g>
	</a>
	
	<a id="R309" xlink:href="#" >
		<g><rect id="R309" x="484.96" y="236.93" transform="matrix(4.489970e-11 -1 1 4.489970e-11 264.6976 795.889)" style="fill:#006699;stroke:#000000;stroke-miterlimit:10;" width="90.67" height="57.33"/></g>
	</a>
	
	<a id="R310" xlink:href="#" >
		<g><rect id="R310" x="544.54" y="234.68" transform="matrix(4.489970e-11 -1 1 4.489970e-11 324.2809 855.4724)" style="fill:#006699;stroke:#000000;stroke-miterlimit:10;" width="90.67" height="61.83"/></g>
	</a>
	
	<a id="R337" xlink:href="#" >
		<g><rect id="R337" x="324.29" y="414.26" transform="matrix(4.490636e-11 -1 1 4.490636e-11 -92.9691 805.5557)" style="fill:#006699;stroke:#000000;stroke-miterlimit:10;" width="64" height="70"/></g>
	</a>
	
	<a id="R338" xlink:href="#" >
		<g><rect id="R338" x="326.29" y="352.26" transform="matrix(4.489881e-11 -1 1 4.489881e-11 -30.9691 743.5557)" style="fill:#006699;stroke:#000000;stroke-miterlimit:10;" width="60" height="70"/></g>
	</a>
	
	<a id="R332" xlink:href="#" >
		<g><rect id="R332" x="389.99" y="336.4" transform="matrix(4.492235e-11 -1 1 4.492235e-11 54.8907 754.1959)" style="fill:#993333;stroke:#000000;stroke-miterlimit:10;" width="29.11" height="26.5"/></g>
	</a>
	
	<a id="R333" xlink:href="#" >
		<g><rect id="R333" x="390.52" y="364.99" transform="matrix(4.487084e-11 -1 1 4.487084e-11 26.3073 782.7793)" style="fill:#993333;stroke:#000000;stroke-miterlimit:10;" width="28.05" height="26.5"/></g>
	</a>
	
	<a id="R334" xlink:href="#" >
		<g><rect id="R334" x="390.21" y="393.35" transform="matrix(4.492502e-11 -1 1 4.492502e-11 -2.0524 811.139)" style="fill:#993333;stroke:#000000;stroke-miterlimit:10;" width="28.67" height="26.5"/></g>
	</a>
	
	<a id="R335" xlink:href="#" >
		<g><rect id="R335" x="389.65" y="422.57" transform="matrix(4.489393e-11 -1 1 4.489393e-11 -31.276 840.3626)" style="fill:#993333;stroke:#000000;stroke-miterlimit:10;" width="29.78" height="26.5"/></g>
	</a>
	
	<a id="R336" xlink:href="#" >
		<g><rect id="R336" x="389.27" y="452.74" transform="matrix(4.489038e-11 -1 1 4.489038e-11 -61.4427 870.5293)" style="fill:#993333;stroke:#000000;stroke-miterlimit:10;" width="30.55" height="26.5"/></g>
	</a>
	
	<a id="R331" xlink:href="#" >
		<g><rect id="R331" x="435.57" y="334.15" transform="matrix(4.492235e-11 -1 1 4.492235e-11 100.474 799.7793)" style="fill:#993333;stroke:#000000;stroke-miterlimit:10;" width="29.11" height="31"/></g>
	</a>
	
	<a id="R330" xlink:href="#" >
		<g><rect id="R330" x="436.1" y="362.74" transform="matrix(4.487084e-11 -1 1 4.487084e-11 71.8907 828.3626)" style="fill:#993333;stroke:#000000;stroke-miterlimit:10;" width="28.05" height="31"/></g>
	</a>
	
	<a id="R329" xlink:href="#" >
		<g><rect id="R329" x="435.79" y="391.1" transform="matrix(4.492502e-11 -1 1 4.492502e-11 43.5309 856.7224)" style="fill:#993333;stroke:#000000;stroke-miterlimit:10;" width="28.67" height="31"/></g>
	</a>
	
	<a id="R328" xlink:href="#" >
		<g><rect id="R328" x="435.13" y="420.43" transform="matrix(4.486817e-11 -1 1 4.486817e-11 14.1976 886.0557)" style="fill:#993333;stroke:#000000;stroke-miterlimit:10;" width="30" height="31"/></g>
	</a>
	
	<a id="R327" xlink:href="#" >
		<g><rect id="R327" x="434.29" y="451.26" transform="matrix(4.491969e-11 -1 1 4.491969e-11 -16.6357 916.889)" style="fill:#993333;stroke:#000000;stroke-miterlimit:10;" width="31.67" height="31"/></g>
	</a>
	
	<a id="R322" xlink:href="#" >
		<g><rect id="R322" x="465.63" y="335.1" transform="matrix(4.492235e-11 -1 1 4.492235e-11 130.5309 829.8362)" style="fill:#993333;stroke:#000000;stroke-miterlimit:10;" width="29.11" height="29.11"/></g>
	</a>
	
	<a id="R323" xlink:href="#" >
		<g><rect id="R323" x="466.16" y="363.68" transform="matrix(4.487084e-11 -1 1 4.487084e-11 101.9476 858.4196)" style="fill:#993333;stroke:#000000;stroke-miterlimit:10;" width="28.05" height="29.11"/></g>
	</a>
	
	<a id="R324" xlink:href="#" >
		<g><rect id="R324" x="465.85" y="392.04" transform="matrix(4.492502e-11 -1 1 4.492502e-11 73.5879 886.7793)" style="fill:#993333;stroke:#000000;stroke-miterlimit:10;" width="28.67" height="29.11"/></g>
	</a>
	
	<a id="R325" xlink:href="#" >
		<g><rect id="R325" x="465.18" y="421.37" transform="matrix(4.486817e-11 -1 1 4.486817e-11 44.2545 916.1126)" style="fill:#993333;stroke:#000000;stroke-miterlimit:10;" width="30" height="29.11"/></g>
	</a>
	
	<a id="R326" xlink:href="#" >
		<g><rect id="R326" x="464.35" y="452.21" transform="matrix(4.491969e-11 -1 1 4.491969e-11 13.4212 946.9459)" style="fill:#993333;stroke:#000000;stroke-miterlimit:10;" width="31.67" height="29.11"/></g>
	</a>
	
	<a id="R321" xlink:href="#" >
		<g><rect id="R321" x="512.96" y="335.1" transform="matrix(4.492235e-11 -1 1 4.492235e-11 177.8643 877.1696)" style="fill:#993333;stroke:#000000;stroke-miterlimit:10;" width="29.11" height="29.11"/></g>
	</a>
	
	<a id="R320" xlink:href="#" >
		<g><rect id="R320" x="513.49" y="363.68" transform="matrix(4.487084e-11 -1 1 4.487084e-11 149.2809 905.7529)" style="fill:#993333;stroke:#000000;stroke-miterlimit:10;" width="28.05" height="29.11"/></g>
	</a>
	
	<a id="R319" xlink:href="#" >
		<g><rect id="R319" x="513.18" y="392.04" transform="matrix(4.492502e-11 -1 1 4.492502e-11 120.9212 934.1126)" style="fill:#993333;stroke:#000000;stroke-miterlimit:10;" width="28.67" height="29.11"/></g>
	</a>
	
	<a id="R318" xlink:href="#" >
		<g><rect id="R318" x="512.52" y="421.37" transform="matrix(4.486817e-11 -1 1 4.486817e-11 91.5879 963.4459)" style="fill:#993333;stroke:#000000;stroke-miterlimit:10;" width="30" height="29.11"/></g>
	</a>
	
	<a id="R317" xlink:href="#" >
		<g><rect id="R317" x="511.57" y="452.1" transform="matrix(4.489571e-11 -1 1 4.489571e-11 60.8643 994.1696)" style="fill:#993333;stroke:#000000;stroke-miterlimit:10;" width="31.89" height="29.11"/></g>
	</a>
	
	<a id="R311" xlink:href="#" >
		<g><rect id="R311" x="543.46" y="333.71" transform="matrix(4.492235e-11 -1 1 4.492235e-11 208.3643 907.6696)" style="fill:#993333;stroke:#000000;stroke-miterlimit:10;" width="29.11" height="31.89"/></g>
	</a>
	
	<a id="R313" xlink:href="#" >
		<g><rect id="R313" x="543.99" y="362.29" transform="matrix(4.487084e-11 -1 1 4.487084e-11 179.7809 936.2529)" style="fill:#993333;stroke:#000000;stroke-miterlimit:10;" width="28.05" height="31.89"/></g>
	</a>
	
	<a id="R314" xlink:href="#" >
		<g><rect id="R314" x="543.68" y="390.65" transform="matrix(4.492502e-11 -1 1 4.492502e-11 151.4212 964.6126)" style="fill:#993333;stroke:#000000;stroke-miterlimit:10;" width="28.67" height="31.89"/></g>
	</a>
	
	<a id="R315" xlink:href="#" >
		<g><rect id="R315" x="543.02" y="419.99" transform="matrix(4.486839e-11 -1 1 4.486839e-11 122.0879 993.9459)" style="fill:#993333;stroke:#000000;stroke-miterlimit:10;" width="30" height="31.89"/></g>
	</a>
	
	<a id="R316" xlink:href="#" >
		<g><rect id="R316" x="542.07" y="450.71" transform="matrix(4.489571e-11 -1 1 4.489571e-11 91.3643 1024.6696)" style="fill:#993333;stroke:#000000;stroke-miterlimit:10;" width="31.89" height="31.89"/></g>
	</a>
	<a id="R355" xlink:href="#" >
		<g><path id="R355" style="fill:#00B438;stroke:#000000;stroke-miterlimit:10;" d="M69.5,262.22v-26h37c0,0,1,43,0,43
	c-2,0-31,0-31,0v-17H69.5z"/></g>
	</a>
</g>
<g id="Labels">
	<text transform="matrix(1 0 0 1 104.4576 21.413)" style="font-family:'OptimaLTStd'; font-size:25.7994px;">Volunteer State Community College </text>
	<text transform="matrix(1 0 0 1 163.963 50.874)" style="font-family:'OptimaLTStd'; font-size:25.7994px;">SRB Humanities Building </text>
	<text transform="matrix(1 0 0 1 226.3829 81.8341)" style="font-family:'OptimaLTStd'; font-size:25.7994px;">THIRD FLOOR</text>
	<polyline id="swatch-pink" style="fill:#993333;" points="331.5,120.21 331.5,98.09 353.61,98.09 353.61,120.21 	"/>
	
		<text id="legend-offices" transform="matrix(1 0 0 1 358.9713 114.3754)" style="font-family:'OptimaLTStd'; font-size:16.5853px;">Offices</text>
	<polyline id="swatch-pink_2_" style="fill:#006699;" points="199.61,120.21 199.61,98.09 221.72,98.09 221.72,120.21 	"/>
	
		<text id="legend-library" transform="matrix(1 0 0 1 225.8707 114.3754)" style="font-family:'OptimaLTStd'; font-size:16.5853px;">Classrooms</text>
	<polyline id="swatch-pink_1_" style="fill:#001A72;" points="164.69,155.21 164.69,133.09 186.8,133.09 186.8,155.21 	"/>
	
		<text id="legend-library_1_" transform="matrix(1 0 0 1 190.9528 149.3765)" style="font-family:'OptimaLTStd'; font-size:16.5853px;">Auditorium</text>
	<polyline id="swatch-pink_3_" style="fill:#00B438;" points="292.69,155.21 292.69,133.09 314.8,133.09 314.8,155.21 	"/>
	
		<text id="legend-library_2_" transform="matrix(1 0 0 1 318.9528 149.3765)" style="font-family:'OptimaLTStd'; font-size:16.5853px;">Conference Rooms</text>
	
		<text id="elevator" transform="matrix(-1 0 0 -1 336.585 290.541)" style="fill:#FFFFFF; font-family:'FontAwesome'; font-size:14px;"></text>
	<polyline id="Stairs_3_" style="fill:none;stroke:#FFFFFF;stroke-miterlimit:10;" points="365.22,205.07 365.22,201.07 
		365.22,201.12 361.05,201.12 361.05,197.12 356.89,197.12 356.89,193.12 352.72,193.12 352.72,189.12 	"/>
	
		<text id="female2_1_" transform="matrix(1 0 0 1 352.721 286.153)" style="fill:#FFFFFF; font-family:'FontAwesome'; font-size:25.7994px;"></text>
	
		<text id="male1_1_" transform="matrix(1 0 0 1 366.5697 246.2224)" style="fill:#FFFFFF; font-family:'FontAwesome'; font-size:25.7994px;"></text>
	
		<text id="elevator_1_" transform="matrix(-1 0 0 -1 103.252 508.2617)" style="fill:#FFFFFF; font-family:'FontAwesome'; font-size:14px;"></text>
	<polyline id="Stairs_4_" style="fill:none;stroke:#FFFFFF;stroke-miterlimit:10;" points="619.04,419.8 619.04,415.8 
		619.04,415.85 614.87,415.85 614.87,411.85 610.71,411.85 610.71,407.85 606.54,407.85 606.54,403.85 	"/>
	<polyline id="Stairs_5_" style="fill:none;stroke:#FFFFFF;stroke-miterlimit:10;" points="52.29,291.2 52.29,287.2 52.29,287.25 
		48.12,287.25 48.12,283.25 43.96,283.25 43.96,279.25 39.79,279.25 39.79,275.25 	"/>
	<text transform="matrix(1 0 0 1 573.9596 274.1633)" style="fill:#FFFFFF; font-family:'MyriadPro-Regular'; font-size:21px;">310</text>
	<text transform="matrix(1 0 0 1 512.9597 273.0602)" style="fill:#FFFFFF; font-family:'MyriadPro-Regular'; font-size:21px;">309</text>
	<text transform="matrix(1 0 0 1 455.9675 273.0578)" style="fill:#FFFFFF; font-family:'MyriadPro-Regular'; font-size:21px;">308</text>
	<text transform="matrix(1 0 0 1 404.543 273.0607)" style="fill:#FFFFFF; font-family:'MyriadPro-Regular'; font-size:21px;">307</text>
	<text transform="matrix(1 0 0 1 340.8346 397.9498)" style="fill:#FFFFFF; font-family:'MyriadPro-Regular'; font-size:21px;">338</text>
	<text transform="matrix(1 0 0 1 342.5518 455.4292)" style="fill:#FFFFFF; font-family:'MyriadPro-Regular'; font-size:21px;">337</text>
	<text transform="matrix(1 0 0 1 394.2526 472.0959)" style="fill:#FFFFFF; font-family:'MyriadPro-Regular'; font-size:14px;">336</text>
	<text transform="matrix(1 0 0 1 393.7381 441.329)" style="fill:#FFFFFF; font-family:'MyriadPro-Regular'; font-size:14px;">335</text>
	<text transform="matrix(1 0 0 1 393.7372 412.2286)" style="fill:#FFFFFF; font-family:'MyriadPro-Regular'; font-size:14px;">334</text>
	<text transform="matrix(1 0 0 1 393.7379 383.179)" style="fill:#FFFFFF; font-family:'MyriadPro-Regular'; font-size:14px;">333</text>
	<text transform="matrix(1 0 0 1 393.7377 355.2528)" style="fill:#FFFFFF; font-family:'MyriadPro-Regular'; font-size:14px;">332</text>
	<text transform="matrix(1 0 0 1 439.7125 472.0145)" style="fill:#FFFFFF; font-family:'MyriadPro-Regular'; font-size:14px;">327</text>
	<text transform="matrix(1 0 0 1 440.3635 441.3289)" style="fill:#FFFFFF; font-family:'MyriadPro-Regular'; font-size:14px;">328</text>
	<text transform="matrix(1 0 0 1 440.3633 412.421)" style="fill:#FFFFFF; font-family:'MyriadPro-Regular'; font-size:14px;">329</text>
	<text transform="matrix(1 0 0 1 440.5847 383.5547)" style="fill:#FFFFFF; font-family:'MyriadPro-Regular'; font-size:14px;">330</text>
	<text transform="matrix(1 0 0 1 440.5849 355.2526)" style="fill:#FFFFFF; font-family:'MyriadPro-Regular'; font-size:14px;">331</text>
	<text transform="matrix(1 0 0 1 469.2506 472.0961)" style="fill:#FFFFFF; font-family:'MyriadPro-Regular'; font-size:14px;">326</text>
	<text transform="matrix(1 0 0 1 469.2507 441.3286)" style="fill:#FFFFFF; font-family:'MyriadPro-Regular'; font-size:14px;">325</text>
	<text transform="matrix(1 0 0 1 469.2503 414.0336)" style="fill:#FFFFFF; font-family:'MyriadPro-Regular'; font-size:14px;">324</text>
	<text transform="matrix(1 0 0 1 469.2511 383.8876)" style="fill:#FFFFFF; font-family:'MyriadPro-Regular'; font-size:14px;">323</text>
	<text transform="matrix(1 0 0 1 467.5719 355.2527)" style="fill:#FFFFFF; font-family:'MyriadPro-Regular'; font-size:14px;">322</text>
	<text transform="matrix(1 0 0 1 517.0648 472.845)" style="fill:#FFFFFF; font-family:'MyriadPro-Regular'; font-size:14px;">317</text>
	<text transform="matrix(1 0 0 1 515.4525 442.9289)" style="fill:#FFFFFF; font-family:'MyriadPro-Regular'; font-size:14px;">318</text>
	<text transform="matrix(1 0 0 1 517.0649 412.2286)" style="fill:#FFFFFF; font-family:'MyriadPro-Regular'; font-size:14px;">319</text>
	<text transform="matrix(1 0 0 1 517.0652 383.5542)" style="fill:#FFFFFF; font-family:'MyriadPro-Regular'; font-size:14px;">320</text>
	<text transform="matrix(1 0 0 1 515.4523 355.6793)" style="fill:#FFFFFF; font-family:'MyriadPro-Regular'; font-size:14px;">321</text>
	<text transform="matrix(1 0 0 1 546.3688 472.8455)" style="fill:#FFFFFF; font-family:'MyriadPro-Regular'; font-size:14px;">316</text>
	<text transform="matrix(1 0 0 1 546.043 441.3285)" style="fill:#FFFFFF; font-family:'MyriadPro-Regular'; font-size:14px;">315</text>
	<text transform="matrix(1 0 0 1 546.3687 411.8284)" style="fill:#FFFFFF; font-family:'MyriadPro-Regular'; font-size:14px;">314</text>
	<text transform="matrix(1 0 0 1 546.3683 383.1793)" style="fill:#FFFFFF; font-family:'MyriadPro-Regular'; font-size:14px;">313</text>
	<text transform="matrix(1 0 0 1 546.0433 355.2524)" style="fill:#FFFFFF; font-family:'MyriadPro-Regular'; font-size:14px;">311</text>
	<text transform="matrix(1 0 0 1 236.8058 562.6415)" style="fill:#FFFFFF; font-family:'MyriadPro-Regular'; font-size:21px;">365</text>
	<text transform="matrix(1 0 0 1 184.7934 562.6414)" style="fill:#FFFFFF; font-family:'MyriadPro-Regular'; font-size:21px;">364</text>
	<text transform="matrix(1 0 0 1 216.7845 439.9295)" style="fill:#FFFFFF; font-family:'MyriadPro-Regular'; font-size:21px;">350</text>
	<text transform="matrix(1 0 0 1 216.7844 379.9814)" style="fill:#FFFFFF; font-family:'MyriadPro-Regular'; font-size:21px;">351</text>
	<text transform="matrix(1 0 0 1 226.4976 272.759)" style="fill:#FFFFFF; font-family:'MyriadPro-Regular'; font-size:21px;">352</text>
	<text transform="matrix(1 0 0 1 170.3763 273.0608)" style="fill:#FFFFFF; font-family:'MyriadPro-Regular'; font-size:21px;">353</text>
	<text transform="matrix(1 0 0 1 118.2929 273.0606)" style="fill:#FFFFFF; font-family:'MyriadPro-Regular'; font-size:21px;">354</text>
	<text transform="matrix(1 0 0 1 74.5433 261.429)" style="fill:#FFFFFF; font-family:'MyriadPro-Regular'; font-size:18px;">355</text>
	<text transform="matrix(1 0 0 1 14.3163 384.8878)" style="fill:#FFFFFF; font-family:'MyriadPro-Regular'; font-size:21px;">356</text>
	<text transform="matrix(1 0 0 1 158.4019 402.3289)" style="fill:#FFFFFF; font-family:'MyriadPro-Regular'; font-size:16px;">371</text>
	<text transform="matrix(1 0 0 1 157.6868 364.2096)" style="fill:#FFFFFF; font-family:'MyriadPro-Regular'; font-size:16px;">370</text>
	<text transform="matrix(1 0 0 1 116.0069 360.533)" style="fill:#FFFFFF; font-family:'MyriadPro-Regular'; font-size:14px;">369</text>
	<text transform="matrix(1 0 0 1 115.2934 400.1665)" style="fill:#FFFFFF; font-family:'MyriadPro-Regular'; font-size:14px;">368</text>
	<text transform="matrix(1 0 0 1 158.4023 436.7153)" style="fill:#FFFFFF; font-family:'MyriadPro-Regular'; font-size:15px;">372</text>
	<text transform="matrix(1 0 0 1 158.4022 461.0402)" style="fill:#FFFFFF; font-family:'MyriadPro-Regular'; font-size:15px;">373</text>
	<text transform="matrix(1 0 0 1 116.007 434.3456)" style="fill:#FFFFFF; font-family:'MyriadPro-Regular'; font-size:14px;">367</text>
	<text transform="matrix(1 0 0 1 116.7972 461.04)" style="fill:#FFFFFF; font-family:'MyriadPro-Regular'; font-size:14px;">366</text>
	<text transform="matrix(1 0 0 1 87.4996 460.929)" style="fill:#FFFFFF; font-family:'MyriadPro-Regular'; font-size:15px;">361</text>
	<text transform="matrix(1 0 0 1 87.4998 434.3457)" style="fill:#FFFFFF; font-family:'MyriadPro-Regular'; font-size:15px;">360</text>
	<text transform="matrix(1 0 0 1 87.8367 406.695)" style="fill:#FFFFFF; font-family:'MyriadPro-Regular'; font-size:15px;">359</text>
	<text transform="matrix(1 0 0 1 87.4997 379.9817)" style="fill:#FFFFFF; font-family:'MyriadPro-Regular'; font-size:15px;">358</text>
	<text transform="matrix(1 0 0 1 87.4995 355.6792)" style="fill:#FFFFFF; font-family:'MyriadPro-Regular'; font-size:15px;">357</text>
</g>
<g id="Doors">
	<line id="R356_4_" style="fill:none;stroke:#00FF00;stroke-miterlimit:10;" x1="48.29" y1="462.93" x2="45.6" y2="450.93"/>
	<line id="R364_2_" style="fill:none;stroke:#00FF00;stroke-miterlimit:10;" x1="186.79" y1="500.43" x2="190.79" y2="510.26"/>
	<line id="R365_2_" style="fill:none;stroke:#00FF00;stroke-miterlimit:10;" x1="273.29" y1="499.93" x2="268.29" y2="510.26"/>
	<line id="R350_2_" style="fill:none;stroke:#00FF00;stroke-miterlimit:10;" x1="266.29" y1="415.84" x2="277.29" y2="412.23"/>
	<line id="R351_2_" style="fill:none;stroke:#00FF00;stroke-miterlimit:10;" x1="267.29" y1="389.26" x2="276.29" y2="392.26"/>
	<line id="R352_2_" style="fill:none;stroke:#00FF00;stroke-miterlimit:10;" x1="219.29" y1="304.43" x2="224.96" y2="294.76"/>
	<line id="R353_2_" style="fill:none;stroke:#00FF00;stroke-miterlimit:10;" x1="204.29" y1="304.43" x2="200.46" y2="297.43"/>
	<line id="R354_2_" style="fill:none;stroke:#00FF00;stroke-miterlimit:10;" x1="153.96" y1="304.43" x2="150.29" y2="297.43"/>
	<line id="R356_3_" style="fill:none;stroke:#00FF00;stroke-miterlimit:10;" x1="48.29" y1="323.93" x2="60.29" y2="318.93"/>
	<line id="R355_2_" style="fill:none;stroke:#00FF00;stroke-miterlimit:10;" x1="96.46" y1="273.54" x2="94.29" y2="262.43"/>
	<line id="R361_2_" style="fill:none;stroke:#00FF00;stroke-miterlimit:10;" x1="87.79" y1="455.93" x2="96.46" y2="455.93"/>
	<line id="R360_2_" style="fill:none;stroke:#00FF00;stroke-miterlimit:10;" x1="87.79" y1="429.38" x2="96.46" y2="429.38"/>
	<line id="R359_2_" style="fill:none;stroke:#00FF00;stroke-miterlimit:10;" x1="87.79" y1="402.6" x2="96.46" y2="402.6"/>
	<line id="R358_2_" style="fill:none;stroke:#00FF00;stroke-miterlimit:10;" x1="87.79" y1="375.76" x2="99.46" y2="375.76"/>
	<line id="R357_2_" style="fill:none;stroke:#00FF00;stroke-miterlimit:10;" x1="87.79" y1="349.65" x2="99.46" y2="349.65"/>
	<line id="R369_2_" style="fill:none;stroke:#00FF00;stroke-miterlimit:10;" x1="134.79" y1="346.18" x2="126.63" y2="352.93"/>
	<line id="R368_2_" style="fill:none;stroke:#00FF00;stroke-miterlimit:10;" x1="134.79" y1="383.93" x2="126.63" y2="392.26"/>
	<line id="R367_2_" style="fill:none;stroke:#00FF00;stroke-miterlimit:10;" x1="131.79" y1="424.93" x2="126.63" y2="430.49"/>
	<line id="R366_2_" style="fill:none;stroke:#00FF00;stroke-miterlimit:10;" x1="124.29" y1="455.93" x2="131.79" y2="455.93"/>
	<line id="R370_2_" style="fill:none;stroke:#00FF00;stroke-miterlimit:10;" x1="157.29" y1="346.18" x2="168.29" y2="352.43"/>
	<line id="R371_2_" style="fill:none;stroke:#00FF00;stroke-miterlimit:10;" x1="157.29" y1="386.6" x2="166.29" y2="392.26"/>
	<line id="R372_2_" style="fill:none;stroke:#00FF00;stroke-miterlimit:10;" x1="156.29" y1="424.93" x2="166.29" y2="427.71"/>
	<line id="R373_2_" style="fill:none;stroke:#00FF00;stroke-miterlimit:10;" x1="156.29" y1="459.93" x2="166.79" y2="455.93"/>
	<line id="R377_1_" style="fill:none;stroke:#00FF00;stroke-miterlimit:10;" x1="326.17" y1="468.93" x2="336.79" y2="465.99"/>
	<line id="R338_2_" style="fill:none;stroke:#00FF00;stroke-miterlimit:10;" x1="326.17" y1="404.23" x2="335.04" y2="400.43"/>
	<line id="R307_2_" style="fill:none;stroke:#00FF00;stroke-miterlimit:10;" x1="427.63" y1="306.43" x2="436.79" y2="296.93"/>
	<line id="R308_2_" style="fill:none;stroke:#00FF00;stroke-miterlimit:10;" x1="458.79" y1="305.93" x2="450.13" y2="297.43"/>
	<line id="R309_2_" style="fill:none;stroke:#00FF00;stroke-miterlimit:10;" x1="542.07" y1="305.43" x2="550.29" y2="299.6"/>
	<line id="R310_2_" style="fill:none;stroke:#00FF00;stroke-miterlimit:10;" x1="577.29" y1="305.43" x2="571.79" y2="294.76"/>
	<line id="R332_2_" style="fill:none;stroke:#00FF00;stroke-miterlimit:10;" x1="412.79" y1="466.54" x2="404.54" y2="466.54"/>
	<line id="R333_2_" style="fill:none;stroke:#00FF00;stroke-miterlimit:10;" x1="412.79" y1="435.93" x2="404.54" y2="435.93"/>
	<line id="R334_2_" style="fill:none;stroke:#00FF00;stroke-miterlimit:10;" x1="412.79" y1="406.6" x2="404.54" y2="406.6"/>
	<line id="R335_2_" style="fill:none;stroke:#00FF00;stroke-miterlimit:10;" x1="412.79" y1="378.24" x2="404.54" y2="378.24"/>
	<line id="R336_2_" style="fill:none;stroke:#00FF00;stroke-miterlimit:10;" x1="412.79" y1="349.65" x2="404.54" y2="349.65"/>
	<line id="R327_2_" style="fill:none;stroke:#00FF00;stroke-miterlimit:10;" x1="437.79" y1="466.76" x2="447.79" y2="466.76"/>
	<line id="R328_2_" style="fill:none;stroke:#00FF00;stroke-miterlimit:10;" x1="437.79" y1="435.93" x2="447.79" y2="435.93"/>
	<line id="R329_2_" style="fill:none;stroke:#00FF00;stroke-miterlimit:10;" x1="437.79" y1="406.6" x2="447.79" y2="406.6"/>
	<line id="R330_2_" style="fill:none;stroke:#00FF00;stroke-miterlimit:10;" x1="437.79" y1="378.24" x2="450.13" y2="378.24"/>
	<line id="R331_2_" style="fill:none;stroke:#00FF00;stroke-miterlimit:10;" x1="437.79" y1="349.65" x2="450.13" y2="349.65"/>
	<line id="R326_2_" style="fill:none;stroke:#00FF00;stroke-miterlimit:10;" x1="489.29" y1="467.46" x2="480.18" y2="466.76"/>
	<line id="R325_2_" style="fill:none;stroke:#00FF00;stroke-miterlimit:10;" x1="490.29" y1="433.43" x2="480.18" y2="435.76"/>
	<line id="R324_2_" style="fill:none;stroke:#00FF00;stroke-miterlimit:10;" x1="490.79" y1="406.6" x2="480.18" y2="406.6"/>
	<line id="R323_2_" style="fill:none;stroke:#00FF00;stroke-miterlimit:10;" x1="490.79" y1="378.24" x2="480.18" y2="378.24"/>
	<line id="R322_2_" style="fill:none;stroke:#00FF00;stroke-miterlimit:10;" x1="490.79" y1="349.3" x2="480.18" y2="349.65"/>
	<line id="R317_2_" style="fill:none;stroke:#00FF00;stroke-miterlimit:10;" x1="516.79" y1="465.99" x2="527.52" y2="465.99"/>
	<line id="R318_2_" style="fill:none;stroke:#00FF00;stroke-miterlimit:10;" x1="516.79" y1="435.93" x2="527.52" y2="434.6"/>
	<line id="R319_2_" style="fill:none;stroke:#00FF00;stroke-miterlimit:10;" x1="518.79" y1="406.6" x2="530.29" y2="406.6"/>
	<line id="R320_2_" style="fill:none;stroke:#00FF00;stroke-miterlimit:10;" x1="518.79" y1="378.24" x2="527.52" y2="378.24"/>
	<line id="R321_2_" style="fill:none;stroke:#00FF00;stroke-miterlimit:10;" x1="518.79" y1="349.48" x2="527.52" y2="349.48"/>
	<line id="R316_2_" style="fill:none;stroke:#00FF00;stroke-miterlimit:10;" x1="570.29" y1="465.99" x2="561.66" y2="465.99"/>
	<line id="R315_2_" style="fill:none;stroke:#00FF00;stroke-miterlimit:10;" x1="570.29" y1="434.6" x2="561.66" y2="435.26"/>
	<line id="R314_2_" style="fill:none;stroke:#00FF00;stroke-miterlimit:10;" x1="570.29" y1="406.6" x2="558.96" y2="406.6"/>
	<line id="R313_2_" style="fill:none;stroke:#00FF00;stroke-miterlimit:10;" x1="570.29" y1="378.24" x2="561.66" y2="378.24"/>
	<line id="R311" style="fill:none;stroke:#00FF00;stroke-miterlimit:10;" x1="570.29" y1="349.65" x2="561.66" y2="349.65"/>
</g>
<g id="Portals">
	<line id="Stair.1.floor2" style="fill:none;stroke:#F15A24;stroke-miterlimit:10;" x1="599.42" y1="445.06" x2="606.92" y2="442.93"/>
	<line id="Elev.1.floor2" style="fill:none;stroke:#F15A24;stroke-miterlimit:10;" x1="326.18" y1="294.76" x2="333.17" y2="292.47"/>
</g>
<g id="Paths">
	<line style="fill:none;stroke:#FF00FF;stroke-miterlimit:10;" x1="302.54" y1="322.18" x2="302.54" y2="294.76"/>
	<line style="fill:none;stroke:#FF00FF;stroke-miterlimit:10;" x1="219.29" y1="304.43" x2="219.29" y2="322.18"/>
	<line style="fill:none;stroke:#FF00FF;stroke-miterlimit:10;" x1="302.54" y1="322.18" x2="219.29" y2="322.18"/>
	<line style="fill:none;stroke:#FF00FF;stroke-miterlimit:10;" x1="204.29" y1="304.43" x2="204.54" y2="322.18"/>
	<line style="fill:none;stroke:#FF00FF;stroke-miterlimit:10;" x1="219.29" y1="322.18" x2="204.54" y2="322.18"/>
	<line style="fill:none;stroke:#FF00FF;stroke-miterlimit:10;" x1="153.96" y1="304.43" x2="155.29" y2="322.18"/>
	<line style="fill:none;stroke:#FF00FF;stroke-miterlimit:10;" x1="204.54" y1="322.18" x2="155.29" y2="322.18"/>
	<line style="fill:none;stroke:#FF00FF;stroke-miterlimit:10;" x1="157.29" y1="346.18" x2="145.79" y2="346.18"/>
	<line style="fill:none;stroke:#FF00FF;stroke-miterlimit:10;" x1="145.79" y1="322.18" x2="145.79" y2="346.18"/>
	<line style="fill:none;stroke:#FF00FF;stroke-miterlimit:10;" x1="155.29" y1="322.18" x2="145.79" y2="322.18"/>
	<line style="fill:none;stroke:#FF00FF;stroke-miterlimit:10;" x1="134.79" y1="346.18" x2="145.79" y2="346.18"/>
	<line style="fill:none;stroke:#FF00FF;stroke-miterlimit:10;" x1="145.79" y1="383.18" x2="145.79" y2="346.18"/>
	<line style="fill:none;stroke:#FF00FF;stroke-miterlimit:10;" x1="134.79" y1="383.93" x2="145.79" y2="383.18"/>
	<line style="fill:none;stroke:#FF00FF;stroke-miterlimit:10;" x1="157.29" y1="386.6" x2="145.79" y2="383.18"/>
	<line style="fill:none;stroke:#FF00FF;stroke-miterlimit:10;" x1="145.79" y1="424.93" x2="145.79" y2="383.18"/>
	<line style="fill:none;stroke:#FF00FF;stroke-miterlimit:10;" x1="131.79" y1="424.93" x2="145.79" y2="424.93"/>
	<line style="fill:none;stroke:#FF00FF;stroke-miterlimit:10;" x1="156.29" y1="424.93" x2="145.79" y2="424.93"/>
	<line style="fill:none;stroke:#FF00FF;stroke-miterlimit:10;" x1="145.79" y1="454.93" x2="145.79" y2="424.93"/>
	<line style="fill:none;stroke:#FF00FF;stroke-miterlimit:10;" x1="130.71" y1="455.93" x2="145.79" y2="454.93"/>
	<line style="fill:none;stroke:#FF00FF;stroke-miterlimit:10;" x1="156.29" y1="459.93" x2="145.79" y2="454.93"/>
	<line style="fill:none;stroke:#FF00FF;stroke-miterlimit:10;" x1="145.79" y1="481.26" x2="145.79" y2="454.93"/>
	<line style="fill:none;stroke:#FF00FF;stroke-miterlimit:10;" x1="145.79" y1="322.18" x2="96.46" y2="321.43"/>
	<line style="fill:none;stroke:#FF00FF;stroke-miterlimit:10;" x1="96.46" y1="273.54" x2="96.46" y2="321.43"/>
	<line style="fill:none;stroke:#FF00FF;stroke-miterlimit:10;" x1="60.29" y1="318.93" x2="74.54" y2="320.18"/>
	<line style="fill:none;stroke:#FF00FF;stroke-miterlimit:10;" x1="74.54" y1="349.3" x2="74.54" y2="320.18"/>
	<line style="fill:none;stroke:#FF00FF;stroke-miterlimit:10;" x1="96.46" y1="321.43" x2="74.54" y2="320.18"/>
	<line style="fill:none;stroke:#FF00FF;stroke-miterlimit:10;" x1="87.79" y1="349.65" x2="74.54" y2="349.3"/>
	<line style="fill:none;stroke:#FF00FF;stroke-miterlimit:10;" x1="74.54" y1="375.76" x2="74.54" y2="349.3"/>
	<line style="fill:none;stroke:#FF00FF;stroke-miterlimit:10;" x1="87.79" y1="375.76" x2="74.54" y2="375.76"/>
	<line style="fill:none;stroke:#FF00FF;stroke-miterlimit:10;" x1="74.54" y1="402.33" x2="74.54" y2="375.76"/>
	<line style="fill:none;stroke:#FF00FF;stroke-miterlimit:10;" x1="87.79" y1="402.6" x2="74.54" y2="402.33"/>
	<line style="fill:none;stroke:#FF00FF;stroke-miterlimit:10;" x1="74.54" y1="429.38" x2="74.54" y2="402.33"/>
	<line style="fill:none;stroke:#FF00FF;stroke-miterlimit:10;" x1="87.79" y1="429.38" x2="74.54" y2="429.38"/>
	<line style="fill:none;stroke:#FF00FF;stroke-miterlimit:10;" x1="74.54" y1="456.93" x2="74.54" y2="429.38"/>
	<line style="fill:none;stroke:#FF00FF;stroke-miterlimit:10;" x1="87.79" y1="455.93" x2="74.54" y2="456.93"/>
	<line style="fill:none;stroke:#FF00FF;stroke-miterlimit:10;" x1="74.54" y1="481.26" x2="74.54" y2="456.93"/>
	<line style="fill:none;stroke:#FF00FF;stroke-miterlimit:10;" x1="48.29" y1="462.93" x2="48.29" y2="481.26"/>
	<line style="fill:none;stroke:#FF00FF;stroke-miterlimit:10;" x1="74.54" y1="481.26" x2="48.29" y2="481.26"/>
	<line style="fill:none;stroke:#FF00FF;stroke-miterlimit:10;" x1="145.79" y1="481.26" x2="74.54" y2="481.26"/>
	<line style="fill:none;stroke:#FF00FF;stroke-miterlimit:10;" x1="186.79" y1="500.43" x2="186.79" y2="481.26"/>
	<line style="fill:none;stroke:#FF00FF;stroke-miterlimit:10;" x1="145.79" y1="481.26" x2="186.79" y2="481.26"/>
	<line style="fill:none;stroke:#FF00FF;stroke-miterlimit:10;" x1="273.29" y1="499.93" x2="273.79" y2="481.26"/>
	<line style="fill:none;stroke:#FF00FF;stroke-miterlimit:10;" x1="186.79" y1="481.26" x2="273.79" y2="481.26"/>
	<line style="fill:none;stroke:#FF00FF;stroke-miterlimit:10;" x1="276.29" y1="392.26" x2="302.54" y2="392.26"/>
	<line style="fill:none;stroke:#FF00FF;stroke-miterlimit:10;" x1="277.29" y1="412.23" x2="302.54" y2="412.23"/>
	<line style="fill:none;stroke:#FF00FF;stroke-miterlimit:10;" x1="302.54" y1="392.26" x2="302.54" y2="412.23"/>
	<line style="fill:none;stroke:#FF00FF;stroke-miterlimit:10;" x1="326.17" y1="404.23" x2="302.54" y2="412.23"/>
	<line style="fill:none;stroke:#FF00FF;stroke-miterlimit:10;" x1="326.17" y1="468.93" x2="302.54" y2="470.43"/>
	<line style="fill:none;stroke:#FF00FF;stroke-miterlimit:10;" x1="302.54" y1="412.23" x2="302.54" y2="470.43"/>
	<line style="fill:none;stroke:#FF00FF;stroke-miterlimit:10;" x1="273.79" y1="481.26" x2="302.54" y2="481.26"/>
	<line style="fill:none;stroke:#FF00FF;stroke-miterlimit:10;" x1="302.54" y1="470.43" x2="302.54" y2="481.26"/>
	<line style="fill:none;stroke:#FF00FF;stroke-miterlimit:10;" x1="302.54" y1="497.31" x2="302.54" y2="481.26"/>
	<line style="fill:none;stroke:#FF00FF;stroke-miterlimit:10;" x1="427.63" y1="497.31" x2="302.54" y2="497.31"/>
	<line style="fill:none;stroke:#FF00FF;stroke-miterlimit:10;" x1="427.63" y1="466.65" x2="427.63" y2="497.31"/>
	<line style="fill:none;stroke:#FF00FF;stroke-miterlimit:10;" x1="437.79" y1="466.76" x2="427.63" y2="466.65"/>
	<line style="fill:none;stroke:#FF00FF;stroke-miterlimit:10;" x1="412.79" y1="466.54" x2="427.63" y2="466.65"/>
	<line style="fill:none;stroke:#FF00FF;stroke-miterlimit:10;" x1="427.63" y1="435.93" x2="427.63" y2="466.65"/>
	<line style="fill:none;stroke:#FF00FF;stroke-miterlimit:10;" x1="412.79" y1="435.93" x2="427.63" y2="435.93"/>
	<line style="fill:none;stroke:#FF00FF;stroke-miterlimit:10;" x1="437.79" y1="435.93" x2="427.63" y2="435.93"/>
	<line style="fill:none;stroke:#FF00FF;stroke-miterlimit:10;" x1="427.63" y1="406.6" x2="427.63" y2="435.93"/>
	<line style="fill:none;stroke:#FF00FF;stroke-miterlimit:10;" x1="412.79" y1="406.6" x2="427.63" y2="406.6"/>
	<line style="fill:none;stroke:#FF00FF;stroke-miterlimit:10;" x1="437.79" y1="406.6" x2="427.63" y2="406.6"/>
	<line style="fill:none;stroke:#FF00FF;stroke-miterlimit:10;" x1="427.63" y1="378.24" x2="427.63" y2="406.6"/>
	<line style="fill:none;stroke:#FF00FF;stroke-miterlimit:10;" x1="437.79" y1="378.24" x2="427.63" y2="378.24"/>
	<line style="fill:none;stroke:#FF00FF;stroke-miterlimit:10;" x1="412.79" y1="378.24" x2="427.63" y2="378.24"/>
	<line style="fill:none;stroke:#FF00FF;stroke-miterlimit:10;" x1="427.63" y1="349.48" x2="427.63" y2="378.24"/>
	<line style="fill:none;stroke:#FF00FF;stroke-miterlimit:10;" x1="437.79" y1="349.65" x2="427.63" y2="349.48"/>
	<line style="fill:none;stroke:#FF00FF;stroke-miterlimit:10;" x1="412.79" y1="349.65" x2="427.63" y2="349.48"/>
	<line style="fill:none;stroke:#FF00FF;stroke-miterlimit:10;" x1="427.63" y1="322.18" x2="427.63" y2="349.48"/>
	<line style="fill:none;stroke:#FF00FF;stroke-miterlimit:10;" x1="427.63" y1="306.43" x2="427.63" y2="322.18"/>
	<line style="fill:none;stroke:#FF00FF;stroke-miterlimit:10;" x1="302.54" y1="322.18" x2="427.63" y2="322.18"/>
	<line style="fill:none;stroke:#FF00FF;stroke-miterlimit:10;" x1="458.79" y1="305.93" x2="458.79" y2="322.18"/>
	<line style="fill:none;stroke:#FF00FF;stroke-miterlimit:10;" x1="427.63" y1="322.18" x2="458.79" y2="322.18"/>
	<line style="fill:none;stroke:#FF00FF;stroke-miterlimit:10;" x1="505.04" y1="322.18" x2="458.79" y2="322.18"/>
	<line style="fill:none;stroke:#FF00FF;stroke-miterlimit:10;" x1="505.04" y1="348.43" x2="505.04" y2="322.18"/>
	<line style="fill:none;stroke:#FF00FF;stroke-miterlimit:10;" x1="490.79" y1="349.3" x2="505.04" y2="348.43"/>
	<line style="fill:none;stroke:#FF00FF;stroke-miterlimit:10;" x1="518.79" y1="349.48" x2="505.04" y2="348.43"/>
	<line style="fill:none;stroke:#FF00FF;stroke-miterlimit:10;" x1="505.04" y1="378.24" x2="505.04" y2="348.43"/>
	<line style="fill:none;stroke:#FF00FF;stroke-miterlimit:10;" x1="518.79" y1="378.24" x2="505.04" y2="378.24"/>
	<line style="fill:none;stroke:#FF00FF;stroke-miterlimit:10;" x1="490.79" y1="378.24" x2="505.04" y2="378.24"/>
	<line style="fill:none;stroke:#FF00FF;stroke-miterlimit:10;" x1="542.07" y1="305.43" x2="542.07" y2="322.18"/>
	<line style="fill:none;stroke:#FF00FF;stroke-miterlimit:10;" x1="505.04" y1="322.18" x2="542.07" y2="322.18"/>
	<line style="fill:none;stroke:#FF00FF;stroke-miterlimit:10;" x1="577.29" y1="305.43" x2="587.04" y2="322.18"/>
	<line style="fill:none;stroke:#FF00FF;stroke-miterlimit:10;" x1="542.07" y1="322.18" x2="587.04" y2="322.18"/>
	<line style="fill:none;stroke:#FF00FF;stroke-miterlimit:10;" x1="505.04" y1="406.6" x2="505.04" y2="378.24"/>
	<line style="fill:none;stroke:#FF00FF;stroke-miterlimit:10;" x1="518.79" y1="406.6" x2="505.04" y2="406.6"/>
	<line style="fill:none;stroke:#FF00FF;stroke-miterlimit:10;" x1="490.79" y1="406.6" x2="505.04" y2="406.6"/>
	<line style="fill:none;stroke:#FF00FF;stroke-miterlimit:10;" x1="505.04" y1="435.26" x2="505.04" y2="406.6"/>
	<line style="fill:none;stroke:#FF00FF;stroke-miterlimit:10;" x1="490.29" y1="433.43" x2="505.04" y2="435.26"/>
	<line style="fill:none;stroke:#FF00FF;stroke-miterlimit:10;" x1="516.79" y1="435.93" x2="505.04" y2="435.26"/>
	<line style="fill:none;stroke:#FF00FF;stroke-miterlimit:10;" x1="505.04" y1="467.11" x2="505.04" y2="435.26"/>
	<line style="fill:none;stroke:#FF00FF;stroke-miterlimit:10;" x1="516.79" y1="465.99" x2="505.04" y2="467.11"/>
	<line style="fill:none;stroke:#FF00FF;stroke-miterlimit:10;" x1="489.29" y1="467.46" x2="505.04" y2="467.11"/>
	<line style="fill:none;stroke:#FF00FF;stroke-miterlimit:10;" x1="505.04" y1="497.31" x2="505.04" y2="467.11"/>
	<line style="fill:none;stroke:#FF00FF;stroke-miterlimit:10;" x1="427.63" y1="497.31" x2="505.04" y2="497.31"/>
	<line style="fill:none;stroke:#FF00FF;stroke-miterlimit:10;" x1="587.04" y1="322.18" x2="587.04" y2="349.65"/>
	<line style="fill:none;stroke:#FF00FF;stroke-miterlimit:10;" x1="570.29" y1="349.65" x2="587.04" y2="349.65"/>
	<line style="fill:none;stroke:#FF00FF;stroke-miterlimit:10;" x1="587.04" y1="378.24" x2="587.04" y2="349.65"/>
	<line style="fill:none;stroke:#FF00FF;stroke-miterlimit:10;" x1="570.29" y1="378.24" x2="587.04" y2="378.24"/>
	<line style="fill:none;stroke:#FF00FF;stroke-miterlimit:10;" x1="587.04" y1="406.59" x2="587.04" y2="378.24"/>
	<line style="fill:none;stroke:#FF00FF;stroke-miterlimit:10;" x1="570.29" y1="406.6" x2="587.04" y2="406.59"/>
	<line style="fill:none;stroke:#FF00FF;stroke-miterlimit:10;" x1="587.04" y1="434.6" x2="587.04" y2="406.59"/>
	<line style="fill:none;stroke:#FF00FF;stroke-miterlimit:10;" x1="570.29" y1="434.6" x2="587.04" y2="434.6"/>
	<line style="fill:none;stroke:#FF00FF;stroke-miterlimit:10;" x1="570.29" y1="465.99" x2="587.04" y2="465.99"/>
	<line style="fill:none;stroke:#FF00FF;stroke-miterlimit:10;" x1="505.04" y1="497.31" x2="587.04" y2="495.68"/>
	<line style="fill:none;stroke:#FF00FF;stroke-miterlimit:10;" x1="587.04" y1="465.99" x2="587.04" y2="495.68"/>
	<line style="fill:none;stroke:#FF00FF;stroke-miterlimit:10;" x1="326.18" y1="294.76" x2="302.54" y2="294.76"/>
	<line style="fill:none;stroke:#FF00FF;stroke-miterlimit:10;" x1="302.54" y1="392.26" x2="302.54" y2="322.18"/>
	<line style="fill:none;stroke:#FF00FF;stroke-miterlimit:10;" x1="599.42" y1="445.06" x2="587.04" y2="445.14"/>
	<line style="fill:none;stroke:#FF00FF;stroke-miterlimit:10;" x1="587.04" y1="434.6" x2="587.04" y2="445.14"/>
	<line style="fill:none;stroke:#FF00FF;stroke-miterlimit:10;" x1="587.04" y1="465.99" x2="587.04" y2="445.14"/>
</g>
</svg>
