<?xml version="1.0" encoding="utf-8"?>
<!-- Generator: Adobe Illustrator 19.2.1, SVG Export Plug-In . SVG Version: 6.00 Build 0)  -->
<svg version="1.1" id="Layer_1" xmlns="http://www.w3.org/2000/svg" xmlns:xlink="http://www.w3.org/1999/xlink" x="0px" y="0px"
	 width="428.36px" height="935.41px" viewBox="0 0 428.36 935.41" style="enable-background:new 0 0 428.36 935.41;"
	 xml:space="preserve">
<g id="Base">
	<polyline id="Circulation" style="fill:#D3D3D3;stroke:#000000;stroke-miterlimit:10;" points="3.22,313.33 12.01,318.5 
		81.84,199.39 72.56,193.78 74.93,189.35 105.98,208.5 166.51,207.96 166.54,160.91 360.54,160.91 359.96,356.91 422.04,350.41 
		422.04,419.41 361.04,413.04 360.54,730.91 341.54,730.91 342.04,796.91 254.54,796.91 255.04,824.91 220.54,824.91 220.29,796.91 
		108.54,796.91 108.79,934.91 68.54,934.91 69.01,811.75 50.54,798.41 70.87,765.08 51.54,753.08 70.87,721.08 51.54,708.75 
		70.54,677.08 52.21,664.79 71.87,632.75 51.87,621.41 71.87,589.75 51.54,578.08 71.04,545.08 51.87,532.75 71.04,502.08 
		52.21,489.41 71.04,457.41 51.87,445.08 71.04,414.08 54.29,405.91 23.54,405.91 0.54,317.91 3.22,313.33 	"/>
	<polygon id="Restroom" style="fill:#00CCCC;stroke:#000000;stroke-miterlimit:10;" points="196.04,302.91 196.04,290.91 
		222.04,290.91 222.04,364.91 167.04,364.91 167.04,302.91 	"/>
	<polygon id="Restroom_1_" style="fill:#00CCCC;stroke:#000000;stroke-miterlimit:10;" points="166.54,195.91 221.04,195.91 
		221.04,267.91 196.54,267.91 196.6,257.91 167.04,257.66 	"/>
	<rect id="Stairs" x="166.54" y="160.41" style="fill:#4c4c4c;stroke:#000000;stroke-miterlimit:10;" width="80" height="35"/>
	<rect id="Elevator" x="246.04" y="341.41" style="fill:#B69F01;stroke:#000000;stroke-miterlimit:10;" width="32.5" height="23"/>
	<rect x="167.04" y="257.66" style="fill:none;stroke:#000000;stroke-miterlimit:10;" width="29" height="45.25"/>
	<rect x="108.04" y="317.91" style="fill:none;stroke:#000000;stroke-miterlimit:10;" width="59" height="47"/>
	<rect x="297.29" y="474.91" style="fill:none;stroke:#000000;stroke-miterlimit:10;" width="63.75" height="23.25"/>
	<rect x="260.64" y="646.66" style="fill:none;stroke:#000000;stroke-miterlimit:10;" width="73.9" height="33.75"/>
	<rect x="334.54" y="649.16" style="fill:none;stroke:#000000;stroke-miterlimit:10;" width="26" height="31.25"/>
	<rect x="177.54" y="673.91" style="fill:none;stroke:#000000;stroke-miterlimit:10;" width="44.25" height="29.25"/>
	<rect x="188.04" y="703.16" style="fill:none;stroke:#000000;stroke-miterlimit:10;" width="33.75" height="26.5"/>
	<rect x="108.29" y="703.16" style="fill:none;stroke:#000000;stroke-miterlimit:10;" width="79.75" height="26.5"/>
	
		<rect id="Stairs_1_" x="220.29" y="750.91" style="fill:#4c4c4c;stroke:#000000;stroke-miterlimit:10;" width="34.75" height="73.75"/>
	<polyline style="fill:none;stroke:#000000;stroke-miterlimit:10;" points="7.54,343.91 39.04,343.91 39.04,405.91 23.54,405.91 
		7.54,343.91 	"/>
	<polygon style="fill:none;stroke:#000000;stroke-miterlimit:10;" points="71.04,414.08 54.29,405.91 38.54,405.91 39.04,343.91 
		56.54,343.91 71.04,352.91 	"/>
	<line style="fill:none;stroke:#000000;stroke-miterlimit:10;" x1="108.79" y1="649.16" x2="108.29" y2="703.16"/>
	<line style="fill:none;stroke:#000000;stroke-miterlimit:10;" x1="221.79" y1="649.16" x2="221.79" y2="673.91"/>
	<line style="fill:none;stroke:#000000;stroke-miterlimit:10;" x1="315.2" y1="361.01" x2="315.16" y2="409.73"/>
	<line style="fill:none;stroke:#000000;stroke-miterlimit:10;" x1="278.04" y1="364.41" x2="277.54" y2="406.91"/>
	<line style="fill:none;stroke:#000000;stroke-miterlimit:10;" x1="69.01" y1="811.75" x2="108.54" y2="811.41"/>
	<polyline id="Stairs_3_" style="fill:#4c4c4c;stroke:#000000;stroke-miterlimit:10;" points="120.79,392.41 102.21,390.54 
		97.95,482.91 114.48,482.91 120.79,392.41 	"/>
	<line style="fill:none;stroke:#000000;stroke-miterlimit:10;" x1="150.04" y1="750.91" x2="150.04" y2="729.66"/>
</g>
<g id="Rooms">
	<g><rect id="Unknown" x="246.04" y="160.41" style="fill:#006699;stroke:#000000;stroke-miterlimit:10;" width="115" height="138.5"/></g>
	<a id="R113" xlink:href="#" >
		<g><polygon id="R113" style="fill:#001A72;stroke:#000000;stroke-miterlimit:10;" points="246.04,299.91 246.04,341.91 
		278.04,341.91 278.04,364.41 361.04,356.91 361.04,299.91 	"/></g>
	</a>
	<a id="R105" xlink:href="#" >
		<g><polygon id="R105" style="fill:#23B14D;stroke:#000000;stroke-miterlimit:10;" points="72.67,193.66 74.98,189.29 106.01,208.48 
		166.52,207.69 167.04,317.91 76.54,317.91 76.79,313.91 30.79,287.41 82.04,199.16 	"/></g>
	</a>
	<a id="R104" xlink:href="#" >
		<g><polygon id="R104" style="fill:#23B14D;stroke:#000000;stroke-miterlimit:10;" points="4.04,312.41 12.42,318.04 30.73,287.48 
		76.76,313.94 76.54,317.91 108.04,317.91 108.04,343.91 7.54,343.91 0.54,317.91 	"/></g>
	</a>
	<a id="R126" xlink:href="#" >
		<g><rect id="R126" x="245.54" y="680.41" style="fill:#993333;stroke:#000000;stroke-miterlimit:10;" width="38.5" height="50.75"/></g>
	</a>
	<a id="R125" xlink:href="#" >
		<g><rect id="R125" x="284.04" y="680.41" style="fill:#993333;stroke:#000000;stroke-miterlimit:10;" width="37" height="50.75"/></g>
	</a>
	<a id="R124" xlink:href="#" >
		<g><rect id="R124" x="321.04" y="680.41" style="fill:#993333;stroke:#000000;stroke-miterlimit:10;" width="39.5" height="50.75"/></g>
	</a>
	<a id="R127" xlink:href="#" >
		<g><rect id="R127" x="311.79" y="750.91" style="fill:#993333;stroke:#000000;stroke-miterlimit:10;" width="30.25" height="45.75"/></g>
	</a>
	<a id="R128" xlink:href="#" >
		<g><rect id="R128" x="284.04" y="750.91" style="fill:#993333;stroke:#000000;stroke-miterlimit:10;" width="27.75" height="45.75"/></g>
	</a>
	<a id="R129" xlink:href="#" >
		<g><rect id="R129" x="255.04" y="750.91" style="fill:#993333;stroke:#000000;stroke-miterlimit:10;" width="29" height="45.75"/></g>
	</a>
	<a id="R131" xlink:href="#" >
		<g><rect id="R131" x="177.54" y="750.91" style="fill:#993333;stroke:#000000;stroke-miterlimit:10;" width="42.75" height="45.75"/></g>
	</a>
	<a id="R132" xlink:href="#" >
		<g><rect id="R132" x="150.04" y="750.91" style="fill:#993333;stroke:#000000;stroke-miterlimit:10;" width="27.5" height="45.75"/></g>
	</a>
	<a id="R133" xlink:href="#" >
		<g><rect id="R133" x="108.29" y="750.91" style="fill:#993333;stroke:#000000;stroke-miterlimit:10;" width="41.75" height="45.75"/></g>
	</a>
	<a id="R138" xlink:href="#" >
		<g><rect id="R138" x="108.79" y="565.91" style="fill:#006699;stroke:#000000;stroke-miterlimit:10;" width="113" height="83.25"/></g>
	</a>
	<a id="R139" xlink:href="#" >
		<g><polygon id="R139" style="fill:#006699;stroke:#000000;stroke-miterlimit:10;" points="114.54,482.91 221.54,482.91 221.79,565.91 
		108.54,565.91 	"/></g>
	</a>
	<a id="R140" xlink:href="#" >
		<g><polygon id="R140" style="fill:#006699;stroke:#000000;stroke-miterlimit:10;" points="120.79,392.41 221.79,400.16 221.54,482.91 
		114.54,482.91 	"/></g>
	</a>
	<a id="R116" xlink:href="#" >
		<g><polygon id="R116" style="fill:#006699;stroke:#000000;stroke-miterlimit:10;" points="246.04,406.91 277.54,406.91 361.04,413.16 
		361.04,475.41 297.29,475.04 297.59,487.91 246.04,487.91 	"/></g>
	</a>
	<a id="R120" xlink:href="#" >
		<g><polygon id="R120" style="fill:#006699;stroke:#000000;stroke-miterlimit:10;" points="297.04,497.91 360.04,497.91 360.04,562.91 
		246.54,562.91 246.04,487.91 297.04,487.91 	"/></g>
	</a>
	<a id="R121" xlink:href="#" >
		<g><polygon id="R121" style="fill:#006699;stroke:#000000;stroke-miterlimit:10;" points="246.04,646.91 246.04,563.41 360.04,562.79 
		360.54,648.91 334.04,648.91 334.04,646.91 	"/></g>
	</a>
</g>

<g id="Labels">
	<text transform="matrix(1 0 0 1 12.0035 21.4133)" style="font-family:'OptimaLTStd'; font-size:25.7994px;">Volunteer State Community College </text>
	<text transform="matrix(1 0 0 1 133.1698 50.8744)" style="enable-background:new    ;"><tspan x="0" y="0" style="font-family:'OptimaLTStd'; font-size:25.7994px;">Wallace South </tspan><tspan x="3.61" y="30.96" style="font-family:'OptimaLTStd'; font-size:25.7994px;">FIRST FLOOR</tspan></text>
	<polyline id="swatch-blue" style="fill:#23B14D;" points="52.61,145.02 52.61,122.9 74.72,122.9 74.72,145.02 	"/>
	<polyline id="swatch-pink" style="fill:#993333;" points="210.06,111.67 210.06,89.55 232.17,89.55 232.17,111.67 	"/>
	<text id="legend-study" transform="matrix(1 0 0 1 79.2047 139.1819)" style="font-family:'OptimaLTStd'; font-size:16.5853px;">Computer Labs</text>
	
		<text id="legend-offices" transform="matrix(1 0 0 1 237.5347 105.8307)" style="font-family:'OptimaLTStd'; font-size:16.5853px;">Offices</text>
	<polyline id="swatch-pink_2_" style="fill:#006699;" points="78.17,111.67 78.17,89.55 100.28,89.55 100.28,111.67 	"/>
	
		<text id="legend-library" transform="matrix(1 0 0 1 104.4341 105.8307)" style="font-family:'OptimaLTStd'; font-size:16.5853px;">Classrooms</text>
	
		<text id="female2_1_" transform="matrix(1 0 0 1 188.0398 341.4132)" style="fill:#FFFFFF; font-family:'FontAwesome'; font-size:25.7994px;"></text>
	
		<text id="male1_1_" transform="matrix(1 0 0 1 188.0399 231.913)" style="fill:#FFFFFF; font-family:'FontAwesome'; font-size:25.7994px;"></text>
	<polyline id="Stairs_4_" style="fill:none;stroke:#FFFFFF;stroke-miterlimit:10;" points="212.79,185.89 212.79,181.89 
		212.79,181.94 208.62,181.94 208.62,177.94 204.46,177.94 204.46,173.94 200.29,173.94 200.29,169.94 	"/>
	
		<text id="elevator" transform="matrix(1 0 0 1 255.7901 357.9136)" style="fill:#FFFFFF; font-family:'FontAwesome'; font-size:14px;"></text>
	<polyline id="Stairs_2_" style="fill:none;stroke:#FFFFFF;stroke-miterlimit:10;" points="243.92,789.74 243.92,785.74 
		243.92,785.79 239.75,785.79 239.75,781.79 235.58,781.79 235.58,777.79 231.42,777.79 231.42,773.79 	"/>
	<polyline id="Stairs_5_" style="fill:none;stroke:#FFFFFF;stroke-miterlimit:10;" points="115.04,443.12 115.04,439.12 
		115.04,439.16 110.87,439.16 110.87,435.16 106.71,435.16 106.71,431.16 102.54,431.16 102.54,427.16 	"/>
	<text transform="matrix(1 0 0 1 149.5401 447.4131)" style="fill:#FFFFFF; font-family:'MyriadPro-Regular'; font-size:21px;">140</text>
	<text transform="matrix(1 0 0 1 149.5401 525.4131)" style="fill:#FFFFFF; font-family:'MyriadPro-Regular'; font-size:21px;">139</text>
	<text transform="matrix(1 0 0 1 148.1651 610.9131)" style="fill:#FFFFFF; font-family:'MyriadPro-Regular'; font-size:21px;">138</text>
	<text transform="matrix(1 0 0 1 284.0401 610.9131)" style="fill:#FFFFFF; font-family:'MyriadPro-Regular'; font-size:21px;">121</text>
	<text transform="matrix(1 0 0 1 284.0401 537.4131)" style="fill:#FFFFFF; font-family:'MyriadPro-Regular'; font-size:21px;">120</text>
	<text transform="matrix(1 0 0 1 278.5401 452.9131)" style="fill:#FFFFFF; font-family:'MyriadPro-Regular'; font-size:21px;">116</text>
	<text transform="matrix(1 0 0 1 115.5401 778.7654)" style="fill:#FFFFFF; font-family:'MyriadPro-Regular'; font-size:16px;">133</text>
	<text transform="matrix(1 0 0 1 151.0401 778.7653)" style="fill:#FFFFFF; font-family:'MyriadPro-Regular'; font-size:16px;">132</text>
	<text transform="matrix(1 0 0 1 188.0398 778.7649)" style="fill:#FFFFFF; font-family:'MyriadPro-Regular'; font-size:16px;">131</text>
	<text transform="matrix(1 0 0 1 256.0401 778.7653)" style="fill:#FFFFFF; font-family:'MyriadPro-Regular'; font-size:16px;">129</text>
	<text transform="matrix(1 0 0 1 284.0401 778.7653)" style="fill:#FFFFFF; font-family:'MyriadPro-Regular'; font-size:16px;">128</text>
	<text transform="matrix(1 0 0 1 314.1794 778.7653)" style="fill:#FFFFFF; font-family:'MyriadPro-Regular'; font-size:16px;">127</text>
	<text transform="matrix(1 0 0 1 326.9151 710.7654)" style="fill:#FFFFFF; font-family:'MyriadPro-Regular'; font-size:18px;">124</text>
	<text transform="matrix(1 0 0 1 288.0401 710.7653)" style="fill:#FFFFFF; font-family:'MyriadPro-Regular'; font-size:18px;">125</text>
	<text transform="matrix(1 0 0 1 252.0401 710.7653)" style="fill:#FFFFFF; font-family:'MyriadPro-Regular'; font-size:18px;">126</text>
	<text transform="matrix(1 0 0 1 288.0401 339.4131)" style="fill:#FFFFFF; font-family:'MyriadPro-Regular'; font-size:21px;">113</text>
	<text transform="matrix(1 0 0 1 94.2049 269.9131)" style="fill:#FFFFFF; font-family:'MyriadPro-Regular'; font-size:21px;">105</text>
	<text transform="matrix(1 0 0 1 30.7901 332.1631)" style="fill:#FFFFFF; font-family:'MyriadPro-Regular'; font-size:21px;">104</text>
	<polyline id="swatch-pink_1_" style="fill:#001A72;" points="209.91,145.02 209.91,122.9 232.02,122.9 232.02,145.02 	"/>
	
		<text id="legend-library_1_" transform="matrix(1 0 0 1 236.1724 139.1819)" style="font-family:'OptimaLTStd'; font-size:16.5853px;">Conference Rooms</text>
</g>
<g id="Doors">
	<line id="lcd.1" style="fill:none;stroke:#00FF00;stroke-miterlimit:10;" x1="112.04" y1="367.91" x2="120.79" y2="368.41"/>
	<line id="R104_1_" style="fill:none;stroke:#00FF00;stroke-miterlimit:10;" x1="84.04" y1="339.41" x2="82.54" y2="327.91"/>
	<line id="R105_1_" style="fill:none;stroke:#00FF00;stroke-miterlimit:10;" x1="92.04" y1="311.91" x2="98.92" y2="302.91"/>
	<line id="R113" style="fill:none;stroke:#00FF00;stroke-miterlimit:10;" x1="252.04" y1="309.91" x2="262.29" y2="315.69"/>
	<line id="R140_1_" style="fill:none;stroke:#00FF00;stroke-miterlimit:10;" x1="214.04" y1="447.41" x2="199.67" y2="443.12"/>
	<line id="R139_1_" style="fill:none;stroke:#00FF00;stroke-miterlimit:10;" x1="214.54" y1="524.41" x2="199.67" y2="520.41"/>
	<line id="R138_1_" style="fill:none;stroke:#00FF00;stroke-miterlimit:10;" x1="211.29" y1="607.54" x2="198.92" y2="605.85"/>
	<line id="R116_1_" style="fill:none;stroke:#00FF00;stroke-miterlimit:10;" x1="255.04" y1="447.41" x2="264.79" y2="445.27"/>
	<line id="R120_1_" style="fill:none;stroke:#00FF00;stroke-miterlimit:10;" x1="255.04" y1="524.41" x2="264.79" y2="519.91"/>
	<line id="R121_1_" style="fill:none;stroke:#00FF00;stroke-miterlimit:10;" x1="252.04" y1="607.54" x2="264.79" y2="602.91"/>
	<line id="R126_1_" style="fill:none;stroke:#00FF00;stroke-miterlimit:10;" x1="264.79" y1="726.91" x2="269.54" y2="719.41"/>
	<line id="R125_1_" style="fill:none;stroke:#00FF00;stroke-miterlimit:10;" x1="297.92" y1="727.91" x2="303.54" y2="719.41"/>
	<line id="R124_1_" style="fill:none;stroke:#00FF00;stroke-miterlimit:10;" x1="334.54" y1="726.91" x2="338.54" y2="716.41"/>
	<line id="R127_1_" style="fill:none;stroke:#00FF00;stroke-miterlimit:10;" x1="326.92" y1="754.41" x2="326.92" y2="763.91"/>
	<line id="R128_1_" style="fill:none;stroke:#00FF00;stroke-miterlimit:10;" x1="297.29" y1="754.41" x2="300.73" y2="763.91"/>
	<line id="R129_1_" style="fill:none;stroke:#00FF00;stroke-miterlimit:10;" x1="269.54" y1="754.41" x2="269.54" y2="763.91"/>
	<line id="R131_1_" style="fill:none;stroke:#00FF00;stroke-miterlimit:10;" x1="196.6" y1="754.41" x2="198.92" y2="763.91"/>
	<line id="R132_1_" style="fill:none;stroke:#00FF00;stroke-miterlimit:10;" x1="161.54" y1="754.41" x2="163.79" y2="766.41"/>
	<line id="R133_1_" style="fill:none;stroke:#00FF00;stroke-miterlimit:10;" x1="129.17" y1="756.41" x2="129.17" y2="763.91"/>
</g>
<g id="Portals">
	
		<line id="Elev.1.floor2" style="fill:none;stroke:#F7931E;stroke-miterlimit:10;" x1="262.29" y1="357.91" x2="262.29" y2="348.41"/>
	
		<line id="Stair.1.floor2" style="fill:none;stroke:#F7931E;stroke-miterlimit:10;" x1="104.43" y1="465.91" x2="110.65" y2="418.87"/>
</g>
<g id="Paths">
	<line style="fill:none;stroke:#FF00FF;stroke-miterlimit:10;" x1="104.43" y1="465.91" x2="98.92" y2="498.16"/>
	<line style="fill:none;stroke:#FF00FF;stroke-miterlimit:10;" x1="83.29" y1="498.16" x2="98.92" y2="498.16"/>
	<line style="fill:none;stroke:#FF00FF;stroke-miterlimit:10;" x1="83.29" y1="376.91" x2="83.29" y2="498.16"/>
	<line style="fill:none;stroke:#FF00FF;stroke-miterlimit:10;" x1="84.04" y1="339.41" x2="83.29" y2="376.91"/>
	<line style="fill:none;stroke:#FF00FF;stroke-miterlimit:10;" x1="92.04" y1="311.91" x2="95.48" y2="376.91"/>
	<line style="fill:none;stroke:#FF00FF;stroke-miterlimit:10;" x1="83.29" y1="376.91" x2="95.48" y2="376.91"/>
	<line style="fill:none;stroke:#FF00FF;stroke-miterlimit:10;" x1="112.04" y1="376.91" x2="95.48" y2="376.91"/>
	<line style="fill:none;stroke:#FF00FF;stroke-miterlimit:10;" x1="112.04" y1="367.91" x2="112.04" y2="376.91"/>
	<line style="fill:none;stroke:#FF00FF;stroke-miterlimit:10;" x1="252.04" y1="309.91" x2="233.04" y2="307.41"/>
	<line style="fill:none;stroke:#FF00FF;stroke-miterlimit:10;" x1="112.04" y1="376.91" x2="232.54" y2="381.91"/>
	<line style="fill:none;stroke:#FF00FF;stroke-miterlimit:10;" x1="233.04" y1="307.41" x2="232.54" y2="381.91"/>
	<line style="fill:none;stroke:#FF00FF;stroke-miterlimit:10;" x1="262.29" y1="357.91" x2="262.29" y2="382.91"/>
	<line style="fill:none;stroke:#FF00FF;stroke-miterlimit:10;" x1="232.54" y1="381.91" x2="262.29" y2="382.91"/>
	<line style="fill:none;stroke:#FF00FF;stroke-miterlimit:10;" x1="214.04" y1="447.41" x2="232.79" y2="447.41"/>
	<line style="fill:none;stroke:#FF00FF;stroke-miterlimit:10;" x1="232.54" y1="381.91" x2="232.79" y2="447.41"/>
	<line style="fill:none;stroke:#FF00FF;stroke-miterlimit:10;" x1="255.04" y1="447.41" x2="232.79" y2="447.41"/>
	<line style="fill:none;stroke:#FF00FF;stroke-miterlimit:10;" x1="214.54" y1="524.41" x2="232.54" y2="524.41"/>
	<line style="fill:none;stroke:#FF00FF;stroke-miterlimit:10;" x1="255.04" y1="524.41" x2="232.54" y2="524.41"/>
	<line style="fill:none;stroke:#FF00FF;stroke-miterlimit:10;" x1="232.79" y1="447.41" x2="232.54" y2="524.41"/>
	<line style="fill:none;stroke:#FF00FF;stroke-miterlimit:10;" x1="252.04" y1="607.54" x2="232.79" y2="606.69"/>
	<line style="fill:none;stroke:#FF00FF;stroke-miterlimit:10;" x1="211.29" y1="607.54" x2="232.79" y2="606.69"/>
	<line style="fill:none;stroke:#FF00FF;stroke-miterlimit:10;" x1="232.54" y1="524.41" x2="232.79" y2="606.69"/>
	<line style="fill:none;stroke:#FF00FF;stroke-miterlimit:10;" x1="234.54" y1="740.29" x2="232.79" y2="606.69"/>
	<line style="fill:none;stroke:#FF00FF;stroke-miterlimit:10;" x1="264.79" y1="726.91" x2="264.79" y2="740.29"/>
	<line style="fill:none;stroke:#FF00FF;stroke-miterlimit:10;" x1="234.54" y1="740.29" x2="264.79" y2="740.29"/>
	<line style="fill:none;stroke:#FF00FF;stroke-miterlimit:10;" x1="269.54" y1="754.41" x2="264.79" y2="740.29"/>
	<line style="fill:none;stroke:#FF00FF;stroke-miterlimit:10;" x1="297.92" y1="727.91" x2="299.01" y2="740.29"/>
	<line style="fill:none;stroke:#FF00FF;stroke-miterlimit:10;" x1="297.29" y1="754.41" x2="299.01" y2="740.29"/>
	<line style="fill:none;stroke:#FF00FF;stroke-miterlimit:10;" x1="264.79" y1="740.29" x2="299.01" y2="740.29"/>
	<line style="fill:none;stroke:#FF00FF;stroke-miterlimit:10;" x1="326.92" y1="754.41" x2="324.54" y2="740.29"/>
	<line style="fill:none;stroke:#FF00FF;stroke-miterlimit:10;" x1="299.01" y1="740.29" x2="324.54" y2="740.29"/>
	<line style="fill:none;stroke:#FF00FF;stroke-miterlimit:10;" x1="334.54" y1="726.91" x2="324.54" y2="740.29"/>
	<line style="fill:none;stroke:#FF00FF;stroke-miterlimit:10;" x1="196.6" y1="754.41" x2="197.76" y2="740.29"/>
	<line style="fill:none;stroke:#FF00FF;stroke-miterlimit:10;" x1="234.54" y1="740.29" x2="197.76" y2="740.29"/>
	<line style="fill:none;stroke:#FF00FF;stroke-miterlimit:10;" x1="161.54" y1="754.41" x2="160.54" y2="740.29"/>
	<line style="fill:none;stroke:#FF00FF;stroke-miterlimit:10;" x1="197.76" y1="740.29" x2="160.54" y2="740.29"/>
	<line style="fill:none;stroke:#FF00FF;stroke-miterlimit:10;" x1="129.17" y1="756.41" x2="129.17" y2="740.29"/>
	<line style="fill:none;stroke:#FF00FF;stroke-miterlimit:10;" x1="160.54" y1="740.29" x2="129.17" y2="740.29"/>
	<line style="fill:none;stroke:#FF00FF;stroke-miterlimit:10;" x1="83.67" y1="740.29" x2="129.17" y2="740.29"/>
	<line style="fill:none;stroke:#FF00FF;stroke-miterlimit:10;" x1="83.29" y1="498.16" x2="83.67" y2="740.29"/>
</g>
</svg>
