<?xml version="1.0" encoding="utf-8"?>
<!-- Generator: Adobe Illustrator 19.2.1, SVG Export Plug-In . SVG Version: 6.00 Build 0)  -->
<svg version="1.1" id="Layer_1" xmlns="http://www.w3.org/2000/svg" xmlns:xlink="http://www.w3.org/1999/xlink" x="0px" y="0px"
	 width="397.18px" height="799.92px" viewBox="0 0 397.18 799.92" style="enable-background:new 0 0 397.18 799.92;"
	 xml:space="preserve">
<g id="Base">
	<polygon id="Circulation" style="fill:#D3D3D3;stroke:#000000;stroke-miterlimit:10;" points="290.03,162.42 252.03,162.42 
		251.78,225.42 111.03,225.42 111.28,268.42 123.03,268.42 122.78,299.42 111.03,299.42 112.03,478.42 128.03,478.42 127.9,492.42 
		112.03,492.42 112.03,572.42 123.03,572.42 123.03,604.92 112.03,605.17 112.03,647.42 135.03,647.42 135.03,681.92 18.03,681.42 
		18.03,791.92 254.96,792 256.03,718.42 376.03,718.42 375.88,674.92 364.03,674.67 363.78,643.42 376.03,643.42 375.63,601.42 
		359.03,601.42 358.53,341.42 376.03,341.42 376.03,300.42 363.53,300.42 363.03,268.42 375.03,268.42 375.03,224.92 289.53,225.42 
			"/>
	
		<rect x="243.53" y="225.42" transform="matrix(-1 -8.984825e-11 8.984825e-11 -1 514.3018 491.8477)" style="fill:none;stroke:#000000;stroke-miterlimit:10;" width="27.25" height="41"/>
	
		<rect x="219.28" y="225.42" transform="matrix(-1 -8.978697e-11 8.978697e-11 -1 462.8018 491.8477)" style="fill:none;stroke:#000000;stroke-miterlimit:10;" width="24.25" height="41"/>
	
		<rect x="111.28" y="225.42" transform="matrix(-1 -8.982516e-11 8.982516e-11 -1 250.0518 493.8477)" style="fill:none;stroke:#000000;stroke-miterlimit:10;" width="27.5" height="43"/>
	
		<rect x="205.53" y="266.42" transform="matrix(-1 -8.977498e-11 8.977498e-11 -1 459.0518 547.8477)" style="fill:none;stroke:#000000;stroke-miterlimit:10;" width="48" height="15"/>
	
		<rect x="289.78" y="225.42" transform="matrix(-1 -8.978253e-11 8.978253e-11 -1 592.8018 476.0977)" style="fill:none;stroke:#000000;stroke-miterlimit:10;" width="13.25" height="25.25"/>
	
		<rect id="Stairs" x="251.78" y="162.92" transform="matrix(-1 -8.980074e-11 8.980074e-11 -1 541.5518 388.3477)" style="fill:#4c4c4c;stroke:#000000;stroke-miterlimit:10;" width="38" height="62.5"/>
	<polygon id="Stairs_1_" style="fill:#4c4c4c;stroke:#000000;stroke-miterlimit:10;" points="18.03,717.42 18.03,681.42 
		38.03,681.42 38.03,703.42 61.03,703.42 61.03,717.42 	"/>
	<polyline id="Restroom_1_" style="fill:#00CCCC;stroke:#000000;stroke-miterlimit:10;" points="141.53,792.42 112.03,792.42 
		112.03,776.42 97.03,776.42 97.03,752.42 142.03,752.42 141.92,792 	"/>
	
		<rect x="49.53" y="718.42" transform="matrix(-1 -8.979185e-11 8.979185e-11 -1 132.0518 1456.0977)" style="fill:none;stroke:#000000;stroke-miterlimit:10;" width="33" height="19.25"/>
	
		<rect x="49.53" y="737.67" transform="matrix(-1 -8.979185e-11 8.979185e-11 -1 132.0518 1490.0977)" style="fill:none;stroke:#000000;stroke-miterlimit:10;" width="33" height="14.75"/>
	
		<rect x="18.53" y="718.42" transform="matrix(-1 -8.977587e-11 8.977587e-11 -1 68.0518 1456.0977)" style="fill:none;stroke:#000000;stroke-miterlimit:10;" width="31" height="19.25"/>
	
		<rect x="18.53" y="737.67" transform="matrix(-1 -8.977587e-11 8.977587e-11 -1 68.0518 1490.0977)" style="fill:none;stroke:#000000;stroke-miterlimit:10;" width="31" height="14.75"/>
	
		<rect x="18.53" y="752.42" transform="matrix(-1 -8.978430e-11 8.978430e-11 -1 101.0518 1544.8477)" style="fill:#00CCCC;stroke:#000000;stroke-miterlimit:10;" width="64" height="40"/>
	
		<rect x="121.53" y="707.17" transform="matrix(-1 -8.979807e-11 8.979807e-11 -1 263.6931 1436.5977)" style="fill:none;stroke:#000000;stroke-miterlimit:10;" width="20.64" height="22.25"/>
	
		<rect x="96.28" y="707.17" transform="matrix(-1 -8.976077e-11 8.976077e-11 -1 217.8018 1430.5977)" style="fill:none;stroke:#000000;stroke-miterlimit:10;" width="25.25" height="16.25"/>
	
		<rect x="256.03" y="696.12" transform="matrix(-1 -8.977098e-11 8.977098e-11 -1 547.5518 1414.5433)" style="fill:none;stroke:#000000;stroke-miterlimit:10;" width="35.5" height="22.3"/>
	
		<rect x="292.09" y="703.11" transform="matrix(-1 -8.982694e-11 8.982694e-11 -1 599.3643 1421.4102)" style="fill:none;stroke:#000000;stroke-miterlimit:10;" width="15.19" height="15.19"/>
	
		<rect x="291.53" y="692.67" transform="matrix(-1 -8.985225e-11 8.985225e-11 -1 598.8018 1395.7852)" style="fill:none;stroke:#000000;stroke-miterlimit:10;" width="15.75" height="10.44"/>
	<polygon id="Elevator" style="fill:#B3A200;stroke:#000000;stroke-miterlimit:10;" points="254.53,626.42 233.53,626.05 
		233.53,647.42 254.53,647.42 	"/>
	<line style="fill:none;stroke:#000000;stroke-miterlimit:10;" x1="107.03" y1="752.42" x2="106.78" y2="723.42"/>
	<line style="fill:none;stroke:#000000;stroke-miterlimit:10;" x1="97.53" y1="766.92" x2="82.53" y2="767.17"/>
	<line style="fill:none;stroke:#000000;stroke-miterlimit:10;" x1="82.53" y1="718.42" x2="82.53" y2="681.92"/>
	<polyline style="fill:none;stroke:#000000;stroke-miterlimit:10;" points="206.53,281.42 183.03,281.42 183.03,299.42 
		169.03,299.42 169.03,265.92 205.53,266.42 	"/>
	<polyline id="LearningCommons" style="fill:#A349A3;stroke:#000000;stroke-miterlimit:10;" points="198.03,561.92 198.03,612.42 
		182.03,612.42 182.03,639.42 144.03,639.42 143.53,572.92 112.03,572.42 112.03,491.92 127.65,492.42 128.03,478.42 112.03,478.42 
		111.28,325.42 170.03,325.42 169.53,299.42 184.03,299.42 183.53,281.42 254.03,281.42 253.03,562.42 	"/>
	<polygon id="Library" style="fill:#006699;stroke:#000000;stroke-miterlimit:10;" points="291.44,647.57 254.03,647.42 
		254.03,626.42 233.03,626.42 233.03,612.42 253.03,612.42 253.53,266.42 271.03,266.42 270.78,225.42 290.03,225.42 289.78,250.42 
		303.03,250.42 303.03,267.92 362.78,268.42 363.53,300.42 377.03,300.42 376.53,341.42 359.03,341.42 359.03,600.92 346.38,600.59 
		345.99,649.26 364.03,649.42 364.03,667.42 346.03,667.42 346.29,718.42 337.53,718.42 336.02,618.6 291.53,618.42 	"/>
	
		<text id="female2_1_" transform="matrix(1 0 0 1 39.5259 781.8086)" style="fill:#FFFFFF; font-family:'FontAwesome'; font-size:25.7994px;"></text>
	
		<text id="male1_1_" transform="matrix(1 0 0 1 119.5259 780.141)" style="fill:#FFFFFF; font-family:'FontAwesome'; font-size:25.7994px;"></text>
	
		<rect id="Stairs_2_" x="308.29" y="448.42" transform="matrix(-1 -8.978875e-11 8.978875e-11 -1 667.2546 947.5143)" style="fill:#4c4c4c;stroke:#000000;stroke-miterlimit:10;" width="50.67" height="50.67"/>
	
		<text id="elevator" transform="matrix(1 0 0 1 237.5258 640.8372)" style="fill:#FFFFFF; font-family:'FontAwesome'; font-size:14px;"></text>
</g>
<g id="Rooms">
	
	<a id="R103" xlink:href="#" >
		<g><rect id="R103" x="156.57" y="693.36" transform="matrix(2.244827e-10 -1 1 2.244827e-10 -551.1914 948.5693)" style="fill:#23B14D;stroke:#000000;stroke-miterlimit:10;" width="84.24" height="113.04"/></g>
	</a>
	
	<a id="R130" xlink:href="#" >
		<g><polygon id="R130" style="fill:#993333;stroke:#000000;stroke-miterlimit:10;" points="376.53,624.3 346.85,624.38 
	346.85,600.47 376.53,600.38 	"/></g>
	</a>
	
	<a id="R129" xlink:href="#" >
		<g><polygon id="R129" style="fill:#993333;stroke:#000000;stroke-miterlimit:10;" points="376.03,641.92 376.03,624.42 
	346.03,624.42 346.03,649.42 364.53,649.42 364.44,643.42 376.03,643.42 	"/></g>
	</a>
	
	<a id="R128" xlink:href="#" >
		<g><polygon id="R128" style="fill:#993333;stroke:#000000;stroke-miterlimit:10;" points="376.03,695.42 346.03,695.42 
	346.03,667.42 364.03,667.42 364.03,674.42 375.88,674.42 	"/></g>
	</a>
	
	<a id="R136" xlink:href="#" >
		<g><rect id="R136" x="346.29" y="696.12" transform="matrix(-1 -8.974789e-11 8.974789e-11 -1 721.9213 1414.5433)" style="fill:#993333;stroke:#000000;stroke-miterlimit:10;" width="29.35" height="22.3"/></g>
	</a>
	
	<a id="R123" xlink:href="#" >
		<g><rect id="R123" x="182.03" y="612.42" style="fill:#993333;stroke:#000000;stroke-miterlimit:10;" width="51" height="35"/></g>
	</a>
	
	<a id="R126" xlink:href="#" >
		<g><polygon id="R126" style="fill:#993333;stroke:#000000;stroke-miterlimit:10;" points="198.69,562.42 253.28,562.42 
	253.36,612.51 198.77,612.51 	"/></g>
	</a>
	
	<a id="R124" xlink:href="#" >
		<g><rect id="R124" x="123.03" y="572.92" transform="matrix(-1 -8.976610e-11 8.976610e-11 -1 266.8018 1178.0977)" style="fill:#993333;stroke:#000000;stroke-miterlimit:10;" width="20.75" height="32.25"/></g>
	</a>
	
	<a id="R115" xlink:href="#" >
		<g><rect id="R115" x="303.03" y="225.42" transform="matrix(-1 -8.977276e-11 8.977276e-11 -1 640.0518 493.8477)" style="fill:#993333;stroke:#000000;stroke-miterlimit:10;" width="34" height="43"/></g>
	</a>
	
	<a id="R114" xlink:href="#" >
		<g><rect id="R114" x="337.03" y="225.42" transform="matrix(-1 -8.981584e-11 8.981584e-11 -1 712.5518 493.8477)" style="fill:#993333;" width="38.5" height="43"/></g>
	</a>
	
	<a id="R113" xlink:href="#" >
		<g><rect id="R113" x="337.03" y="225.42" transform="matrix(-1 -8.981584e-11 8.981584e-11 -1 712.5518 493.8477)" style="fill:#993333;stroke:#000000;stroke-miterlimit:10;" width="38.5" height="43"/></g>
	</a>
	
	<a id="R107" xlink:href="#" >
		<g><polygon id="R107" style="fill:#993333;stroke:#000000;stroke-miterlimit:10;" points="307.03,692.42 291.03,692.42 
	291.03,618.42 335.77,618.6 337.28,718.42 307.03,718.3 	"/></g>
	</a>
	
	<a id="R125" xlink:href="#" >
		<g><rect id="R125" x="112.53" y="605.17" transform="matrix(-1 -8.975633e-11 8.975633e-11 -1 256.3018 1253.0977)" style="fill:#993333;stroke:#000000;stroke-miterlimit:10;" width="31.25" height="42.75"/></g>
	</a>

</g>
<g id="Doors">
	<line id="R103" style="fill:none;stroke:#00FF00;stroke-miterlimit:10;" x1="158.42" y1="715.3" x2="165.19" y2="725.59"/>
	<line id="R107" style="fill:none;stroke:#00FF00;stroke-miterlimit:10;" x1="299.68" y1="622.42" x2="305.28" y2="632.51"/>
	<line id="R136" style="fill:none;stroke:#00FF00;stroke-miterlimit:10;" x1="361.69" y1="707.17" x2="354.01" y2="707.17"/>
	<line id="R128" style="fill:none;stroke:#00FF00;stroke-miterlimit:10;" x1="361.69" y1="685.92" x2="354.01" y2="685.92"/>
	<line id="R129" style="fill:none;stroke:#00FF00;stroke-miterlimit:10;" x1="361.69" y1="632.51" x2="350.03" y2="632.51"/>
	<line id="R130" style="fill:none;stroke:#00FF00;stroke-miterlimit:10;" x1="361.69" y1="612.38" x2="354.01" y2="612.42"/>
	<line id="R126" style="fill:none;stroke:#00FF00;stroke-miterlimit:10;" x1="215.53" y1="579.92" x2="211.03" y2="568.42"/>
	<line id="R123" style="fill:none;stroke:#00FF00;stroke-miterlimit:10;" x1="201.03" y1="620.92" x2="188.53" y2="624.38"/>
	<line id="R113" style="fill:none;stroke:#00FF00;stroke-miterlimit:10;" x1="346.53" y1="265.92" x2="346.85" y2="250.67"/>
	<line id="R114" style="fill:none;stroke:#00FF00;stroke-miterlimit:10;" x1="350.6" y1="263.46" x2="351.94" y2="249.8"/>
	<line id="lcd.1" style="fill:none;stroke:#00FF00;stroke-miterlimit:10;" x1="192.65" y1="652.59" x2="182.9" y2="652.59"/>
	<line id="R124" style="fill:none;stroke:#00FF00;stroke-miterlimit:10;" x1="138.78" y1="598.42" x2="128.15" y2="596.42"/>
	<line id="R125" style="fill:none;stroke:#00FF00;stroke-miterlimit:10;" x1="138.53" y1="624.42" x2="127.53" y2="623.38"/>
</g>
<g id="Labels">
	<text id="title" transform="matrix(1 0 0 1 -0.7093 21.4134)"><tspan x="0" y="0" style="font-family:'OptimaLTStd'; font-size:25.7994px;">Volunteer State Community College </tspan><tspan x="111.84" y="30.96" style="font-family:'OptimaLTStd'; font-size:25.7994px;">Thigpen Library </tspan><tspan x="121.9" y="61.92" style="font-family:'OptimaLTStd'; font-size:25.7994px;">FIRST FLOOR</tspan></text>
	<rect id="swatch-blue" x="29.49" y="94.97" style="fill:#001A72;" width="22.11" height="22.11"/>
	<rect id="swatch-pink" x="267.26" y="94.97" style="fill:#993333;" width="22.11" height="22.11"/>
	<text id="legend-study" transform="matrix(1 0 0 1 56.6598 111.2537)" style="font-family:'OptimaLTStd'; font-size:16.5853px;">Study Areas</text>
	
		<text id="legend-offices" transform="matrix(1 0 0 1 294.7336 111.2537)" style="font-family:'OptimaLTStd'; font-size:16.5853px;">Offices</text>
	
		<rect id="swatch-green" x="29.47" y="128.97" style="fill:#23B14D;stroke:#000000;stroke-miterlimit:10;" width="22.11" height="22.11"/>
	<text id="legend-conf" transform="matrix(1 0 0 1 57.2833 146.2537)" style="font-family:'OptimaLTStd'; font-size:16.5853px;">Conference Rooms</text>
	
		<rect id="swatch-pink_1_" x="211.37" y="128.2" style="fill:#A349A3;stroke:#000000;stroke-miterlimit:10;" width="22.11" height="22.11"/>
	
		<text id="legend-offices_1_" transform="matrix(1 0 0 1 239.6006 144.4798)" style="font-family:'OptimaLTStd'; font-size:16.5853px;">Learning Commons</text>
	<rect id="swatch-pink_2_" x="166.37" y="94.97" style="fill:#006699;" width="22.11" height="22.11"/>
	
		<text id="legend-library" transform="matrix(1 0 0 1 194.3057 111.2537)" style="font-family:'OptimaLTStd'; font-size:16.5853px;">Library</text>
	<text transform="matrix(1 0 0 1 163.4375 749.8804)"><tspan x="0" y="0" style="fill:#FFFFFF; font-family:'MyriadPro-Regular'; font-size:12px;">Rochelle Center </tspan><tspan x="30.19" y="14.4" style="fill:#FFFFFF; font-family:'MyriadPro-Regular'; font-size:12px;">103</tspan></text>
	<text transform="matrix(1 0 0 1 304.9169 657.9626)" style="fill:#FFFFFF; font-family:'MyriadPro-Regular'; font-size:12px;">107</text>
	<text transform="matrix(1 0 0 1 352.0637 711.4175)" style="fill:#FFFFFF; font-family:'MyriadPro-Regular'; font-size:12px;">136</text>
	<text transform="matrix(1 0 0 1 351.7268 687.7676)" style="fill:#FFFFFF; font-family:'MyriadPro-Regular'; font-size:12px;">128</text>
	<text transform="matrix(1 0 0 1 352.1253 637.8387)" style="fill:#FFFFFF; font-family:'MyriadPro-Regular'; font-size:12px;">129</text>
	<text transform="matrix(1 0 0 1 351.7921 615.5905)" style="fill:#FFFFFF; font-family:'MyriadPro-Regular'; font-size:12px;">130</text>
	<text transform="matrix(1 0 0 1 198.292 633.5106)" style="fill:#FFFFFF; font-family:'MyriadPro-Regular'; font-size:12px;">123</text>
	<text transform="matrix(1 0 0 1 216.79 591.0488)" style="fill:#FFFFFF; font-family:'MyriadPro-Regular'; font-size:12px;">126</text>
	<text transform="matrix(1 0 0 1 124.3818 591.0488)" style="fill:#FFFFFF; font-family:'MyriadPro-Regular'; font-size:11px;">124</text>
	<text transform="matrix(1 0 0 1 346.6235 242.4462)"><tspan x="0" y="0" style="fill:#FFFFFF; font-family:'MyriadPro-Regular'; font-size:12px;">113 </tspan><tspan x="0" y="14.4" style="fill:#FFFFFF; font-family:'MyriadPro-Regular'; font-size:12px;">114</tspan></text>
	<text transform="matrix(1 0 0 1 311.2295 249.6738)" style="fill:#FFFFFF; font-family:'MyriadPro-Regular'; font-size:12px;">115</text>
	<polyline id="Stairs_3_" style="fill:none;stroke:#FFFFFF;stroke-miterlimit:10;" points="277.03,202.15 277.03,198.15 
		277.03,198.2 272.86,198.2 272.86,194.2 268.69,194.2 268.69,190.2 264.53,190.2 264.53,186.2 	"/>
	<polyline id="Stairs_4_" style="fill:none;stroke:#FFFFFF;stroke-miterlimit:10;" points="341.59,479.9 341.59,475.9 
		341.59,475.95 337.42,475.95 337.42,471.95 333.26,471.95 333.26,467.95 329.09,467.95 329.09,463.95 	"/>
	<polyline id="Stairs_5_" style="fill:none;stroke:#FFFFFF;stroke-miterlimit:10;" points="36.36,707.4 36.36,703.4 36.36,703.45 
		32.19,703.45 32.19,699.45 28.03,699.45 28.03,695.45 23.86,695.45 23.86,691.45 	"/>
	<text transform="matrix(1 0 0 1 158.7615 424.9238)"><tspan x="0" y="0" style="fill:#FFFFFF; font-family:'MyriadPro-Regular'; font-size:14px;">Learning </tspan><tspan x="-4.28" y="16.8" style="fill:#FFFFFF; font-family:'MyriadPro-Regular'; font-size:14px;">Commons</tspan></text>
	<text transform="matrix(1 0 0 1 293.977 419.9238)" style="fill:#FFFFFF; font-family:'MyriadPro-Regular'; font-size:14px;">Library</text>
	<text transform="matrix(1 0 0 1 119.5615 629.9238)" style="fill:#FFFFFF; font-family:'MyriadPro-Regular'; font-size:11px;">125</text>
</g>
<g id="Portals">
	
		<line id="Stair.1.floor2_2_" style="fill:none;stroke:#00FF00;stroke-miterlimit:10;" x1="324.03" y1="473.76" x2="333.63" y2="483.26"/>
	
		<line id="Elev.1.floor2_2_" style="fill:none;stroke:#00FF00;stroke-miterlimit:10;" x1="244.03" y1="643.92" x2="244.03" y2="632.51"/>
</g>
<g id="Paths">
	<line style="fill:none;stroke:#FF00FF;stroke-miterlimit:10;" x1="299.68" y1="622.42" x2="299.68" y2="602.92"/>
	<line style="fill:none;stroke:#FF00FF;stroke-miterlimit:10;" x1="158.42" y1="672.42" x2="182.65" y2="672.42"/>
	<line style="fill:none;stroke:#FF00FF;stroke-miterlimit:10;" x1="188.53" y1="624.38" x2="158.42" y2="624.42"/>
	<line style="fill:none;stroke:#FF00FF;stroke-miterlimit:10;" x1="158.42" y1="715.3" x2="158.42" y2="672.42"/>
	<line style="fill:none;stroke:#FF00FF;stroke-miterlimit:10;" x1="182.65" y1="672.42" x2="273.78" y2="672.42"/>
	<line style="fill:none;stroke:#FF00FF;stroke-miterlimit:10;" x1="299.68" y1="602.92" x2="273.78" y2="602.92"/>
	<line style="fill:none;stroke:#FF00FF;stroke-miterlimit:10;" x1="244.03" y1="632.51" x2="244.03" y2="622.42"/>
	<line style="fill:none;stroke:#FF00FF;stroke-miterlimit:10;" x1="273.78" y1="602.92" x2="273.78" y2="622.42"/>
	<line style="fill:none;stroke:#FF00FF;stroke-miterlimit:10;" x1="244.03" y1="622.42" x2="273.78" y2="622.42"/>
	<line style="fill:none;stroke:#FF00FF;stroke-miterlimit:10;" x1="273.78" y1="672.42" x2="273.78" y2="622.42"/>
	<line style="fill:none;stroke:#FF00FF;stroke-miterlimit:10;" x1="158.42" y1="672.42" x2="158.42" y2="624.42"/>
	<line style="fill:none;stroke:#FF00FF;stroke-miterlimit:10;" x1="138.78" y1="598.42" x2="158.42" y2="597.42"/>
	<line style="fill:none;stroke:#FF00FF;stroke-miterlimit:10;" x1="158.42" y1="624.42" x2="158.42" y2="597.42"/>
	<line style="fill:none;stroke:#FF00FF;stroke-miterlimit:10;" x1="158.42" y1="554.26" x2="158.42" y2="597.42"/>
	<line style="fill:none;stroke:#FF00FF;stroke-miterlimit:10;" x1="354.01" y1="707.17" x2="342.03" y2="707.17"/>
	<line style="fill:none;stroke:#FF00FF;stroke-miterlimit:10;" x1="354.01" y1="685.92" x2="342.03" y2="685.92"/>
	<line style="fill:none;stroke:#FF00FF;stroke-miterlimit:10;" x1="342.03" y1="707.17" x2="342.03" y2="685.92"/>
	<line style="fill:none;stroke:#FF00FF;stroke-miterlimit:10;" x1="350.03" y1="632.51" x2="342.03" y2="632.51"/>
	<line style="fill:none;stroke:#FF00FF;stroke-miterlimit:10;" x1="342.03" y1="685.92" x2="342.03" y2="632.51"/>
	<line style="fill:none;stroke:#FF00FF;stroke-miterlimit:10;" x1="354.01" y1="612.42" x2="342.03" y2="612.38"/>
	<line style="fill:none;stroke:#FF00FF;stroke-miterlimit:10;" x1="342.03" y1="632.51" x2="342.03" y2="612.38"/>
	<line style="fill:none;stroke:#FF00FF;stroke-miterlimit:10;" x1="299.68" y1="602.92" x2="342.03" y2="602.92"/>
	<line style="fill:none;stroke:#FF00FF;stroke-miterlimit:10;" x1="342.03" y1="612.38" x2="342.03" y2="602.92"/>
	<line style="fill:none;stroke:#FF00FF;stroke-miterlimit:10;" x1="324.03" y1="473.76" x2="273.78" y2="473.76"/>
	<line style="fill:none;stroke:#FF00FF;stroke-miterlimit:10;" x1="273.78" y1="602.92" x2="273.78" y2="473.76"/>
	<line style="fill:none;stroke:#FF00FF;stroke-miterlimit:10;" x1="211.03" y1="568.42" x2="210.69" y2="554.26"/>
	<line style="fill:none;stroke:#FF00FF;stroke-miterlimit:10;" x1="210.69" y1="554.26" x2="158.42" y2="554.26"/>
	<line style="fill:none;stroke:#FF00FF;stroke-miterlimit:10;" x1="273.78" y1="473.76" x2="273.78" y2="282.67"/>
	<line style="fill:none;stroke:#FF00FF;stroke-miterlimit:10;" x1="346.53" y1="265.92" x2="343.69" y2="282.67"/>
	<line style="fill:none;stroke:#FF00FF;stroke-miterlimit:10;" x1="273.78" y1="282.67" x2="343.69" y2="282.67"/>
	<line style="fill:none;stroke:#FF00FF;stroke-miterlimit:10;" x1="350.6" y1="263.46" x2="343.69" y2="282.67"/>
	<line style="fill:none;stroke:#FF00FF;stroke-miterlimit:10;" x1="182.9" y1="652.59" x2="182.65" y2="672.42"/>
	<line style="fill:none;stroke:#FF00FF;stroke-miterlimit:10;" x1="138.53" y1="624.42" x2="158.42" y2="624.42"/>
</g>
</svg>
