<?xml version="1.0" encoding="utf-8"?>
<!-- Generator: Adobe Illustrator 19.2.1, SVG Export Plug-In . SVG Version: 6.00 Build 0)  -->
<svg version="1.1" id="Layer_1" xmlns="http://www.w3.org/2000/svg" xmlns:xlink="http://www.w3.org/1999/xlink" x="0px" y="0px"
	 width="397.18px" height="799.92px" viewBox="0 0 397.18 799.92" style="enable-background:new 0 0 397.18 799.92;"
	 xml:space="preserve">
<g id="Base">
	<polygon id="Circulation" style="fill:#D3D3D3;stroke:#000000;stroke-miterlimit:10;" points="105.53,799.42 143.53,799.42 
		143.78,736.42 284.53,736.42 284.28,693.42 272.53,693.42 272.78,662.42 284.53,662.42 283.53,483.42 267.53,483.42 267.65,469.42 
		283.03,469.42 283.03,389.42 272.03,389.42 272.03,356.92 283.03,356.67 283.03,314.42 260.03,314.42 260.03,279.92 377.03,280.42 
		377.03,169.92 140.34,169.85 139.53,243.42 19.53,243.42 19.67,286.92 31.53,287.17 31.78,318.42 19.53,318.42 19.92,360.42 
		36.53,360.42 37.03,620.42 19.03,620.42 19.03,661.42 32.03,661.42 32.53,693.42 20.03,693.42 20.03,736.92 105.78,736.42 	"/>
	<rect x="124.78" y="695.42" style="fill:none;stroke:#000000;stroke-miterlimit:10;" width="27.25" height="41"/>
	<rect x="152.03" y="695.42" style="fill:none;stroke:#000000;stroke-miterlimit:10;" width="24.25" height="41"/>
	<rect x="256.78" y="693.42" style="fill:none;stroke:#000000;stroke-miterlimit:10;" width="27.5" height="43"/>
	<rect x="142.03" y="680.42" style="fill:none;stroke:#000000;stroke-miterlimit:10;" width="48" height="15"/>
	<rect x="92.53" y="711.17" style="fill:none;stroke:#000000;stroke-miterlimit:10;" width="13.25" height="25.25"/>
	<rect id="Stairs" x="105.78" y="736.42" style="fill:#4c4c4c;stroke:#000000;stroke-miterlimit:10;" width="38" height="62.5"/>
	<polygon id="Stairs_1_" style="fill:#4c4c4c;stroke:#000000;stroke-miterlimit:10;" points="377.03,244.42 377.03,280.42 
		357.03,280.42 357.03,258.42 334.03,258.42 334.03,244.42 	"/>
	<polyline id="Restroom_1_" style="fill:#00CCCC;stroke:#000000;stroke-miterlimit:10;" points="253.53,169.42 283.03,169.42 
		283.03,185.42 298.03,185.42 298.03,209.42 253.53,209.42 253.38,169.85 	"/>
	<rect x="313.03" y="224.17" style="fill:none;stroke:#000000;stroke-miterlimit:10;" width="33" height="19.25"/>
	<rect x="313.03" y="209.42" style="fill:none;stroke:#000000;stroke-miterlimit:10;" width="33" height="14.75"/>
	<rect x="346.03" y="224.17" style="fill:none;stroke:#000000;stroke-miterlimit:10;" width="31" height="19.25"/>
	<rect x="346.03" y="209.42" style="fill:none;stroke:#000000;stroke-miterlimit:10;" width="31" height="14.75"/>
	<rect x="313.03" y="169.42" style="fill:#00CCCC;stroke:#000000;stroke-miterlimit:10;" width="64" height="40"/>
	<rect x="253.38" y="232.42" style="fill:none;stroke:#000000;stroke-miterlimit:10;" width="20.64" height="22.25"/>
	<rect x="274.03" y="238.42" style="fill:none;stroke:#000000;stroke-miterlimit:10;" width="25.25" height="16.25"/>
	<rect x="104.03" y="243.42" style="fill:none;stroke:#000000;stroke-miterlimit:10;" width="35.5" height="22.3"/>
	<rect x="88.28" y="243.55" style="fill:none;stroke:#000000;stroke-miterlimit:10;" width="15.19" height="15.19"/>
	<rect x="88.28" y="258.74" style="fill:none;stroke:#000000;stroke-miterlimit:10;" width="15.75" height="10.44"/>
	<polygon id="Elevator" style="fill:#B3A200;stroke:#000000;stroke-miterlimit:10;" points="141.03,335.42 162.03,335.8 
		162.03,314.42 141.03,314.42 	"/>
	<line style="fill:none;stroke:#000000;stroke-miterlimit:10;" x1="288.53" y1="209.42" x2="288.78" y2="238.42"/>
	<line style="fill:none;stroke:#000000;stroke-miterlimit:10;" x1="298.03" y1="194.92" x2="313.03" y2="194.67"/>
	<line style="fill:none;stroke:#000000;stroke-miterlimit:10;" x1="313.03" y1="243.42" x2="313.03" y2="279.92"/>
	<polyline style="fill:none;stroke:#000000;stroke-miterlimit:10;" points="189.53,680.42 212.03,680.42 212.03,662.42 
		226.03,662.42 226.03,695.92 190.03,695.42 	"/>
	<polyline id="LearningCommons" style="fill:#A349A3;stroke:#000000;stroke-miterlimit:10;" points="197.03,399.92 197.03,349.42 
		213.03,349.42 213.03,322.42 251.53,322.42 251.78,388.92 283.03,389.42 283.03,469.92 267.65,469.42 267.53,483.42 283.53,483.42 
		284.28,636.42 225.53,636.42 226.03,662.42 211.53,662.42 212.03,680.42 141.53,680.42 142.28,399.42 	"/>
	<polygon id="Library" style="fill:#006699;stroke:#000000;stroke-miterlimit:10;" points="103.86,314.28 141.03,314.42 
		141.03,335.42 162.03,335.42 162.03,349.42 142.53,349.42 142.03,695.42 124.53,695.42 124.78,736.42 105.53,736.42 105.78,711.42 
		92.03,711.42 92.03,693.92 32.53,693.42 32.03,661.42 18.53,661.42 19.03,620.42 36.03,620.42 36.03,360.92 48.92,361.26 
		49.18,312.59 31.03,312.42 31.03,294.42 49.53,294.42 49.27,243.42 58.03,243.42 59.53,343.24 103.9,343.42 	"/>
	
		<text id="female2_1_" transform="matrix(1 0 0 1 336.5433 200.0392)" style="fill:#FFFFFF; font-family:'FontAwesome'; font-size:25.7994px;"></text>
	
		<text id="male1_1_" transform="matrix(1 0 0 1 262.1512 200.039)" style="fill:#FFFFFF; font-family:'FontAwesome'; font-size:25.7994px;"></text>
	
		<rect id="Stairs_2_" x="36.59" y="462.76" style="fill:#4c4c4c;stroke:#000000;stroke-miterlimit:10;" width="50.67" height="50.67"/>
	
		<text id="elevator" transform="matrix(1 0 0 1 145.0259 329.3423)" style="fill:#FFFFFF; font-family:'FontAwesome'; font-size:14px;"></text>
</g>
<g id="Rooms">
	
	<a id="R103" xlink:href="#" >
		<g><rect id="R103" x="154.74" y="155.45" transform="matrix(-1.346987e-10 1 -1 -1.346987e-10 408.8301 15.1045)" style="fill:#23B14D;stroke:#000000;stroke-miterlimit:10;" width="84.24" height="113.04"/></g></a>
	<a id="R130" xlink:href="#" >
		<g><polygon id="R130" style="fill:#993333;stroke:#000000;stroke-miterlimit:10;" points="19.03,337.55 48.7,337.47 48.7,361.38 
	19.03,361.46 	"/></g></a>
	<a id="R129" xlink:href="#" >
		<g><polygon id="R129" style="fill:#993333;stroke:#000000;stroke-miterlimit:10;" points="19.03,319.92 19.03,337.42 49.03,337.42 
	49.03,312.42 31.03,312.42 31.11,318.42 19.03,318.42 	"/></g></a>
	<a id="R128" xlink:href="#" >
		<g><polygon id="R128" style="fill:#993333;stroke:#000000;stroke-miterlimit:10;" points="19.53,266.42 49.03,266.42 49.03,294.42 
	31.03,294.42 31.03,287.42 19.67,287.42 	"/></g></a>
	<a id="R136" xlink:href="#" >
		<g><rect id="R136" x="19.92" y="243.42" style="fill:#993333;stroke:#000000;stroke-miterlimit:10;" width="29.35" height="22.3"/></g></a>
	<a id="R123" xlink:href="#" >
		<g><rect id="R123" x="162.03" y="314.42" style="fill:#993333;stroke:#000000;stroke-miterlimit:10;" width="51" height="35"/></g></a>
	<a id="R126" xlink:href="#" >
		<g><polygon id="R126" style="fill:#993333;stroke:#000000;stroke-miterlimit:10;" points="196.86,399.42 142.28,399.42 
	142.19,349.34 196.78,349.34 	"/></g></a>
	
	<a id="R124" xlink:href="#" >
		<g><rect id="R124" x="251.78" y="356.67" style="fill:#993333;stroke:#000000;stroke-miterlimit:10;" width="20.75" height="32.25"/></g></a>
	<a id="R115" xlink:href="#" >
		<g><rect id="R115" x="58.53" y="693.42" style="fill:#993333;stroke:#000000;stroke-miterlimit:10;" width="34" height="43"/></g></a>
	<a id="R114" xlink:href="#" >
		<g><rect id="R114" x="20.03" y="693.42" style="fill:#993333;" width="38.5" height="43"/></g></a>
	<a id="R113" xlink:href="#" >
		<g><rect id="R113" x="20.03" y="693.42" style="fill:#993333;stroke:#000000;stroke-miterlimit:10;" width="38.5" height="43"/></g></a>
	<a id="R107" xlink:href="#" >
		<g><polygon id="R107" style="fill:#993333;stroke:#000000;stroke-miterlimit:10;" points="88.03,269.42 104.03,269.42 
	104.03,343.42 59.53,343.24 57.9,243.42 88.03,243.55 	"/></g></a>
	
	<a id="R125" xlink:href="#" >
		<g><rect id="R125" x="251.78" y="313.92" style="fill:#993333;stroke:#000000;stroke-miterlimit:10;" width="31.25" height="42.75"/></g></a>
</g>
<g id="Doors">
	<line id="R103" style="fill:none;stroke:#00FF00;stroke-miterlimit:10;" x1="239.27" y1="246.03" x2="234.99" y2="235.47"/>
	<line id="R107" style="fill:none;stroke:#00FF00;stroke-miterlimit:10;" x1="95.87" y1="339.42" x2="90.28" y2="329.34"/>
	<line id="R136" style="fill:none;stroke:#00FF00;stroke-miterlimit:10;" x1="33.86" y1="254.67" x2="41.55" y2="254.67"/>
	<line id="R128" style="fill:none;stroke:#00FF00;stroke-miterlimit:10;" x1="33.86" y1="275.92" x2="41.55" y2="275.92"/>
	<line id="R129" style="fill:none;stroke:#00FF00;stroke-miterlimit:10;" x1="33.86" y1="329.34" x2="45.53" y2="329.34"/>
	<line id="R130" style="fill:none;stroke:#00FF00;stroke-miterlimit:10;" x1="33.86" y1="349.47" x2="41.55" y2="349.42"/>
	<line id="R126" style="fill:none;stroke:#00FF00;stroke-miterlimit:10;" x1="180.03" y1="381.92" x2="184.53" y2="393.42"/>
	<line id="R123" style="fill:none;stroke:#00FF00;stroke-miterlimit:10;" x1="194.53" y1="340.92" x2="207.03" y2="337.47"/>
	<line id="R113" style="fill:none;stroke:#00FF00;stroke-miterlimit:10;" x1="49.03" y1="695.92" x2="48.7" y2="711.17"/>
	<line id="R114" style="fill:none;stroke:#00FF00;stroke-miterlimit:10;" x1="44.95" y1="698.38" x2="43.61" y2="712.05"/>
	<line id="lcd.1" style="fill:none;stroke:#00FF00;stroke-miterlimit:10;" x1="247.03" y1="258.74" x2="256.78" y2="258.74"/>
	<line id="R124" style="fill:none;stroke:#00FF00;stroke-miterlimit:10;" x1="256.78" y1="363.42" x2="267.4" y2="365.42"/>
	<line id="R125" style="fill:none;stroke:#00FF00;stroke-miterlimit:10;" x1="258.39" y1="336.47" x2="269.02" y2="338.47"/>
</g>
<g id="Labels">
	<text id="title" transform="matrix(1 0 0 1 -0.7093 21.4134)"><tspan x="0" y="0" style="font-family:'OptimaLTStd'; font-size:25.7994px;">Volunteer State Community College </tspan><tspan x="111.84" y="30.96" style="font-family:'OptimaLTStd'; font-size:25.7994px;">Thigpen Library </tspan><tspan x="121.9" y="61.92" style="font-family:'OptimaLTStd'; font-size:25.7994px;">FIRST FLOOR</tspan></text>
	<rect id="swatch-blue" x="29.49" y="94.97" style="fill:#001A72;" width="22.11" height="22.11"/>
	<rect id="swatch-pink" x="267.26" y="94.97" style="fill:#993333;" width="22.11" height="22.11"/>
	<text id="legend-study" transform="matrix(1 0 0 1 56.6598 111.2537)" style="font-family:'OptimaLTStd'; font-size:16.5853px;">Study Areas</text>
	
		<text id="legend-offices" transform="matrix(1 0 0 1 294.7336 111.2537)" style="font-family:'OptimaLTStd'; font-size:16.5853px;">Offices</text>
	
		<rect id="swatch-green" x="29.47" y="128.97" style="fill:#23B14D;stroke:#000000;stroke-miterlimit:10;" width="22.11" height="22.11"/>
	<text id="legend-conf" transform="matrix(1 0 0 1 57.2833 146.2537)" style="font-family:'OptimaLTStd'; font-size:16.5853px;">Conference Rooms</text>
	
		<rect id="swatch-pink_1_" x="211.37" y="128.2" style="fill:#A349A3;stroke:#000000;stroke-miterlimit:10;" width="22.11" height="22.11"/>
	
		<text id="legend-offices_1_" transform="matrix(1 0 0 1 239.6006 144.4798)" style="font-family:'OptimaLTStd'; font-size:16.5853px;">Learning Commons</text>
	<rect id="swatch-pink_2_" x="166.37" y="94.97" style="fill:#006699;" width="22.11" height="22.11"/>
	
		<text id="legend-library" transform="matrix(1 0 0 1 194.3057 111.2537)" style="font-family:'OptimaLTStd'; font-size:16.5853px;">Library</text>
	<text transform="matrix(1 0 0 1 157.4375 206.6738)"><tspan x="0" y="0" style="fill:#FFFFFF; font-family:'MyriadPro-Regular'; font-size:12px;">Rochelle Center </tspan><tspan x="30.19" y="14.4" style="fill:#FFFFFF; font-family:'MyriadPro-Regular'; font-size:12px;">103</tspan></text>
	<text transform="matrix(1 0 0 1 70.9795 298.1738)" style="fill:#FFFFFF; font-family:'MyriadPro-Regular'; font-size:12px;">107</text>
	<text transform="matrix(1 0 0 1 24.629 258.7363)" style="fill:#FFFFFF; font-family:'MyriadPro-Regular'; font-size:12px;">136</text>
	<text transform="matrix(1 0 0 1 24.629 281.6738)" style="fill:#FFFFFF; font-family:'MyriadPro-Regular'; font-size:12px;">128</text>
	<text transform="matrix(1 0 0 1 24.629 331.9238)" style="fill:#FFFFFF; font-family:'MyriadPro-Regular'; font-size:12px;">129</text>
	<text transform="matrix(1 0 0 1 24.629 352.9238)" style="fill:#FFFFFF; font-family:'MyriadPro-Regular'; font-size:12px;">130</text>
	<text transform="matrix(1 0 0 1 177.4795 335.2988)" style="fill:#FFFFFF; font-family:'MyriadPro-Regular'; font-size:12px;">123</text>
	<text transform="matrix(1 0 0 1 160.2938 376.9238)" style="fill:#FFFFFF; font-family:'MyriadPro-Regular'; font-size:12px;">126</text>
	<text transform="matrix(1 0 0 1 253.2409 376.9238)" style="fill:#FFFFFF; font-family:'MyriadPro-Regular'; font-size:11px;">124</text>
	<text transform="matrix(1 0 0 1 28.792 712.9238)"><tspan x="0" y="0" style="fill:#FFFFFF; font-family:'MyriadPro-Regular'; font-size:12px;">113 </tspan><tspan x="0" y="14.4" style="fill:#FFFFFF; font-family:'MyriadPro-Regular'; font-size:12px;">114</tspan></text>
	<text transform="matrix(1 0 0 1 64.7295 720.6738)" style="fill:#FFFFFF; font-family:'MyriadPro-Regular'; font-size:12px;">115</text>
	<polyline id="Stairs_3_" style="fill:none;stroke:#FFFFFF;stroke-miterlimit:10;" points="68.17,494.55 68.17,490.55 68.17,490.59 
		64.01,490.59 64.01,486.59 59.84,486.59 59.84,482.59 55.67,482.59 55.67,478.59 	"/>
	<polyline id="Stairs_4_" style="fill:none;stroke:#FFFFFF;stroke-miterlimit:10;" points="371.01,262.65 371.01,258.65 
		371.01,258.7 366.84,258.7 366.84,254.7 362.67,254.7 362.67,250.7 358.51,250.7 358.51,246.7 	"/>
	<polyline id="Stairs_5_" style="fill:none;stroke:#FFFFFF;stroke-miterlimit:10;" points="131.09,775.63 131.09,771.63 
		131.09,771.67 126.92,771.67 126.92,767.67 122.76,767.67 122.76,763.67 118.59,763.67 118.59,759.67 	"/>
	<text transform="matrix(1 0 0 1 181.9814 498.9238)"><tspan x="0" y="0" style="fill:#FFFFFF; font-family:'MyriadPro-Regular'; font-size:14px;">Learning </tspan><tspan x="-4.28" y="16.8" style="fill:#FFFFFF; font-family:'MyriadPro-Regular'; font-size:14px;">Commons</tspan></text>
	<text transform="matrix(1 0 0 1 67.0839 439.9238)" style="fill:#FFFFFF; font-family:'MyriadPro-Regular'; font-size:14px;">Library</text>
	<text transform="matrix(1 0 0 1 258.6979 337.4673)" style="fill:#FFFFFF; font-family:'MyriadPro-Regular'; font-size:11px;">125</text>
</g>
<g id="Portals">
	
		<line id="Stair.1.floor2" style="fill:none;stroke:#00FF00;stroke-miterlimit:10;" x1="71.53" y1="488.09" x2="61.92" y2="478.59"/>
	
		<line id="Elev.1.floor2" style="fill:none;stroke:#00FF00;stroke-miterlimit:10;" x1="151.53" y1="317.92" x2="151.53" y2="329.34"/>
</g>
<g id="Paths">
	<line style="fill:none;stroke:#FF00FF;stroke-miterlimit:10;" x1="95.87" y1="339.42" x2="95.87" y2="358.92"/>
	<line style="fill:none;stroke:#FF00FF;stroke-miterlimit:10;" x1="247.03" y1="258.74" x2="237.13" y2="289.42"/>
	<line style="fill:none;stroke:#FF00FF;stroke-miterlimit:10;" x1="207.03" y1="337.47" x2="237.13" y2="337.42"/>
	<line style="fill:none;stroke:#FF00FF;stroke-miterlimit:10;" x1="239.27" y1="246.03" x2="247.03" y2="258.74"/>
	<line style="fill:none;stroke:#FF00FF;stroke-miterlimit:10;" x1="237.13" y1="289.42" x2="121.78" y2="289.42"/>
	<line style="fill:none;stroke:#FF00FF;stroke-miterlimit:10;" x1="95.87" y1="358.92" x2="121.78" y2="358.92"/>
	<line style="fill:none;stroke:#FF00FF;stroke-miterlimit:10;" x1="151.53" y1="329.34" x2="151.53" y2="339.42"/>
	<line style="fill:none;stroke:#FF00FF;stroke-miterlimit:10;" x1="121.78" y1="358.92" x2="121.78" y2="339.42"/>
	<line style="fill:none;stroke:#FF00FF;stroke-miterlimit:10;" x1="151.53" y1="339.42" x2="121.78" y2="339.42"/>
	<line style="fill:none;stroke:#FF00FF;stroke-miterlimit:10;" x1="121.78" y1="289.42" x2="121.78" y2="339.42"/>
	<line style="fill:none;stroke:#FF00FF;stroke-miterlimit:10;" x1="237.13" y1="289.42" x2="237.13" y2="337.42"/>
	<line style="fill:none;stroke:#FF00FF;stroke-miterlimit:10;" x1="256.78" y1="363.42" x2="237.13" y2="364.42"/>
	<line style="fill:none;stroke:#FF00FF;stroke-miterlimit:10;" x1="237.13" y1="337.42" x2="237.13" y2="364.42"/>
	<line style="fill:none;stroke:#FF00FF;stroke-miterlimit:10;" x1="237.13" y1="407.59" x2="237.13" y2="364.42"/>
	<line style="fill:none;stroke:#FF00FF;stroke-miterlimit:10;" x1="41.55" y1="254.67" x2="53.53" y2="254.67"/>
	<line style="fill:none;stroke:#FF00FF;stroke-miterlimit:10;" x1="41.55" y1="275.92" x2="53.53" y2="275.92"/>
	<line style="fill:none;stroke:#FF00FF;stroke-miterlimit:10;" x1="53.53" y1="254.67" x2="53.53" y2="275.92"/>
	<line style="fill:none;stroke:#FF00FF;stroke-miterlimit:10;" x1="45.53" y1="329.34" x2="53.53" y2="329.34"/>
	<line style="fill:none;stroke:#FF00FF;stroke-miterlimit:10;" x1="53.53" y1="275.92" x2="53.53" y2="329.34"/>
	<line style="fill:none;stroke:#FF00FF;stroke-miterlimit:10;" x1="41.55" y1="349.42" x2="53.53" y2="349.47"/>
	<line style="fill:none;stroke:#FF00FF;stroke-miterlimit:10;" x1="53.53" y1="329.34" x2="53.53" y2="349.47"/>
	<line style="fill:none;stroke:#FF00FF;stroke-miterlimit:10;" x1="95.87" y1="358.92" x2="53.53" y2="358.92"/>
	<line style="fill:none;stroke:#FF00FF;stroke-miterlimit:10;" x1="53.53" y1="349.47" x2="53.53" y2="358.92"/>
	<line style="fill:none;stroke:#FF00FF;stroke-miterlimit:10;" x1="71.53" y1="488.09" x2="121.78" y2="488.09"/>
	<line style="fill:none;stroke:#FF00FF;stroke-miterlimit:10;" x1="121.78" y1="358.92" x2="121.78" y2="488.09"/>
	<line style="fill:none;stroke:#FF00FF;stroke-miterlimit:10;" x1="184.53" y1="393.42" x2="184.86" y2="407.59"/>
	<line style="fill:none;stroke:#FF00FF;stroke-miterlimit:10;" x1="184.86" y1="407.59" x2="237.13" y2="407.59"/>
	<line style="fill:none;stroke:#FF00FF;stroke-miterlimit:10;" x1="121.78" y1="488.09" x2="121.78" y2="679.17"/>
	<line style="fill:none;stroke:#FF00FF;stroke-miterlimit:10;" x1="49.03" y1="695.92" x2="51.86" y2="679.17"/>
	<line style="fill:none;stroke:#FF00FF;stroke-miterlimit:10;" x1="121.78" y1="679.17" x2="51.86" y2="679.17"/>
	<line style="fill:none;stroke:#FF00FF;stroke-miterlimit:10;" x1="44.95" y1="698.38" x2="51.86" y2="679.17"/>
	<line style="fill:none;stroke:#FF00FF;stroke-miterlimit:10;" x1="258.39" y1="336.47" x2="237.13" y2="337.42"/>
</g>
</svg>
