<?xml version="1.0" encoding="utf-8"?>
<!-- Generator: Adobe Illustrator 19.2.1, SVG Export Plug-In . SVG Version: 6.00 Build 0)  -->
<svg version="1.1" id="Layer_1" xmlns="http://www.w3.org/2000/svg" xmlns:xlink="http://www.w3.org/1999/xlink" x="0px" y="0px" width="601.67px" height="399.93px"
	 viewBox="0 0 601.67 399.93" style="enable-background:new 0 0 601.67 399.93;" xml:space="preserve">
<g id="Base">
	
		<rect id="Circulation" x="0.5" y="148" style="fill:#D3D3D3;stroke:#000000;stroke-miterlimit:10;" width="600.67" height="244.67"/>
	
		<rect id="Restroom" x="443.17" y="278.17" style="fill:#00CCCC;stroke:#000000;stroke-miterlimit:10;" width="47.25" height="47.25"/>
	
		<rect id="Restroom_1_" x="490.42" y="301.79" style="fill:#00CCCC;stroke:#000000;stroke-miterlimit:10;" width="30.08" height="23.62"/>
	<polygon id="Restroom_2_" style="fill:#00CCCC;stroke:#000000;stroke-miterlimit:10;" points="499.17,248 499.17,201.83 
		567.17,201.83 567.17,255.67 520.5,255.67 520.5,248 	"/>
	<rect x="490.42" y="278.17" style="fill:none;stroke:#000000;stroke-miterlimit:10;" width="30.08" height="23.62"/>
	<polygon style="fill:none;stroke:#000000;stroke-miterlimit:10;" points="0.17,293.67 86.17,293.67 86.5,255.67 0.5,255.67 	"/>
	<rect x="567.17" y="201.83" style="fill:none;stroke:#000000;stroke-miterlimit:10;" width="34" height="53.83"/>
	<rect x="578.5" y="344" style="fill:none;stroke:#000000;stroke-miterlimit:10;" width="22.67" height="18"/>
	<polygon style="fill:none;stroke:#000000;stroke-miterlimit:10;" points="520.5,255.67 520.5,325.42 502.5,325.42 502.5,344 
		538.5,344 538.5,255.67 	"/>
</g>
<g id="Rooms">
	<a id="R114" xlink:href="#">
  	 <g><rect id="R114" x="0.5" y="149" style="fill:#006699;stroke:#000000;stroke-miterlimit:10;" width="107.67" height="107.67"/></g>
	</a>
	
	<a id="R112" xlink:href="#">
  	 <g><rect id="R112" x="0.5" y="293.67" style="fill:#006699;stroke:#000000;stroke-miterlimit:10;" width="107.67" height="100"/></g>
	</a>

	<a id="R110" xlink:href="#">
  	 <g><rect id="R110" x="134.5" y="293.67" style="fill:#006699;stroke:#000000;stroke-miterlimit:10;" width="79.33" height="100"/></g>
	</a>

	<a id="R109" xlink:href="#">
  	 <g><polygon id="R109" style="fill:#006699;stroke:#000000;stroke-miterlimit:10;" points="274.5,265.67 220.5,266 220.5,149.33 
		274.5,149 	"/></g>
	</a>

	<a id="R108" xlink:href="#">
  	 <g><rect id="R108" x="213.83" y="293.67" style="fill:#006699;stroke:#000000;stroke-miterlimit:10;" width="207.33" height="100"/></g>
	</a>

	<a id="R107" xlink:href="#">
  	 <g><rect id="R107" x="274.5" y="149" style="fill:#006699;stroke:#000000;stroke-miterlimit:10;" width="146.67" height="116.67"/></g>
	</a>

	<a id="R106" xlink:href="#">
  	 <g><polygon id="R106" style="fill:#006699;stroke:#000000;stroke-miterlimit:10;" points="421.17,149 601.17,149 601.17,202.83 
		499.17,202.83 499.17,249 421.17,249 	"/></g>
	</a>

	<a id="R104" xlink:href="#">
  	 <g><rect id="R104" x="538.5" y="255.67" style="fill:#993333;stroke:#000000;stroke-miterlimit:10;" width="62.67" height="89.33"/></g>
	</a>

	<a id="R101" xlink:href="#">
  	 <g><polygon id="R101" style="fill:#006699;stroke:#000000;stroke-miterlimit:10;" points="520.5,345 578.5,345 578.5,363 601.17,363 
		601.17,393.67 520.5,393.67 	"/></g>
	</a>

	<a id="R111" xlink:href="#">
  	 <g><rect id="R111" x="108.17" y="149" style="fill:#006699;stroke:#000000;stroke-miterlimit:10;" width="112.33" height="117"/></g>
	</a>

	<line style="fill:none;stroke:#000000;stroke-miterlimit:10;" x1="538.5" y1="299.83" x2="601.17" y2="299.83"/>
	<line style="fill:none;stroke:#000000;stroke-miterlimit:10;" x1="315.17" y1="392.67" x2="315.17" y2="368.33"/>
	<line style="fill:none;stroke:#000000;stroke-miterlimit:10;" x1="315.17" y1="293.67" x2="315.17" y2="321.67"/>
</g><g id="Labels">
	<text transform="matrix(1 0 0 1 32.9999 206.3332)" style="fill:#FFFFFF; font-family:'MyriadPro-Regular'; font-size:21px;">114</text>
	<text transform="matrix(1 0 0 1 30.1667 349.6662)" style="fill:#FFFFFF; font-family:'MyriadPro-Regular'; font-size:21px;">112</text>
	<text transform="matrix(1 0 0 1 143.4998 207.3332)" style="fill:#FFFFFF; font-family:'MyriadPro-Regular'; font-size:21px;">111</text>
	<text transform="matrix(1 0 0 1 153.5 349.6662)" style="fill:#FFFFFF; font-family:'MyriadPro-Regular'; font-size:21px;">110</text>
	<text transform="matrix(1 0 0 1 227.5 207.5)" style="fill:#FFFFFF; font-family:'MyriadPro-Regular'; font-size:21px;">109</text>
	<text transform="matrix(1 0 0 1 241.5 349.6665)" style="fill:#FFFFFF; font-family:'MyriadPro-Regular'; font-size:21px;">108</text>
	<text transform="matrix(1 0 0 1 326.8333 206.3329)" style="fill:#FFFFFF; font-family:'MyriadPro-Regular'; font-size:21px;">107</text>
	<text transform="matrix(1 0 0 1 443.1667 206.3329)" style="fill:#FFFFFF; font-family:'MyriadPro-Regular'; font-size:21px;">106</text>
	<text transform="matrix(1 0 0 1 547.5002 325.4165)" style="fill:#FFFFFF; font-family:'MyriadPro-Regular'; font-size:18px;">104B</text>
	<text transform="matrix(1 0 0 1 548.1669 284.4165)" style="fill:#FFFFFF; font-family:'MyriadPro-Regular'; font-size:18px;">104A</text>
	<text transform="matrix(1 0 0 1 533.1671 373.8332)" style="fill:#FFFFFF; font-family:'MyriadPro-Regular'; font-size:18px;">101</text>
	
		<text id="female2_1_" transform="matrix(1 0 0 1 523.183 237.3337)" style="fill:#FFFFFF; font-family:'FontAwesome'; font-size:25.7994px;"></text>
	
		<text id="male1_1_" transform="matrix(1 0 0 1 459.1574 310.667)" style="fill:#FFFFFF; font-family:'FontAwesome'; font-size:25.7994px;"></text>
	
		<text id="male1_2_" transform="matrix(1 0 0 1 508.1665 318.9994)" style="fill:#FFFFFF; font-family:'FontAwesome'; font-size:14px;"></text>
	
		<text id="female2_2_" transform="matrix(1 0 0 1 495.5163 318.9991)" style="fill:#FFFFFF; font-family:'FontAwesome'; font-size:14px;"></text>
	<text id="title" transform="matrix(1 0 0 1 101.5338 21.4134)"><tspan x="0" y="0" style="font-family:'OptimaLTStd'; font-size:25.7994px;">Volunteer State Community College </tspan><tspan x="99.64" y="30.96" style="font-family:'OptimaLTStd'; font-size:25.7994px;">Vet Tech Building</tspan></text>
	<polyline id="swatch-pink" style="fill:#993333;" points="332.7,94.09 332.7,71.97 354.82,71.97 354.82,94.09 	"/>
	<text id="legend-offices" transform="matrix(1 0 0 1 361.1785 88.2539)" style="font-family:'OptimaLTStd'; font-size:16.5853px;">Offices</text>
	<polyline id="swatch-pink_2_" style="fill:#006699;" points="199.81,94.09 199.81,71.97 221.93,71.97 221.93,94.09 	"/>
	<text id="legend-library" transform="matrix(1 0 0 1 228.0778 88.2539)" style="font-family:'OptimaLTStd'; font-size:16.5853px;">Classrooms</text>
</g>
<g id="Doors">
	<line id="R114_1_" style="fill:none;stroke:#33FF33;stroke-miterlimit:10;" x1="94.5" y1="248" x2="86.5" y2="234.67"/>
	<line id="R111_1_" style="fill:none;stroke:#33FF33;stroke-miterlimit:10;" x1="135.22" y1="260.69" x2="149.22" y2="250.02"/>
	<line id="R106_1_" style="fill:none;stroke:#33FF33;stroke-miterlimit:10;" x1="480.89" y1="241.26" x2="490.22" y2="228.67"/>
	<line id="R107_1_" style="fill:none;stroke:#33FF33;stroke-miterlimit:10;" x1="407.83" y1="255.67" x2="396.5" y2="241.33"/>
	<line id="R112_1_" style="fill:none;stroke:#33FF33;stroke-miterlimit:10;" x1="95.83" y1="299.83" x2="83.17" y2="310.67"/>
	<line id="R110_1_" style="fill:none;stroke:#33FF33;stroke-miterlimit:10;" x1="196.47" y1="298.14" x2="198.47" y2="311.91"/>
	<line id="R109_1_" style="fill:none;stroke:#33FF33;stroke-miterlimit:10;" x1="248.23" y1="258.67" x2="262.23" y2="248"/>
	<line id="R108_1_" style="fill:none;stroke:#33FF33;stroke-miterlimit:10;" x1="296.15" y1="298.34" x2="300.82" y2="317.51"/>
	<line id="R101_1_" style="fill:none;stroke:#33FF33;stroke-miterlimit:10;" x1="526.18" y1="353" x2="538.5" y2="353"/>
	<line id="R104_1_" style="fill:none;stroke:#33FF33;stroke-miterlimit:10;" x1="525.42" y1="268.2" x2="530.14" y2="278.17"/>
	<line id="lcd.1" style="fill:none;stroke:#33FF33;stroke-miterlimit:10;" x1="427.22" y1="377.67" x2="427.33" y2="368.33"/>
</g>
<g id="Paths">
	<line style="fill:none;stroke:#FF33FF;stroke-miterlimit:10;" x1="436.5" y1="353" x2="436.5" y2="279.67"/>
	<line style="fill:none;stroke:#FF33FF;stroke-miterlimit:10;" x1="427.33" y1="368.33" x2="436.5" y2="368.33"/>
	<line style="fill:none;stroke:#FF33FF;stroke-miterlimit:10;" x1="526.18" y1="353" x2="436.5" y2="353"/>
	<line style="fill:none;stroke:#FF33FF;stroke-miterlimit:10;" x1="436.5" y1="368.33" x2="436.5" y2="353"/>
	<line style="fill:none;stroke:#FF33FF;stroke-miterlimit:10;" x1="480.89" y1="241.26" x2="480.89" y2="268.33"/>
	<line style="fill:none;stroke:#FF33FF;stroke-miterlimit:10;" x1="407.83" y1="255.67" x2="407.83" y2="279.67"/>
	<line style="fill:none;stroke:#FF33FF;stroke-miterlimit:10;" x1="248.23" y1="258.67" x2="248.23" y2="279.67"/>
	<line style="fill:none;stroke:#FF33FF;stroke-miterlimit:10;" x1="296.15" y1="298.34" x2="296.15" y2="279.67"/>
	<line style="fill:none;stroke:#FF33FF;stroke-miterlimit:10;" x1="196.47" y1="298.14" x2="196.47" y2="279.67"/>
	<line style="fill:none;stroke:#FF33FF;stroke-miterlimit:10;" x1="135.22" y1="260.69" x2="135.22" y2="279.67"/>
	<line style="fill:none;stroke:#FF33FF;stroke-miterlimit:10;" x1="95.83" y1="299.83" x2="95.83" y2="279.67"/>
	<line style="fill:none;stroke:#FF33FF;stroke-miterlimit:10;" x1="94.5" y1="248" x2="104.5" y2="278.17"/>
	<line style="fill:none;stroke:#FF33FF;stroke-miterlimit:10;" x1="95.83" y1="279.67" x2="104.5" y2="278.17"/>
	<line style="fill:none;stroke:#FF33FF;stroke-miterlimit:10;" x1="135.22" y1="279.67" x2="104.5" y2="278.17"/>
	<line style="fill:none;stroke:#FF33FF;stroke-miterlimit:10;" x1="196.47" y1="279.67" x2="135.22" y2="279.67"/>
	<line style="fill:none;stroke:#FF33FF;stroke-miterlimit:10;" x1="248.23" y1="279.67" x2="196.47" y2="279.67"/>
	<line style="fill:none;stroke:#FF33FF;stroke-miterlimit:10;" x1="296.15" y1="279.67" x2="248.23" y2="279.67"/>
	<line style="fill:none;stroke:#FF33FF;stroke-miterlimit:10;" x1="407.83" y1="279.67" x2="296.15" y2="279.67"/>
	<line style="fill:none;stroke:#FF33FF;stroke-miterlimit:10;" x1="480.89" y1="268.33" x2="436.5" y2="267.67"/>
	<line style="fill:none;stroke:#FF33FF;stroke-miterlimit:10;" x1="407.83" y1="279.67" x2="436.5" y2="279.67"/>
	<line style="fill:none;stroke:#FF33FF;stroke-miterlimit:10;" x1="436.5" y1="267.67" x2="436.5" y2="279.67"/>
	<line style="fill:none;stroke:#FF33FF;stroke-miterlimit:10;" x1="480.89" y1="268.33" x2="525.42" y2="268.2"/>
</g>
</svg>
