<?xml version="1.0" encoding="utf-8"?>
<!-- Generator: Adobe Illustrator 19.2.1, SVG Export Plug-In . SVG Version: 6.00 Build 0)  -->
<svg version="1.1" id="Layer_1" xmlns="http://www.w3.org/2000/svg" xmlns:xlink="http://www.w3.org/1999/xlink" x="0px" y="0px"
	 width="451.26px" height="817.75px" viewBox="0 0 451.26 817.75" style="enable-background:new 0 0 451.26 817.75;"
	 xml:space="preserve">
<g id="Base">
	<polygon id="Circulation" style="fill:#D3D3D3;stroke:#000000;stroke-miterlimit:10;" points="1,603 1,697.5 10,697.5 10,722.5 
		0.5,722.5 1,816.5 187.5,816.5 187.25,795.5 244.5,795.5 244.13,817.25 449,816 449,722.5 437.5,722.5 437.24,696.5 450.75,696.5 
		449.29,603.5 376.29,603.5 377.34,228.5 383.84,228.5 383.59,200.5 403.84,200.5 404,106.5 30.5,106.5 31,201.5 65.5,201.5 
		66.25,228.5 74,228.5 74,603.75 	"/>
	<line style="fill:none;stroke:#000000;stroke-miterlimit:10;" x1="187.25" y1="765.25" x2="245" y2="765.25"/>
	<line style="fill:none;stroke:#000000;stroke-miterlimit:10;" x1="46.5" y1="697.5" x2="46.5" y2="722"/>
	<line style="fill:none;stroke:#000000;stroke-miterlimit:10;" x1="75" y1="697.5" x2="128" y2="697.5"/>
	<line style="fill:none;stroke:#000000;stroke-miterlimit:10;" x1="387.25" y1="696.77" x2="387.25" y2="722"/>
	<line style="fill:none;stroke:#000000;stroke-miterlimit:10;" x1="363.17" y1="200.75" x2="363.84" y2="228"/>
	<line style="fill:none;stroke:#000000;stroke-miterlimit:10;" x1="86.17" y1="200.75" x2="86.5" y2="228"/>
	<polygon id="Restrooms" style="fill:#00CCCC;stroke:#000000;stroke-miterlimit:10;" points="198,697.5 198,603.5 128,603.5 
		128,697.5 150.5,697.5 150.25,682.5 176,682.5 176,697.5 	"/>
	<line style="fill:none;stroke:#000000;stroke-miterlimit:10;" x1="163" y1="603.5" x2="163" y2="682.5"/>
</g>
<g id="Rooms">
	<a id="R122" xlink:href="#" >
		<g><rect id="R122" x="31" y="106.75" style="fill:#006699;stroke:#000000;stroke-miterlimit:10;" width="73.5" height="94"/></g>
	</a>
	<a id="R123" xlink:href="#" >
		<g><rect id="R123" x="104.5" y="106.75" style="fill:#006699;stroke:#000000;stroke-miterlimit:10;" width="75.25" height="94"/></g>
	</a>
	<a id="R124" xlink:href="#" >
		<g><rect id="R124" x="179.75" y="106.75" style="fill:#006699;stroke:#000000;stroke-miterlimit:10;" width="74.5" height="94"/></g>
	</a>
	<a id="R125" xlink:href="#" >
		<g><rect id="R125" x="254.25" y="106.75" style="fill:#006699;stroke:#000000;stroke-miterlimit:10;" width="75" height="94"/></g>
	</a>
	<a id="R126" xlink:href="#" >
		<g><rect id="R126" x="329.25" y="106.75" style="fill:#006699;stroke:#000000;stroke-miterlimit:10;" width="74.75" height="94"/></g>
	</a>
	<a id="R120" xlink:href="#" >
		<g><rect id="R120" x="242.5" y="228" style="fill:#006699;stroke:#000000;stroke-miterlimit:10;" width="134.5" height="94.5"/></g>
	</a>
	<a id="R118" xlink:href="#" >
		<g><rect id="R118" x="242.5" y="322.5" style="fill:#006699;stroke:#000000;stroke-miterlimit:10;" width="134.5" height="93.75"/></g>
	</a>
	<a id="R116" xlink:href="#" >
		<g><rect id="R116" x="242.5" y="416.25" style="fill:#006699;stroke:#000000;stroke-miterlimit:10;" width="134.5" height="93.75"/></g>
	</a>
	<a id="R114" xlink:href="#" >
		<g><rect id="R114" x="242.5" y="510" style="fill:#006699;stroke:#000000;stroke-miterlimit:10;" width="134.5" height="93.25"/></g>
	</a>
	<a id="R121" xlink:href="#" >
		<g><rect id="R121" x="74.75" y="228" style="fill:#006699;stroke:#000000;stroke-miterlimit:10;" width="117.25" height="94.5"/></g>
	</a>
	<a id="R119" xlink:href="#" >
		<g><rect id="R119" x="74.75" y="322.5" style="fill:#006699;stroke:#000000;stroke-miterlimit:10;" width="117.25" height="93.75"/></g>
	</a>
	<a id="R117" xlink:href="#" >
		<g><polygon id="R117" style="fill:#993333;stroke:#000000;stroke-miterlimit:10;" points="75,603.5 75,416 203,416.25 203,434.5 
		199.5,434.5 200.25,493.5 191.5,493.5 192,526.5 200.5,526.5 200.75,586.5 202.5,586.5 203,603.5 	"/></g>
	</a>
	<a id="R111" xlink:href="#" >
		<g><rect id="R111" x="1" y="603.25" style="fill:#006699;stroke:#000000;stroke-miterlimit:10;" width="74" height="94.25"/></g>
	</a>
	<a id="R110" xlink:href="#" >
		<g><rect id="R110" x="1" y="722" style="fill:#006699;stroke:#000000;stroke-miterlimit:10;" width="124" height="94"/></g>
	</a>
	<a id="R109" xlink:href="#" >
		<g><rect id="R109" x="125" y="722" style="fill:#993333;stroke:#000000;stroke-miterlimit:10;" width="30.75" height="43.25"/></g>
	</a>
	<a id="R108" xlink:href="#" >
		<g><rect id="R108" x="155.75" y="722" style="fill:#993333;stroke:#000000;stroke-miterlimit:10;" width="31.5" height="43.25"/></g>
	</a>
	<a id="R107" xlink:href="#" >
		<g><rect id="R107" x="125" y="765.25" style="fill:#993333;stroke:#000000;stroke-miterlimit:10;" width="62.25" height="50.75"/></g>
	</a>
	<a id="R103" xlink:href="#" >
		<g><rect id="R103" x="404.75" y="722" style="fill:#006699;stroke:#000000;stroke-miterlimit:10;" width="45.08" height="94"/></g>
	</a>
	<a id="R104" xlink:href="#" >
		<g><rect id="R104" x="357.25" y="722" style="fill:#006699;stroke:#000000;stroke-miterlimit:10;" width="47.5" height="94"/></g>
	</a>
	<a id="R106" xlink:href="#" >
		<g><polygon id="R106" style="fill:#006699;stroke:#000000;stroke-miterlimit:10;" points="245,722.5 300,722.5 300,736.5 
		320,736.5 320,816.5 245,816.5 	"/></g>
	</a>
	<a id="R102" xlink:href="#" >
		<g><rect id="R102" x="387.25" y="665.12" style="fill:#993333;stroke:#000000;stroke-miterlimit:10;" width="63.5" height="31.65"/></g>
	</a>
	<a id="R100" xlink:href="#" >
		<g><polygon id="R100" style="fill:#993333;stroke:#000000;stroke-miterlimit:10;" points="387,665 387,697 234,696.77 234,603 
		449.5,603.25 450.75,665.12 	"/></g>
	</a>
	<g><polygon style="fill:#993333;stroke:#000000;stroke-miterlimit:10;" points="319.5,722.5 342.5,722.5 342.38,768.5 357.5,768.5 
		357.25,816 320,816.5 	"/></g>
</g>
<g id="Doors">
	<line id="lcd.1" style="fill:none;stroke:#00FF00;stroke-miterlimit:10;" x1="237.38" y1="701.74" x2="247.63" y2="701.74"/>
	<line id="R111" style="fill:none;stroke:#00FF00;stroke-miterlimit:10;" x1="61" y1="689.54" x2="50" y2="677.5"/>
	<line id="R110" style="fill:none;stroke:#00FF00;stroke-miterlimit:10;" x1="112.5" y1="731.5" x2="112.5" y2="743.62"/>
	<line id="R109" style="fill:none;stroke:#00FF00;stroke-miterlimit:10;" x1="147" y1="726" x2="147" y2="734.5"/>
	<line id="R108" style="fill:none;stroke:#00FF00;stroke-miterlimit:10;" x1="163" y1="726" x2="163" y2="734.5"/>
	<line id="R107" style="fill:none;stroke:#00FF00;stroke-miterlimit:10;" x1="182" y1="775.5" x2="173.45" y2="775.5"/>
	<line id="R106" style="fill:none;stroke:#00FF00;stroke-miterlimit:10;" x1="252" y1="726" x2="255" y2="737.56"/>
	<line id="R104" style="fill:none;stroke:#00FF00;stroke-miterlimit:10;" x1="367" y1="726" x2="371" y2="737.56"/>
	<line id="R103" style="fill:none;stroke:#00FF00;stroke-miterlimit:10;" x1="414.5" y1="726" x2="416" y2="734.5"/>
	<line id="R102" style="fill:none;stroke:#00FF00;stroke-miterlimit:10;" x1="423" y1="694" x2="419" y2="683.52"/>
	<line id="R100" style="fill:none;stroke:#00FF00;stroke-miterlimit:10;" x1="319.5" y1="689.54" x2="315" y2="669.5"/>
	<line id="R114" style="fill:none;stroke:#00FF00;stroke-miterlimit:10;" x1="248.5" y1="595" x2="263.5" y2="588"/>
	<line id="R116" style="fill:none;stroke:#00FF00;stroke-miterlimit:10;" x1="249" y1="502" x2="261" y2="495.5"/>
	<line id="R118" style="fill:none;stroke:#00FF00;stroke-miterlimit:10;" x1="248.02" y1="330.39" x2="263.27" y2="333.51"/>
	<line id="R120" style="fill:none;stroke:#00FF00;stroke-miterlimit:10;" x1="248" y1="314.5" x2="260.5" y2="309.5"/>
	<line id="R117" style="fill:none;stroke:#00FF00;stroke-miterlimit:10;" x1="187.25" y1="503" x2="176.96" y2="498.75"/>
	<line id="R119" style="fill:none;stroke:#00FF00;stroke-miterlimit:10;" x1="187.25" y1="408.88" x2="173.45" y2="404"/>
	<line id="R121" style="fill:none;stroke:#00FF00;stroke-miterlimit:10;" x1="184.5" y1="315" x2="173.45" y2="308"/>
	<line id="R122" style="fill:none;stroke:#00FF00;stroke-miterlimit:10;" x1="93" y1="194" x2="86.34" y2="182.5"/>
	<line id="R123" style="fill:none;stroke:#00FF00;stroke-miterlimit:10;" x1="169" y1="194" x2="166" y2="183"/>
	<line id="R124" style="fill:none;stroke:#00FF00;stroke-miterlimit:10;" x1="242.5" y1="193.5" x2="237.5" y2="184"/>
	<line id="R125" style="fill:none;stroke:#00FF00;stroke-miterlimit:10;" x1="320" y1="193" x2="316" y2="184"/>
	<line id="R126" style="fill:none;stroke:#00FF00;stroke-miterlimit:10;" x1="340" y1="193.5" x2="342.38" y2="184.5"/>
</g>
<g id="Labels">
	
		<text id="female2_1_" transform="matrix(1 0 0 1 136.724 652.0394)" style="fill:#FFFFFF; font-family:'FontAwesome'; font-size:25.7994px;"></text>
	
		<text id="male1_1_" transform="matrix(1 0 0 1 173.4539 652.0391)" style="fill:#FFFFFF; font-family:'FontAwesome'; font-size:25.7994px;"></text>
	<text id="title" transform="matrix(1 0 0 1 15.658 21.4135)"><tspan x="0" y="0" style="font-family:'OptimaLTStd'; font-size:25.7994px;">Volunteer State Community College </tspan><tspan x="75.28" y="30.96" style="font-family:'OptimaLTStd'; font-size:25.7994px;">Warf Science Building</tspan></text>
	<rect id="swatch-blue" x="107.86" y="65.97" style="fill:#006699;" width="22.11" height="22.11"/>
	<rect id="swatch-pink" x="247.63" y="65.97" style="fill:#993333;" width="22.11" height="22.11"/>
	
		<text id="legend-classrooms" transform="matrix(1 0 0 1 136.412 82.2538)" style="font-family:'OptimaLTStd'; font-size:16.5853px;">Classrooms</text>
	<text id="legend-offices" transform="matrix(1 0 0 1 275.1009 82.2538)" style="font-family:'OptimaLTStd'; font-size:16.5853px;">Offices</text>
	<text transform="matrix(1 0 0 1 50.0027 160.5)" style="fill:#FFFFFF; font-family:'MyriadPro-Regular'; font-size:24px;">122</text>
	<text transform="matrix(1 0 0 1 124.5027 160.5)" style="fill:#FFFFFF; font-family:'MyriadPro-Regular'; font-size:24px;">123</text>
	<text transform="matrix(1 0 0 1 197.5027 160.5)" style="fill:#FFFFFF; font-family:'MyriadPro-Regular'; font-size:24px;">124</text>
	<text transform="matrix(1 0 0 1 271.7405 160.5)" style="fill:#FFFFFF; font-family:'MyriadPro-Regular'; font-size:24px;">125</text>
	<text transform="matrix(1 0 0 1 346.0027 160.5)" style="fill:#FFFFFF; font-family:'MyriadPro-Regular'; font-size:24px;">126</text>
	<text transform="matrix(1 0 0 1 112.5027 283)" style="fill:#FFFFFF; font-family:'MyriadPro-Regular'; font-size:24px;">121</text>
	<text transform="matrix(1 0 0 1 112.5027 374)" style="fill:#FFFFFF; font-family:'MyriadPro-Regular'; font-size:24px;">119</text>
	<text transform="matrix(1 0 0 1 291.7527 283)" style="fill:#FFFFFF; font-family:'MyriadPro-Regular'; font-size:24px;">120</text>
	<text transform="matrix(1 0 0 1 289.5027 374)" style="fill:#FFFFFF; font-family:'MyriadPro-Regular'; font-size:24px;">118</text>
	<text transform="matrix(1 0 0 1 289.5027 469.5)" style="fill:#FFFFFF; font-family:'MyriadPro-Regular'; font-size:24px;">116</text>
	<text transform="matrix(1 0 0 1 289.5027 565.5)" style="fill:#FFFFFF; font-family:'MyriadPro-Regular'; font-size:24px;">114</text>
	<text transform="matrix(1 0 0 1 112.5027 515)" style="fill:#FFFFFF; font-family:'MyriadPro-Regular'; font-size:24px;">117</text>
	<text transform="matrix(1 0 0 1 291.7527 652.0391)" style="fill:#FFFFFF; font-family:'MyriadPro-Regular'; font-size:24px;">100</text>
	<text transform="matrix(1 0 0 1 18.0027 656.5)" style="fill:#FFFFFF; font-family:'MyriadPro-Regular'; font-size:24px;">111</text>
	<text transform="matrix(1 0 0 1 43.0027 778.5)" style="fill:#FFFFFF; font-family:'MyriadPro-Regular'; font-size:24px;">110</text>
	<text transform="matrix(1 0 0 1 263.5027 778.5)" style="fill:#FFFFFF; font-family:'MyriadPro-Regular'; font-size:24px;">106</text>
	<text transform="matrix(1 0 0 1 406.5027 778.5)" style="fill:#FFFFFF; font-family:'MyriadPro-Regular'; font-size:24px;">103</text>
	<text transform="matrix(1 0 0 1 360.5027 778.5)" style="fill:#FFFFFF; font-family:'MyriadPro-Regular'; font-size:24px;">104</text>
	<text transform="matrix(1 0 0 1 137.1277 799.625)" style="fill:#FFFFFF; font-family:'MyriadPro-Regular'; font-size:24px;">107</text>
	<text transform="matrix(1 0 0 1 156.1277 750.5)" style="fill:#FFFFFF; font-family:'MyriadPro-Regular'; font-size:18px;">108</text>
	<text transform="matrix(1 0 0 1 125.0027 750.5)" style="fill:#FFFFFF; font-family:'MyriadPro-Regular'; font-size:18px;">109</text>
	<text transform="matrix(1 0 0 1 400.7527 689.5391)" style="fill:#FFFFFF; font-family:'MyriadPro-Regular'; font-size:24px;">102</text>
</g>
<g id="Paths">
	<line style="fill:none;stroke:#FF00FF;stroke-miterlimit:10;" x1="112.5" y1="731.5" x2="112.5" y2="709.57"/>
	<line style="fill:none;stroke:#FF00FF;stroke-miterlimit:10;" x1="61" y1="689.54" x2="63" y2="709.57"/>
	<line style="fill:none;stroke:#FF00FF;stroke-miterlimit:10;" x1="112.5" y1="709.57" x2="63" y2="709.57"/>
	<line style="fill:none;stroke:#FF00FF;stroke-miterlimit:10;" x1="182" y1="775.5" x2="214.96" y2="775.5"/>
	<line style="fill:none;stroke:#FF00FF;stroke-miterlimit:10;" x1="214.96" y1="775.5" x2="214.96" y2="709.39"/>
	<line style="fill:none;stroke:#FF00FF;stroke-miterlimit:10;" x1="252" y1="726" x2="250" y2="709.57"/>
	<line style="fill:none;stroke:#FF00FF;stroke-miterlimit:10;" x1="319.5" y1="689.54" x2="319.5" y2="709.39"/>
	<line style="fill:none;stroke:#FF00FF;stroke-miterlimit:10;" x1="250" y1="709.57" x2="319.5" y2="709.39"/>
	<line style="fill:none;stroke:#FF00FF;stroke-miterlimit:10;" x1="367" y1="726" x2="360.5" y2="709.75"/>
	<line style="fill:none;stroke:#FF00FF;stroke-miterlimit:10;" x1="319.5" y1="709.39" x2="360.5" y2="709.75"/>
	<line style="fill:none;stroke:#FF00FF;stroke-miterlimit:10;" x1="414.5" y1="726" x2="409.5" y2="709.75"/>
	<line style="fill:none;stroke:#FF00FF;stroke-miterlimit:10;" x1="360.5" y1="709.75" x2="409.5" y2="709.75"/>
	<line style="fill:none;stroke:#FF00FF;stroke-miterlimit:10;" x1="423" y1="694" x2="423" y2="709.48"/>
	<line style="fill:none;stroke:#FF00FF;stroke-miterlimit:10;" x1="409.5" y1="709.75" x2="423" y2="709.48"/>
	<line style="fill:none;stroke:#FF00FF;stroke-miterlimit:10;" x1="248.5" y1="595" x2="216.13" y2="594.5"/>
	<line style="fill:none;stroke:#FF00FF;stroke-miterlimit:10;" x1="214.96" y1="709.39" x2="216.13" y2="594.5"/>
	<line style="fill:none;stroke:#FF00FF;stroke-miterlimit:10;" x1="187.25" y1="503" x2="216.13" y2="503"/>
	<line style="fill:none;stroke:#FF00FF;stroke-miterlimit:10;" x1="249" y1="502" x2="216.13" y2="503"/>
	<line style="fill:none;stroke:#FF00FF;stroke-miterlimit:10;" x1="216.13" y1="594.5" x2="216.13" y2="503"/>
	<line style="fill:none;stroke:#FF00FF;stroke-miterlimit:10;" x1="187.25" y1="408.88" x2="216.13" y2="408.88"/>
	<line style="fill:none;stroke:#FF00FF;stroke-miterlimit:10;" x1="216.13" y1="503" x2="216.13" y2="408.88"/>
	<line style="fill:none;stroke:#FF00FF;stroke-miterlimit:10;" x1="248.02" y1="330.39" x2="215.54" y2="331.95"/>
	<line style="fill:none;stroke:#FF00FF;stroke-miterlimit:10;" x1="216.13" y1="408.88" x2="215.54" y2="331.95"/>
	<line style="fill:none;stroke:#FF00FF;stroke-miterlimit:10;" x1="184.5" y1="315" x2="214.96" y2="315"/>
	<line style="fill:none;stroke:#FF00FF;stroke-miterlimit:10;" x1="248" y1="314.5" x2="214.96" y2="315"/>
	<line style="fill:none;stroke:#FF00FF;stroke-miterlimit:10;" x1="215.54" y1="331.95" x2="214.96" y2="315"/>
	<line style="fill:none;stroke:#FF00FF;stroke-miterlimit:10;" x1="93" y1="194" x2="93" y2="214.38"/>
	<line style="fill:none;stroke:#FF00FF;stroke-miterlimit:10;" x1="169" y1="194" x2="169.5" y2="214.38"/>
	<line style="fill:none;stroke:#FF00FF;stroke-miterlimit:10;" x1="93" y1="214.38" x2="169.5" y2="214.38"/>
	<line style="fill:none;stroke:#FF00FF;stroke-miterlimit:10;" x1="242.5" y1="193.5" x2="242.5" y2="214.38"/>
	<line style="fill:none;stroke:#FF00FF;stroke-miterlimit:10;" x1="214.96" y1="315" x2="215.25" y2="214.38"/>
	<line style="fill:none;stroke:#FF00FF;stroke-miterlimit:10;" x1="169.5" y1="214.38" x2="215.25" y2="214.38"/>
	<line style="fill:none;stroke:#FF00FF;stroke-miterlimit:10;" x1="242.5" y1="214.38" x2="215.25" y2="214.38"/>
	<line style="fill:none;stroke:#FF00FF;stroke-miterlimit:10;" x1="320" y1="193" x2="320" y2="214.38"/>
	<line style="fill:none;stroke:#FF00FF;stroke-miterlimit:10;" x1="242.5" y1="214.38" x2="320" y2="214.38"/>
	<line style="fill:none;stroke:#FF00FF;stroke-miterlimit:10;" x1="340" y1="193.5" x2="341.19" y2="214.38"/>
	<line style="fill:none;stroke:#FF00FF;stroke-miterlimit:10;" x1="320" y1="214.38" x2="341.19" y2="214.38"/>
	<line style="fill:none;stroke:#FF00FF;stroke-miterlimit:10;" x1="237.38" y1="701.74" x2="237.38" y2="709.39"/>
	<line style="fill:none;stroke:#FF00FF;stroke-miterlimit:10;" x1="250" y1="709.57" x2="237.38" y2="709.39"/>
	<line style="fill:none;stroke:#FF00FF;stroke-miterlimit:10;" x1="214.96" y1="709.39" x2="237.38" y2="709.39"/>
	<line style="fill:none;stroke:#FF00FF;stroke-miterlimit:10;" x1="147" y1="709.75" x2="147" y2="726"/>
	<line style="fill:none;stroke:#FF00FF;stroke-miterlimit:10;" x1="112.5" y1="709.57" x2="147" y2="709.75"/>
	<line style="fill:none;stroke:#FF00FF;stroke-miterlimit:10;" x1="163" y1="726" x2="163" y2="709.75"/>
	<line style="fill:none;stroke:#FF00FF;stroke-miterlimit:10;" x1="147" y1="709.75" x2="163" y2="709.75"/>
	<line style="fill:none;stroke:#FF00FF;stroke-miterlimit:10;" x1="214.96" y1="709.39" x2="163" y2="709.75"/>
</g>
</svg>
