<?xml version="1.0" encoding="utf-8"?>
<!-- Generator: Adobe Illustrator 19.2.1, SVG Export Plug-In . SVG Version: 6.00 Build 0)  -->
<svg version="1.1" id="Layer_1" xmlns="http://www.w3.org/2000/svg" xmlns:xlink="http://www.w3.org/1999/xlink" x="0px" y="0px"
	 width="519.66px" height="638.32px" viewBox="0 0 519.66 638.32" style="enable-background:new 0 0 519.66 638.32;"
	 xml:space="preserve">
<g id="Base">
	<polyline id="Circulation" style="fill:#D3D3D3;stroke:#000000;stroke-miterlimit:10;" points="495.62,131.77 495.62,191.32 
		495.62,296.27 518.62,296.27 518.62,335.27 495.62,335.27 495.62,468.27 518.62,468.27 518.62,504.27 490.62,504.27 490.62,637.27 
		273.66,637.27 273.53,505.27 170.42,505.27 170.55,548.27 177.62,548.27 177.62,630.27 0.62,630.27 0.62,166.27 178.62,166.27 
		178.62,261.27 170.62,261.27 170.62,296.27 273.62,296.27 273.62,131.27 357.62,131.27 357.62,150.27 408.62,150.27 408.62,132.27 
		495.12,132.27 	"/>
	<polygon style="fill:none;stroke:#000000;stroke-miterlimit:10;" points="0.67,226.82 0.5,166.32 63.49,166.32 63.66,226.82 	"/>
	<polygon style="fill:none;stroke:#000000;stroke-miterlimit:10;" points="178.62,166.27 178.62,261.27 170.66,261.27 
		170.53,296.27 63.53,296.27 63.66,166.27 	"/>
	<polygon style="fill:none;stroke:#000000;stroke-miterlimit:10;" points="0.62,226.27 0.62,294.27 47.62,294.27 47.62,264.27 
		63.62,264.27 63.62,226.27 	"/>
	
		<rect x="83.24" y="276.73" transform="matrix(-1.346818e-10 1 -1 -1.346818e-10 447.3922 213.0743)" style="fill:none;stroke:#000000;stroke-miterlimit:10;" width="67.83" height="107"/>
	
		<rect x="173.41" y="361.4" transform="matrix(-1.347315e-10 1 -1 -1.347315e-10 573.5588 190.741)" style="fill:none;stroke:#000000;stroke-miterlimit:10;" width="36" height="41.5"/>
	
		<rect x="133.74" y="363.23" transform="matrix(-1.347315e-10 1 -1 -1.347315e-10 533.8922 230.4076)" style="fill:none;stroke:#000000;stroke-miterlimit:10;" width="36" height="37.83"/>
	
		<rect x="97.99" y="365.32" transform="matrix(-1.347315e-10 1 -1 -1.347315e-10 498.1422 266.1576)" style="fill:none;stroke:#000000;stroke-miterlimit:10;" width="36" height="33.67"/>
	
		<rect x="81.66" y="362.65" transform="matrix(-1.347191e-10 1 -1 -1.347191e-10 461.8088 282.491)" style="fill:none;stroke:#000000;stroke-miterlimit:10;" width="16" height="19"/>
	<polygon style="fill:none;stroke:#000000;stroke-miterlimit:10;" points="0.66,505.15 0.66,416.32 64.49,416.48 63.49,505.15 	"/>
	
		<rect x="39.99" y="449.65" transform="matrix(-1.346853e-10 1 -1 -1.346853e-10 545.1422 385.1576)" style="fill:none;stroke:#000000;stroke-miterlimit:10;" width="80" height="31"/>
	<polygon style="fill:none;stroke:#000000;stroke-miterlimit:10;" points="148.83,548.82 148.49,505.15 170.33,505.15 
		170.66,548.82 	"/>
	
		<rect x="109.66" y="509.65" transform="matrix(-1.346747e-10 1 -1 -1.346747e-10 658.4755 395.491)" style="fill:none;stroke:#000000;stroke-miterlimit:10;" width="43.67" height="34.67"/>
	
		<rect x="121.83" y="541.15" transform="matrix(-1.346933e-10 1 -1 -1.346933e-10 718.9755 426.991)" style="fill:none;stroke:#000000;stroke-miterlimit:10;" width="48.33" height="63.67"/>
	<polygon style="fill:none;stroke:#000000;stroke-miterlimit:10;" points="114.16,597.15 114.12,630.32 177.78,630.32 
		177.83,597.15 	"/>
	
		<rect x="205.29" y="441.28" transform="matrix(-1.346889e-10 1 -1 -1.346889e-10 710.4408 230.4563)" style="fill:none;stroke:#000000;stroke-miterlimit:10;" width="69.4" height="58.33"/>
	
		<rect x="167.83" y="462.15" transform="matrix(-1.346978e-10 1 -1 -1.346978e-10 672.9755 291.491)" style="fill:none;stroke:#000000;stroke-miterlimit:10;" width="45.83" height="40.17"/>
	<polygon style="fill:none;stroke:#000000;stroke-miterlimit:10;" points="63.62,416.27 63.62,264.27 47.62,264.27 47.62,294.27 
		0.62,294.27 0.62,416.27 	"/>
	<polygon id="Elevator" style="fill:#B49F00;stroke:#000000;stroke-miterlimit:10;" points="378.66,322.32 378.66,297.44 
		402.43,297.69 402.83,322.32 	"/>
	<polygon id="Stairs" style="fill:#4c4c4c;stroke:#000000;stroke-miterlimit:10;" points="434.49,335.82 434.33,296.32 
		518.99,296.32 519.16,335.82 	"/>
	<polygon id="Stairs_1_" style="fill:#4c4c4c;stroke:#000000;stroke-miterlimit:10;" points="434.41,505.14 434.49,468.95 
		518.66,468.32 518.66,504.32 	"/>
	
		<rect x="23.33" y="482.48" transform="matrix(-1.346693e-10 1 -1 -1.346693e-10 566.3088 481.8243)" style="fill:none;stroke:#000000;stroke-miterlimit:10;" width="37.83" height="83.17"/>
	<line style="fill:none;stroke:#000000;stroke-miterlimit:10;" x1="114.16" y1="505.15" x2="95.49" y2="505.15"/>
	<polygon id="Restrooms" style="fill:#00CCCC;stroke:#000000;stroke-miterlimit:10;" points="348.62,431.82 348.62,504.82 
		269.14,505.15 268.63,431.32 	"/>
	<line style="fill:none;stroke:#000000;stroke-miterlimit:10;" x1="348.66" y1="468.23" x2="269.16" y2="468.23"/>
	
		<rect x="368.83" y="471.15" transform="matrix(-1.346880e-10 1 -1 -1.346880e-10 873.9755 106.991)" style="fill:none;stroke:#000000;stroke-miterlimit:10;" width="29.33" height="38.67"/>
	
		<rect x="395.68" y="368.47" transform="matrix(-1.346907e-10 1 -1 -1.346907e-10 864.6248 -59.8597)" style="fill:none;stroke:#000000;stroke-miterlimit:10;" width="133.13" height="67.83"/>
	
		<rect x="369.24" y="231.9" transform="matrix(-1.346853e-10 1 -1 -1.346853e-10 659.0588 -170.9257)" style="fill:none;stroke:#000000;stroke-miterlimit:10;" width="91.5" height="24.33"/>
</g>
<g id="Rooms">
	
	<a id="R206" xlink:href="#" >
     <g><rect id="R109_3_" x="373.83" y="350.82" transform="matrix(-1.347306e-10 1 -1 -1.347306e-10 753.6422 -23.009)" style="fill:#993333;stroke:#000000;stroke-miterlimit:10;" width="29" height="29"/></g>
	</a>
	
	<a id="R206" xlink:href="#" >
     <g><rect id="R110_3_" x="374.1" y="379.54" transform="matrix(-1.347502e-10 1 -1 -1.347502e-10 782.3701 5.7189)" style="fill:#993333;stroke:#000000;stroke-miterlimit:10;" width="28.46" height="29"/></g>
	</a>
	
	<a id="R206" xlink:href="#" >
     <g><rect id="R111_3_" x="344.76" y="379.21" transform="matrix(-1.346862e-10 1 -1 -1.346862e-10 753.0368 35.0522)" style="fill:#993333;stroke:#000000;stroke-miterlimit:10;" width="28.46" height="29.67"/></g>
	</a>
	
	<a id="R206" xlink:href="#" >
     <g><rect id="R114_3_" x="361.49" y="434.48" transform="matrix(-1.346880e-10 1 -1 -1.346880e-10 837.3088 70.3243)" style="fill:#993333;stroke:#000000;stroke-miterlimit:10;" width="44" height="38.67"/></g>
	</a>
	<a id="R206" xlink:href="#" >
     <g><polygon id="R108_3_" style="fill:#993333;stroke:#000000;stroke-miterlimit:10;" points="402.62,322.27 402.62,350.27 
	373.62,350.27 373.62,379.32 344.14,379.8 343.66,349.27 310.03,349.27 309.64,296.66 378.62,297.44 378.62,322.27 	"/></g>
	</a>
	<a id="R206" xlink:href="#" >
     <g><polygon id="R112_3_" style="fill:#993333;stroke:#000000;stroke-miterlimit:10;" points="343.62,431.27 343.62,349.32 
	309.62,349.57 309.62,363.57 268.62,363.32 268.62,377.27 263.62,377.27 263.62,424.27 268.62,424.27 268.62,431.27 	"/></g>
	</a>
	<a id="R206" xlink:href="#" >
     <g><polygon id="R116_3_" style="fill:#993333;stroke:#000000;stroke-miterlimit:10;" points="274.49,637.82 274.49,505.15 
	490.66,504.32 491.49,637.82 	"/></g>
	</a>
	<a id="R206" xlink:href="#" >
     <g><polygon id="R105_3_" style="fill:#993333;stroke:#000000;stroke-miterlimit:10;" points="495.62,133.27 495.62,198.27 
	402.62,198.27 402.62,183.27 409.62,183.27 409.62,133.27 	"/></g>
	</a>
	
	<a id="R206" xlink:href="#" >
     <g><rect id="R101_3_" x="447.49" y="316.65" transform="matrix(-1.347289e-10 1 -1 -1.347289e-10 812.8088 -111.6757)" style="fill:#993333;stroke:#000000;stroke-miterlimit:10;" width="29.5" height="67.83"/></g>
	</a>
	
	<a id="R206" xlink:href="#" >
     <g><rect id="R102_3_" x="447.41" y="419.9" transform="matrix(-1.346676e-10 1 -1 -1.346676e-10 915.9755 -8.3424)" style="fill:#993333;stroke:#000000;stroke-miterlimit:10;" width="29.5" height="67.83"/></g>
	</a>
	
	<a id="R206" xlink:href="#" >
     <g><rect id="R104_3_" x="412.74" y="212.73" transform="matrix(-1.346862e-10 1 -1 -1.346862e-10 708.3922 -214.4257)" style="fill:#993333;stroke:#000000;stroke-miterlimit:10;" width="97.33" height="68.5"/></g>
	</a>
	<a id="R206" xlink:href="#" >
     <g><polygon id="R106_3_" style="fill:#993333;stroke:#000000;stroke-miterlimit:10;" points="402.41,297.67 273.62,296.32 
	273.62,130.82 357.62,131.32 357.62,149.32 409.62,148.98 409.62,183.27 402.66,183.27 	"/></g>
	</a>
</g>
<g id="Labels">
	<text transform="matrix(1 0 0 1 48.4335 21.4129)" style="font-family:'OptimaLTStd'; font-size:25.7994px;">Volunteer State Community College </text>
	<text transform="matrix(1 0 0 1 124.4257 50.8738)" style="font-family:'OptimaLTStd'; font-size:25.7994px;">Wood Campus Center </text>
	<text transform="matrix(1 0 0 1 173.9213 81.8348)" style="font-family:'OptimaLTStd'; font-size:25.7994px;">FIRST FLOOR</text>
	<polyline id="swatch-pink" style="fill:#993333;" points="281.73,122.21 281.73,100.09 303.84,100.09 303.84,122.21 	"/>
	
		<text id="legend-offices" transform="matrix(1 0 0 1 309.2021 116.3758)" style="font-family:'OptimaLTStd'; font-size:16.5853px;">Offices</text>
	<polyline id="swatch-pink_2_" style="fill:#BF58BB;" points="30.84,122.21 30.84,100.09 52.95,100.09 52.95,122.21 	"/>
	<text id="legend-library" transform="matrix(1 0 0 1 57.1015 116.3758)" style="font-family:'OptimaLTStd'; font-size:16.5853px;">Food Services/Dining Rooms</text>
	<polyline id="swatch-pink_1_" style="fill:#E8A874;" points="381.13,122.21 381.13,100.09 403.24,100.09 403.24,122.21 	"/>
	
		<text id="legend-library_1_" transform="matrix(1 0 0 1 407.3954 116.3777)" style="font-family:'OptimaLTStd'; font-size:16.5853px;">Bookstore</text>
	<text transform="matrix(1 0 0 1 438.6175 168.8997)" style="fill:#FFFFFF; font-family:'MyriadPro-Regular'; font-size:18px;">105</text>
	<text transform="matrix(1 0 0 1 449.117 248.4075)" style="fill:#FFFFFF; font-family:'MyriadPro-Regular'; font-size:18px;">104</text>
	<text transform="matrix(1 0 0 1 376.993 579.483)" style="fill:#FFFFFF; font-family:'MyriadPro-Regular'; font-size:18px;">116</text>
	<text transform="matrix(1 0 0 1 370.3258 459.3166)" style="fill:#FFFFFF; font-family:'MyriadPro-Regular'; font-size:18px;">114</text>
	<text transform="matrix(1 0 0 1 292.7824 400.1499)" style="fill:#FFFFFF; font-family:'MyriadPro-Regular'; font-size:18px;">112</text>
	<text transform="matrix(1 0 0 1 337.9923 330.2332)" style="fill:#FFFFFF; font-family:'MyriadPro-Regular'; font-size:18px;">108</text>
	<text transform="matrix(1 0 0 1 375.9931 372.1499)" style="fill:#FFFFFF; font-family:'MyriadPro-Regular'; font-size:16px;">109</text>
	<text transform="matrix(1 0 0 1 375.9931 400.1499)" style="fill:#FFFFFF; font-family:'MyriadPro-Regular'; font-size:16px;">110</text>
	<text transform="matrix(1 0 0 1 347.617 400.1499)" style="fill:#FFFFFF; font-family:'MyriadPro-Regular'; font-size:16px;">111</text>
	<text transform="matrix(1 0 0 1 450.1173 459.3166)" style="fill:#FFFFFF; font-family:'MyriadPro-Regular'; font-size:16px;">102</text>
	<text transform="matrix(1 0 0 1 450.1172 355.3511)" style="fill:#FFFFFF; font-family:'MyriadPro-Regular'; font-size:16px;">101</text>
	<polyline id="Stairs_4_" style="fill:none;stroke:#FFFFFF;stroke-miterlimit:10;" points="468.56,492.98 472.56,492.98 
		472.51,492.98 472.51,488.81 476.51,488.81 476.51,484.65 480.51,484.65 480.51,480.48 484.51,480.48 	"/>
	
		<text id="elevator" transform="matrix(1 0 0 1 385.0662 314.5508)" style="fill:#FFFFFF; font-family:'FontAwesome'; font-size:14px;"></text>
	
		<text id="male1_2_" transform="matrix(-4.489659e-11 1 -1 -4.489659e-11 303.6578 443.5832)" style="fill:#FFFFFF; font-family:'FontAwesome'; font-size:22px;"></text>
	
		<text id="female2_1_" transform="matrix(-4.489659e-11 1 -1 -4.489659e-11 303.6578 478.5842)" style="fill:#FFFFFF; font-family:'FontAwesome'; font-size:22px;"></text>
	<polyline id="Stairs_2_" style="fill:none;stroke:#FFFFFF;stroke-miterlimit:10;" points="468.56,322.32 472.56,322.32 
		472.51,322.32 472.51,318.15 476.51,318.15 476.51,313.99 480.51,313.99 480.51,309.82 484.51,309.82 	"/>
	<text transform="matrix(1 0 0 1 322.408 218.2534)" style="fill:#FFFFFF; font-family:'MyriadPro-Regular'; font-size:18px;">106</text>
</g>
<g id="Doors">
	<line id="R105_2_" style="fill:none;stroke:#00FF00;stroke-miterlimit:10;" x1="421.16" y1="191.32" x2="434.33" y2="183.65"/>
	<line id="R104_2_" style="fill:none;stroke:#00FF00;stroke-miterlimit:10;" x1="432.16" y1="226.82" x2="443.16" y2="226.82"/>
	<line id="R108_2_" style="fill:none;stroke:#00FF00;stroke-miterlimit:10;" x1="398.16" y1="335.82" x2="383.49" y2="335.82"/>
	<line id="R109_2_" style="fill:none;stroke:#00FF00;stroke-miterlimit:10;" x1="398.16" y1="365.32" x2="388.33" y2="365.32"/>
	<line id="R110_2_" style="fill:none;stroke:#00FF00;stroke-miterlimit:10;" x1="398.16" y1="390.32" x2="388.33" y2="390.32"/>
	<line id="R111_2_" style="fill:none;stroke:#00FF00;stroke-miterlimit:10;" x1="358.99" y1="402.38" x2="358.99" y2="394.04"/>
	<line id="R114_2_" style="fill:none;stroke:#00FF00;stroke-miterlimit:10;" x1="381.66" y1="435.75" x2="381.66" y2="443.58"/>
	<line id="R112_2_" style="fill:none;stroke:#00FF00;stroke-miterlimit:10;" x1="338.66" y1="419.33" x2="329.16" y2="416.32"/>
	<line id="R116_2_" style="fill:none;stroke:#00FF00;stroke-miterlimit:10;" x1="414.99" y1="510.82" x2="414.99" y2="524.07"/>
	<line id="R102_2_" style="fill:none;stroke:#00FF00;stroke-miterlimit:10;" x1="461.41" y1="443.58" x2="461.41" y2="453.82"/>
	<line id="R101_2_" style="fill:none;stroke:#00FF00;stroke-miterlimit:10;" x1="462.24" y1="360.32" x2="461.41" y2="346.82"/>
	<line id="R106_2_" style="fill:none;stroke:#00FF00;stroke-miterlimit:10;" x1="394.49" y1="221.48" x2="381.39" y2="215.02"/>
</g>
<g id="Portals">
	
		<line id="Stair.1.floor2" style="fill:none;stroke:#F15A24;stroke-miterlimit:10;" x1="453.66" y1="316.07" x2="437.66" y2="316.07"/>
	
		<line id="Elev.1.floor2" style="fill:none;stroke:#F15A24;stroke-miterlimit:10;" x1="398.16" y1="309.82" x2="386.07" y2="309.82"/>
</g>
<g id="Paths">
	<line style="fill:none;stroke:#FF00FF;stroke-miterlimit:10;" x1="437.66" y1="316.07" x2="414.99" y2="316.07"/>
	<line style="fill:none;stroke:#FF00FF;stroke-miterlimit:10;" x1="398.16" y1="309.82" x2="414.99" y2="309.82"/>
	<line style="fill:none;stroke:#FF00FF;stroke-miterlimit:10;" x1="414.99" y1="316.07" x2="414.99" y2="309.82"/>
	<line style="fill:none;stroke:#FF00FF;stroke-miterlimit:10;" x1="398.16" y1="335.82" x2="414.99" y2="335.82"/>
	<line style="fill:none;stroke:#FF00FF;stroke-miterlimit:10;" x1="414.99" y1="316.07" x2="414.99" y2="335.82"/>
	<line style="fill:none;stroke:#FF00FF;stroke-miterlimit:10;" x1="398.16" y1="365.32" x2="414.99" y2="365.32"/>
	<line style="fill:none;stroke:#FF00FF;stroke-miterlimit:10;" x1="414.99" y1="335.82" x2="414.99" y2="365.32"/>
	<line style="fill:none;stroke:#FF00FF;stroke-miterlimit:10;" x1="462.24" y1="360.32" x2="462.24" y2="402.38"/>
	<line style="fill:none;stroke:#FF00FF;stroke-miterlimit:10;" x1="461.41" y1="443.58" x2="462.24" y2="402.38"/>
	<line style="fill:none;stroke:#FF00FF;stroke-miterlimit:10;" x1="414.99" y1="365.32" x2="414.99" y2="390.32"/>
	<line style="fill:none;stroke:#FF00FF;stroke-miterlimit:10;" x1="398.16" y1="390.32" x2="414.99" y2="390.32"/>
	<line style="fill:none;stroke:#FF00FF;stroke-miterlimit:10;" x1="462.24" y1="402.38" x2="414.99" y2="402.38"/>
	<line style="fill:none;stroke:#FF00FF;stroke-miterlimit:10;" x1="414.99" y1="390.32" x2="414.99" y2="402.38"/>
	<line style="fill:none;stroke:#FF00FF;stroke-miterlimit:10;" x1="358.99" y1="402.38" x2="358.99" y2="419.33"/>
	<line style="fill:none;stroke:#FF00FF;stroke-miterlimit:10;" x1="338.66" y1="419.33" x2="358.99" y2="419.33"/>
	<line style="fill:none;stroke:#FF00FF;stroke-miterlimit:10;" x1="381.66" y1="435.75" x2="381.66" y2="419.33"/>
	<line style="fill:none;stroke:#FF00FF;stroke-miterlimit:10;" x1="358.99" y1="419.33" x2="381.66" y2="419.33"/>
	<line style="fill:none;stroke:#FF00FF;stroke-miterlimit:10;" x1="414.99" y1="402.38" x2="414.99" y2="419.33"/>
	<line style="fill:none;stroke:#FF00FF;stroke-miterlimit:10;" x1="381.66" y1="419.33" x2="414.99" y2="419.33"/>
	<line style="fill:none;stroke:#FF00FF;stroke-miterlimit:10;" x1="414.99" y1="510.82" x2="414.99" y2="419.33"/>
	<line style="fill:none;stroke:#FF00FF;stroke-miterlimit:10;" x1="432.16" y1="226.82" x2="414.99" y2="226.82"/>
	<line style="fill:none;stroke:#FF00FF;stroke-miterlimit:10;" x1="414.99" y1="309.82" x2="414.99" y2="226.82"/>
	<line style="fill:none;stroke:#FF00FF;stroke-miterlimit:10;" x1="421.16" y1="191.32" x2="414.99" y2="226.82"/>
	<line style="fill:none;stroke:#FF00FF;stroke-miterlimit:10;" x1="394.49" y1="221.48" x2="414.99" y2="226.82"/>
</g>
</svg>
