<?xml version="1.0" encoding="utf-8"?>
<!-- Generator: Adobe Illustrator 19.2.1, SVG Export Plug-In . SVG Version: 6.00 Build 0)  -->
<svg version="1.1" id="Layer_1" xmlns="http://www.w3.org/2000/svg" xmlns:xlink="http://www.w3.org/1999/xlink" x="0px" y="0px"
	 width="638.63px" height="606.31px" viewBox="0 0 638.63 606.31" style="enable-background:new 0 0 638.63 606.31;"
	 xml:space="preserve">
<g id="Base">
	<polygon id="Circulation" style="fill:#D3D3D3;stroke:#000000;stroke-miterlimit:10;" points="612.61,135.79 612.61,288.79 
		638.13,288.79 637.63,323.79 625.61,323.79 625.61,447.79 637.61,447.79 637.61,480.79 612.61,480.79 612.61,605.79 408.61,605.79 
		408.61,479.79 311.61,479.79 311.61,522.79 318.61,522.79 318.61,598.79 154.61,598.79 154.61,506.79 0.63,506.79 0.5,259.79 
		154.5,259.79 154.63,166.79 320.61,166.79 320.61,255.79 409.61,255.79 409.61,135.79 	"/>
	<polygon id="Restrooms" style="fill:#00CCCC;stroke:#000000;stroke-miterlimit:10;" points="213.61,319.06 213.61,382.06 
		149.61,381.81 149.61,367.79 160.61,367.79 160.61,333.79 149.61,333.79 149.61,318.81 	"/>
	<polygon id="DiningRoomB" style="fill:#E8A874;stroke:#000000;stroke-miterlimit:10;" points="578.61,135.79 578.61,169.79 
		572.61,169.79 572.61,255.79 440.61,255.79 440.61,244.79 409.61,244.79 409.61,135.79 	"/>
	<polygon id="DiningRoomA" style="fill:#BF58BB;stroke:#000000;stroke-miterlimit:10;" points="236.13,288.79 400.61,288.79 
		400.61,478.79 264.61,478.79 264.61,487.79 245.61,487.79 245.61,415.31 213.61,383.43 213.61,311.31 	"/>
	<polygon id="FoodServices" style="fill:#BF58BB;stroke:#000000;stroke-miterlimit:10;" points="230.61,487.79 230.61,506.79 
		154.61,506.79 154.61,487.79 149.61,487.79 149.61,381.79 213.13,381.79 245.61,414.81 245.61,487.79 	"/>
	
		<rect x="225.13" y="493.56" transform="matrix(-1.346853e-10 1 -1 -1.346853e-10 758.1804 262.6799)" style="fill:none;stroke:#000000;stroke-miterlimit:10;" width="45.25" height="33.75"/>
	
		<rect x="266.5" y="476.93" transform="matrix(-1.347084e-10 1 -1 -1.347084e-10 789.3054 212.3049)" style="fill:none;stroke:#000000;stroke-miterlimit:10;" width="44" height="47.75"/>
	
		<rect x="276.88" y="510.56" transform="matrix(-1.346658e-10 1 -1 -1.346658e-10 829.6804 245.9299)" style="fill:none;stroke:#000000;stroke-miterlimit:10;" width="30" height="54.5"/>
	
		<rect x="275.38" y="555.06" transform="matrix(-1.347040e-10 1 -1 -1.347040e-10 874.1804 277.4299)" style="fill:none;stroke:#000000;stroke-miterlimit:10;" width="46" height="41.5"/>
	<polygon style="fill:none;stroke:#000000;stroke-miterlimit:10;" points="227.63,599.06 227.63,567.56 252.38,567.56 
		252.38,598.81 	"/>
	
		<rect x="210" y="581.43" transform="matrix(-1.347333e-10 1 -1 -1.347333e-10 809.0554 367.8049)" style="fill:none;stroke:#000000;stroke-miterlimit:10;" width="21.25" height="14"/>
	
		<rect x="195" y="580.43" transform="matrix(-1.347333e-10 1 -1 -1.347333e-10 794.0554 382.8049)" style="fill:none;stroke:#000000;stroke-miterlimit:10;" width="21.25" height="16"/>
	
		<rect x="160.38" y="561.81" transform="matrix(-1.346924e-10 1 -1 -1.346924e-10 759.4304 407.1799)" style="fill:none;stroke:#000000;stroke-miterlimit:10;" width="31.5" height="43"/>
	
		<rect x="123.75" y="475.93" transform="matrix(-1.347013e-10 1 -1 -1.347013e-10 630.5554 364.0549)" style="fill:none;stroke:#000000;stroke-miterlimit:10;" width="19" height="42.75"/>
	
		<rect x="123.75" y="248.18" transform="matrix(-1.347493e-10 1 -1 -1.347493e-10 402.8054 136.3049)" style="fill:none;stroke:#000000;stroke-miterlimit:10;" width="19" height="42.75"/>
	
		<rect id="Elevator" x="508.44" y="287.99" transform="matrix(-1.347120e-10 1 -1 -1.347120e-10 818.6179 -219.6326)" style="fill:#B39E00;stroke:#000000;stroke-miterlimit:10;" width="21.38" height="23"/>
	<polygon id="Stairs_1_" style="fill:#4c4c4c;stroke:#000000;stroke-miterlimit:10;" points="557.63,323.56 557.63,288.81 
		638.13,288.81 637.63,323.81 	"/>
	
		<rect id="Stairs" x="581.38" y="424.06" transform="matrix(-1.346605e-10 1 -1 -1.346605e-10 1062.1804 -133.5701)" style="fill:#4c4c4c;stroke:#000000;stroke-miterlimit:10;" width="33" height="80.5"/>
	
		<rect x="578.88" y="135.56" transform="matrix(-1.346587e-10 1 -1 -1.346587e-10 748.6804 -443.0701)" style="fill:none;stroke:#000000;stroke-miterlimit:10;" width="34" height="34.5"/>
	
		<rect x="549.88" y="192.56" transform="matrix(-1.347111e-10 1 -1 -1.347111e-10 805.6804 -380.0701)" style="fill:none;stroke:#000000;stroke-miterlimit:10;" width="86" height="40.5"/>
	
		<rect x="582.88" y="258.56" transform="matrix(-1.346605e-10 1 -1 -1.346605e-10 871.6804 -327.0701)" style="fill:none;stroke:#000000;stroke-miterlimit:10;" width="33" height="27.5"/>
	
		<rect x="555.13" y="258.31" transform="matrix(-1.346605e-10 1 -1 -1.346605e-10 843.9304 -299.3201)" style="fill:none;stroke:#000000;stroke-miterlimit:10;" width="33" height="28"/>
	
		<rect x="515.25" y="336.93" transform="matrix(-1.347004e-10 1 -1 -1.347004e-10 963.0554 -191.6951)" style="fill:none;stroke:#000000;stroke-miterlimit:10;" width="124.25" height="97.5"/>
	<polygon style="fill:none;stroke:#000000;stroke-miterlimit:10;" points="509.29,478.81 509.63,447.81 557.63,447.81 
		557.29,478.81 	"/>
	
		<rect x="487.25" y="496.43" transform="matrix(-1.347058e-10 1 -1 -1.347058e-10 1010.0554 8.3049)" style="fill:none;stroke:#000000;stroke-miterlimit:10;" width="27.25" height="25.5"/>
	
		<rect id="Restrooms_1_" x="396.88" y="551.56" transform="matrix(-1.346880e-10 1 -1 -1.346880e-10 1002.6804 142.9299)" style="fill:#00CCCC;stroke:#000000;stroke-miterlimit:10;" width="66" height="42.5"/>
	<line style="fill:none;stroke:#000000;stroke-miterlimit:10;" x1="430.38" y1="539.81" x2="430.38" y2="605.81"/>
	<line style="fill:none;stroke:#000000;stroke-miterlimit:10;" x1="213.13" y1="350.43" x2="160.63" y2="350.43"/>
</g>
<g id="Rooms">
	<a id="R212" xlink:href="#" >
     <g><polygon id="R212" style="fill:#BF58BB;stroke:#000000;stroke-miterlimit:10;" points="528.61,323.79 528.61,447.79 
	509.61,447.79 509.61,478.79 400.61,478.79 400.61,288.79 507.61,288.79 507.61,323.79 	"/></g>
	</a>
	
	<a id="R217" xlink:href="#" >
     <g><rect id="R217" x="-66.87" y="328.06" transform="matrix(-1.346942e-10 1 -1 -1.346942e-10 439.9304 326.9299)" style="fill:#993333;stroke:#000000;stroke-miterlimit:10;" width="246.75" height="110.75"/></g>
	</a>
	
	<a id="R213" xlink:href="#" >
     <g><rect id="R213" x="259.94" y="183.49" transform="matrix(-1.347120e-10 1 -1 -1.347120e-10 503.9929 -92.8826)" style="fill:#993333;stroke:#000000;stroke-miterlimit:10;" width="77" height="44.12"/></g>
	</a>
	
	<a id="R214" xlink:href="#" >
     <g><rect id="R214" x="206.5" y="174.18" transform="matrix(-1.347120e-10 1 -1 -1.347120e-10 450.5554 -39.4451)" style="fill:#993333;stroke:#000000;stroke-miterlimit:10;" width="77" height="62.75"/></g>
	</a>
	
	<a id="R215" xlink:href="#" >
     <g><polygon id="R215" style="fill:#993333;stroke:#000000;stroke-miterlimit:10;" points="213,268.41 193.38,288.79 154.61,288.79 
	154.61,166.79 213.13,166.79 	"/></g>
	</a>
	
	<a id="R211" xlink:href="#" >
     <g><rect id="R211" x="541.38" y="468.06" transform="matrix(-1.346951e-10 1 -1 -1.346951e-10 1081.1804 -62.5701)" style="fill:#993333;stroke:#000000;stroke-miterlimit:10;" width="61" height="82.5"/></g>
	</a>
	
	<a id="R206" xlink:href="#" >
     <g><rect id="R206" x="426.38" y="461.06" transform="matrix(-1.346880e-10 1 -1 -1.346880e-10 949.1804 52.4299)" style="fill:#993333;stroke:#000000;stroke-miterlimit:10;" width="44" height="79.5"/></g>
	</a>
	
	<a id="R210" xlink:href="#" >
     <g><rect id="R210" x="499.13" y="491.81" transform="matrix(-1.346880e-10 1 -1 -1.346880e-10 1104.9304 40.6799)" style="fill:#993333;stroke:#000000;stroke-miterlimit:10;" width="66" height="162"/></g>
	</a>
</g>
<g id="Labels">
	<text transform="matrix(1 0 0 1 127.755 21.4131)" style="font-family:'OptimaLTStd'; font-size:25.7994px;">Volunteer State Community College </text>
	<text transform="matrix(1 0 0 1 203.7472 50.874)" style="font-family:'OptimaLTStd'; font-size:25.7994px;">Wood Campus Center </text>
	<text transform="matrix(1 0 0 1 232.4615 81.835)" style="font-family:'OptimaLTStd'; font-size:25.7994px;">SECOND FLOOR</text>
	<polyline id="swatch-pink" style="fill:#993333;" points="361.05,122.21 361.05,100.09 383.16,100.09 383.16,122.21 	"/>
	<text id="legend-offices" transform="matrix(1 0 0 1 388.5235 116.376)" style="font-family:'OptimaLTStd'; font-size:16.5853px;">Offices</text>
	<polyline id="swatch-pink_2_" style="fill:#BF58BB;" points="110.16,122.21 110.16,100.09 132.27,100.09 132.27,122.21 	"/>
	<text id="legend-library" transform="matrix(1 0 0 1 136.423 116.376)" style="font-family:'OptimaLTStd'; font-size:16.5853px;">Food Services/Dining Rooms</text>
	<polyline id="swatch-pink_1_" style="fill:#E8A874;" points="460.45,122.21 460.45,100.09 482.56,100.09 482.56,122.21 	"/>
	
		<text id="legend-library_1_" transform="matrix(1 0 0 1 486.7169 116.376)" style="font-family:'OptimaLTStd'; font-size:16.5853px;">Bookstore</text>
	
		<text id="male1_1_" transform="matrix(1 0 0 1 414.1169 580.3325)" style="fill:#FFFFFF; font-family:'FontAwesome'; font-size:18px;"></text>
	<polyline id="Stairs_4_" style="fill:none;stroke:#FFFFFF;stroke-miterlimit:10;" points="591.4,312.43 595.4,312.43 
		595.35,312.43 595.35,308.26 599.35,308.26 599.35,304.1 603.35,304.1 603.35,299.93 607.35,299.93 	"/>
	
		<text id="elevator" transform="matrix(1 0 0 1 512.6248 304.1526)" style="fill:#FFFFFF; font-family:'FontAwesome'; font-size:14px;"></text>
	
		<text id="female2_2_" transform="matrix(1 0 0 1 433.9133 580.6182)" style="fill:#FFFFFF; font-family:'FontAwesome'; font-size:18px;"></text>
	<polyline id="Stairs_2_" style="fill:none;stroke:#FFFFFF;stroke-miterlimit:10;" points="589.9,470.56 593.9,470.56 
		593.85,470.56 593.85,466.39 597.85,466.39 597.85,462.23 601.85,462.23 601.85,458.06 605.85,458.06 	"/>
	
		<text id="male1_2_" transform="matrix(1 0 0 1 180.447 342.2827)" style="fill:#FFFFFF; font-family:'FontAwesome'; font-size:22px;"></text>
	
		<text id="female2_1_" transform="matrix(1 0 0 1 178.8772 373.8555)" style="fill:#FFFFFF; font-family:'FontAwesome'; font-size:22px;"></text>
	<text transform="matrix(1 0 0 1 457.5001 189.1195)"><tspan x="0" y="0" style="fill:#FFFFFF; font-family:'MyriadPro-Regular'; font-size:18px;">Bookstore </tspan><tspan x="24.07" y="21.6" style="fill:#FFFFFF; font-family:'MyriadPro-Regular'; font-size:18px;">212</tspan></text>
	<text transform="matrix(1 0 0 1 405.0266 381.8062)"><tspan x="0" y="0" style="fill:#FFFFFF; font-family:'MyriadPro-Regular'; font-size:16px;">Mary Cole Nichols </tspan><tspan x="9.69" y="19.2" style="fill:#FFFFFF; font-family:'MyriadPro-Regular'; font-size:16px;">Dining Room B</tspan></text>
	<text transform="matrix(1 0 0 1 245.3264 379.5632)"><tspan x="0" y="0" style="fill:#FFFFFF; font-family:'MyriadPro-Regular'; font-size:18px;">Mary Cole Nichols </tspan><tspan x="10.27" y="21.6" style="fill:#FFFFFF; font-family:'MyriadPro-Regular'; font-size:18px;">Dining Room A</tspan></text>
	<text transform="matrix(1 0 0 1 178.2844 438.3057)"><tspan x="0" y="0" style="fill:#FFFFFF; font-family:'MyriadPro-Regular'; font-size:18px;">Food </tspan><tspan x="-11.09" y="21.6" style="fill:#FFFFFF; font-family:'MyriadPro-Regular'; font-size:18px;">Services</tspan></text>
	<text transform="matrix(1 0 0 1 39.5715 382.0552)" style="fill:#FFFFFF; font-family:'MyriadPro-Regular'; font-size:22px;">217</text>
	<text transform="matrix(1 0 0 1 166.937 223.305)" style="fill:#FFFFFF; font-family:'MyriadPro-Regular'; font-size:22px;">215</text>
	<text transform="matrix(1 0 0 1 227.0489 212.003)" style="fill:#FFFFFF; font-family:'MyriadPro-Regular'; font-size:22px;">214</text>
	<text transform="matrix(1 0 0 1 281.509 212.8053)" style="fill:#FFFFFF; font-family:'MyriadPro-Regular'; font-size:22px;">213</text>
	<text transform="matrix(1 0 0 1 515.196 583.3052)" style="fill:#FFFFFF; font-family:'MyriadPro-Regular'; font-size:22px;">210</text>
	<text transform="matrix(1 0 0 1 431.4465 503.8056)" style="fill:#FFFFFF; font-family:'MyriadPro-Regular'; font-size:22px;">206</text>
	<text transform="matrix(1 0 0 1 552.196 515.889)" style="fill:#FFFFFF; font-family:'MyriadPro-Regular'; font-size:22px;">211</text>
	<text transform="matrix(1 0 0 1 566.4734 386.768)" style="font-family:'MyriadPro-Regular'; font-size:18px;">Patio</text>
</g>
<g id="Doors">
	<line id="lcd.1" style="fill:none;stroke:#00FF00;stroke-miterlimit:10;" x1="448.38" y1="259.54" x2="442.11" y2="259.54"/>
	<line id="R217_2_" style="fill:none;stroke:#00FF00;stroke-miterlimit:10;" x1="104.38" y1="393.97" x2="84.13" y2="388.31"/>
	<line id="R215_2_" style="fill:none;stroke:#00FF00;stroke-miterlimit:10;" x1="197.63" y1="273.97" x2="186.88" y2="263.64"/>
	<line id="R214_2_" style="fill:none;stroke:#00FF00;stroke-miterlimit:10;" x1="227.63" y1="236.31" x2="230.88" y2="219.97"/>
	<line id="R213_2_" style="fill:none;stroke:#00FF00;stroke-miterlimit:10;" x1="298.44" y1="236.97" x2="298.38" y2="219.97"/>
	<line id="R206_2_" style="fill:none;stroke:#00FF00;stroke-miterlimit:10;" x1="451.13" y1="518.31" x2="451.13" y2="506.81"/>
	<line id="R211_2_" style="fill:none;stroke:#00FF00;stroke-miterlimit:10;" x1="536.13" y1="506.81" x2="548.79" y2="500.81"/>
	<line id="R210_2_" style="fill:none;stroke:#00FF00;stroke-miterlimit:10;" x1="521.13" y1="545.64" x2="521.13" y2="562.97"/>
	<line id="R212" style="fill:none;stroke:#00FF00;stroke-miterlimit:10;" x1="427.44" y1="236.97" x2="437.44" y2="223.31"/>
</g>
<g id="Portals">
	
		<line id="Stair.1.floor1" style="fill:none;stroke:#F15A24;stroke-miterlimit:10;" x1="560.79" y1="304.03" x2="575.46" y2="304.03"/>
	
		<line id="Elev.1.floor1" style="fill:none;stroke:#F15A24;stroke-miterlimit:10;" x1="528.63" y1="299.49" x2="519.13" y2="299.49"/>
</g>
<g id="Paths">
	<line style="fill:none;stroke:#FF00FF;stroke-miterlimit:10;" x1="133.25" y1="393.97" x2="133.25" y2="379.56"/>
	<line style="fill:none;stroke:#FF00FF;stroke-miterlimit:10;" x1="133.25" y1="393.97" x2="104.38" y2="393.97"/>
	<line style="fill:none;stroke:#FF00FF;stroke-miterlimit:10;" x1="133.25" y1="379.56" x2="133.25" y2="303.56"/>
	<line style="fill:none;stroke:#FF00FF;stroke-miterlimit:10;" x1="201.5" y1="303.56" x2="133.25" y2="303.56"/>
	<line style="fill:none;stroke:#FF00FF;stroke-miterlimit:10;" x1="201.5" y1="303.56" x2="212.44" y2="292.62"/>
	<line style="fill:none;stroke:#FF00FF;stroke-miterlimit:10;" x1="197.63" y1="273.97" x2="212.44" y2="292.62"/>
	<line style="fill:none;stroke:#FF00FF;stroke-miterlimit:10;" x1="227.63" y1="236.31" x2="229.81" y2="275.24"/>
	<line style="fill:none;stroke:#FF00FF;stroke-miterlimit:10;" x1="212.44" y1="292.62" x2="229.81" y2="275.24"/>
	<line style="fill:none;stroke:#FF00FF;stroke-miterlimit:10;" x1="229.81" y1="275.24" x2="298.44" y2="275.24"/>
	<line style="fill:none;stroke:#FF00FF;stroke-miterlimit:10;" x1="298.44" y1="236.97" x2="298.44" y2="275.24"/>
	<line style="fill:none;stroke:#FF00FF;stroke-miterlimit:10;" x1="528.63" y1="299.49" x2="542.46" y2="299.49"/>
	<line style="fill:none;stroke:#FF00FF;stroke-miterlimit:10;" x1="542.46" y1="275.24" x2="542.46" y2="299.49"/>
	<line style="fill:none;stroke:#FF00FF;stroke-miterlimit:10;" x1="560.79" y1="304.03" x2="542.46" y2="299.49"/>
	<line style="fill:none;stroke:#FF00FF;stroke-miterlimit:10;" x1="542.46" y1="461.64" x2="542.46" y2="299.49"/>
	<line style="fill:none;stroke:#FF00FF;stroke-miterlimit:10;" x1="521.13" y1="545.64" x2="521.13" y2="530.97"/>
	<line style="fill:none;stroke:#FF00FF;stroke-miterlimit:10;" x1="451.13" y1="518.31" x2="451.13" y2="530.97"/>
	<line style="fill:none;stroke:#FF00FF;stroke-miterlimit:10;" x1="521.13" y1="530.97" x2="451.13" y2="530.97"/>
	<line style="fill:none;stroke:#FF00FF;stroke-miterlimit:10;" x1="536.13" y1="506.81" x2="521.13" y2="506.81"/>
	<line style="fill:none;stroke:#FF00FF;stroke-miterlimit:10;" x1="521.13" y1="530.97" x2="521.13" y2="506.81"/>
	<line style="fill:none;stroke:#FF00FF;stroke-miterlimit:10;" x1="521.13" y1="483.64" x2="521.13" y2="506.81"/>
	<line style="fill:none;stroke:#FF00FF;stroke-miterlimit:10;" x1="542.46" y1="461.64" x2="521.13" y2="483.64"/>
	<line style="fill:none;stroke:#FF00FF;stroke-miterlimit:10;" x1="542.46" y1="275.24" x2="448.38" y2="275.24"/>
	<line style="fill:none;stroke:#FF00FF;stroke-miterlimit:10;" x1="448.38" y1="259.54" x2="448.38" y2="275.24"/>
	<line style="fill:none;stroke:#FF00FF;stroke-miterlimit:10;" x1="427.44" y1="236.97" x2="426.77" y2="275.24"/>
	<line style="fill:none;stroke:#FF00FF;stroke-miterlimit:10;" x1="448.38" y1="275.24" x2="426.77" y2="275.24"/>
	<line style="fill:none;stroke:#FF00FF;stroke-miterlimit:10;" x1="298.44" y1="275.24" x2="426.77" y2="275.24"/>
</g>
</svg>
