<?xml version="1.0" encoding="utf-8"?>
<!-- Generator: Adobe Illustrator 19.2.1, SVG Export Plug-In . SVG Version: 6.00 Build 0)  -->
<svg version="1.1" id="Layer_1" xmlns="http://www.w3.org/2000/svg" xmlns:xlink="http://www.w3.org/1999/xlink" x="0px" y="0px"
	 width="507.5px" height="668.15px" viewBox="0 0 507.5 668.15" style="enable-background:new 0 0 507.5 668.15;"
	 xml:space="preserve">
<g id="Base">
	<polyline id="Circulation" style="fill:#D3D3D3;stroke:#000000;stroke-miterlimit:10;" points="1,172.49 60.5,172.49 165.5,172.49 
		165.5,149.49 204.5,149.49 204.5,172.49 337.5,172.49 337.5,149.49 373.5,149.49 373.5,177.49 506.5,177.49 506.5,394.49 
		374.5,394.61 374.5,497.72 417.5,497.6 417.5,490.49 499.5,490.49 499.5,667.49 35.5,667.49 35.5,489.49 130.5,489.49 
		130.5,497.49 165.5,497.49 165.5,394.49 0.5,394.49 0.5,310.49 19.5,310.49 19.5,259.49 1.5,259.49 1.5,172.99 	"/>
	<polygon style="fill:none;stroke:#000000;stroke-miterlimit:10;" points="96,667.48 35.5,667.64 35.5,604.65 96,604.49 	"/>
	<polygon style="fill:none;stroke:#000000;stroke-miterlimit:10;" points="35.5,489.49 130.5,489.49 130.5,497.49 165.5,497.61 
		165.5,604.61 35.5,604.49 	"/>
	<polygon style="fill:none;stroke:#000000;stroke-miterlimit:10;" points="95.5,667.49 163.5,667.49 163.5,620.49 133.5,620.49 
		133.5,604.49 95.5,604.49 	"/>
	<rect x="165.5" y="497.49" style="fill:none;stroke:#000000;stroke-miterlimit:10;" width="67.83" height="107"/>
	<rect x="233.33" y="455.99" style="fill:none;stroke:#000000;stroke-miterlimit:10;" width="36" height="41.5"/>
	<rect x="233.33" y="497.49" style="fill:none;stroke:#000000;stroke-miterlimit:10;" width="36" height="37.83"/>
	<rect x="233.33" y="535.32" style="fill:none;stroke:#000000;stroke-miterlimit:10;" width="36" height="33.67"/>
	<rect x="233.33" y="568.99" style="fill:none;stroke:#000000;stroke-miterlimit:10;" width="16" height="19"/>
	<polygon style="fill:none;stroke:#000000;stroke-miterlimit:10;" points="374.33,667.49 285.5,667.49 285.67,603.65 374.33,604.65 
			"/>
	<rect x="294.33" y="572.65" style="fill:none;stroke:#000000;stroke-miterlimit:10;" width="80" height="31"/>
	<polygon style="fill:none;stroke:#000000;stroke-miterlimit:10;" points="418,519.32 374.33,519.65 374.33,497.82 418,497.49 	"/>
	<rect x="374.33" y="519.32" style="fill:none;stroke:#000000;stroke-miterlimit:10;" width="43.67" height="34.67"/>
	<rect x="418" y="490.32" style="fill:none;stroke:#000000;stroke-miterlimit:10;" width="48.33" height="63.67"/>
	<polygon style="fill:none;stroke:#000000;stroke-miterlimit:10;" points="466.33,553.99 499.5,554.03 499.5,490.36 466.33,490.32 	
		"/>
	<rect x="304.93" y="398.99" style="fill:none;stroke:#000000;stroke-miterlimit:10;" width="69.4" height="58.33"/>
	<rect x="328.5" y="457.32" style="fill:none;stroke:#000000;stroke-miterlimit:10;" width="45.83" height="40.17"/>
	<polygon style="fill:none;stroke:#000000;stroke-miterlimit:10;" points="285.5,604.49 133.5,604.49 133.5,620.49 163.5,620.49 
		163.5,667.49 285.5,667.49 	"/>
	<polygon id="Elevator" style="fill:#B49F00;stroke:#000000;stroke-miterlimit:10;" points="191.5,289.49 166.62,289.49 
		166.88,265.71 191.5,265.32 	"/>
	<polygon id="Stairs" style="fill:#4c4c4c;stroke:#000000;stroke-miterlimit:10;" points="205,233.65 165.5,233.82 165.5,149.15 
		205,148.99 	"/>
	<polygon id="Stairs_1_" style="fill:#4c4c4c;stroke:#000000;stroke-miterlimit:10;" points="374.33,233.74 338.13,233.65 
		337.5,149.49 373.5,149.49 	"/>
	<rect x="374.33" y="584.32" style="fill:none;stroke:#000000;stroke-miterlimit:10;" width="37.83" height="83.17"/>
	<line style="fill:none;stroke:#000000;stroke-miterlimit:10;" x1="374.33" y1="553.99" x2="374.33" y2="572.65"/>
	<polygon id="Restrooms" style="fill:#00CCCC;stroke:#000000;stroke-miterlimit:10;" points="301,319.49 374,319.49 374.33,398.99 
		300.5,399.49 	"/>
	<line style="fill:none;stroke:#000000;stroke-miterlimit:10;" x1="337.42" y1="319.49" x2="337.42" y2="398.99"/>
	<rect x="345" y="265.32" style="fill:none;stroke:#000000;stroke-miterlimit:10;" width="29.33" height="38.67"/>
	<rect x="205" y="171.99" style="fill:none;stroke:#000000;stroke-miterlimit:10;" width="133.13" height="67.83"/>
	<rect x="67.5" y="240.99" style="fill:none;stroke:#000000;stroke-miterlimit:10;" width="91.5" height="24.33"/>
</g>
<g id="Rooms">
	<a id="R109" xlink:href="#" >
     <g><rect id="R109" x="220" y="265.32" style="fill:#993333;stroke:#000000;stroke-miterlimit:10;" width="29" height="29"/></g>
	</a>
	<a id="R110" xlink:href="#" >
     <g><rect id="R110" x="249" y="265.32" style="fill:#993333;stroke:#000000;stroke-miterlimit:10;" width="28.46" height="29"/></g>
	</a>
	<a id="R111" xlink:href="#" >
     <g><rect id="R111" x="249" y="294.32" style="fill:#993333;stroke:#000000;stroke-miterlimit:10;" width="28.46" height="29.67"/></g>
	</a>
	<a id="R114" xlink:href="#" >
     <g><rect id="R114" x="301" y="265.32" style="fill:#993333;stroke:#000000;stroke-miterlimit:10;" width="44" height="38.67"/></g>
	</a>
	<a id="R108" xlink:href="#" >
     <g><polygon id="R108" style="fill:#993333;stroke:#000000;stroke-miterlimit:10;" points="191.5,265.49 219.5,265.49 219.5,294.49 
		248.5,294.49 249,323.99 218.5,324.49 218.5,358.11 165.87,358.49 166.62,289.49 191.5,289.49 	"/></g>
	</a>
	<a id="R112" xlink:href="#" >
     <g><polygon id="R112" style="fill:#993333;stroke:#000000;stroke-miterlimit:10;" points="300.5,324.49 218.5,324.49 218.75,358.49 
		232.75,358.49 232.5,399.49 246.5,399.49 246.5,404.49 293.5,404.49 293.5,399.49 300.5,399.49 	"/></g>
	</a>
	<a id="R116" xlink:href="#" >
     <g><polygon id="R116" style="fill:#993333;stroke:#000000;stroke-miterlimit:10;" points="507,393.65 374.33,393.65 373.5,177.49 
		507,176.65 	"/></g>
	</a>
	<a id="R105" xlink:href="#" >
     <g><polygon id="R105" style="fill:#993333;stroke:#000000;stroke-miterlimit:10;" points="2.5,172.49 67.5,172.49 67.5,265.49 
		52.5,265.49 52.5,258.49 2.5,258.49 	"/></g>
	</a>
	<a id="R101" xlink:href="#" >
     <g><rect id="R101" x="205" y="171.99" style="fill:#993333;stroke:#000000;stroke-miterlimit:10;" width="29.5" height="67.83"/></g>
	</a>
	<a id="R102" xlink:href="#" >
     <g><rect id="R102" x="308.25" y="172.07" style="fill:#993333;stroke:#000000;stroke-miterlimit:10;" width="29.5" height="67.83"/></g>
	</a>
	<a id="R104" xlink:href="#" >
     <g><rect id="R104" x="67.5" y="172.49" style="fill:#993333;stroke:#000000;stroke-miterlimit:10;" width="97.33" height="68.5"/></g>
	</a>
	<a id="R106" xlink:href="#" >
     <g><polygon id="R106" style="fill:#993333;stroke:#000000;stroke-miterlimit:10;" points="166.88,265.71 165.5,394.49 0,394.49 
		0.5,310.49 18.5,310.49 18.17,258.49 52.5,258.49 52.5,265.49 	"/></g>
	</a>
</g>
<g id="Labels">
	<text transform="matrix(1 0 0 1 48.1623 21.413)" style="font-family:'OptimaLTStd'; font-size:25.7994px;">Volunteer State Community College </text>
	<text transform="matrix(1 0 0 1 124.1544 50.8741)" style="font-family:'OptimaLTStd'; font-size:25.7994px;">Wood Campus Center </text>
	<text transform="matrix(1 0 0 1 173.6501 81.8342)" style="font-family:'OptimaLTStd'; font-size:25.7994px;">FIRST FLOOR</text>
	<polyline id="swatch-pink" style="fill:#993333;" points="281.46,122.21 281.46,100.09 303.57,100.09 303.57,122.21 	"/>
	
		<text id="legend-offices" transform="matrix(1 0 0 1 308.9306 116.3754)" style="font-family:'OptimaLTStd'; font-size:16.5853px;">Offices</text>
	<polyline id="swatch-pink_2_" style="fill:#BF58BB;" points="30.57,122.21 30.57,100.09 52.68,100.09 52.68,122.21 	"/>
	<text id="legend-library" transform="matrix(1 0 0 1 56.83 116.3754)" style="font-family:'OptimaLTStd'; font-size:16.5853px;">Food Services/Dining Rooms</text>
	<polyline id="swatch-pink_1_" style="fill:#E8A874;" points="380.86,122.21 380.86,100.09 402.97,100.09 402.97,122.21 	"/>
	
		<text id="legend-library_1_" transform="matrix(1 0 0 1 407.1238 116.3766)" style="font-family:'OptimaLTStd'; font-size:16.5853px;">Bookstore</text>
	<text transform="matrix(1 0 0 1 19.5 218.9863)" style="fill:#FFFFFF; font-family:'MyriadPro-Regular'; font-size:18px;">105</text>
	<text transform="matrix(1 0 0 1 100.5 212.1526)" style="fill:#FFFFFF; font-family:'MyriadPro-Regular'; font-size:18px;">104</text>
	<text transform="matrix(1 0 0 1 424 284.653)" style="fill:#FFFFFF; font-family:'MyriadPro-Regular'; font-size:18px;">116</text>
	<text transform="matrix(1 0 0 1 308.5 291.153)" style="fill:#FFFFFF; font-family:'MyriadPro-Regular'; font-size:18px;">114</text>
	<text transform="matrix(1 0 0 1 253.5 369.9863)" style="fill:#FFFFFF; font-family:'MyriadPro-Regular'; font-size:18px;">112</text>
	<text transform="matrix(1 0 0 1 185.25 319.4863)" style="fill:#FFFFFF; font-family:'MyriadPro-Regular'; font-size:18px;">108</text>
	<text transform="matrix(1 0 0 1 221 285.153)" style="fill:#FFFFFF; font-family:'MyriadPro-Regular'; font-size:16px;">109</text>
	<text transform="matrix(1 0 0 1 250 285.153)" style="fill:#FFFFFF; font-family:'MyriadPro-Regular'; font-size:16px;">110</text>
	<text transform="matrix(1 0 0 1 250.5 314.9863)" style="fill:#FFFFFF; font-family:'MyriadPro-Regular'; font-size:16px;">111</text>
	<text transform="matrix(1 0 0 1 311 212.153)" style="fill:#FFFFFF; font-family:'MyriadPro-Regular'; font-size:16px;">102</text>
	<text transform="matrix(1 0 0 1 208 212.1526)" style="fill:#FFFFFF; font-family:'MyriadPro-Regular'; font-size:16px;">101</text>
	<polyline id="Stairs_4_" style="fill:none;stroke:#FFFFFF;stroke-miterlimit:10;" points="362.16,199.59 362.16,195.59 
		362.16,195.64 357.99,195.64 357.99,191.64 353.83,191.64 353.83,187.64 349.66,187.64 349.66,183.64 	"/>
	
		<text id="elevator" transform="matrix(1 0 0 1 172.7345 282.0778)" style="fill:#FFFFFF; font-family:'FontAwesome'; font-size:14px;"></text>
	
		<text id="male1_2_" transform="matrix(1 0 0 1 312.7671 364.4858)" style="fill:#FFFFFF; font-family:'FontAwesome'; font-size:22px;"></text>
	
		<text id="female2_1_" transform="matrix(1 0 0 1 347.7676 364.4865)" style="fill:#FFFFFF; font-family:'FontAwesome'; font-size:22px;"></text>
	<polyline id="Stairs_2_" style="fill:none;stroke:#FFFFFF;stroke-miterlimit:10;" points="191.5,199.59 191.5,195.59 191.5,195.64 
		187.33,195.64 187.33,191.64 183.17,191.64 183.17,187.64 179,187.64 179,183.64 	"/>
	<text transform="matrix(1 0 0 1 72.5 329.4863)" style="fill:#FFFFFF; font-family:'MyriadPro-Regular'; font-size:18px;">106</text>
</g>
<g id="Doors">
	<line id="R105_1_" style="fill:none;stroke:#00FF00;stroke-miterlimit:10;" x1="60.5" y1="246.99" x2="52.83" y2="233.82"/>
	<line id="R104_1_" style="fill:none;stroke:#00FF00;stroke-miterlimit:10;" x1="96" y1="235.99" x2="96" y2="224.99"/>
	<line id="R108_1_" style="fill:none;stroke:#00FF00;stroke-miterlimit:10;" x1="205" y1="269.99" x2="205" y2="284.65"/>
	<line id="R109_1_" style="fill:none;stroke:#00FF00;stroke-miterlimit:10;" x1="234.5" y1="269.99" x2="234.5" y2="279.82"/>
	<line id="R110_1_" style="fill:none;stroke:#00FF00;stroke-miterlimit:10;" x1="259.5" y1="269.99" x2="259.5" y2="279.82"/>
	<line id="R111_1_" style="fill:none;stroke:#00FF00;stroke-miterlimit:10;" x1="271.57" y1="309.15" x2="263.23" y2="309.15"/>
	<line id="R114_1_" style="fill:none;stroke:#00FF00;stroke-miterlimit:10;" x1="304.93" y1="286.49" x2="312.77" y2="286.49"/>
	<line id="R112_1_" style="fill:none;stroke:#00FF00;stroke-miterlimit:10;" x1="288.51" y1="329.49" x2="285.5" y2="338.99"/>
	<line id="R116_1_" style="fill:none;stroke:#00FF00;stroke-miterlimit:10;" x1="380" y1="253.15" x2="393.25" y2="253.15"/>
	<line id="R102_1_" style="fill:none;stroke:#00FF00;stroke-miterlimit:10;" x1="312.77" y1="206.74" x2="323" y2="206.74"/>
	<line id="R101_1_" style="fill:none;stroke:#00FF00;stroke-miterlimit:10;" x1="229.5" y1="205.9" x2="216" y2="206.74"/>
	<line id="R106_1_" style="fill:none;stroke:#00FF00;stroke-miterlimit:10;" x1="90.67" y1="273.65" x2="84.21" y2="286.76"/>
</g>
<g id="Portals">
	
		<line id="Stair.1.floor2" style="fill:none;stroke:#F15A24;stroke-miterlimit:10;" x1="185.25" y1="214.49" x2="185.25" y2="230.49"/>
	<line id="Elev.1.floor2" style="fill:none;stroke:#F15A24;stroke-miterlimit:10;" x1="179" y1="269.99" x2="179" y2="282.08"/>
</g>
<g id="Paths">
	<line style="fill:none;stroke:#FF00FF;stroke-miterlimit:10;" x1="185.25" y1="230.49" x2="185.25" y2="253.15"/>
	<line style="fill:none;stroke:#FF00FF;stroke-miterlimit:10;" x1="179" y1="269.99" x2="179" y2="253.15"/>
	<line style="fill:none;stroke:#FF00FF;stroke-miterlimit:10;" x1="185.25" y1="253.15" x2="179" y2="253.15"/>
	<line style="fill:none;stroke:#FF00FF;stroke-miterlimit:10;" x1="205" y1="269.99" x2="205" y2="253.15"/>
	<line style="fill:none;stroke:#FF00FF;stroke-miterlimit:10;" x1="185.25" y1="253.15" x2="205" y2="253.15"/>
	<line style="fill:none;stroke:#FF00FF;stroke-miterlimit:10;" x1="234.5" y1="269.99" x2="234.5" y2="253.15"/>
	<line style="fill:none;stroke:#FF00FF;stroke-miterlimit:10;" x1="205" y1="253.15" x2="234.5" y2="253.15"/>
	<line style="fill:none;stroke:#FF00FF;stroke-miterlimit:10;" x1="229.5" y1="205.9" x2="271.57" y2="205.9"/>
	<line style="fill:none;stroke:#FF00FF;stroke-miterlimit:10;" x1="312.77" y1="206.74" x2="271.57" y2="205.9"/>
	<line style="fill:none;stroke:#FF00FF;stroke-miterlimit:10;" x1="234.5" y1="253.15" x2="259.5" y2="253.15"/>
	<line style="fill:none;stroke:#FF00FF;stroke-miterlimit:10;" x1="259.5" y1="269.99" x2="259.5" y2="253.15"/>
	<line style="fill:none;stroke:#FF00FF;stroke-miterlimit:10;" x1="271.57" y1="205.9" x2="271.57" y2="253.15"/>
	<line style="fill:none;stroke:#FF00FF;stroke-miterlimit:10;" x1="259.5" y1="253.15" x2="271.57" y2="253.15"/>
	<line style="fill:none;stroke:#FF00FF;stroke-miterlimit:10;" x1="271.57" y1="309.15" x2="288.51" y2="309.15"/>
	<line style="fill:none;stroke:#FF00FF;stroke-miterlimit:10;" x1="288.51" y1="329.49" x2="288.51" y2="309.15"/>
	<line style="fill:none;stroke:#FF00FF;stroke-miterlimit:10;" x1="304.93" y1="286.49" x2="288.51" y2="286.49"/>
	<line style="fill:none;stroke:#FF00FF;stroke-miterlimit:10;" x1="288.51" y1="309.15" x2="288.51" y2="286.49"/>
	<line style="fill:none;stroke:#FF00FF;stroke-miterlimit:10;" x1="271.57" y1="253.15" x2="288.51" y2="253.15"/>
	<line style="fill:none;stroke:#FF00FF;stroke-miterlimit:10;" x1="288.51" y1="286.49" x2="288.51" y2="253.15"/>
	<line style="fill:none;stroke:#FF00FF;stroke-miterlimit:10;" x1="380" y1="253.15" x2="288.51" y2="253.15"/>
	<line style="fill:none;stroke:#FF00FF;stroke-miterlimit:10;" x1="96" y1="235.99" x2="96" y2="253.15"/>
	<line style="fill:none;stroke:#FF00FF;stroke-miterlimit:10;" x1="179" y1="253.15" x2="96" y2="253.15"/>
	<line style="fill:none;stroke:#FF00FF;stroke-miterlimit:10;" x1="60.5" y1="246.99" x2="96" y2="253.15"/>
	<line style="fill:none;stroke:#FF00FF;stroke-miterlimit:10;" x1="90.67" y1="273.65" x2="96" y2="253.15"/>
</g>
</svg>
