<?xml version="1.0" encoding="utf-8"?>
<!-- Generator: Adobe Illustrator 19.2.1, SVG Export Plug-In . SVG Version: 6.00 Build 0)  -->
<svg version="1.1" id="Layer_1" xmlns="http://www.w3.org/2000/svg" xmlns:xlink="http://www.w3.org/1999/xlink" x="0px" y="0px"
	 width="1000px" height="458px" viewBox="0 0 1000 458" style="enable-background:new 0 0 1000 458;" xml:space="preserve">
<g id="Rooms">
	<a id="R1" xlink:href="#" >
		<g><path id="R1" style="fill:none;" d="M475,239.11l54.67-22.25l4,2.04L590,197.28v-9l-60.67-32.33L515,161.61l-12.33,2.67
		c0,0-4.5-2.67-5.83-2.67c-1.33,0-27.83,8.67-27.83,8.67v8l14.67,10.67l-0.5,6.67l-38.17,14v8.67L475,239.11z"/></g>
	</a>
	<a id="R2" xlink:href="#" >
		<g><path id="R2" style="fill:none;" d="M447.42,165.61L447.42,165.61l-14.38-8.33l-9.69,3.96l-7.01-5.29l-17.34,7.67l-6.34-4.33
		l-1.33-3.33l-18-16.33l1.67-5.33l7.33-2.67c0,0,17.67-3.67,18-4.67c0.33-1,0-4,0-4l21-7l8,4.67l6.67-3.33l36.67,21.33l1,5.33
		l-3.5,2l6.83,4.67v5.67L447.42,165.61z"/></g>
	</a>
	<a id="R3" xlink:href="#" >
		<g><polygon id="R3" style="fill:none;" points="360.33,213.98 402,201.94 402,205.28 415.67,201.94 440.67,191.28 438.33,182.94 
		433.67,184.28 425.17,172.61 420.67,167.94 414,169.94 404,165.61 377,172.28 377,179.28 357,187.94 357,193.28 350.67,194.28 
		346.17,189.86 342,192.28 342,197.28 	"/></g>
	</a>
	<a id="R4" xlink:href="#" >
		<g><path id="R4" style="fill:none;" d="M526,134.28l19.33-7.33c0,0,5.83,4,7.5,3.67c1.67-0.33,30.17-10,30.17-10v-2.33l6.83-4.33
		l31.17,16v5.33l-10.67,5.5l-2-1.83l-26.67,7.67l0.67,5.67l-19.67,8.33c0,0-36-18.67-36.67-19.83S526,134.28,526,134.28z"/></g>
	</a>
	<a id="R5" xlink:href="#" >
		<g><path id="R5" style="fill:none;" d="M545,80.28v-7l18-6.33c0,0,16,6,17,6.67s10-3.33,10-3.33s2.67,3.67,4,3.33
		s9.5-3.67,9.5-3.67L633,82.28v10h-2l26,11v5l-30.33,11l-30.33-13.67l-6.33,2.33l-40.67-18.33l0.33-7L545,80.28z"/></g>
	</a>
	<a id="R6" xlink:href="#" >
		<g><path id="R6" style="fill:none;" d="M439.67,93.19c-0.33-2.5-0.17-9.88-0.17-9.88l11.25-3.35l9.62,4.99l68.31-18.01l2.49,11.66
		l2.82,1.41v13.25l-23,6.33l-19,4.67h-5l-10,4l-7.33-4.33l-12.33,4.33l-4-5.67L439.67,93.19z"/></g>
	</a>
	<a id="R7" xlink:href="#" >
		<g><path id="R7" style="fill:none;" d="M370.33,130.44c5,0,29.67-9.17,29.67-9.17v-2c0,0,34-9.33,34-11c0-1.67,0-10,0-10l-18.33-9
		L395,93.11l-6.33-1.83L379,93.11v4.17l-20.5,6l-12.5,5v9c0,0,16.33,15,17.33,13.17c1-1.83,3.67-3.5,3.67-3.5L370.33,130.44z"/></g>
	</a>
	<a id="R8" xlink:href="#" >
		<g><path id="R8" style="fill:none;" d="M340.5,63.78l20.58-4.42L388,74.61v5.67l-41.83,10.67c0,0-17.17-8.67-17.17-9.67s0-4,0-4
		l17-4.33l-7.33-6L340.5,63.78z"/></g>
	</a>
	<a id="R9" xlink:href="#" >
		<g><path id="R9" style="fill:none;" d="M416,61.28v-8l4.67-4.33l41.67-7l13,9.67c0,0,4,1.33,5.33,0c1.33-1.33,4.33,5.67,4.33,5.67
		l-40,13h-14L416,61.28z"/></g>
	</a>
	<a id="R10" xlink:href="#" >
		<g><polygon id="R10" style="fill:none;" points="497.3,63.78 526,56.11 526,51.28 508,39.28 502.67,41.94 481.33,33.61 
		463.33,38.28 464.42,43.49 485,57.28 	"/></g>
	</a>
	<a id="R11" xlink:href="#" >
		<g><path id="R11" style="fill:none;" d="M470,20.28c0,0,40-1,40,0v11l-28.67,2.33l-1.67-5.33l-7.33,0.67L470,20.28z"/></g>
	</a>
	<a id="R12" xlink:href="#" >
		<g><polygon id="R12" style="fill:none;" points="35.17,47.28 37.67,51.28 55,51.28 53,45.61 	"/></g>
	</a>
	<a id="R13" xlink:href="#" >
		<g><path id="R13" style="fill:none;" d="M81,154.28h20l2.67,6.33l-11.33,16.67H73l-8,8.67c0,0-12.33,2.33-12.67,1.33
		c-0.33-1-2.67-6.5-2.67-6.5l13.67-15.5H71L81,154.28z"/></g>
	</a>
	<a id="R14" xlink:href="#" >
		<g><path id="R14" style="fill:none;" d="M258.33,80.94c1.33,0,40.33-7.33,40.33-7.33l27.33,33l-46.67,9.33L258.33,80.94z"/></g>
	</a>
	<a id="R15" xlink:href="#" >
		<g><path id="R15" style="fill:none;" d="M326,45.61l20-7l6.33,15c0,0-20,6.83-20,5.75S326,45.61,326,45.61z"/></g>
	</a>
	<a id="R16" xlink:href="#" >
		<g><polygon id="R16" style="fill:none;" points="571,53.11 581.33,38.69 601,33.65 659.67,35.3 689,38.62 680.33,67.12 
		671.67,72.28 659,72.28 625.67,66.95 	"/></g>
	</a>
	<a id="R17" xlink:href="#" >
		<g><path id="R17" style="fill:none;" d="M34,339.94c81.67-35.67,173.4,1.83,161.67,38.33c-0.37,1.14-151,59-151,59l-17.33-2.33
		L34,339.94z"/></g>
	</a>
	<a id="R18" xlink:href="#" >
		<g><path id="R18" style="fill:none;" d="M791.5,62.03l10-2.5l-7-6.56l7-1.69l-8-6l-17,2.75l-12.75-4.5l-11.75,5l11.75,4.44
		l0.5,3.31c0,0,19.25,6,20.25,5.75s3-1.75,3-1.75L791.5,62.03z"/></g>
	</a>
	<a id="R19" xlink:href="#" >
		<g><path id="R19" style="fill:none;" d="M828,99.4c2,0,15.25,2.31,15.25,2.31s2.88-5.84,3.62-5.84s11.31,1.7,11.31,1.7l3.81-5.8
		v-2.5l-9.25-2H846l-4.75-3H834l-6,5V99.4z"/></g>
	</a>
	<a id="R20" xlink:href="#" >
		<g><path id="R20" style="fill:none;" d="M812.5,76.65c0,0,22.88,1.94,22.88,1.19S828,69.28,828,69.28h-18L812.5,76.65z"/></g>
	</a>
	<a id="R21" xlink:href="#" >
		<g><path id="R21" style="fill:none;" d="M856.38,78.14c0,0,23.31,8.2,24.31,8.2s12.31-4.2,12.31-4.2v-3.87l2.5-0.26
		c0,0,2.5,1.26,3.25,1.01S910,72.28,910,72.28l-18.25-10.24l-11.25,2.24l-8.5,5L856.38,78.14z"/></g>
	</a>
	<a id="R22" xlink:href="#" >
		<g><path id="R22" style="fill:none;" d="M866.25,62.66c0-2.51,0.75-5.95,0-6.7s-9.88-4.69-9.88-4.69H839l-8-3h-7l-17,9v3
		c0,0,18.5,7.08,19.25,6.67c0.75-0.42,14.5-6.42,14.5-6.42L866.25,62.66z"/></g>
	</a>
	<a id="R23" xlink:href="#" >
		<g><path id="R23" style="fill:none;" d="M467.5,117.53l74-24.42l42,18.92c0,0-80.42,30-80.83,28.75
		C502.25,139.53,467.5,117.53,467.5,117.53z"/></g>
	</a>
	<a id="R24" xlink:href="#" >
		<g><path id="R24" style="fill:none;" d="M512,160.61c0.75,0.42,16-7.33,16-7.33l-25.33-14.5L488,144.03L512,160.61z"/></g>
	</a>
</g>
<g id="Doors">
	<line id="lcd.1" style="fill:none;stroke:#00FF00;stroke-miterlimit:10;" x1="426.33" y1="212.94" x2="432.33" y2="207.61"/>
	<line id="R1" style="fill:none;stroke:#00FF00;stroke-miterlimit:10;" x1="486.33" y1="194.94" x2="500" y2="197.61"/>
	<line id="R2" style="fill:none;stroke:#00FF00;stroke-miterlimit:10;" x1="433" y1="154.94" x2="434.33" y2="146.36"/>
	<line id="R3" style="fill:none;stroke:#00FF00;stroke-miterlimit:10;" x1="422.33" y1="178.94" x2="408.33" y2="180.94"/>
	<line id="R4" style="fill:none;stroke:#00FF00;stroke-miterlimit:10;" x1="540.33" y1="144.28" x2="553" y2="138.28"/>
	<line id="R5" style="fill:none;stroke:#00FF00;stroke-miterlimit:10;" x1="598.27" y1="104.81" x2="608.93" y2="99.48"/>
	<line id="R6" style="fill:none;stroke:#00FF00;stroke-miterlimit:10;" x1="465.22" y1="101.61" x2="475.22" y2="94.94"/>
	<line id="R7" style="fill:none;stroke:#00FF00;stroke-miterlimit:10;" x1="429.33" y1="104.47" x2="420.67" y2="104.47"/>
	<line id="R8" style="fill:none;stroke:#00FF00;stroke-miterlimit:10;" x1="373" y1="78.94" x2="365" y2="74.28"/>
	<line id="R9" style="fill:none;stroke:#00FF00;stroke-miterlimit:10;" x1="447.06" y1="65.57" x2="447.73" y2="55.57"/>
	<line id="R10" style="fill:none;stroke:#00FF00;stroke-miterlimit:10;" x1="477.67" y1="54.28" x2="481.67" y2="48.28"/>
	<line id="R11" style="fill:none;stroke:#00FF00;stroke-miterlimit:10;" x1="482.33" y1="28.94" x2="482.33" y2="21.61"/>
	<line id="R12" style="fill:none;stroke:#00FF00;stroke-miterlimit:10;" x1="52" y1="51.28" x2="47.67" y2="45.61"/>
	<line id="R13" style="fill:none;stroke:#00FF00;stroke-miterlimit:10;" x1="98.24" y1="156.01" x2="84.58" y2="160.68"/>
	<line id="R14" style="fill:none;stroke:#00FF00;stroke-miterlimit:10;" x1="317" y1="106.94" x2="307" y2="101.61"/>
	<line id="R15" style="fill:none;stroke:#00FF00;stroke-miterlimit:10;" x1="343.67" y1="51.28" x2="331.33" y2="49.61"/>
	<line id="R16" style="fill:none;stroke:#00FF00;stroke-miterlimit:10;" x1="656.67" y1="69.94" x2="650" y2="59.78"/>
	<line id="R17" style="fill:none;stroke:#00FF00;stroke-miterlimit:10;" x1="154.67" y1="340.28" x2="141" y2="345.61"/>
	<line id="R18" style="fill:none;stroke:#00FF00;stroke-miterlimit:10;" x1="777.17" y1="58.53" x2="779.83" y2="47.61"/>
	<line id="R19" style="fill:none;stroke:#00FF00;stroke-miterlimit:10;" x1="825.67" y1="90.61" x2="834.67" y2="90.61"/>
	<line id="R20" style="fill:none;stroke:#00FF00;stroke-miterlimit:10;" x1="810" y1="72.28" x2="818" y2="74.11"/>
	<line id="R22" style="fill:none;stroke:#00FF00;stroke-miterlimit:10;" x1="825.33" y1="62.28" x2="823.33" y2="56.28"/>
	<line id="R21" style="fill:none;stroke:#00FF00;stroke-miterlimit:10;" x1="857" y1="74.11" x2="871.33" y2="74.11"/>
	<line id="R23" style="fill:none;stroke:#00FF00;stroke-miterlimit:10;" x1="527.33" y1="117.61" x2="519.17" y2="111.61"/>
	<line id="R24" style="fill:none;stroke:#00FF00;stroke-miterlimit:10;" x1="500.59" y1="147.15" x2="505.92" y2="141.98"/>
</g>
<g id="Paths">
	<line style="fill:none;stroke:#FF00FF;stroke-miterlimit:10;" x1="432.33" y1="207.61" x2="456" y2="188.94"/>
	<line style="fill:none;stroke:#FF00FF;stroke-miterlimit:10;" x1="486.33" y1="194.94" x2="456" y2="188.94"/>
	<line style="fill:none;stroke:#FF00FF;stroke-miterlimit:10;" x1="447.39" y1="174.28" x2="456" y2="188.94"/>
	<line style="fill:none;stroke:#FF00FF;stroke-miterlimit:10;" x1="422.33" y1="178.94" x2="447.39" y2="174.28"/>
	<line style="fill:none;stroke:#FF00FF;stroke-miterlimit:10;" x1="433" y1="154.94" x2="437.33" y2="169.61"/>
	<line style="fill:none;stroke:#FF00FF;stroke-miterlimit:10;" x1="447.39" y1="174.28" x2="437.33" y2="169.61"/>
	<line style="fill:none;stroke:#FF00FF;stroke-miterlimit:10;" x1="502" y1="153.94" x2="447.39" y2="174.28"/>
	<line style="fill:none;stroke:#FF00FF;stroke-miterlimit:10;" x1="540.33" y1="144.28" x2="510" y2="158.94"/>
	<line style="fill:none;stroke:#FF00FF;stroke-miterlimit:10;" x1="502" y1="153.94" x2="510" y2="158.94"/>
	<line style="fill:none;stroke:#FF00FF;stroke-miterlimit:10;" x1="483.25" y1="144.57" x2="502" y2="153.94"/>
	<line style="fill:none;stroke:#FF00FF;stroke-miterlimit:10;" x1="500.59" y1="147.15" x2="502" y2="153.94"/>
	<line style="fill:none;stroke:#FF00FF;stroke-miterlimit:10;" x1="495.67" y1="138.28" x2="483.25" y2="144.57"/>
	<line style="fill:none;stroke:#FF00FF;stroke-miterlimit:10;" x1="451.7" y1="111.61" x2="495.67" y2="138.28"/>
	<line style="fill:none;stroke:#FF00FF;stroke-miterlimit:10;" x1="465.22" y1="101.61" x2="451.7" y2="111.61"/>
	<line style="fill:none;stroke:#FF00FF;stroke-miterlimit:10;" x1="436.33" y1="104.28" x2="451.7" y2="111.61"/>
	<line style="fill:none;stroke:#FF00FF;stroke-miterlimit:10;" x1="429.33" y1="104.47" x2="436.33" y2="104.28"/>
	<line style="fill:none;stroke:#FF00FF;stroke-miterlimit:10;" x1="373" y1="78.94" x2="393" y2="94.11"/>
	<line style="fill:none;stroke:#FF00FF;stroke-miterlimit:10;" x1="436.33" y1="104.28" x2="418" y2="90.61"/>
	<line style="fill:none;stroke:#FF00FF;stroke-miterlimit:10;" x1="393" y1="94.11" x2="418" y2="90.61"/>
	<line style="fill:none;stroke:#FF00FF;stroke-miterlimit:10;" x1="447.06" y1="65.57" x2="438" y2="86.11"/>
	<line style="fill:none;stroke:#FF00FF;stroke-miterlimit:10;" x1="418" y1="90.61" x2="438" y2="86.11"/>
	<line style="fill:none;stroke:#FF00FF;stroke-miterlimit:10;" x1="477.67" y1="54.28" x2="493.17" y2="72.28"/>
	<line style="fill:none;stroke:#FF00FF;stroke-miterlimit:10;" x1="438" y1="86.11" x2="493.17" y2="72.28"/>
	<line style="fill:none;stroke:#FF00FF;stroke-miterlimit:10;" x1="495.67" y1="138.28" x2="533.67" y2="125.94"/>
	<line style="fill:none;stroke:#FF00FF;stroke-miterlimit:10;" x1="527.33" y1="117.61" x2="533.67" y2="125.94"/>
	<line style="fill:none;stroke:#FF00FF;stroke-miterlimit:10;" x1="598.27" y1="104.81" x2="581.33" y2="111.61"/>
	<line style="fill:none;stroke:#FF00FF;stroke-miterlimit:10;" x1="533.67" y1="125.94" x2="581.33" y2="111.61"/>
	<line style="fill:none;stroke:#FF00FF;stroke-miterlimit:10;" x1="482.33" y1="28.94" x2="528.33" y2="56.28"/>
	<line style="fill:none;stroke:#FF00FF;stroke-miterlimit:10;" x1="493.17" y1="72.28" x2="528.33" y2="56.28"/>
	<line style="fill:none;stroke:#FF00FF;stroke-miterlimit:10;" x1="437.33" y1="169.61" x2="317" y2="106.94"/>
	<line style="fill:none;stroke:#FF00FF;stroke-miterlimit:10;" x1="418" y1="90.61" x2="343.67" y2="51.28"/>
	<line style="fill:none;stroke:#FF00FF;stroke-miterlimit:10;" x1="777.17" y1="58.53" x2="765" y2="88.36"/>
	<line style="fill:none;stroke:#FF00FF;stroke-miterlimit:10;" x1="810" y1="72.28" x2="765" y2="88.36"/>
	<line style="fill:none;stroke:#FF00FF;stroke-miterlimit:10;" x1="825.33" y1="62.28" x2="765" y2="88.36"/>
	<line style="fill:none;stroke:#FF00FF;stroke-miterlimit:10;" x1="825.67" y1="90.61" x2="765" y2="88.36"/>
	<line style="fill:none;stroke:#FF00FF;stroke-miterlimit:10;" x1="857" y1="74.11" x2="765" y2="88.36"/>
	<line style="fill:none;stroke:#FF00FF;stroke-miterlimit:10;" x1="702.33" y1="102.14" x2="765" y2="88.36"/>
	<line style="fill:none;stroke:#FF00FF;stroke-miterlimit:10;" x1="656.67" y1="69.94" x2="702.33" y2="102.14"/>
	<line style="fill:none;stroke:#FF00FF;stroke-miterlimit:10;" x1="567.33" y1="176.61" x2="653.33" y2="143.94"/>
	<line style="fill:none;stroke:#FF00FF;stroke-miterlimit:10;" x1="620.67" y1="125.94" x2="653.33" y2="143.94"/>
	<line style="fill:none;stroke:#FF00FF;stroke-miterlimit:10;" x1="702.33" y1="102.14" x2="620.67" y2="125.94"/>
	<line style="fill:none;stroke:#FF00FF;stroke-miterlimit:10;" x1="510" y1="158.94" x2="529" y2="156.44"/>
	<line style="fill:none;stroke:#FF00FF;stroke-miterlimit:10;" x1="567.33" y1="176.61" x2="529" y2="156.44"/>
	<line style="fill:none;stroke:#FF00FF;stroke-miterlimit:10;" x1="154.67" y1="340.28" x2="353.33" y2="222.94"/>
	<line style="fill:none;stroke:#FF00FF;stroke-miterlimit:10;" x1="432.33" y1="207.61" x2="381" y2="211.61"/>
	<line style="fill:none;stroke:#FF00FF;stroke-miterlimit:10;" x1="353.33" y1="222.94" x2="381" y2="211.61"/>
	<line style="fill:none;stroke:#FF00FF;stroke-miterlimit:10;" x1="98.24" y1="156.01" x2="293.67" y2="144.57"/>
	<line style="fill:none;stroke:#FF00FF;stroke-miterlimit:10;" x1="293.67" y1="200.28" x2="293.67" y2="144.57"/>
	<line style="fill:none;stroke:#FF00FF;stroke-miterlimit:10;" x1="353.33" y1="222.94" x2="326.33" y2="196.28"/>
	<line style="fill:none;stroke:#FF00FF;stroke-miterlimit:10;" x1="293.67" y1="200.28" x2="326.33" y2="196.28"/>
	<line style="fill:none;stroke:#FF00FF;stroke-miterlimit:10;" x1="52" y1="51.28" x2="15.33" y2="125.94"/>
	<line style="fill:none;" x1="98.24" y1="156.01" x2="15.33" y2="125.94"/>
</g>
</svg>
