<?xml version="1.0" encoding="utf-8"?>
<!-- Generator: Adobe Illustrator 19.2.1, SVG Export Plug-In . SVG Version: 6.00 Build 0)  -->
<svg version="1.1" id="Layer_1" xmlns="http://www.w3.org/2000/svg" xmlns:xlink="http://www.w3.org/1999/xlink" x="0px" y="0px"
	 width="387.14px" height="150.92px" viewBox="0 0 387.14 150.92" style="enable-background:new 0 0 387.14 150.92;"
	 xml:space="preserve">
<g>
	<defs>
		<rect id="SVGID_1_" x="-113.51" y="-320.12" width="612" height="792"/>
	</defs>
	<clipPath id="SVGID_2_">
		<use xlink:href="#SVGID_1_"  style="overflow:visible;"/>
	</clipPath>
	<path style="clip-path:url(#SVGID_2_);fill:#A41F35;" d="M116.13,119.19h271.01V0H116.13V119.19z M325.31,10.07l-1.02,5.04h-14.3
		l-1.45,6.57h13.87l-1.11,5.17h-13.87l-1.71,7.9h14.26l-1.11,5.2h-19.97l6.45-29.88H325.31z M280.97,10.07h22.44l-1.11,5.59h-8.24
		l-5.33,24.29h-5.72l5.33-24.29h-8.58L280.97,10.07z M258.85,10.07l9.82,21.86l4.73-21.86h5.72l-6.49,29.88h-5.68l-9.99-21.26
		l-4.6,21.26h-5.68l6.44-29.88H258.85z M218.99,32.22l4.74-22.15h5.72l-4.44,20.49c-0.13,0.6-0.22,1.19-0.22,1.84
		c0,2.81,3.5,2.43,5.47,2.43c1.62,0,3.25-0.05,4.87-0.05c3.37,0,3.76-1.83,4.35-4.69l4.31-20.02h5.72l-5.16,23.86
		c-1.07,4.95-2.39,6.02-7.39,6.02c-2.86,0-5.67,0.09-8.49,0.09c-3.89,0-9.86,0.81-9.86-4.74C218.6,34.27,218.78,33.2,218.99,32.22
		 M212.25,10.07l-5.3,24.54h10.24l-1.15,5.34h-15.96l6.45-29.88H212.25z M183.06,10.07c2.85,0,5.72-0.08,8.58-0.08
		c1.7,0,3.41,0.04,5.12,0.12c2.82,0.17,4.87,0.73,4.87,4.01c0,1.16-0.21,2.31-0.47,3.46l-3.54,16.48c-1.07,5-2.94,5.89-7.85,5.89
		c-2.86,0-5.76,0.09-8.66,0.09c-4.39,0-10.2,1.8-10.2-5.04c0-0.77,0.13-1.58,0.3-2.31l3.54-16.3
		C175.88,11.13,177.89,10.07,183.06,10.07 M153.31,10.07l2.16,23.96l13.8-23.96h5.72l-16.8,29.88h-7.87l-2.65-29.88H153.31z
		 M197.47,112.53l11.65-53.03h-17.06h-0.93l0,0l-26.17-0.1c-6.52,0-11,3.17-11,10.17c0,3.35,2.52,3.91,5.31,4.1
		c4.19,0.19,8.39-0.1,12.67-0.1c8.39,0,14.73,2.05,14.73,11.84c0,5.49-2.15,12.39-5.04,17.05c-5.41,8.48-11.46,10.06-21.06,10.06
		h-28.52l2.61-12.02h23.95c8.58,0,15.01-1.87,15.01-12.12c0-5.68-12.31-3.82-16.12-3.82c-9.6,0-15.93-3.08-15.93-13.89
		c0-4.19,1.02-8.86,3.17-12.49c5.59-9.51,11.18-10.91,21.62-10.91h27.37h0.84h47.44l-2.43,12.21H221.6l-11.65,53.03H197.47z
		 M261.56,112.53l-1.3-15.09h-23.31l-7.83,15.09h-12.48l33.83-65.24h18.08l5.49,65.24H261.56z M292.76,112.53h-12.49l11.64-53.03
		h-17.98l2.61-12.21h48.27l-2.42,12.21h-17.99L292.76,112.53z M370.38,58.29h-31.22L336,72.64h30.28l-2.42,11.27h-30.28l-3.73,17.24
		h31.12l-2.42,11.37h-43.61l14.07-65.24h43.62L370.38,58.29z M375.08,20.61c-1.88,5.85-5.93,6.74-11.44,6.74l7.82,12.59h-5.72
		l-8.79-13.7l0.81-3.84c1.4,0,2.81,0.13,4.22,0.13c3.46,0,8.02-0.43,8.02-5c0-2.82-4.77-2.39-6.61-2.39c-2.1,0-4.23,0.08-6.32,0.08
		l-5.34,24.72h-5.1h-0.61h-23.56l6.44-29.88h19.98l-1.03,5.04h-14.3l-1.45,6.57h13.86l-1.11,5.17h-13.87l-1.7,7.9h17.85l5.32-24.68
		c3.45,0,6.91-0.08,10.37-0.08c5.93,0,12.68-0.47,12.68,7.64C375.5,18.61,375.37,19.67,375.08,20.61"/>
	<path style="clip-path:url(#SVGID_2_);fill:#A41F35;" d="M182.5,35.09c1.79,0,3.58-0.05,5.37-0.05c4.23,0,3.93-0.43,4.78-4.39
		l2.64-12.21c0.17-0.73,0.35-1.45,0.35-2.22c0-1.58-4.06-1.2-5.17-1.2c-2.26,0-4.52,0.08-6.75,0.08c-3.15,0-3.15,0.38-3.8,3.41
		l-2.56,12.13c-0.17,0.89-0.47,1.79-0.47,2.73C176.91,35.64,180.88,35.09,182.5,35.09"/>
	<polygon style="clip-path:url(#SVGID_2_);fill:#A41F35;" points="242.93,85.97 259.33,85.97 257.09,58.66 	"/>
	<path style="clip-path:url(#SVGID_2_);fill:#A41F35;" d="M116.13,150.85h271.01v-26.68H116.13V150.85z M139.42,144.44
		c2.01,0,3.49-1.14,4.29-1.76l0.08,0.08l-0.19,1.25c-0.53,0.42-2.29,1.21-4.4,1.21c-4.46,0-7.72-2.77-7.72-7.58
		c0-4.8,3.26-7.57,7.94-7.57c1.82,0,3.45,0.44,4.59,0.97c-0.21,0.38-0.36,1.21-0.44,1.65l-0.13,0.04c-0.59-0.65-2.03-1.88-4.02-1.88
		c-3.32,0-5.86,2.09-5.86,6.79C133.56,142.34,136.1,144.44,139.42,144.44 M153.52,145.22c-4.65,0-7.91-2.77-7.91-7.58
		c0-4.8,3.26-7.57,7.91-7.57c4.68,0,7.94,2.77,7.94,7.57C161.46,142.45,158.2,145.22,153.52,145.22 M179.16,144.84
		c-0.34,0-0.66,0.04-0.99,0.11c-0.3-3.79-0.6-7.3-1.04-10.92h-0.04c-1.93,3.53-3.87,7-5.54,10.81h-0.19
		c-1.65-3.51-3.6-7.15-5.44-10.81h-0.04c-0.4,3.49-0.99,8.53-1.02,10.92c-0.25-0.06-0.49-0.11-0.74-0.11
		c-0.25,0-0.48,0.04-0.74,0.11c0.74-4.67,1.59-10.39,2.05-14.87h0.36c1.93,3.98,3.92,7.7,6.07,11.66c0.85-1.65,4.21-7.74,6.29-11.66
		h0.28c0.63,5.42,1.06,10.03,1.73,14.87C179.81,144.88,179.49,144.84,179.16,144.84 M197.98,144.84c-0.34,0-0.65,0.04-0.99,0.11
		c-0.3-3.79-0.59-7.3-1.04-10.92h-0.04c-1.93,3.53-3.87,7-5.54,10.81h-0.19c-1.65-3.51-3.6-7.15-5.44-10.81h-0.04
		c-0.4,3.49-0.99,8.53-1.01,10.92c-0.26-0.06-0.49-0.11-0.74-0.11c-0.26,0-0.49,0.04-0.74,0.11c0.74-4.67,1.59-10.39,2.05-14.87
		h0.36c1.92,3.98,3.91,7.7,6.07,11.66c0.85-1.65,4.21-7.74,6.29-11.66h0.28c0.63,5.42,1.06,10.03,1.73,14.87
		C198.63,144.88,198.31,144.84,197.98,144.84 M214.09,139.13c-0.04,3.74-2.22,6.09-6.03,6.09c-4.19,0-6.05-1.95-6.05-6.05
		c0-1.31,0.11-2.29,0.11-3.34c0-2.33-0.08-4.26-0.12-5.48c0.34,0.06,0.76,0.11,1.1,0.11c0.29,0,0.63-0.04,0.91-0.11
		c-0.12,1.25-0.25,4.13-0.25,7.26c0,2.88,0,6.62,4.72,6.62c4.64,0,4.64-4.34,4.64-7c0-4.02,0-6.05-0.13-6.88
		c0.28,0.06,0.57,0.11,0.87,0.11c0.21,0,0.45-0.04,0.64-0.11C214.3,132.31,214.13,136.04,214.09,139.13 M230.75,145.22h-0.3
		c-3.22-3.79-7.07-7.85-10.69-11.7c-0.02,0.78-0.06,2.05-0.06,4.29c0,1.82,0.08,6.29,0.19,7.13c-0.23-0.06-0.49-0.11-0.74-0.11
		c-0.25,0-0.51,0.04-0.78,0.11c0.17-0.99,0.44-6.41,0.44-9.2c0-2.67,0-4.72-0.07-5.67h0.34c3.45,3.74,8.12,8.84,10.71,11.45
		c0-3.79,0-7.91-0.17-11.17c0.24,0.06,0.49,0.11,0.72,0.11c0.24,0,0.45-0.04,0.68-0.11c-0.13,1.25-0.34,5.44-0.34,7.09
		C230.69,139.59,230.73,144.27,230.75,145.22 M236.91,144.95c-0.36-0.06-0.7-0.11-1.04-0.11c-0.34,0-0.68,0.04-1.03,0.11
		c0.08-1.82,0.17-3.66,0.17-5.48v-3.64c0-1.82-0.09-3.66-0.17-5.48c0.36,0.06,0.7,0.11,1.03,0.11c0.34,0,0.68-0.04,1.04-0.11
		c-0.08,1.82-0.17,3.66-0.17,5.48v3.64C236.74,141.29,236.83,143.13,236.91,144.95 M250.16,131.68c-1.18-0.15-3.07-0.23-4.53-0.23
		c-0.04,1.46-0.06,2.92-0.06,4.38v3.64c0,1.82,0.08,3.66,0.17,5.48c-0.36-0.06-0.7-0.11-1.03-0.11c-0.34,0-0.68,0.04-1.04,0.11
		c0.08-1.82,0.17-3.66,0.17-5.48v-3.64c0-1.46-0.02-2.92-0.06-4.38c-1.46,0-3.34,0.08-4.53,0.23c0.07-0.21,0.11-0.45,0.11-0.68
		c0-0.21-0.04-0.42-0.11-0.65c1.82,0.06,3.64,0.11,5.46,0.11c1.82,0,3.64-0.04,5.46-0.11c-0.07,0.23-0.11,0.45-0.11,0.68
		C250.06,131.23,250.1,131.47,250.16,131.68 M258.1,144.95c-0.36-0.06-0.7-0.11-1.04-0.11c-0.34,0-0.67,0.04-1.04,0.11
		c0.17-1.5,0.17-3.74,0.17-6.01c-0.85-1.46-4.25-7.26-5.15-8.59c0.38,0.06,0.78,0.11,1.17,0.11c0.38,0,0.78-0.04,1.16-0.11
		c1.23,2.41,2.56,4.8,4.02,7.32c1.31-2.05,2.86-4.91,4-7.32c0.28,0.06,0.55,0.11,0.83,0.11c0.27,0,0.55-0.04,0.83-0.11
		c-2.69,4.13-4.21,6.58-5.12,8.36C257.93,140.78,258,143.63,258.1,144.95 M280.47,144.42c2.07,0,3.59-1.17,4.41-1.81l0.09,0.09
		l-0.2,1.28c-0.54,0.44-2.35,1.24-4.52,1.24c-4.59,0-7.94-2.85-7.94-7.78c0-4.94,3.35-7.78,8.15-7.78c1.87,0,3.54,0.45,4.72,1
		c-0.21,0.39-0.37,1.24-0.45,1.7l-0.13,0.05c-0.61-0.68-2.09-1.94-4.13-1.94c-3.42,0-6.02,2.15-6.02,6.98
		C274.44,142.27,277.05,144.42,280.47,144.42 M294.95,145.22c-4.79,0-8.14-2.85-8.14-7.78c0-4.94,3.35-7.78,8.14-7.78
		c4.8,0,8.15,2.85,8.15,7.78C303.11,142.38,299.76,145.22,294.95,145.22 M314,144.94c-1.33-0.06-2.67-0.11-4-0.11
		c-1.34,0-2.67,0.04-4.02,0.11c0.08-1.87,0.17-3.76,0.17-5.63v-3.74c0-1.87-0.09-3.76-0.17-5.63c0.37,0.07,0.71,0.11,1.06,0.11
		c0.35,0,0.7-0.04,1.07-0.11c-0.09,1.87-0.17,3.76-0.17,5.63c0,3.65,0.04,6.22,0.07,8.35c2.04,0,3.83,0,6-0.28
		c-0.06,0.22-0.11,0.43-0.11,0.65C313.89,144.5,313.94,144.72,314,144.94 M324.88,144.94c-1.33-0.06-2.67-0.11-4-0.11
		c-1.35,0-2.68,0.04-4.03,0.11c0.09-1.87,0.18-3.76,0.18-5.63v-3.74c0-1.87-0.09-3.76-0.18-5.63c0.37,0.07,0.72,0.11,1.07,0.11
		c0.35,0,0.7-0.04,1.07-0.11c-0.09,1.87-0.18,3.76-0.18,5.63c0,3.65,0.04,6.22,0.07,8.35c2.05,0,3.83,0,6-0.28
		c-0.07,0.22-0.11,0.43-0.11,0.65C324.77,144.5,324.81,144.72,324.88,144.94 M335.6,144.94c-1.29-0.06-2.59-0.11-3.92-0.11
		c-1.33,0-2.63,0.04-3.96,0.11c0.09-1.89,0.18-3.78,0.18-5.65v-3.74c0-1.87-0.09-3.76-0.18-5.61c1.31,0.07,2.59,0.11,3.89,0.11
		c1.3,0,2.59-0.04,3.87-0.11c-0.04,0.22-0.07,0.44-0.07,0.65c0,0.22,0.02,0.43,0.07,0.65c-1.83-0.13-2.89-0.28-5.72-0.28
		c-0.02,0.93-0.09,1.69-0.09,2.76c0,1.13,0.02,2.33,0.02,2.87c2.57,0,4-0.11,5.28-0.22c-0.04,0.22-0.06,0.45-0.06,0.67
		s0.02,0.44,0.06,0.65c-1.5-0.15-4.24-0.2-5.28-0.2c-0.02,0.52-0.02,1.07-0.02,3.16c0,1.65,0.02,2.72,0.04,3.26
		c1.93,0,4.5-0.02,5.87-0.28c-0.05,0.2-0.07,0.48-0.07,0.67C335.53,144.5,335.56,144.74,335.6,144.94 M346.56,144.31
		c1.24,0,2.74-0.24,3.48-0.7c0.02-0.87,0.04-1.74,0.04-2.63c0-1.02-0.06-2.06-0.11-2.98c0.28,0.07,0.7,0.11,1.04,0.11
		c0.33,0,0.65-0.02,0.93-0.11c-0.04,0.65-0.09,2.07-0.09,4.41c0,0.57,0.02,1.18,0.02,1.76c-1.24,0.43-3.85,1.05-5.55,1.05
		c-5.17,0-8.39-2.7-8.39-7.78c0-4.94,3.35-7.78,8.5-7.78c2.93,0,4.52,0.72,5.55,1.26c-0.22,0.39-0.43,1.13-0.5,1.67h-0.26
		c-0.89-1.07-2.59-2.13-4.78-2.13c-3.61,0-6.37,2.15-6.37,6.98C340.08,141.7,342.47,144.31,346.56,144.31 M363.4,144.94
		c-1.28-0.06-2.59-0.11-3.91-0.11c-1.33,0-2.63,0.04-3.96,0.11c0.09-1.89,0.17-3.78,0.17-5.65v-3.74c0-1.87-0.09-3.76-0.17-5.61
		c1.31,0.07,2.59,0.11,3.89,0.11s2.59-0.04,3.87-0.11c-0.04,0.22-0.07,0.44-0.07,0.65c0,0.22,0.02,0.43,0.07,0.65
		c-1.83-0.13-2.89-0.28-5.72-0.28c-0.02,0.93-0.09,1.69-0.09,2.76c0,1.13,0.02,2.33,0.02,2.87c2.57,0,4-0.11,5.28-0.22
		c-0.04,0.22-0.07,0.45-0.07,0.67s0.02,0.44,0.07,0.65c-1.5-0.15-4.24-0.2-5.28-0.2c-0.02,0.52-0.02,1.07-0.02,3.16
		c0,1.65,0.02,2.72,0.04,3.26c1.93,0,4.5-0.02,5.87-0.28c-0.04,0.2-0.07,0.48-0.07,0.67C363.33,144.5,363.35,144.74,363.4,144.94"/>
	<path style="clip-path:url(#SVGID_2_);fill:#A41F35;" d="M153.52,130.85c-3.3,0-5.84,2.09-5.84,6.79c0,4.7,2.54,6.79,5.84,6.79
		c3.32,0,5.86-2.1,5.86-6.79C159.38,132.95,156.84,130.85,153.52,130.85"/>
	<path style="clip-path:url(#SVGID_2_);fill:#A41F35;" d="M294.95,130.46c-3.39,0-6,2.15-6,6.98s2.61,6.98,6,6.98
		c3.41,0,6.02-2.15,6.02-6.98S298.36,130.46,294.95,130.46"/>
</g>
<g>
	<defs>
		<path id="SVGID_3_" d="M24.08,0.06C10.78,0.06,0,10.84,0,24.14v102.71c0,13.3,10.78,24.08,24.08,24.08h87.76
			c13.3,0,24.08-10.78,24.08-24.08V24.14c0-13.3-10.78-24.08-24.08-24.08H24.08z"/>
	</defs>
	<clipPath id="SVGID_4_">
		<use xlink:href="#SVGID_3_"  style="overflow:visible;"/>
	</clipPath>
	<path style="clip-path:url(#SVGID_4_);fill:#001A71;" d="M36.08,69.19c6.74,7.75,13.87,15.62,15.47,29.29
		c2.73,23.37-6.94,40.49-6.94,40.49c7.05-3.02,34.51-30.61,31.52-63.59c-0.89-9.87-4.21-17.27-8-23.55h41.42V-0.04H53.03
		c-2.49,5.58-4.28,12.15-4.25,19.45c0.08,23.18,20.73,30.12,23.11,56.35c2.84,31.29-22.1,57.43-22.1,57.43s7.07-15.77,5.39-37.47
		c-1.85-23.87-24.21-30.28-28.31-50.47c-4.46-21.96,14.1-39.91,14.1-39.91S30.73,21.45,34.72,38.9
		c3.27,14.28,9.89,18.73,19.65,32.27c11.45,15.89,6.69,34.55,6.69,34.55s5.32-10.89,3.24-24.43c-3.82-24.89-31.25-32.5-24.55-65.21
		c1.29-6.31,3.53-11.64,6.18-16.13H-3.51v51.87h27.88C27.08,58.82,31.63,64.08,36.08,69.19"/>
	<polygon style="clip-path:url(#SVGID_4_);fill:#001A71;" points="-3.51,150.93 41.45,150.93 -3.51,72.15 	"/>
	<polygon style="clip-path:url(#SVGID_4_);fill:#001A71;" points="109.55,69.79 63.26,150.93 109.55,150.93 	"/>
</g>
</svg>
